<svg xmlns="http://www.w3.org/2000/svg" version="1.1" xmlns:xlink="http://www.w3.org/1999/xlink" xmlns:svgjs="http://svgjs.com/svgjs" width="1440" height="560" preserveAspectRatio="none" viewBox="0 0 1440 560"><g mask="url(&quot;#SvgjsMask1076&quot;)" fill="none"><rect width="1440" height="560" x="0" y="0" fill="rgba(175, 187, 195, 1)"></rect><path d="M0,381.928C75.674,386.455,158.538,386.496,218.98,340.739C278.397,295.758,280.984,210.18,314.676,143.708C350.227,73.568,426.351,17.797,422.472,-60.742C418.564,-139.869,353.403,-202.1,294.955,-255.58C241.089,-304.867,173.751,-332.598,103.525,-352.574C33.81,-372.405,-40.649,-395.195,-108.764,-370.418C-175.646,-346.089,-205.276,-271.75,-255.976,-221.804C-312.205,-166.411,-419.538,-139.677,-423.033,-60.823C-426.634,20.428,-312.381,53.706,-271.298,123.898C-236.325,183.651,-252.934,267.796,-202.766,315.51C-150.165,365.539,-72.463,377.593,0,381.928" fill="#94a4ae"></path><path d="M1440 901.318C1519.188 895.642 1601.372 957.0640000000001 1672.4569999999999 921.711 1743.922 886.169 1760.863 794.157 1797.767 723.386 1836.892 648.355 1918.5439999999999 575.888 1895.204 494.552 1871.257 411.101 1757.423 397.669 1688.974 344.262 1636.654 303.439 1597.651 251.486 1540.484 217.784 1467.63 174.834 1393.611 102.28699999999998 1311.272 121.59100000000001 1229.445 140.77499999999998 1202.829 243.38299999999998 1150.56 309.199 1100.9270000000001 371.696 1031.059 420.966 1011.976 498.459 992.094 579.197 1014.9100000000001 662.928 1044.299 740.711 1075.297 822.7529999999999 1103.829 923.6610000000001 1185.093 956.644 1267.323 990.019 1351.482 907.663 1440 901.318" fill="#cbd2d8"></path></g><defs><mask id="SvgjsMask1076"><rect width="1440" height="560" fill="#ffffff"></rect></mask></defs></svg>