<svg width="80" height="64" viewBox="0 0 80 64" fill="none" xmlns="http://www.w3.org/2000/svg">
<path d="M1.5 51L6.58222 9.66L18.5 36L28.0489 9.66L38 63" stroke="white" stroke-width="2.86222"/>
<path d="M32.6346 22H32.3466L39.5226 5.2L39.7866 5.08L45.8346 22H43.7946L41.9226 16.72H34.9146L32.6346 22ZM38.7786 7.792L35.0106 16.48H41.8506L38.7786 7.792ZM63.3846 22H63.0966L70.2726 5.2L70.5366 5.08L76.5846 22H74.5446L72.6726 16.72H65.6646L63.3846 22ZM69.5286 7.792L65.7606 16.48H72.6006L69.5286 7.792Z" fill="white"/>
<path d="M47.0298 14.008C47.0298 11.096 47.7338 8.888 49.1418 7.384C50.5658 5.864 52.3898 5.104 54.6138 5.104C56.8378 5.104 58.6058 5.76 59.9178 7.072C61.2458 8.384 61.9098 10.48 61.9098 13.36C61.9098 16.24 61.2058 18.416 59.7978 19.888C58.3898 21.36 56.5098 22.096 54.1578 22.096C52.1258 22.096 50.4618 21.512 49.1658 20.344C48.4938 19.736 47.9658 18.896 47.5818 17.824C47.2138 16.736 47.0298 15.464 47.0298 14.008ZM54.5418 5.344C52.9258 5.344 51.5978 6.064 50.5578 7.504C49.5338 8.944 49.0218 11.056 49.0218 13.84C49.0218 16.624 49.5098 18.656 50.4858 19.936C51.4618 21.216 52.7578 21.856 54.3738 21.856C56.0058 21.856 57.3338 21.136 58.3578 19.696C59.3978 18.24 59.9178 16.136 59.9178 13.384C59.9178 10.616 59.4218 8.584 58.4298 7.288C57.4538 5.992 56.1578 5.344 54.5418 5.344Z" fill="#0B14F5"/>
<rect x="33" y="23" width="44" height="2" fill="#0B14F5"/>
<path d="M38.1836 31.1758C38.0169 31.3451 37.8529 31.4896 37.6914 31.6094C37.5299 31.7292 37.3698 31.8268 37.2109 31.9023C37.0521 31.9779 36.8958 32.0326 36.7422 32.0664C36.5885 32.1003 36.4375 32.1172 36.2891 32.1172C36.026 32.1172 35.7695 32.0625 35.5195 31.9531C35.2721 31.8438 35.0508 31.6862 34.8555 31.4805C34.6628 31.2747 34.5078 31.0234 34.3906 30.7266C34.2734 30.4271 34.2148 30.0885 34.2148 29.7109C34.2148 29.2943 34.2786 28.9167 34.4062 28.5781C34.5339 28.2396 34.7096 27.9505 34.9336 27.7109C35.1576 27.4688 35.4206 27.2826 35.7227 27.1523C36.0247 27.0221 36.3503 26.9583 36.6992 26.9609C36.8398 26.9609 36.9792 26.9714 37.1172 26.9922C37.2552 27.013 37.3867 27.0417 37.5117 27.0781C37.6367 27.112 37.75 27.1523 37.8516 27.1992C37.9557 27.2461 38.0417 27.2969 38.1094 27.3516C38.1198 27.3594 38.1185 27.3828 38.1055 27.4219C38.0951 27.4609 38.0781 27.5078 38.0547 27.5625C38.0312 27.6172 38.0026 27.6771 37.9688 27.7422C37.9375 27.8047 37.9049 27.8659 37.8711 27.9258C37.8372 27.9831 37.8047 28.0352 37.7734 28.082C37.7448 28.1289 37.7201 28.1628 37.6992 28.1836L37.4453 28.1289C37.3125 27.8997 37.1602 27.7344 36.9883 27.6328C36.819 27.5286 36.6328 27.4766 36.4297 27.4766C36.3411 27.4766 36.2487 27.4909 36.1523 27.5195C36.0586 27.5482 35.9661 27.5951 35.875 27.6602C35.7839 27.7253 35.6966 27.8112 35.6133 27.918C35.5326 28.0221 35.4609 28.151 35.3984 28.3047C35.3385 28.4583 35.2904 28.6393 35.2539 28.8477C35.2201 29.056 35.2031 29.2956 35.2031 29.5664C35.2031 29.8997 35.2461 30.1862 35.332 30.4258C35.4206 30.6654 35.5339 30.8633 35.6719 31.0195C35.8125 31.1732 35.9688 31.2878 36.1406 31.3633C36.3151 31.4362 36.4883 31.4727 36.6602 31.4727C36.7305 31.4727 36.8125 31.4648 36.9062 31.4492C37.0026 31.4336 37.1068 31.4049 37.2188 31.3633C37.3333 31.319 37.4544 31.2617 37.582 31.1914C37.7096 31.1185 37.8424 31.0247 37.9805 30.9102C37.9935 30.9206 38.0104 30.9388 38.0312 30.9648C38.0521 30.9909 38.0716 31.0182 38.0898 31.0469C38.1107 31.0755 38.1289 31.1029 38.1445 31.1289C38.1628 31.1523 38.1758 31.168 38.1836 31.1758ZM42.1641 29.543C42.1641 29.2747 42.1315 29.0156 42.0664 28.7656C42.0039 28.5156 41.9141 28.2943 41.7969 28.1016C41.6797 27.9089 41.5391 27.7552 41.375 27.6406C41.2109 27.526 41.0286 27.4688 40.8281 27.4688C40.6406 27.4688 40.474 27.5156 40.3281 27.6094C40.1849 27.7005 40.0638 27.8333 39.9648 28.0078C39.8685 28.1797 39.7956 28.3919 39.7461 28.6445C39.6966 28.8945 39.6719 29.1784 39.6719 29.4961C39.6719 29.7878 39.7057 30.0612 39.7734 30.3164C39.8438 30.5716 39.9375 30.7943 40.0547 30.9844C40.1745 31.1719 40.3125 31.3203 40.4688 31.4297C40.6276 31.5365 40.7969 31.5898 40.9766 31.5898C41.1484 31.5898 41.306 31.5482 41.4492 31.4648C41.5951 31.3815 41.7201 31.2552 41.8242 31.0859C41.931 30.9141 42.0143 30.7005 42.0742 30.4453C42.1341 30.1875 42.1641 29.8867 42.1641 29.543ZM43.1484 29.4727C43.1484 29.7096 43.1198 29.9388 43.0625 30.1602C43.0052 30.3815 42.9245 30.5911 42.8203 30.7891C42.7188 30.9844 42.5964 31.1641 42.4531 31.3281C42.3099 31.4896 42.151 31.6289 41.9766 31.7461C41.8021 31.8633 41.6159 31.9544 41.418 32.0195C41.2201 32.0846 41.0156 32.1172 40.8047 32.1172C40.4766 32.1172 40.181 32.0482 39.918 31.9102C39.6549 31.7721 39.4323 31.5872 39.25 31.3555C39.0677 31.1237 38.9271 30.8568 38.8281 30.5547C38.7318 30.2526 38.6836 29.9375 38.6836 29.6094C38.6836 29.2552 38.7409 28.918 38.8555 28.5977C38.9727 28.2773 39.1341 27.9961 39.3398 27.7539C39.5482 27.5117 39.7956 27.319 40.082 27.1758C40.3711 27.0326 40.6875 26.9609 41.0312 26.9609C41.375 26.9609 41.6784 27.0326 41.9414 27.1758C42.2044 27.3164 42.4258 27.5039 42.6055 27.7383C42.7852 27.9727 42.9206 28.2409 43.0117 28.543C43.1029 28.8451 43.1484 29.1549 43.1484 29.4727ZM43.6133 32V31.7148C43.8034 31.6914 43.9401 31.6549 44.0234 31.6055C44.1068 31.556 44.1484 31.513 44.1484 31.4766V27.6484C43.9792 27.4896 43.8008 27.3945 43.6133 27.3633V27.0781H44.7031C44.7422 27.0781 44.7734 27.082 44.7969 27.0898C44.8229 27.0951 44.849 27.1081 44.875 27.1289C44.901 27.1497 44.9284 27.181 44.957 27.2227C44.9883 27.2617 45.0286 27.3151 45.0781 27.3828L47.4688 30.6953V27.6055C47.4688 27.5898 47.4596 27.5716 47.4414 27.5508C47.4258 27.5273 47.3971 27.5052 47.3555 27.4844C47.3164 27.4609 47.2617 27.4388 47.1914 27.418C47.1237 27.3971 47.0378 27.3789 46.9336 27.3633V27.0781H48.5938V27.3633C48.4062 27.3893 48.2695 27.4271 48.1836 27.4766C48.0977 27.526 48.0547 27.569 48.0547 27.6055V32.1172C47.8047 32.0964 47.6042 32.0482 47.4531 31.9727C47.3021 31.8945 47.1914 31.8073 47.1211 31.7109L44.7344 28.4062V31.4766C44.7344 31.4922 44.7435 31.5117 44.7617 31.5352C44.7799 31.556 44.8099 31.5781 44.8516 31.6016C44.8958 31.6224 44.9518 31.6432 45.0195 31.6641C45.0872 31.6849 45.1719 31.7018 45.2734 31.7148V32H43.6133ZM52.5391 30.5273C52.5391 30.6445 52.5208 30.7643 52.4844 30.8867C52.4505 31.0091 52.3984 31.1302 52.3281 31.25C52.2578 31.3672 52.1693 31.4792 52.0625 31.5859C51.9557 31.6901 51.8294 31.7812 51.6836 31.8594C51.5404 31.9375 51.3776 32 51.1953 32.0469C51.0156 32.0938 50.8151 32.1172 50.5938 32.1172C50.5 32.1172 50.3919 32.1081 50.2695 32.0898C50.1497 32.0716 50.026 32.0456 49.8984 32.0117C49.7734 31.9805 49.6497 31.9414 49.5273 31.8945C49.4076 31.8477 49.3021 31.7943 49.2109 31.7344C49.1979 31.7292 49.1875 31.7044 49.1797 31.6602C49.1719 31.6133 49.1654 31.556 49.1602 31.4883C49.1576 31.418 49.1562 31.3398 49.1562 31.2539C49.1589 31.1654 49.1628 31.0768 49.168 30.9883C49.1758 30.8997 49.1849 30.8125 49.1953 30.7266C49.2083 30.6406 49.224 30.5651 49.2422 30.5L49.5195 30.5195C49.5794 30.6732 49.6523 30.8138 49.7383 30.9414C49.8242 31.069 49.9206 31.1784 50.0273 31.2695C50.1341 31.3607 50.2487 31.4323 50.3711 31.4844C50.4935 31.5339 50.6211 31.5586 50.7539 31.5586C50.8711 31.5586 50.9844 31.5417 51.0938 31.5078C51.2031 31.474 51.2995 31.4258 51.3828 31.3633C51.4661 31.2982 51.5326 31.2188 51.582 31.125C51.6341 31.0286 51.6602 30.918 51.6602 30.793C51.6602 30.6341 51.625 30.4974 51.5547 30.3828C51.4844 30.2656 51.3906 30.1628 51.2734 30.0742C51.1589 29.9831 51.0273 29.901 50.8789 29.8281C50.7331 29.7552 50.582 29.6836 50.4258 29.6133C50.2721 29.5404 50.1211 29.4648 49.9727 29.3867C49.8268 29.306 49.6953 29.2135 49.5781 29.1094C49.4635 29.0026 49.3711 28.8802 49.3008 28.7422C49.2305 28.6042 49.1953 28.4401 49.1953 28.25C49.1953 28.1276 49.2292 27.9922 49.2969 27.8438C49.3672 27.6927 49.474 27.5521 49.6172 27.4219C49.763 27.2917 49.9492 27.1823 50.1758 27.0938C50.4023 27.0052 50.6732 26.9609 50.9883 26.9609C51.1289 26.9609 51.2669 26.9701 51.4023 26.9883C51.5378 27.0065 51.6641 27.0312 51.7812 27.0625C51.8984 27.0938 52.0013 27.1315 52.0898 27.1758C52.181 27.2201 52.25 27.2682 52.2969 27.3203C52.3099 27.3307 52.3125 27.3542 52.3047 27.3906C52.2995 27.4271 52.2878 27.4701 52.2695 27.5195C52.2539 27.569 52.2318 27.6224 52.2031 27.6797C52.1771 27.737 52.1497 27.7917 52.1211 27.8438C52.0924 27.8958 52.0638 27.9427 52.0352 27.9844C52.0065 28.026 51.9818 28.056 51.9609 28.0742L51.7031 28.0508C51.6458 27.9284 51.5794 27.8268 51.5039 27.7461C51.431 27.6628 51.3529 27.5964 51.2695 27.5469C51.1888 27.4974 51.1068 27.4622 51.0234 27.4414C50.9401 27.4206 50.862 27.4102 50.7891 27.4102C50.6589 27.4102 50.5469 27.4271 50.4531 27.4609C50.362 27.4948 50.2865 27.5404 50.2266 27.5977C50.1667 27.6549 50.1224 27.7201 50.0938 27.793C50.0677 27.8633 50.0547 27.9349 50.0547 28.0078C50.0547 28.1302 50.0898 28.2396 50.1602 28.3359C50.2331 28.4297 50.3268 28.5182 50.4414 28.6016C50.5586 28.6823 50.6914 28.7591 50.8398 28.832C50.9883 28.9049 51.1406 28.9805 51.2969 29.0586C51.4531 29.1367 51.6055 29.2214 51.7539 29.3125C51.9023 29.4036 52.0339 29.5065 52.1484 29.6211C52.2656 29.7357 52.3594 29.8672 52.4297 30.0156C52.5026 30.1641 52.5391 30.3346 52.5391 30.5273ZM57.9883 27.3633C57.8112 27.3997 57.6771 27.4401 57.5859 27.4844C57.4948 27.5286 57.4492 27.569 57.4492 27.6055V29.9531C57.4492 30.2943 57.401 30.599 57.3047 30.8672C57.2109 31.1354 57.0781 31.362 56.9062 31.5469C56.7344 31.7318 56.5299 31.8737 56.293 31.9727C56.0586 32.069 55.8008 32.1172 55.5195 32.1172C55.2513 32.1172 54.9987 32.0794 54.7617 32.0039C54.5247 31.931 54.3164 31.819 54.1367 31.668C53.9596 31.5143 53.819 31.3216 53.7148 31.0898C53.6133 30.8581 53.5625 30.5833 53.5625 30.2656V27.6055C53.5625 27.5742 53.5195 27.5352 53.4336 27.4883C53.3503 27.4414 53.2148 27.3997 53.0273 27.3633V27.0781H55.0781V27.3633C54.901 27.3997 54.7669 27.4401 54.6758 27.4844C54.5846 27.5286 54.5391 27.569 54.5391 27.6055V30.0117C54.5391 30.2617 54.5612 30.4831 54.6055 30.6758C54.6497 30.8659 54.7201 31.026 54.8164 31.1562C54.9128 31.2865 55.0378 31.3854 55.1914 31.4531C55.3477 31.5182 55.5378 31.5508 55.7617 31.5508C55.9466 31.5508 56.1029 31.5091 56.2305 31.4258C56.3581 31.3424 56.4609 31.2318 56.5391 31.0938C56.6198 30.9557 56.6771 30.7969 56.7109 30.6172C56.7474 30.4349 56.7656 30.2474 56.7656 30.0547V27.6055C56.7656 27.5742 56.7227 27.5352 56.6367 27.4883C56.5534 27.4414 56.418 27.3997 56.2305 27.3633V27.0781H57.9883V27.3633ZM62.1914 30.8125C62.181 30.9245 62.168 31.043 62.1523 31.168C62.1393 31.2904 62.125 31.4076 62.1094 31.5195C62.0964 31.6289 62.082 31.7266 62.0664 31.8125C62.0534 31.8984 62.0417 31.9609 62.0312 32H58.3789V31.7148C58.556 31.6784 58.6888 31.6393 58.7773 31.5977C58.8685 31.5534 58.9141 31.513 58.9141 31.4766V27.6055C58.9141 27.5742 58.8711 27.5352 58.7852 27.4883C58.7018 27.4414 58.5664 27.3997 58.3789 27.3633V27.0781H60.4297V27.3633C60.2526 27.3997 60.1185 27.4401 60.0273 27.4844C59.9362 27.5286 59.8906 27.569 59.8906 27.6055V31.2422C59.8906 31.2891 59.901 31.3307 59.9219 31.3672C59.9453 31.401 59.9844 31.431 60.0391 31.457C60.0938 31.4805 60.168 31.4987 60.2617 31.5117C60.3555 31.5247 60.474 31.5312 60.6172 31.5312H61.0586C61.1784 31.5312 61.2786 31.5169 61.3594 31.4883C61.4427 31.4596 61.5156 31.4141 61.5781 31.3516C61.6406 31.2865 61.6966 31.2018 61.7461 31.0977C61.7982 30.9935 61.8516 30.8646 61.9062 30.7109L62.1914 30.8125ZM63.4609 32V31.7148C63.5807 31.6914 63.6797 31.6667 63.7578 31.6406C63.8359 31.6146 63.8984 31.5898 63.9453 31.5664C63.9922 31.5404 64.0247 31.5169 64.043 31.4961C64.0612 31.4727 64.0703 31.4518 64.0703 31.4336V27.5469H63.0781C63.0391 27.5469 63.0013 27.5612 62.9648 27.5898C62.931 27.6159 62.8958 27.6615 62.8594 27.7266C62.8229 27.7917 62.7826 27.8763 62.7383 27.9805C62.694 28.0846 62.6432 28.2122 62.5859 28.3633L62.3008 28.2578C62.306 28.1823 62.3138 28.0911 62.3242 27.9844C62.3372 27.8776 62.3516 27.7682 62.3672 27.6562C62.3828 27.5443 62.3984 27.4375 62.4141 27.3359C62.4297 27.2318 62.444 27.1458 62.457 27.0781H66.6367L66.7852 27.2031C66.7826 27.2708 66.776 27.3516 66.7656 27.4453C66.7578 27.5391 66.7461 27.638 66.7305 27.7422C66.7174 27.8464 66.7018 27.9505 66.6836 28.0547C66.668 28.1562 66.6523 28.2474 66.6367 28.3281H66.3438C66.3177 28.2083 66.2956 28.1003 66.2773 28.0039C66.2617 27.9049 66.2435 27.8229 66.2227 27.7578C66.2018 27.6901 66.1745 27.638 66.1406 27.6016C66.1094 27.5651 66.0664 27.5469 66.0117 27.5469H65.0469V31.4336C65.0469 31.4492 65.056 31.4688 65.0742 31.4922C65.0924 31.513 65.125 31.5365 65.1719 31.5625C65.2188 31.5885 65.2812 31.6146 65.3594 31.6406C65.4401 31.6667 65.5404 31.6914 65.6602 31.7148V32H63.4609ZM67.1758 32V31.7148C67.3529 31.6784 67.4857 31.6393 67.5742 31.5977C67.6654 31.5534 67.7109 31.513 67.7109 31.4766V27.6055C67.7109 27.5742 67.668 27.5352 67.582 27.4883C67.4987 27.4414 67.3633 27.3997 67.1758 27.3633V27.0781H69.2266V27.3633C69.0495 27.3997 68.9154 27.4401 68.8242 27.4844C68.7331 27.5286 68.6875 27.569 68.6875 27.6055V31.4766C68.6875 31.5078 68.7305 31.5469 68.8164 31.5938C68.9023 31.638 69.0391 31.6784 69.2266 31.7148V32H67.1758ZM69.7148 32V31.7148C69.9049 31.6914 70.0417 31.6549 70.125 31.6055C70.2083 31.556 70.25 31.513 70.25 31.4766V27.6484C70.0807 27.4896 69.9023 27.3945 69.7148 27.3633V27.0781H70.8047C70.8438 27.0781 70.875 27.082 70.8984 27.0898C70.9245 27.0951 70.9505 27.1081 70.9766 27.1289C71.0026 27.1497 71.0299 27.181 71.0586 27.2227C71.0898 27.2617 71.1302 27.3151 71.1797 27.3828L73.5703 30.6953V27.6055C73.5703 27.5898 73.5612 27.5716 73.543 27.5508C73.5273 27.5273 73.4987 27.5052 73.457 27.4844C73.418 27.4609 73.3633 27.4388 73.293 27.418C73.2253 27.3971 73.1393 27.3789 73.0352 27.3633V27.0781H74.6953V27.3633C74.5078 27.3893 74.3711 27.4271 74.2852 27.4766C74.1992 27.526 74.1562 27.569 74.1562 27.6055V32.1172C73.9062 32.0964 73.7057 32.0482 73.5547 31.9727C73.4036 31.8945 73.293 31.8073 73.2227 31.7109L70.8359 28.4062V31.4766C70.8359 31.4922 70.8451 31.5117 70.8633 31.5352C70.8815 31.556 70.9115 31.5781 70.9531 31.6016C70.9974 31.6224 71.0534 31.6432 71.1211 31.6641C71.1888 31.6849 71.2734 31.7018 71.375 31.7148V32H69.7148ZM79.1367 27.3594C79.1497 27.3698 79.151 27.3945 79.1406 27.4336C79.1302 27.4701 79.112 27.5143 79.0859 27.5664C79.0625 27.6185 79.0326 27.6758 78.9961 27.7383C78.9622 27.8008 78.9271 27.8607 78.8906 27.918C78.8568 27.9753 78.8229 28.026 78.7891 28.0703C78.7552 28.1146 78.7266 28.1471 78.7031 28.168L78.457 28.1133C78.3711 27.9883 78.2839 27.8828 78.1953 27.7969C78.1094 27.7109 78.0195 27.6432 77.9258 27.5938C77.832 27.5417 77.7344 27.5052 77.6328 27.4844C77.5312 27.4609 77.4245 27.4492 77.3125 27.4492C77.2474 27.4492 77.1706 27.4622 77.082 27.4883C76.9961 27.5143 76.9062 27.5586 76.8125 27.6211C76.7214 27.6836 76.6302 27.7669 76.5391 27.8711C76.4505 27.9753 76.3711 28.1042 76.3008 28.2578C76.2305 28.4089 76.1732 28.5885 76.1289 28.7969C76.0846 29.0026 76.0625 29.2409 76.0625 29.5117C76.0625 29.8607 76.1029 30.1602 76.1836 30.4102C76.2643 30.6602 76.3711 30.8659 76.5039 31.0273C76.6393 31.1888 76.793 31.3086 76.9648 31.3867C77.1367 31.4622 77.3151 31.5 77.5 31.5C77.6432 31.5 77.7708 31.487 77.8828 31.4609C77.9974 31.4349 78.1003 31.3997 78.1914 31.3555V30.1641C78.1914 30.1354 78.1862 30.1081 78.1758 30.082C78.1654 30.0534 78.1393 30.026 78.0977 30C78.056 29.974 77.9922 29.9479 77.9062 29.9219C77.8229 29.8958 77.7083 29.8698 77.5625 29.8438V29.5586H79.5078V29.8438C79.3594 29.8802 79.2591 29.9284 79.207 29.9883C79.1549 30.0456 79.1289 30.1042 79.1289 30.1641V31.3398C78.9362 31.4987 78.7552 31.6289 78.5859 31.7305C78.4193 31.8294 78.263 31.9076 78.1172 31.9648C77.9714 32.0221 77.8333 32.0612 77.7031 32.082C77.5729 32.1055 77.4492 32.1172 77.332 32.1172C77.1419 32.1172 76.9544 32.0951 76.7695 32.0508C76.5846 32.0091 76.4089 31.9453 76.2422 31.8594C76.0755 31.7708 75.9206 31.6602 75.7773 31.5273C75.6341 31.3945 75.5104 31.2396 75.4062 31.0625C75.3021 30.8854 75.2201 30.6862 75.1602 30.4648C75.1029 30.2409 75.0742 29.9948 75.0742 29.7266C75.0742 29.2943 75.1432 28.9076 75.2812 28.5664C75.4193 28.2227 75.6107 27.9323 75.8555 27.6953C76.1003 27.4557 76.388 27.2734 76.7188 27.1484C77.0495 27.0234 77.4089 26.9609 77.7969 26.9609C77.8828 26.9609 77.9844 26.9701 78.1016 26.9883C78.2214 27.0065 78.3438 27.0326 78.4688 27.0664C78.5938 27.1003 78.7148 27.1419 78.832 27.1914C78.9518 27.2409 79.0534 27.2969 79.1367 27.3594Z" fill="white"/>
<path d="M55.4829 36.9609C55.4738 37.0589 55.4624 37.1626 55.4487 37.272C55.4373 37.3791 55.4248 37.4816 55.4111 37.5796C55.3997 37.6753 55.3872 37.7607 55.3735 37.8359C55.3621 37.9111 55.3519 37.9658 55.3428 38H52.147V37.7505C52.3019 37.7186 52.4181 37.6844 52.4956 37.6479C52.5754 37.6092 52.6152 37.5739 52.6152 37.542V34.1548C52.6152 34.1274 52.5776 34.0933 52.5024 34.0522C52.4295 34.0112 52.311 33.9748 52.147 33.9429V33.6934H53.9414V33.9429C53.7865 33.9748 53.6691 34.0101 53.5894 34.0488C53.5096 34.0876 53.4697 34.1229 53.4697 34.1548V37.3369C53.4697 37.3779 53.4788 37.4144 53.4971 37.4463C53.5176 37.4759 53.5518 37.5021 53.5996 37.5249C53.6475 37.5454 53.7124 37.5614 53.7944 37.5728C53.8765 37.5841 53.9801 37.5898 54.1055 37.5898H54.4917C54.5965 37.5898 54.6842 37.5773 54.7549 37.5522C54.8278 37.5272 54.8916 37.4873 54.9463 37.4326C55.001 37.3757 55.05 37.3016 55.0933 37.2104C55.1388 37.1193 55.1855 37.0065 55.2334 36.8721L55.4829 36.9609ZM55.7837 38V37.7505C55.9386 37.7186 56.0549 37.6844 56.1323 37.6479C56.2121 37.6092 56.252 37.5739 56.252 37.542V34.1548C56.252 34.1274 56.2144 34.0933 56.1392 34.0522C56.0662 34.0112 55.9478 33.9748 55.7837 33.9429V33.6934H57.5781V33.9429C57.4232 33.9748 57.3058 34.0101 57.2261 34.0488C57.1463 34.0876 57.1064 34.1229 57.1064 34.1548V37.542C57.1064 37.5693 57.144 37.6035 57.2192 37.6445C57.2944 37.6833 57.4141 37.7186 57.5781 37.7505V38H55.7837ZM63.4399 33.9429C63.383 33.9429 63.3158 33.9508 63.2383 33.9668C63.1631 33.9827 63.0845 34.0067 63.0024 34.0386L63.0366 37.542C63.0366 37.5693 63.0776 37.6035 63.1597 37.6445C63.244 37.6833 63.3682 37.7186 63.5322 37.7505V38H61.748V37.7505C61.903 37.7186 62.0249 37.6844 62.1138 37.6479C62.2049 37.6092 62.2505 37.5739 62.2505 37.542L62.2231 34.7632L60.7739 38H60.4526L59.0308 34.77L59.0034 37.542C59.0034 37.5693 59.041 37.6035 59.1162 37.6445C59.1914 37.6833 59.311 37.7186 59.4751 37.7505V38H58.0396V37.7505C58.1968 37.7186 58.3141 37.6844 58.3916 37.6479C58.4691 37.6092 58.5078 37.5739 58.5078 37.542L58.542 34.0625C58.4622 34.0169 58.3802 33.9862 58.2959 33.9702C58.2139 33.952 58.1398 33.9429 58.0737 33.9429V33.6934H59.2563C59.2791 33.6934 59.2996 33.6968 59.3179 33.7036C59.3361 33.7104 59.3532 33.7241 59.3691 33.7446C59.3874 33.7651 59.4067 33.7948 59.4272 33.8335C59.4478 33.87 59.4717 33.9189 59.499 33.9805L60.7568 36.8345L62.0386 33.9805C62.0682 33.9121 62.0933 33.8597 62.1138 33.8232C62.1343 33.7845 62.1536 33.756 62.1719 33.7378C62.1901 33.7173 62.2072 33.7048 62.2231 33.7002C62.2414 33.6956 62.2607 33.6934 62.2812 33.6934H63.4399V33.9429ZM64.0005 38V37.7505C64.1554 37.7186 64.2716 37.6844 64.3491 37.6479C64.4289 37.6092 64.4688 37.5739 64.4688 37.542V34.1548C64.4688 34.1274 64.4312 34.0933 64.356 34.0522C64.283 34.0112 64.1646 33.9748 64.0005 33.9429V33.6934H65.7949V33.9429C65.64 33.9748 65.5226 34.0101 65.4429 34.0488C65.3631 34.0876 65.3232 34.1229 65.3232 34.1548V37.542C65.3232 37.5693 65.3608 37.6035 65.436 37.6445C65.5112 37.6833 65.6309 37.7186 65.7949 37.7505V38H64.0005ZM67.1006 38V37.7505C67.2054 37.73 67.292 37.7083 67.3604 37.6855C67.4287 37.6628 67.4834 37.6411 67.5244 37.6206C67.5654 37.5978 67.5939 37.5773 67.6099 37.5591C67.6258 37.5386 67.6338 37.5203 67.6338 37.5044V34.1035H66.7656C66.7314 34.1035 66.6984 34.116 66.6665 34.1411C66.6369 34.1639 66.6061 34.2038 66.5742 34.2607C66.5423 34.3177 66.507 34.3918 66.4683 34.4829C66.4295 34.5741 66.3851 34.6857 66.335 34.8179L66.0854 34.7256C66.09 34.6595 66.0968 34.5798 66.106 34.4863C66.1174 34.3929 66.1299 34.2972 66.1436 34.1992C66.1572 34.1012 66.1709 34.0078 66.1846 33.9189C66.1982 33.8278 66.2108 33.7526 66.2222 33.6934H69.8794L70.0093 33.8027C70.007 33.862 70.0013 33.9326 69.9922 34.0146C69.9854 34.0967 69.9751 34.1833 69.9614 34.2744C69.95 34.3656 69.9364 34.4567 69.9204 34.5479C69.9067 34.6367 69.8931 34.7165 69.8794 34.7871H69.623C69.6003 34.6823 69.5809 34.5877 69.5649 34.5034C69.5513 34.4168 69.5353 34.3451 69.5171 34.2881C69.4989 34.2288 69.4749 34.1833 69.4453 34.1514C69.418 34.1195 69.3804 34.1035 69.3325 34.1035H68.4883V37.5044C68.4883 37.5181 68.4963 37.5352 68.5122 37.5557C68.5282 37.5739 68.5566 37.5944 68.5977 37.6172C68.6387 37.64 68.6934 37.6628 68.7617 37.6855C68.8324 37.7083 68.9201 37.73 69.0249 37.7505V38H67.1006ZM73.6528 36.9609C73.6437 37.0589 73.6335 37.1626 73.6221 37.272C73.6107 37.3791 73.5981 37.4816 73.5845 37.5796C73.5708 37.6753 73.5571 37.7607 73.5435 37.8359C73.5321 37.9111 73.5218 37.9658 73.5127 38H70.2827V37.7505C70.4377 37.7186 70.5539 37.6844 70.6313 37.6479C70.7111 37.6092 70.751 37.5739 70.751 37.542V34.1548C70.751 34.1274 70.7134 34.0933 70.6382 34.0522C70.5653 34.0112 70.4468 33.9748 70.2827 33.9429V33.6934H73.2939L73.4307 33.8027C73.4261 33.862 73.4193 33.936 73.4102 34.0249C73.401 34.1138 73.3896 34.2049 73.376 34.2983C73.3623 34.3918 73.3475 34.4806 73.3315 34.5649C73.3179 34.647 73.3042 34.7096 73.2905 34.7529H73.0342C73.0228 34.541 72.9943 34.3804 72.9487 34.271C72.9032 34.1593 72.8382 34.1035 72.7539 34.1035H71.6055V35.4878H72.9658L73.0786 35.6074C73.0604 35.6393 73.0376 35.6769 73.0103 35.7202C72.9852 35.7612 72.9578 35.8022 72.9282 35.8433C72.9009 35.8843 72.8724 35.923 72.8428 35.9595C72.8154 35.9937 72.7892 36.0199 72.7642 36.0381C72.73 36.0039 72.6924 35.9754 72.6514 35.9526C72.6126 35.9299 72.5671 35.9105 72.5146 35.8945C72.4645 35.8786 72.4041 35.8672 72.3335 35.8604C72.2651 35.8535 72.1831 35.8501 72.0874 35.8501H71.6055V37.3711C71.6055 37.4053 71.6134 37.436 71.6294 37.4634C71.6453 37.4884 71.6784 37.5112 71.7285 37.5317C71.7786 37.55 71.8493 37.5648 71.9404 37.5762C72.0316 37.5853 72.1523 37.5898 72.3027 37.5898H72.6411C72.7459 37.5898 72.8348 37.5773 72.9077 37.5522C72.9829 37.5272 73.049 37.4873 73.106 37.4326C73.1629 37.3757 73.2142 37.3016 73.2598 37.2104C73.3076 37.1193 73.3555 37.0065 73.4033 36.8721L73.6528 36.9609ZM77.9868 35.6895C77.9868 35.9743 77.9572 36.2295 77.8979 36.4551C77.841 36.6784 77.7624 36.8766 77.6621 37.0498C77.5618 37.2207 77.4445 37.3665 77.3101 37.4873C77.1756 37.6058 77.0321 37.7038 76.8794 37.7812C76.7267 37.8564 76.5684 37.9123 76.4043 37.9487C76.2425 37.9829 76.0841 38 75.9292 38H73.9604V37.7505C74.1154 37.7186 74.2316 37.6844 74.3091 37.6479C74.3888 37.6092 74.4287 37.5739 74.4287 37.542V34.0454L73.9604 34.1104L73.916 33.7959C74.0277 33.7686 74.1598 33.7424 74.3125 33.7173C74.4674 33.6922 74.6292 33.6706 74.7979 33.6523C74.9688 33.6318 75.1396 33.617 75.3105 33.6079C75.4814 33.5965 75.641 33.5908 75.7891 33.5908C76.1377 33.5908 76.4487 33.6387 76.7222 33.7344C76.9956 33.8278 77.2257 33.9645 77.4126 34.1445C77.5994 34.3245 77.7419 34.5444 77.8398 34.8042C77.9378 35.064 77.9868 35.359 77.9868 35.6895ZM75.543 33.9531C75.502 33.9531 75.4598 33.9543 75.4165 33.9565C75.3732 33.9565 75.3288 33.9577 75.2832 33.96V37.4292C75.2832 37.4451 75.2855 37.4611 75.29 37.4771C75.2969 37.5021 75.3094 37.5249 75.3276 37.5454C75.3459 37.5636 75.3743 37.5796 75.4131 37.5933C75.4518 37.6069 75.502 37.6172 75.5635 37.624C75.6273 37.6309 75.707 37.6343 75.8027 37.6343C75.8893 37.6343 75.9805 37.6195 76.0762 37.5898C76.1742 37.5602 76.2699 37.5135 76.3633 37.4497C76.459 37.3859 76.549 37.3062 76.6333 37.2104C76.7199 37.1125 76.7951 36.9963 76.8589 36.8618C76.9227 36.7274 76.974 36.5747 77.0127 36.4038C77.0514 36.2306 77.0708 36.0369 77.0708 35.8228C77.0708 35.5197 77.0378 35.252 76.9717 35.0195C76.9056 34.7871 76.8076 34.5923 76.6777 34.4351C76.5501 34.2756 76.3906 34.1559 76.1992 34.0762C76.0101 33.9941 75.7913 33.9531 75.543 33.9531Z" fill="white"/>
</svg>
