<svg width="62" height="14" viewBox="0 0 62 14" fill="none" xmlns="http://www.w3.org/2000/svg">
<path d="M2.87891 12.9219H0.261719L4.48828 1.54688H6.14453L5.91016 3.70312L2.87891 12.9219ZM5.35547 3.70312L5.09766 1.54688H6.76172L11.0117 12.9219H8.39453L5.35547 3.70312ZM8.31641 10.6562H2.28516V8.67188H8.31641V10.6562Z" fill="#3555FB"/>
<path d="M13.6367 8L13.6211 6.28906H16.0508C16.6706 6.28906 17.1289 6.17448 17.4258 5.94531C17.7227 5.71094 17.8711 5.375 17.8711 4.9375C17.8711 4.4375 17.7253 4.07812 17.4336 3.85938C17.1419 3.64062 16.681 3.53125 16.0508 3.53125H14.4883V12.9219H12.0273V1.54688H16.0508C17.3893 1.54688 18.4362 1.80208 19.1914 2.3125C19.9466 2.82292 20.3242 3.60938 20.3242 4.67188C20.3242 5.13542 20.2174 5.57031 20.0039 5.97656C19.7956 6.3776 19.4622 6.70312 19.0039 6.95312C18.5456 7.20312 17.9492 7.33594 17.2148 7.35156L16.5273 8H13.6367ZM12.9648 12.9219L13.918 10.9453H16.4258C17.0143 10.9453 17.444 10.8125 17.7148 10.5469C17.9857 10.276 18.1211 9.9401 18.1211 9.53906C18.1211 9.22135 18.0664 8.94792 17.957 8.71875C17.8477 8.48958 17.6758 8.3125 17.4414 8.1875C17.2122 8.0625 16.9076 8 16.5273 8H14.2461L14.2617 6.28906H17.082L17.6523 6.96875C18.3555 6.95312 18.9206 7.07031 19.3477 7.32031C19.7747 7.5651 20.0846 7.88802 20.2773 8.28906C20.4701 8.6901 20.5664 9.11458 20.5664 9.5625C20.5664 10.6719 20.2096 11.5104 19.4961 12.0781C18.7826 12.6406 17.7591 12.9219 16.4258 12.9219H12.9648Z" fill="#3555FB"/>
<path d="M26.6914 9H22.2305V7.09375H26.6914V9Z" fill="#3555FB"/>
<path d="M32.7695 12.9219H30.3164V1.54688H32.7695V12.9219ZM36.2227 3.53125H26.9102V1.54688H36.2227V3.53125Z" fill="#3555FB"/>
<path d="M41.3242 13.0781C40.4336 13.0781 39.6706 12.8932 39.0352 12.5234C38.4049 12.1536 37.9206 11.6589 37.582 11.0391C37.2487 10.4193 37.082 9.73438 37.082 8.98438V8.67969C37.082 7.83594 37.2409 7.08594 37.5586 6.42969C37.8815 5.76823 38.3398 5.25 38.9336 4.875C39.5273 4.5 40.2357 4.3125 41.0586 4.3125C41.8763 4.3125 42.5638 4.48438 43.1211 4.82812C43.6784 5.17188 44.1003 5.65625 44.3867 6.28125C44.6732 6.90104 44.8164 7.63021 44.8164 8.46875V9.46875H38.0742V7.88281H42.4961V7.69531C42.4961 7.40365 42.444 7.14583 42.3398 6.92188C42.2357 6.69792 42.0768 6.52344 41.8633 6.39844C41.6549 6.27344 41.3815 6.21094 41.043 6.21094C40.6576 6.21094 40.3477 6.32031 40.1133 6.53906C39.8789 6.75781 39.707 7.05208 39.5977 7.42188C39.4935 7.79167 39.4414 8.21094 39.4414 8.67969V8.98438C39.4414 9.41667 39.5221 9.79688 39.6836 10.125C39.8451 10.4531 40.0768 10.7109 40.3789 10.8984C40.681 11.0807 41.0456 11.1719 41.4727 11.1719C41.8737 11.1719 42.2487 11.099 42.5977 10.9531C42.9466 10.8021 43.2435 10.5677 43.4883 10.25L44.6289 11.5547C44.3633 11.9349 43.9518 12.2839 43.3945 12.6016C42.8424 12.9193 42.1523 13.0781 41.3242 13.0781Z" fill="#3555FB"/>
<path d="M49.582 11.1797C49.8477 11.1797 50.082 11.1302 50.2852 11.0312C50.4883 10.9323 50.6445 10.7917 50.7539 10.6094C50.8685 10.4271 50.9284 10.2109 50.9336 9.96094H53.1523C53.1471 10.5703 52.9883 11.1094 52.6758 11.5781C52.3633 12.0469 51.9414 12.4141 51.4102 12.6797C50.8789 12.9453 50.2826 13.0781 49.6211 13.0781C48.7461 13.0781 48.0169 12.888 47.4336 12.5078C46.8555 12.1276 46.4206 11.6146 46.1289 10.9688C45.8424 10.3229 45.6992 9.60156 45.6992 8.80469V8.59375C45.6992 7.79167 45.8424 7.06771 46.1289 6.42188C46.4206 5.77604 46.8555 5.26302 47.4336 4.88281C48.0169 4.5026 48.7435 4.3125 49.6133 4.3125C50.3112 4.3125 50.9232 4.44792 51.4492 4.71875C51.9805 4.98438 52.3945 5.36719 52.6914 5.86719C52.9935 6.36198 53.1471 6.95573 53.1523 7.64844H50.9336C50.9284 7.38281 50.8737 7.14323 50.7695 6.92969C50.6706 6.71094 50.5195 6.53646 50.3164 6.40625C50.1133 6.27604 49.8633 6.21094 49.5664 6.21094C49.1497 6.21094 48.832 6.32292 48.6133 6.54688C48.3997 6.77083 48.2539 7.0651 48.1758 7.42969C48.0977 7.78906 48.0586 8.17708 48.0586 8.59375V8.80469C48.0586 9.22656 48.0951 9.61979 48.168 9.98438C48.2461 10.3438 48.3945 10.6328 48.6133 10.8516C48.8372 11.0703 49.1602 11.1797 49.582 11.1797Z" fill="#3555FB"/>
<path d="M56.7148 12.9219H54.3477V0.921875H56.7148V12.9219ZM55.7461 8.44531C55.7461 7.64323 55.8763 6.93229 56.1367 6.3125C56.4023 5.69271 56.7747 5.20573 57.2539 4.85156C57.7331 4.49219 58.293 4.3125 58.9336 4.3125C59.4909 4.3125 59.9779 4.42188 60.3945 4.64062C60.8164 4.85417 61.1445 5.20312 61.3789 5.6875C61.6185 6.16667 61.7383 6.8099 61.7383 7.61719V12.9219H59.3711V7.60156C59.3711 7.2474 59.319 6.97135 59.2148 6.77344C59.1159 6.57031 58.9674 6.42969 58.7695 6.35156C58.5768 6.26823 58.3398 6.22656 58.0586 6.22656C57.7461 6.22656 57.4831 6.28125 57.2695 6.39062C57.056 6.49479 56.8815 6.64583 56.7461 6.84375C56.6159 7.04167 56.5221 7.27604 56.4648 7.54688C56.4076 7.8125 56.3789 8.10156 56.3789 8.41406L55.7461 8.44531Z" fill="#3555FB"/>
</svg>
