<svg width="1185" height="883" viewBox="0 0 1185 883" fill="none" xmlns="http://www.w3.org/2000/svg">
<path d="M1185 775.938H0V776.53H1185V775.938Z" fill="#EBEBEB"/>
<path d="M1066.26 814.071H987.769V814.664H1066.26V814.071Z" fill="#EBEBEB"/>
<path d="M784.991 820.518H764.396V821.11H784.991V820.518Z" fill="#EBEBEB"/>
<path d="M985.398 792.078H939.918V792.67H985.398V792.078Z" fill="#EBEBEB"/>
<path d="M226.691 796.059H124.331V796.652H226.691V796.059Z" fill="#EBEBEB"/>
<path d="M262.81 796.059H247.807V796.652H262.81V796.059Z" fill="#EBEBEB"/>
<path d="M533.606 806.061H311.584V806.653H533.606V806.061Z" fill="#EBEBEB"/>
<path d="M561.69 670.236H104.067C100.482 670.23 97.0458 668.801 94.513 666.264C91.9803 663.727 90.5577 660.288 90.5578 656.703V13.4142C90.589 9.84978 92.0252 6.44161 94.5546 3.92998C97.084 1.41835 100.502 0.00610604 104.067 0H561.69C565.279 0 568.721 1.42576 571.259 3.96364C573.797 6.50151 575.223 9.9436 575.223 13.5327V656.703C575.223 660.292 573.797 663.734 571.259 666.272C568.721 668.81 565.279 670.236 561.69 670.236ZM104.067 0.474002C100.639 0.48028 97.3536 1.84638 94.932 4.27246C92.5103 6.69854 91.1502 9.98635 91.1503 13.4142V656.703C91.1502 660.131 92.5103 663.419 94.932 665.845C97.3536 668.271 100.639 669.637 104.067 669.643H561.69C565.12 669.637 568.408 668.272 570.833 665.846C573.259 663.421 574.624 660.133 574.63 656.703V13.4142C574.624 9.98417 573.259 6.69642 570.833 4.27102C568.408 1.84561 565.12 0.480267 561.69 0.474002H104.067Z" fill="#EBEBEB"/>
<path d="M1074.34 670.236H616.698C613.11 670.23 609.672 668.802 607.135 666.265C604.599 663.729 603.171 660.29 603.165 656.703V13.4142C603.202 9.84762 604.644 6.43947 607.177 3.92849C609.71 1.41752 613.131 0.00603945 616.698 0H1074.34C1077.9 0.0123347 1081.32 1.42733 1083.84 3.93829C1086.37 6.44926 1087.8 9.85387 1087.83 13.4142V656.703C1087.83 660.284 1086.41 663.719 1083.88 666.256C1081.36 668.792 1077.93 670.223 1074.34 670.236ZM616.698 0.474002C613.268 0.480267 609.98 1.84561 607.554 4.27102C605.129 6.69642 603.764 9.98417 603.757 13.4142V656.703C603.764 660.133 605.129 663.421 607.554 665.846C609.98 668.272 613.268 669.637 616.698 669.643H1074.34C1077.77 669.637 1081.06 668.272 1083.49 665.846C1085.91 663.421 1087.28 660.133 1087.28 656.703V13.4142C1087.28 9.98417 1085.91 6.69642 1083.49 4.27102C1081.06 1.84561 1077.77 0.480267 1074.34 0.474002H616.698Z" fill="#EBEBEB"/>
<path d="M884.389 177.774H850.806V282.314H884.389V177.774Z" fill="#E6E6E6"/>
<path d="M975.421 282.314H863.984L847.157 159.951H958.594L975.421 282.314Z" fill="#F0F0F0"/>
<path d="M987.484 282.314H872.397L855.57 159.951H970.657L987.484 282.314Z" fill="#F5F5F5"/>
<path d="M880.716 272.668L866.543 169.597H962.338L976.535 272.668H880.716Z" fill="white"/>
<path d="M899.652 241.456L894.319 202.777C894.161 201.756 894.227 200.713 894.512 199.721C894.798 198.728 895.296 197.809 895.973 197.029C896.65 196.248 897.489 195.625 898.431 195.201C899.373 194.778 900.396 194.565 901.429 194.577H936.245C937.988 194.564 939.675 195.191 940.986 196.34C942.297 197.49 943.14 199.08 943.355 200.81L948.663 239.512C948.818 240.531 948.749 241.572 948.462 242.562C948.175 243.551 947.675 244.467 946.999 245.245C946.323 246.022 945.486 246.644 944.545 247.066C943.605 247.488 942.584 247.7 941.553 247.689H906.785C905.038 247.708 903.345 247.083 902.029 245.933C900.714 244.784 899.867 243.19 899.652 241.456Z" fill="#F5F5F5"/>
<path d="M675.331 63.2316H173.389V372.872H675.331V63.2316Z" fill="#E6E6E6"/>
<path d="M688.225 63.2316H179.409V372.872H688.225V63.2316Z" fill="#F0F0F0"/>
<path d="M675.331 372.896H173.389V396.856H675.331V372.896Z" fill="#E6E6E6"/>
<path d="M709.697 372.896H200.881V396.856H709.697V372.896Z" fill="#F0F0F0"/>
<path d="M670.165 354.836V81.2909L197.469 81.2909V354.836L670.165 354.836Z" fill="#FAFAFA"/>
<path d="M232.165 354.836L338.128 81.2909H388.135L282.172 354.836H232.165Z" fill="white"/>
<path d="M292.932 354.836L398.894 81.2909H418.376L312.413 354.836H292.932Z" fill="white"/>
<path d="M478.313 354.836L584.276 81.2909H603.758L497.819 354.836H478.313Z" fill="white"/>
<path d="M670.141 354.836V81.2909H667.842V354.836H670.141Z" fill="#E6E6E6"/>
<path d="M1055.83 282.314H949.564V775.938H1055.83V282.314Z" fill="#E6E6E6"/>
<path d="M1045.15 775.938H1055.83V745.531H1033.94L1045.15 775.938Z" fill="#F0F0F0"/>
<path d="M869.624 282.314H763.353V775.938H869.624V282.314Z" fill="#E6E6E6"/>
<path d="M1055.84 282.314H860.286V757.286H1055.84V282.314Z" fill="#F0F0F0"/>
<path d="M870.975 775.938H860.286V745.531H882.185L870.975 775.938Z" fill="#F0F0F0"/>
<path d="M1047.54 291.012H868.581V515.072H1047.54V291.012Z" fill="#E6E6E6"/>
<path d="M977.435 308.455H938.686C930.355 308.455 922.112 306.756 914.46 303.464C906.807 300.172 899.906 295.354 894.177 289.306H1021.94C1016.22 295.357 1009.32 300.177 1001.66 303.47C994.011 306.762 985.767 308.459 977.435 308.455Z" fill="#F0F0F0"/>
<path d="M1047.54 524.149H868.581V748.209H1047.54V524.149Z" fill="#E6E6E6"/>
<path d="M977.435 541.592H938.686C930.355 541.592 922.112 539.893 914.46 536.601C906.807 533.308 899.906 528.491 894.177 522.443H1021.94C1016.22 528.494 1009.32 533.314 1001.66 536.606C994.011 539.899 985.767 541.596 977.435 541.592Z" fill="#F0F0F0"/>
<path d="M306.915 438.189H483.764L509.408 542.635H332.535L306.915 438.189Z" fill="#E6E6E6"/>
<path d="M332.535 542.635L333.269 548.394H510.119L509.408 542.635H332.535Z" fill="#E6E6E6"/>
<path d="M312.366 438.189H489.216L514.859 542.635H337.986L312.366 438.189Z" fill="#F0F0F0"/>
<path d="M341.73 537.848L318.433 442.953H485.471L508.768 537.848H341.73Z" fill="white"/>
<path d="M384.082 542.635L384.793 548.394H579.536L578.825 542.635H384.082Z" fill="#F0F0F0"/>
<path d="M623.973 548.394H602.786V775.914H623.973V548.394Z" fill="#E6E6E6"/>
<path d="M630.681 548.394H615.963V775.914H630.681V548.394Z" fill="#F0F0F0"/>
<path d="M362.207 574.44H635.255V548.394H362.207V574.44Z" fill="#F0F0F0"/>
<path d="M352.704 574.44H331.516V775.914H352.704V574.44Z" fill="#E6E6E6"/>
<path d="M359.387 574.44H344.669V775.914H359.387V574.44Z" fill="#F0F0F0"/>
<path d="M218.585 574.44H197.397V775.914H218.585V574.44Z" fill="#E6E6E6"/>
<path d="M225.292 574.44H210.574V775.914H225.292V574.44Z" fill="#F0F0F0"/>
<path d="M489.879 574.44H468.691V775.914H489.879V574.44Z" fill="#E6E6E6"/>
<path d="M496.563 574.44H481.845V775.914H496.563V574.44Z" fill="#F0F0F0"/>
<path d="M362.183 548.394H197.397V574.441H362.183V548.394Z" fill="#E6E6E6"/>
<path d="M692.846 775.938H687.703L673.08 703.321L670.497 690.594L654.286 611.46H592.666L559.32 775.938H554.106L588.139 608.426C588.246 607.871 588.54 607.369 588.971 607.003C589.401 606.637 589.944 606.428 590.509 606.412H656.49C657.061 606.405 657.616 606.606 658.052 606.976C658.487 607.346 658.774 607.861 658.86 608.426L673.08 677.915L675.45 690.618L692.846 775.938Z" fill="#F0F0F0"/>
<path d="M791.793 775.938H786.626L753.209 611.46H691.589L675.45 690.618L673.08 703.321L658.315 775.938H653.172L670.497 690.618L673.056 677.938L687.276 608.45C687.387 607.897 687.682 607.397 688.112 607.032C688.542 606.666 689.082 606.456 689.646 606.436H755.414C755.979 606.452 756.521 606.661 756.952 607.027C757.383 607.393 757.676 607.895 757.784 608.45L791.793 775.938Z" fill="#F0F0F0"/>
<path d="M639.9 608.924H753.138C774.753 608.924 786.745 594.23 792.86 570.009L795.846 556.168C796.854 551.982 796.899 547.621 795.976 543.415C795.054 539.209 793.188 535.267 790.52 531.887C787.852 528.508 784.452 525.777 780.575 523.903C776.698 522.029 772.447 521.06 768.141 521.068H697.041C682.347 521.068 678.46 524.576 668.293 546.712C658.125 568.847 639.9 608.924 639.9 608.924Z" fill="#F0F0F0"/>
<path d="M701.638 608.924H580.958C579.456 608.924 578.015 608.327 576.953 607.265C575.891 606.203 575.294 604.762 575.294 603.26V602.738C575.294 600.703 575.695 598.687 576.474 596.807C577.253 594.926 578.394 593.218 579.834 591.778C581.273 590.339 582.982 589.197 584.862 588.418C586.743 587.639 588.758 587.239 590.794 587.239H701.638V608.948V608.924Z" fill="#F0F0F0"/>
<path d="M592.5 882.967C846.286 882.967 1052.02 870.956 1052.02 856.139C1052.02 841.322 846.286 829.31 592.5 829.31C338.715 829.31 132.981 841.322 132.981 856.139C132.981 870.956 338.715 882.967 592.5 882.967Z" fill="#F5F5F5"/>
<path d="M481.181 780.322L466.013 790.087L438.521 758.116L453.689 748.351L481.181 780.322Z" fill="#FF8B7B"/>
<path opacity="0.2" d="M453.713 748.351L438.521 758.116L452.718 774.611L467.886 764.823L453.713 748.351Z" fill="black"/>
<path d="M365.264 832.463L347.821 834.169L329.691 792.694L347.134 790.988L365.264 832.463Z" fill="#FF8B7B"/>
<path opacity="0.2" d="M329.714 792.718L339.052 814.095H357.23L347.134 791.011L329.714 792.718Z" fill="black"/>
<path d="M232.806 272.55C224.037 273.332 223.8 258.449 208.395 265.44C188.818 274.351 195.431 288.168 180.144 287.6C164.858 287.031 154.619 298.952 158.032 307.839C161.445 316.727 166.73 325.14 155.923 328.719C145.116 332.298 137.769 335.45 139.333 344.408C140.897 353.367 148.552 356.969 135.659 362.681C122.767 368.393 124.07 393.088 136.702 393.112C149.334 393.136 137.224 405.436 148.552 417.95C159.881 430.463 177.111 432.17 184.292 426.008C191.473 419.846 199.483 414.75 212.992 424.23C226.501 433.71 249.372 436.08 248.329 421.054C247.286 406.028 234.109 396.169 246.528 388.348C258.947 380.527 274.968 376.664 269.943 361.449C266.744 351.969 257.074 343.721 264.872 336.635C277.551 325.117 277.622 299.047 262.075 292.434C253.045 288.619 261.743 269.943 232.806 272.55Z" fill="#263238"/>
<path d="M215.931 389.675C215.504 396.785 214.604 403.113 213.561 409.773C212.518 416.433 211.001 422.927 209.271 429.444C207.585 436.033 205.438 442.495 202.848 448.783C201.569 451.959 200.099 455.111 198.535 458.263C197.753 459.827 196.9 461.368 196.023 462.885C195.62 463.667 195.122 464.425 194.672 465.255L193.985 466.369C193.518 467.111 192.995 467.816 192.42 468.478C191.106 469.963 189.49 471.15 187.68 471.962C186.064 472.694 184.331 473.135 182.561 473.265C179.958 473.415 177.351 473.061 174.882 472.223C171.206 470.959 167.703 469.239 164.454 467.103C158.734 463.361 153.321 459.169 148.267 454.566C138.524 445.703 129.439 436.142 121.083 425.96L127.814 419.49C132.554 423.661 137.294 427.904 142.247 431.933C147.201 435.962 152.036 440.014 157.084 443.783C161.89 447.481 166.959 450.823 172.252 453.784C174.489 455.052 176.878 456.031 179.362 456.699C179.959 456.884 180.589 456.941 181.21 456.865H180.736C180.423 457.017 180.135 457.217 179.883 457.457L179.765 457.576L180.286 456.604C180.618 455.964 180.997 455.348 181.305 454.685C181.969 453.373 182.609 452.046 183.225 450.703C184.41 448.001 185.595 445.252 186.543 442.384C188.534 436.696 190.193 430.819 191.662 424.846C193.131 418.874 194.245 412.783 195.241 406.645C196.236 400.506 196.994 394.226 197.611 388.396L215.931 389.675Z" fill="#FF8B7B"/>
<path d="M229.7 391.903C228.752 397.639 223.989 408.493 220.22 416.551C217.424 422.381 215.149 426.766 215.149 426.766L211.831 425.296L184.362 413.067C186.448 398.255 189.837 382.257 206.166 374.981C216.357 370.478 231.383 381.57 229.7 391.903Z" fill="#9BA0AA"/>
<path opacity="0.6" d="M229.7 391.903C228.752 397.639 223.989 408.493 220.22 416.551C217.424 422.381 215.149 426.766 215.149 426.766L211.831 425.296L184.362 413.067C186.448 398.255 189.837 382.257 206.166 374.981C216.357 370.478 231.383 381.57 229.7 391.903Z" fill="black"/>
<path opacity="0.3" d="M220.15 416.551C217.353 422.381 215.078 426.766 215.078 426.766L211.76 425.296C212.21 419.442 213.371 410.223 216.5 406.076C218.454 409.265 219.698 412.838 220.15 416.551Z" fill="black"/>
<path d="M128.857 424.917L131.038 408.967L113.144 414.75C113.144 414.75 115.988 424.396 122.364 428.354L128.857 424.917Z" fill="#FF8B7B"/>
<path d="M122.932 395.34L110.442 402.189L113.144 414.845L131.037 408.967L122.932 395.34Z" fill="#FF8B7B"/>
<path d="M460.42 785.3L476.891 773.45C477.174 773.243 477.522 773.146 477.871 773.177C478.219 773.207 478.545 773.363 478.787 773.616L489.998 785.3C490.27 785.603 490.475 785.96 490.6 786.348C490.725 786.736 490.766 787.146 490.722 787.551C490.677 787.956 490.547 788.347 490.34 788.698C490.134 789.049 489.856 789.353 489.524 789.589C483.717 793.618 480.707 795.254 473.455 800.444C468.999 803.643 459.614 811.37 453.452 815.778C447.29 820.186 442.621 814.356 444.778 811.962C454.495 801.25 457.078 793.95 458.619 787.93C458.897 786.872 459.534 785.942 460.42 785.3Z" fill="#263238"/>
<path d="M345.523 828.789H366.853C367.236 828.796 367.607 828.926 367.911 829.161C368.214 829.396 368.433 829.723 368.535 830.093L373.275 847.014C373.391 847.414 373.41 847.836 373.333 848.244C373.255 848.653 373.083 849.038 372.829 849.368C372.575 849.698 372.247 849.964 371.872 850.143C371.497 850.323 371.084 850.412 370.668 850.403C363.132 850.403 359.553 850.403 350.144 850.403H321.372C313.551 850.403 311.892 842.488 315.139 841.777C329.644 838.577 338.01 834.145 342.489 829.927C343.319 829.176 344.404 828.769 345.523 828.789Z" fill="#263238"/>
<path d="M312.958 456.13L243.115 478.218C194.767 382.518 201.663 377.446 201.663 377.446C201.663 377.446 212.826 371.071 224.439 365.762C226.193 364.956 227.97 364.174 229.724 363.392C240.042 359.292 250.639 355.933 261.435 353.343C263.023 352.917 264.61 352.537 266.175 352.158C274.772 350.214 283.477 348.781 292.245 347.868C293.287 361.117 294.33 372.327 295.468 382.068C296.937 394.771 298.525 404.938 300.208 413.731C303.318 428.182 307.582 442.36 312.958 456.13Z" fill="#9BA0AA"/>
<path opacity="0.6" d="M312.958 456.13L243.115 478.218C194.767 382.518 201.663 377.446 201.663 377.446C201.663 377.446 212.826 371.071 224.439 365.762C226.193 364.956 227.97 364.174 229.724 363.392C240.042 359.292 250.639 355.933 261.435 353.343C263.023 352.917 264.61 352.537 266.175 352.158C274.772 350.214 283.477 348.781 292.245 347.868C293.287 361.117 294.33 372.327 295.468 382.068C296.937 394.771 298.525 404.938 300.208 413.731C303.318 428.182 307.582 442.36 312.958 456.13Z" fill="black"/>
<path opacity="0.3" d="M300.398 413.778C293.69 404.298 287.268 382.234 288.927 373.962L295.563 382.115C297.032 394.818 298.62 404.986 300.398 413.778Z" fill="black"/>
<path d="M245.604 395.316C245.604 395.316 263.213 391.5 268.877 399.156C276.651 391.5 273.901 361.591 270.157 350.926C267.187 351.43 264.274 352.224 261.459 353.296L249.016 372.54L245.604 395.316Z" fill="white"/>
<path d="M245.603 395.316C245.603 395.316 233.753 397.971 232.497 407.664C215.907 395.316 217.068 377.233 220.813 366.568C223.656 365.192 226.645 364.143 229.724 363.44L242.167 377.138L245.603 395.316Z" fill="white"/>
<path d="M249.656 333.198C252.026 341.92 255.628 350.547 261.506 353.391C261.506 353.391 266.981 369.08 245.651 395.316C223.325 379.413 229.772 363.44 229.772 363.44C240.295 357.112 237.332 348.769 232.853 341.47L239.038 331.539C239.655 330.583 240.535 329.826 241.573 329.36C242.612 328.894 243.763 328.74 244.887 328.915C246.011 329.091 247.06 329.589 247.907 330.349C248.753 331.11 249.361 332.099 249.656 333.198Z" fill="#FF8B7B"/>
<path opacity="0.2" d="M249.656 333.198C249.373 332.081 248.767 331.071 247.914 330.295C247.061 329.52 245.999 329.012 244.86 328.835C243.721 328.658 242.555 328.82 241.507 329.301C240.459 329.782 239.576 330.56 238.967 331.539L236.976 334.715C237.142 336.824 237.237 338.554 237.213 339.455C237.024 345.617 245.674 345.333 252.713 342.37C251.459 339.397 250.436 336.33 249.656 333.198Z" fill="black"/>
<path d="M206.783 309.38C212.945 326.183 215.173 333.435 226.454 339.645C243.399 349.006 262.691 337.772 261.696 319.452C260.795 302.981 250.889 278.238 232.094 276.413C227.952 275.994 223.771 276.64 219.948 278.29C216.125 279.94 212.788 282.54 210.252 285.843C207.716 289.146 206.066 293.041 205.459 297.161C204.852 301.28 205.308 305.486 206.783 309.38Z" fill="#FF8B7B"/>
<path d="M250.367 284.116C244.584 278.546 238.517 272.076 226.904 273.332C214.059 274.731 208.987 282.504 208.987 282.504L197.943 306.654C197.943 306.654 204.792 337.749 216.097 323.244C222.614 314.855 222.78 302.175 220.41 292.695C224.852 292.069 229.229 291.054 233.493 289.662C238.707 291.605 244.561 291.605 248.898 287.623C249.846 286.746 250.533 286.059 251.031 285.514L251.434 285.064C252.713 283.428 251.647 283.594 250.367 284.116ZM235.436 289.14C239.485 287.831 243.598 286.731 247.76 285.846C246.213 287.483 244.241 288.657 242.065 289.239C239.889 289.821 237.594 289.787 235.436 289.14Z" fill="#263238"/>
<path d="M207.636 326.468C209.416 329.45 212.305 331.606 215.671 332.464C220.126 333.578 222.235 329.572 220.885 325.354C219.676 321.633 215.908 316.561 211.405 317.272C210.431 317.45 209.518 317.87 208.749 318.493C207.98 319.117 207.381 319.923 207.006 320.839C206.63 321.755 206.491 322.75 206.602 323.734C206.712 324.717 207.068 325.658 207.636 326.468Z" fill="#FF8B7B"/>
<path d="M243.115 478.243C243.115 478.243 240.745 621.367 259.444 673.08C277.456 722.661 331.184 807.886 331.184 807.886L362.326 807.104C362.326 807.104 312.84 699.15 304.759 656.49C291.297 585.698 294.26 462.15 294.26 462.15L243.115 478.243Z" fill="#9BA0AA"/>
<path opacity="0.3" d="M271.081 490.59L279.447 466.89L294.259 462.15C294.259 462.15 292.908 518.39 296.155 576.716C282.717 550.836 271.081 503.436 271.081 490.59Z" fill="black"/>
<path d="M326.8 809.497L365.265 808.526L363.037 796.699L321.04 798.69L326.8 809.497Z" fill="#263238"/>
<path d="M258.33 473.621C258.33 473.621 306.915 584.75 338.317 648.005C363.676 699.103 442.597 767.643 442.597 767.643L464.236 752.641C464.236 752.641 404.843 671.445 387.329 636.795C331.279 525.927 345.096 480.233 312.864 456.13L258.33 473.621Z" fill="#9BA0AA"/>
<path d="M443.877 774.8L469.284 756.717L463.525 745.626L435.606 766.742L443.877 774.8Z" fill="#263238"/>
<path d="M312.84 451.698L317.96 456.96C318.362 457.362 317.96 458.05 317.13 458.311L243.873 481.465C243.257 481.679 242.641 481.465 242.475 481.157L239.868 475.09C239.678 474.687 240.105 474.142 240.792 473.929L311.537 451.532C311.75 451.444 311.982 451.414 312.211 451.443C312.439 451.472 312.656 451.56 312.84 451.698Z" fill="#263238"/>
<path d="M305.73 462.624L307.626 462.032C308.006 462.032 308.243 461.605 308.124 461.392L304.688 453.547C304.586 453.419 304.445 453.328 304.286 453.29C304.127 453.251 303.96 453.267 303.811 453.334L301.915 453.95C301.536 454.068 301.299 454.353 301.417 454.59L304.877 462.411C304.948 462.648 305.328 462.743 305.73 462.624Z" fill="#9BA0AA"/>
<path d="M249.3 480.47L251.196 479.878C251.575 479.759 251.789 479.475 251.694 479.238L248.234 471.393C248.234 471.156 247.736 471.085 247.357 471.203L245.461 471.796C245.105 471.914 244.868 472.199 244.963 472.436L248.423 480.28C248.53 480.401 248.673 480.485 248.831 480.519C248.988 480.553 249.153 480.536 249.3 480.47Z" fill="#9BA0AA"/>
<path d="M277.503 471.63L279.399 471.038C279.778 470.919 280.015 470.635 279.897 470.398L276.437 462.553C276.437 462.34 275.963 462.245 275.584 462.364L273.688 462.956C273.308 462.956 273.071 463.359 273.19 463.596L276.626 471.441C276.745 471.63 277.124 471.63 277.503 471.63Z" fill="#9BA0AA"/>
<path d="M236.265 305.73C236.692 307.128 237.758 308.1 238.635 307.768C239.512 307.437 239.939 306.133 239.512 304.758C239.086 303.384 238.043 302.388 237.142 302.72C236.242 303.052 235.862 304.284 236.265 305.73Z" fill="#263238"/>
<path d="M252.026 300.99C252.453 302.388 253.519 303.36 254.396 303.028C255.273 302.697 255.699 301.417 255.297 300.018C254.894 298.62 253.803 297.648 252.927 297.98C252.05 298.312 251.623 299.592 252.026 300.99Z" fill="#263238"/>
<path d="M252.548 298.17L255.605 296.203C255.605 296.203 254.681 299.331 252.548 298.17Z" fill="#263238"/>
<path d="M248.092 304.616C250.291 307.421 252.858 309.916 255.724 312.034C255.152 312.748 254.432 313.33 253.614 313.739C252.795 314.148 251.898 314.375 250.984 314.404L248.092 304.616Z" fill="#FF5652"/>
<path d="M246.291 322.083C246.356 322.03 246.404 321.96 246.43 321.879C246.455 321.799 246.456 321.714 246.433 321.633C246.4 321.526 246.328 321.435 246.232 321.378C246.135 321.321 246.021 321.302 245.911 321.325C244.19 321.887 242.36 322.032 240.571 321.748C238.783 321.463 237.088 320.758 235.626 319.689C235.582 319.652 235.532 319.624 235.477 319.606C235.422 319.588 235.365 319.581 235.308 319.586C235.251 319.59 235.195 319.606 235.144 319.632C235.092 319.657 235.047 319.693 235.009 319.737C234.972 319.78 234.944 319.831 234.926 319.885C234.908 319.94 234.901 319.998 234.906 320.055C234.91 320.112 234.926 320.168 234.952 320.219C234.977 320.27 235.013 320.316 235.057 320.353C236.629 321.515 238.455 322.284 240.384 322.597C242.314 322.91 244.29 322.759 246.148 322.154L246.291 322.083Z" fill="#263238"/>
<path d="M230.317 301.867C230.427 301.763 230.509 301.633 230.554 301.488C230.906 300.476 231.49 299.561 232.26 298.816C233.029 298.071 233.963 297.517 234.986 297.198C235.105 297.186 235.22 297.148 235.324 297.088C235.427 297.029 235.517 296.948 235.588 296.851C235.658 296.754 235.707 296.643 235.732 296.526C235.757 296.409 235.756 296.288 235.731 296.171C235.706 296.054 235.657 295.943 235.586 295.847C235.516 295.75 235.426 295.669 235.322 295.609C235.218 295.55 235.103 295.513 234.984 295.501C234.864 295.489 234.744 295.502 234.63 295.539C233.313 295.916 232.108 296.61 231.12 297.56C230.133 298.51 229.393 299.688 228.966 300.99C228.924 301.096 228.904 301.209 228.907 301.322C228.909 301.436 228.934 301.548 228.981 301.652C229.027 301.756 229.094 301.849 229.177 301.927C229.26 302.004 229.357 302.065 229.464 302.104C229.615 302.135 229.771 302.13 229.919 302.088C230.067 302.047 230.204 301.971 230.317 301.867Z" fill="#263238"/>
<path d="M256.837 292.055C256.829 292 256.829 291.944 256.837 291.889C256.867 291.668 256.813 291.443 256.686 291.259C256.558 291.075 256.368 290.945 256.15 290.894C254.822 290.611 253.446 290.649 252.136 291.003C250.825 291.358 249.618 292.019 248.613 292.932C248.456 293.096 248.37 293.315 248.375 293.541C248.379 293.768 248.474 293.984 248.637 294.141C248.8 294.298 249.02 294.384 249.246 294.379C249.473 294.375 249.689 294.281 249.846 294.117C250.648 293.406 251.608 292.896 252.647 292.628C253.685 292.36 254.772 292.343 255.818 292.577C256.022 292.626 256.237 292.601 256.424 292.505C256.611 292.409 256.758 292.25 256.837 292.055Z" fill="#263238"/>
<path d="M302.957 364.648C305.778 366.758 308.148 368.725 310.612 370.858C313.077 372.991 315.352 375.124 317.722 377.352C322.344 381.807 326.8 386.452 331.018 391.335C335.284 396.244 339.241 401.412 342.868 406.811C343.816 408.138 344.646 409.583 345.523 410.958C346.399 412.333 347.276 413.731 348.058 415.2C348.841 416.67 349.67 417.973 350.428 419.609L351.685 422.239L352.704 424.894C354.888 431.624 355.914 438.676 355.737 445.75C355.593 452.323 354.888 458.873 353.628 465.326C352.396 471.654 350.784 477.839 348.888 483.907C346.976 489.985 344.745 495.957 342.205 501.8L333.625 498.624C335.095 492.936 336.493 486.964 337.536 481.063C338.694 475.218 339.54 469.317 340.072 463.383C340.641 457.634 340.776 451.85 340.474 446.082C340.305 443.347 339.972 440.624 339.479 437.929C338.959 435.441 338.238 433 337.322 430.629L336.588 428.994L335.782 427.501C335.142 426.411 334.265 425.131 333.412 423.922C332.559 422.713 331.848 421.552 331.042 420.343C330.236 419.135 329.407 417.973 328.506 416.836C325.046 412.096 321.135 407.782 317.248 403.398C313.362 399.013 309.096 394.89 304.759 390.861C302.626 388.822 300.421 386.831 298.217 384.888C296.013 382.945 293.643 381.001 291.605 379.342L302.957 364.648Z" fill="#FF8B7B"/>
<path d="M336.35 492.96L323.363 502.44L339.953 511.209C339.953 511.209 344.906 502.44 343.318 495.117L336.35 492.96Z" fill="#FF8B7B"/>
<path d="M319.263 517.821L332.843 522.016L340.071 511.256L323.363 502.487L319.263 517.821Z" fill="#FF8B7B"/>
<path d="M292.34 347.916C301.417 347.513 319.263 369.815 319.263 369.815L300.729 396.027C300.729 396.027 279.921 379.437 278.309 367.895C276.958 358.06 280.774 348.39 292.34 347.916Z" fill="#9BA0AA"/>
<path opacity="0.6" d="M292.34 347.916C301.417 347.513 319.263 369.815 319.263 369.815L300.729 396.027C300.729 396.027 279.921 379.437 278.309 367.895C276.958 358.06 280.774 348.39 292.34 347.916Z" fill="black"/>
<path d="M454.187 792.718H453.903C453.487 792.666 453.093 792.504 452.759 792.251C452.426 791.997 452.167 791.659 452.007 791.272C451.882 791.047 451.817 790.794 451.817 790.537C451.817 790.28 451.882 790.027 452.007 789.802C453.168 787.812 459.685 787.432 460.42 787.432C460.502 787.431 460.584 787.453 460.655 787.495C460.726 787.536 460.784 787.597 460.823 787.669C460.87 787.74 460.895 787.822 460.895 787.907C460.895 787.991 460.87 788.073 460.823 788.143C459.235 789.897 456.415 792.718 454.187 792.718ZM459.401 788.38C456.794 788.57 453.334 789.186 452.741 790.229C452.677 790.323 452.643 790.435 452.643 790.549C452.643 790.663 452.677 790.775 452.741 790.869C452.842 791.128 453.008 791.357 453.224 791.531C453.441 791.706 453.699 791.821 453.974 791.864C455.23 792.007 457.221 790.703 459.401 788.38Z" fill="#9BA0AA"/>
<path d="M459.97 788.333C457.789 788.333 453.5 787.124 452.694 785.371C452.565 785.06 452.542 784.715 452.628 784.39C452.713 784.065 452.903 783.777 453.168 783.569C453.414 783.349 453.703 783.182 454.018 783.08C454.332 782.978 454.664 782.943 454.993 782.977C457.576 783.261 460.633 787.456 460.752 787.717C460.792 787.781 460.813 787.855 460.813 787.93C460.813 788.006 460.792 788.08 460.752 788.144C460.719 788.206 460.672 788.261 460.614 788.302C460.557 788.343 460.49 788.37 460.42 788.381L459.97 788.333ZM454.708 783.83C454.355 783.828 454.015 783.964 453.76 784.209C453.357 784.565 453.405 784.849 453.476 785.039C453.997 786.176 457.363 787.409 459.567 787.409C458.477 786.058 456.438 783.925 454.827 783.759L454.708 783.83Z" fill="#9BA0AA"/>
<path d="M336.019 832.32C334.559 832.426 333.103 832.078 331.848 831.325C331.522 831.086 331.255 830.776 331.066 830.419C330.878 830.062 330.772 829.667 330.758 829.263C330.738 829.039 330.778 828.813 330.874 828.609C330.97 828.405 331.118 828.23 331.303 828.102C333.246 826.798 340.522 830.093 341.968 830.78C342.048 830.815 342.115 830.876 342.158 830.953C342.201 831.03 342.217 831.119 342.205 831.206C342.197 831.297 342.16 831.382 342.101 831.45C342.041 831.518 341.961 831.566 341.873 831.586C339.951 832.026 337.99 832.272 336.019 832.32ZM332.63 828.623C332.333 828.608 332.039 828.673 331.777 828.813C331.715 828.859 331.668 828.921 331.638 828.991C331.609 829.062 331.6 829.14 331.611 829.216C331.62 829.495 331.693 829.768 331.824 830.015C331.956 830.261 332.142 830.475 332.369 830.638C333.625 831.586 336.588 831.728 340.403 831.017C337.953 829.817 335.33 829.009 332.63 828.623Z" fill="#9BA0AA"/>
<path d="M341.778 831.586H341.636C339.266 830.59 334.336 826.68 334.526 824.665C334.526 824.239 334.881 823.67 335.971 823.551C340.237 823.03 342.039 830.661 342.11 831.088C342.125 831.165 342.121 831.245 342.096 831.32C342.071 831.395 342.026 831.462 341.967 831.514C341.912 831.555 341.846 831.579 341.778 831.586ZM336.54 824.357H336.256C335.805 824.357 335.568 824.547 335.521 824.76C335.379 825.921 338.744 829.026 341.209 830.377C340.569 828.505 339.029 824.357 336.54 824.357Z" fill="#9BA0AA"/>
<path d="M236.787 302.862L239.844 300.895C239.844 300.895 238.92 304.024 236.787 302.862Z" fill="#263238"/>
<path d="M684.053 129.568H339.621C335.941 129.543 332.295 130.272 328.908 131.71C325.52 133.148 322.464 135.264 319.925 137.929C317.387 140.594 315.422 143.75 314.15 147.203C312.879 150.656 312.328 154.334 312.532 158.008L344.835 827.699C345.295 835.328 348.625 842.5 354.155 847.776C359.686 853.051 367.007 856.039 374.65 856.139H719.082C722.761 856.164 726.406 855.435 729.792 853.997C733.178 852.559 736.234 850.442 738.77 847.777C741.306 845.112 743.269 841.955 744.538 838.502C745.807 835.049 746.355 831.372 746.147 827.699L713.868 158.008C713.408 150.379 710.078 143.206 704.548 137.931C699.017 132.655 691.696 129.668 684.053 129.568Z" fill="black"/>
<path d="M696.78 129.568H352.253C348.574 129.543 344.929 130.272 341.543 131.71C338.157 133.148 335.101 135.265 332.565 137.93C330.029 140.595 328.066 143.752 326.797 147.205C325.528 150.658 324.98 154.335 325.188 158.008L357.467 827.699C357.927 835.328 361.257 842.5 366.787 847.776C372.318 853.051 379.639 856.039 387.282 856.139H731.714C735.393 856.164 739.038 855.435 742.424 853.997C745.81 852.559 748.866 850.442 751.402 847.777C753.938 845.112 755.901 841.955 757.17 838.502C758.439 835.049 758.987 831.372 758.779 827.699L726.5 158.008C726.041 150.395 722.725 143.236 717.214 137.963C711.704 132.69 704.406 129.691 696.78 129.568Z" fill="#263238"/>
<path d="M386.31 837.179C383.773 837.115 381.351 836.108 379.515 834.356C377.679 832.603 376.562 830.23 376.38 827.699L344.148 158.008C344.09 156.786 344.281 155.564 344.709 154.418C345.136 153.271 345.792 152.223 346.636 151.337C347.48 150.451 348.495 149.745 349.619 149.263C350.743 148.78 351.954 148.53 353.178 148.528H697.61C700.15 148.581 702.579 149.584 704.417 151.339C706.255 153.093 707.369 155.473 707.54 158.008L739.82 827.699C739.877 828.919 739.687 830.139 739.261 831.283C738.835 832.428 738.181 833.475 737.34 834.361C736.498 835.247 735.486 835.953 734.365 836.437C733.243 836.922 732.035 837.174 730.813 837.179H386.31Z" fill="#407BFF"/>
<path opacity="0.1" d="M386.144 832.439C384.878 832.397 383.671 831.89 382.753 831.016C381.836 830.142 381.271 828.962 381.167 827.699L348.888 158.008C348.866 157.399 348.965 156.793 349.181 156.223C349.396 155.653 349.723 155.133 350.143 154.691C350.562 154.25 351.066 153.896 351.623 153.652C352.181 153.408 352.782 153.277 353.391 153.268H697.823C699.091 153.305 700.301 153.81 701.22 154.684C702.138 155.559 702.701 156.743 702.8 158.008L735.079 827.699C735.102 828.307 735.002 828.914 734.787 829.484C734.571 830.053 734.244 830.574 733.825 831.016C733.405 831.457 732.902 831.81 732.344 832.055C731.786 832.299 731.185 832.43 730.576 832.439H386.144Z" fill="black"/>
<g opacity="0.3">
<path d="M490.092 793.95H421.86C419.987 793.929 418.192 793.198 416.837 791.905C415.482 790.612 414.668 788.852 414.561 786.982L409.584 683.39C409.521 682.474 409.649 681.555 409.959 680.691C410.269 679.827 410.754 679.037 411.384 678.369C412.013 677.701 412.774 677.171 413.619 676.812C414.463 676.452 415.373 676.271 416.291 676.28H484.641C486.51 676.295 488.302 677.021 489.654 678.311C491.006 679.601 491.815 681.358 491.917 683.224L496.823 786.84C496.882 787.757 496.751 788.676 496.438 789.54C496.126 790.404 495.639 791.194 495.007 791.862C494.375 792.529 493.613 793.059 492.767 793.418C491.922 793.777 491.011 793.958 490.092 793.95ZM416.196 678.697C415.605 678.694 415.019 678.81 414.473 679.038C413.927 679.266 413.433 679.601 413.02 680.024C412.617 680.46 412.305 680.971 412.102 681.529C411.898 682.086 411.808 682.678 411.835 683.271L416.836 786.84C416.902 788.108 417.448 789.304 418.364 790.184C419.279 791.065 420.495 791.564 421.765 791.58H490.092C490.687 791.584 491.275 791.467 491.822 791.234C492.369 791.001 492.862 790.659 493.271 790.228C493.68 789.797 493.996 789.286 494.199 788.728C494.402 788.169 494.489 787.575 494.453 786.982L489.453 683.39C489.392 682.123 488.851 680.928 487.939 680.047C487.028 679.166 485.814 678.666 484.547 678.65L416.196 678.697Z" fill="#FAFAFA"/>
<path d="M483.646 702.752H419.49C419.176 702.752 418.874 702.627 418.652 702.405C418.43 702.183 418.305 701.881 418.305 701.567C418.305 701.253 418.43 700.952 418.652 700.729C418.874 700.507 419.176 700.382 419.49 700.382H483.717C484.031 700.382 484.333 700.507 484.555 700.729C484.777 700.952 484.902 701.253 484.902 701.567C484.902 701.881 484.777 702.183 484.555 702.405C484.333 702.627 484.031 702.752 483.717 702.752H483.646Z" fill="#FAFAFA"/>
<path d="M484.31 716.143H420.059C419.746 716.137 419.449 716.01 419.228 715.789C419.007 715.568 418.88 715.27 418.874 714.958C418.874 714.644 418.999 714.342 419.221 714.12C419.443 713.898 419.745 713.773 420.059 713.773H484.31C484.624 713.773 484.925 713.898 485.147 714.12C485.37 714.342 485.495 714.644 485.495 714.958C485.488 715.27 485.362 715.568 485.141 715.789C484.92 716.01 484.622 716.137 484.31 716.143Z" fill="#FAFAFA"/>
<path d="M484.949 729.533H420.699C420.386 729.527 420.088 729.4 419.868 729.18C419.647 728.959 419.52 728.661 419.514 728.348C419.514 728.034 419.639 727.733 419.861 727.51C420.083 727.288 420.384 727.163 420.699 727.163H484.949C485.264 727.163 485.565 727.288 485.787 727.51C486.01 727.733 486.134 728.034 486.134 728.348C486.134 728.663 486.01 728.964 485.787 729.186C485.565 729.408 485.264 729.533 484.949 729.533Z" fill="#FAFAFA"/>
<path d="M485.589 742.924H421.362C421.048 742.924 420.747 742.799 420.525 742.577C420.302 742.355 420.177 742.053 420.177 741.739C420.177 741.425 420.302 741.123 420.525 740.901C420.747 740.679 421.048 740.554 421.362 740.554H485.589C485.904 740.554 486.205 740.679 486.427 740.901C486.65 741.123 486.774 741.425 486.774 741.739C486.774 742.053 486.65 742.355 486.427 742.577C486.205 742.799 485.904 742.924 485.589 742.924Z" fill="#FAFAFA"/>
<path d="M486.229 756.314H422.002C421.688 756.314 421.387 756.19 421.164 755.967C420.942 755.745 420.817 755.444 420.817 755.129C420.817 754.815 420.942 754.514 421.164 754.291C421.387 754.069 421.688 753.944 422.002 753.944H486.229C486.544 753.944 486.845 754.069 487.067 754.291C487.289 754.514 487.414 754.815 487.414 755.129C487.414 755.444 487.289 755.745 487.067 755.967C486.845 756.19 486.544 756.314 486.229 756.314Z" fill="#FAFAFA"/>
<path d="M473.716 769.705H422.642C422.328 769.705 422.027 769.58 421.804 769.358C421.582 769.136 421.457 768.834 421.457 768.52C421.457 768.206 421.582 767.904 421.804 767.682C422.027 767.46 422.328 767.335 422.642 767.335H473.716C474.03 767.335 474.331 767.46 474.554 767.682C474.776 767.904 474.901 768.206 474.901 768.52C474.895 768.832 474.768 769.13 474.547 769.351C474.326 769.572 474.028 769.699 473.716 769.705Z" fill="#FAFAFA"/>
</g>
<g opacity="0.3">
<path d="M533.108 413.873L486.253 421.362C484.445 416.904 482.054 412.704 479.143 408.873C476.339 405.929 473.022 403.52 469.355 401.763L471.109 438.498C497.163 445.355 514.693 452.591 523.699 460.207C529.441 464.991 534.1 470.941 537.369 477.662C540.638 484.384 542.441 491.723 542.659 499.193C543.286 507.936 541.68 516.696 537.99 524.647C534.481 532.065 529.431 538.649 523.178 543.962C517.353 548.952 510.616 552.767 503.341 555.196C494.801 557.764 485.95 559.151 477.034 559.32L477.342 565.79C477.414 566.988 477.238 568.187 476.826 569.314C476.414 570.441 475.775 571.471 474.948 572.34C474.121 573.209 473.124 573.899 472.019 574.366C470.915 574.834 469.725 575.069 468.526 575.057C466.033 575.031 463.644 574.06 461.84 572.34C460.036 570.619 458.953 568.279 458.809 565.79L458.501 559.32C448.099 558.652 437.829 556.628 427.951 553.3C420.385 550.566 413.387 546.461 407.309 541.19C401.761 536.453 397.063 530.802 393.42 524.481C389.767 517.683 387.109 510.396 385.528 502.843L436.507 496.894C438.435 505.253 440.805 511.296 443.617 515.025C447.15 519.357 451.691 522.758 456.842 524.931L454.685 480.091C442.06 476.948 429.699 472.828 417.713 467.767C409.959 463.901 403.295 458.157 398.326 451.059C392.519 442.854 389.307 433.095 389.107 423.045C388.556 416.111 389.522 409.139 391.936 402.616C394.351 396.092 398.157 390.172 403.09 385.267C413.139 375.14 428.544 369.531 449.305 368.44L449.139 365.146C449.067 363.948 449.243 362.749 449.655 361.622C450.067 360.495 450.706 359.465 451.533 358.596C452.36 357.727 453.357 357.037 454.462 356.57C455.567 356.103 456.756 355.867 457.955 355.879C460.448 355.905 462.837 356.876 464.641 358.597C466.445 360.317 467.528 362.658 467.672 365.146L467.838 368.44C486.798 369.625 501.5 374.113 511.944 381.902C522.449 389.824 529.919 401.109 533.108 413.873ZM450.869 401.194C446.643 402.277 442.828 404.576 439.896 407.806C437.901 410.484 436.934 413.789 437.171 417.12C437.296 420.693 438.595 424.125 440.868 426.885C444.032 430.205 448.037 432.605 452.457 433.829L450.869 401.194ZM475.446 526.14C482.556 524.56 487.691 521.906 490.851 518.177C492.368 516.5 493.538 514.539 494.295 512.408C495.051 510.276 495.379 508.016 495.259 505.758C495.018 501.643 493.34 497.743 490.519 494.738C487.533 491.396 481.845 488.268 473.503 485.4L475.446 526.14Z" fill="#FAFAFA"/>
</g>
<path opacity="0.2" d="M656.964 216.997H422.334L445.205 691.258C446.321 710.687 454.772 728.968 468.851 742.404C482.929 755.84 501.585 763.43 521.045 763.638H755.675L732.828 289.377C731.722 269.94 723.271 251.65 709.185 238.211C695.099 224.771 676.432 217.188 656.964 216.997Z" fill="black"/>
<path d="M714.437 216.997H422.405C441.867 217.2 460.525 224.788 474.605 238.225C488.685 251.662 497.135 269.946 498.245 289.377L516.897 675.45C518.013 694.879 526.465 713.16 540.543 726.596C554.622 740.032 573.277 747.622 592.737 747.83H739.985C749.36 747.928 758.655 746.095 767.292 742.447C775.929 738.799 783.722 733.414 790.189 726.625C796.655 719.836 801.656 711.79 804.88 702.986C808.104 694.182 809.482 684.809 808.929 675.45L790.3 289.377C789.195 269.94 780.743 251.65 766.657 238.211C752.572 224.771 733.904 217.188 714.437 216.997Z" fill="#FAFAFA"/>
<path d="M661.657 675.45C662.213 684.804 660.839 694.172 657.621 702.973C654.403 711.773 649.409 719.818 642.949 726.606C636.49 733.395 628.703 738.782 620.073 742.433C611.443 746.084 602.155 747.921 592.785 747.83H884.792C894.163 747.921 903.453 746.084 912.084 742.433C920.715 738.782 928.503 733.395 934.965 726.607C941.426 719.819 946.422 711.775 949.643 702.975C952.864 694.174 954.241 684.805 953.688 675.45H661.657Z" fill="#E6E6E6"/>
<path d="M755.556 456.628H549.176C547.73 456.612 546.343 456.048 545.296 455.05C544.249 454.051 543.62 452.692 543.536 451.248C543.497 450.553 543.601 449.858 543.841 449.205C544.081 448.552 544.452 447.955 544.932 447.451C545.412 446.947 545.989 446.546 546.63 446.274C547.27 446.002 547.959 445.864 548.655 445.868H755.035C756.498 445.86 757.908 446.413 758.976 447.414C760.043 448.415 760.685 449.787 760.77 451.248C760.81 451.951 760.703 452.654 760.457 453.314C760.211 453.973 759.831 454.575 759.342 455.08C758.852 455.586 758.262 455.984 757.611 456.251C756.959 456.517 756.26 456.645 755.556 456.628Z" fill="#407BFF"/>
<path d="M757.168 490.211H550.788C549.341 490.195 547.954 489.631 546.907 488.633C545.86 487.634 545.231 486.275 545.148 484.831C545.109 484.136 545.213 483.441 545.453 482.788C545.693 482.135 546.064 481.538 546.544 481.034C547.023 480.53 547.601 480.129 548.241 479.857C548.882 479.585 549.571 479.447 550.267 479.451H756.67C758.113 479.473 759.494 480.039 760.536 481.037C761.578 482.035 762.203 483.391 762.287 484.831C762.326 485.526 762.222 486.221 761.982 486.874C761.742 487.527 761.37 488.124 760.891 488.628C760.411 489.132 759.833 489.532 759.193 489.805C758.553 490.077 757.863 490.215 757.168 490.211Z" fill="#407BFF"/>
<path d="M758.803 523.77H552.4C550.953 523.755 549.566 523.191 548.519 522.192C547.472 521.193 546.843 519.835 546.759 518.39C546.72 517.696 546.824 517 547.064 516.347C547.304 515.694 547.676 515.097 548.155 514.593C548.635 514.089 549.213 513.689 549.853 513.416C550.493 513.144 551.183 513.006 551.878 513.01H758.4C759.847 513.026 761.234 513.59 762.281 514.589C763.328 515.587 763.957 516.946 764.041 518.39C764.08 519.095 763.973 519.8 763.726 520.462C763.479 521.123 763.097 521.725 762.604 522.231C762.112 522.737 761.52 523.135 760.865 523.4C760.211 523.665 759.509 523.791 758.803 523.77Z" fill="#407BFF"/>
<path d="M760.415 557.4H554.035C552.59 557.379 551.206 556.813 550.16 555.816C549.115 554.818 548.484 553.463 548.394 552.02C548.356 551.326 548.459 550.63 548.7 549.977C548.94 549.324 549.311 548.727 549.791 548.223C550.27 547.719 550.848 547.319 551.488 547.047C552.129 546.774 552.818 546.636 553.514 546.64H759.893C761.34 546.656 762.727 547.22 763.774 548.219C764.821 549.217 765.45 550.576 765.534 552.02C765.573 552.715 765.469 553.41 765.229 554.063C764.989 554.716 764.617 555.313 764.138 555.817C763.658 556.321 763.08 556.722 762.44 556.994C761.8 557.266 761.11 557.405 760.415 557.4Z" fill="#407BFF"/>
<path d="M679.977 590.983H555.647C554.2 590.968 552.813 590.404 551.766 589.405C550.719 588.406 550.09 587.048 550.006 585.603C549.967 584.909 550.071 584.213 550.311 583.56C550.551 582.907 550.923 582.31 551.402 581.806C551.882 581.302 552.46 580.902 553.1 580.63C553.74 580.357 554.43 580.219 555.125 580.223H679.456C680.902 580.239 682.289 580.803 683.336 581.802C684.383 582.8 685.012 584.159 685.096 585.603C685.135 586.298 685.031 586.993 684.791 587.646C684.551 588.299 684.18 588.896 683.7 589.4C683.22 589.904 682.643 590.305 682.002 590.577C681.362 590.849 680.673 590.987 679.977 590.983Z" fill="#407BFF"/>
<path d="M694.316 387.016C718.738 361.998 717.253 320.942 690.999 295.313C664.746 269.685 623.665 269.189 599.243 294.206C574.822 319.223 576.307 360.28 602.56 385.908C628.814 411.537 669.894 412.033 694.316 387.016Z" fill="#407BFF"/>
<path d="M700.288 340.569C700.736 349.376 698.933 358.152 695.05 366.07C690.84 374.56 684.323 381.692 676.245 386.646C668.167 391.601 658.856 394.179 649.38 394.084C639.577 394.01 629.962 391.389 621.478 386.478C612.993 381.566 605.931 374.534 600.985 366.07C596.369 358.328 593.724 349.572 593.282 340.569C592.872 333.653 593.889 326.726 596.27 320.219C598.651 313.712 602.344 307.765 607.121 302.746C611.897 297.727 617.655 293.744 624.036 291.045C630.417 288.345 637.285 286.987 644.214 287.054C658.594 287.233 672.373 292.852 682.777 302.782C693.181 312.711 699.438 326.212 700.288 340.569Z" fill="white"/>
<path opacity="0.4" d="M695.05 366.07C690.84 374.56 684.323 381.692 676.245 386.646C668.167 391.601 658.856 394.179 649.38 394.084C639.577 394.01 629.962 391.389 621.478 386.477C612.993 381.566 605.931 374.534 600.985 366.07C614.624 356.711 630.801 351.749 647.342 351.85C664.285 351.882 680.855 356.821 695.05 366.07Z" fill="#407BFF"/>
<path opacity="0.4" d="M663.347 339.284C672.326 330.086 671.784 314.996 662.137 305.578C652.49 296.16 637.39 295.982 628.412 305.18C619.433 314.377 619.975 329.468 629.622 338.886C639.269 348.303 654.368 348.481 663.347 339.284Z" fill="#407BFF"/>
<path d="M845.521 838.364H828.125L826.372 798.026H843.791L845.521 838.364Z" fill="#B55B52"/>
<path opacity="0.2" d="M826.395 798.05L827.272 818.835H844.692L843.791 798.05H826.395Z" fill="black"/>
<path d="M993.717 791.106L977.175 796.51L956.342 760.888L972.909 755.485L993.717 791.106Z" fill="#B55B52"/>
<path opacity="0.2" d="M972.909 755.485L956.342 760.888L967.102 779.256L983.645 773.852L972.909 755.485Z" fill="black"/>
<path d="M904.392 255.77C906.549 258.401 908.374 260.747 910.246 263.331C912.118 265.914 913.896 268.379 915.673 270.938C919.181 276.081 922.546 281.343 925.698 286.77C932.258 297.781 937.606 309.47 941.649 321.633L942.051 322.818L942.241 323.434L942.502 324.406L942.976 326.349L943.236 328.126C943.517 330.255 943.604 332.405 943.497 334.549C943.276 338.165 942.753 341.757 941.933 345.285C940.432 351.608 938.444 357.804 935.984 363.819C931.298 375.348 925.62 386.45 919.015 396.999L907.165 391.334C910.72 380.219 914.275 368.843 916.882 357.775C918.239 352.44 919.268 347.026 919.963 341.564C920.255 339.206 920.342 336.827 920.224 334.454C920.188 333.609 920.077 332.768 919.892 331.942L919.773 331.516C919.729 331.439 919.69 331.36 919.655 331.279L919.465 330.828L919.086 329.904L917.498 326.183L915.721 322.486C914.536 320.116 913.232 317.556 911.929 315.091C909.227 310.209 906.312 305.351 903.278 300.516C900.245 295.681 897.021 291.036 893.798 286.296C890.575 281.556 887.044 276.816 883.844 272.526L904.392 255.77Z" fill="#B55B52"/>
<path d="M908.255 388.396L901.453 403.445H920.911C920.911 403.445 924.016 392.022 916.953 387.4L908.255 388.396Z" fill="#B55B52"/>
<path d="M903.728 420.367L921.788 416.883L920.911 403.445H901.453L903.728 420.367Z" fill="#B55B52"/>
<path d="M818.172 179.385C818.172 180.807 817.437 181.945 816.513 181.945C815.588 181.945 814.854 180.807 814.854 179.385C814.854 177.963 815.612 176.849 816.513 176.849C817.413 176.849 818.172 177.987 818.172 179.385Z" fill="#263238"/>
<path d="M817.65 181.945C815.98 186.233 813.722 190.269 810.943 193.937C811.901 194.624 812.997 195.094 814.156 195.315C815.314 195.536 816.506 195.503 817.65 195.217V181.945Z" fill="#A02724"/>
<path d="M823.149 171.612C822.976 171.614 822.808 171.555 822.675 171.446C821.849 170.825 820.89 170.405 819.874 170.22C818.858 170.035 817.812 170.089 816.821 170.379C816.622 170.433 816.411 170.412 816.228 170.319C816.045 170.226 815.902 170.069 815.828 169.877C815.755 169.685 815.755 169.473 815.829 169.281C815.902 169.089 816.045 168.932 816.228 168.839C817.477 168.442 818.802 168.352 820.093 168.574C821.384 168.797 822.603 169.327 823.646 170.119C823.821 170.251 823.938 170.445 823.973 170.661C824.009 170.878 823.959 171.099 823.836 171.28C823.754 171.384 823.649 171.467 823.53 171.525C823.411 171.582 823.281 171.612 823.149 171.612Z" fill="#263238"/>
<path d="M863.51 195.573C860.997 208.323 858.509 231.668 867.42 240.152C867.42 240.152 863.936 253.069 840.284 253.069C814.214 253.069 827.841 240.152 827.841 240.152C842.061 236.763 841.682 226.24 839.193 216.334L863.51 195.573Z" fill="#B55B52"/>
<path d="M870.833 244.584C872.705 240.508 874.767 235.815 870.501 234.346C865.761 232.734 840.26 231.099 831.42 234.132C830.257 234.454 829.17 235.004 828.222 235.75C827.274 236.496 826.483 237.423 825.897 238.477C825.31 239.531 824.939 240.692 824.805 241.891C824.671 243.09 824.776 244.303 825.115 245.461L870.833 244.584Z" fill="#263238"/>
<path d="M973.596 800.657C972.316 801.89 970.87 802.885 969.78 802.719C969.436 802.65 969.122 802.476 968.88 802.222C968.638 801.967 968.481 801.644 968.429 801.297C968.357 801.028 968.345 800.746 968.394 800.471C968.443 800.197 968.552 799.937 968.714 799.709C970.136 797.505 975.824 796.557 976.132 796.533C976.208 796.522 976.285 796.532 976.356 796.561C976.427 796.59 976.489 796.638 976.535 796.699C976.58 796.766 976.604 796.844 976.604 796.925C976.604 797.005 976.58 797.083 976.535 797.15C975.68 798.418 974.695 799.594 973.596 800.657ZM969.733 799.757C969.609 799.871 969.498 799.998 969.401 800.136C969.306 800.272 969.242 800.428 969.213 800.591C969.184 800.755 969.192 800.923 969.235 801.084C969.425 801.819 969.78 801.89 969.899 801.89C971.107 802.079 973.691 799.52 975.279 797.529C973.288 797.853 971.395 798.614 969.733 799.757Z" fill="#9BA0AA"/>
<path d="M976.44 797.221L976.25 797.339C974.283 797.86 969.14 797.529 968.05 795.87C967.887 795.605 967.818 795.293 967.852 794.984C967.887 794.675 968.023 794.386 968.24 794.163C968.444 793.923 968.693 793.726 968.974 793.584C969.255 793.442 969.561 793.356 969.875 793.334C972.482 793.144 976.25 796.486 976.416 796.628C976.473 796.676 976.515 796.74 976.536 796.812C976.557 796.883 976.557 796.96 976.535 797.031C976.529 797.104 976.495 797.172 976.44 797.221ZM969.022 794.566L968.88 794.708C968.548 795.111 968.69 795.325 968.737 795.419C969.377 796.391 972.98 796.936 975.208 796.675C973.735 795.345 971.907 794.472 969.946 794.163C969.615 794.189 969.304 794.332 969.069 794.566H969.022Z" fill="#9BA0AA"/>
<path d="M821.11 839.241C818.883 839.241 816.726 838.932 816.015 837.937C815.822 837.676 815.719 837.361 815.719 837.036C815.719 836.712 815.822 836.397 816.015 836.136C816.155 835.894 816.343 835.683 816.567 835.516C816.791 835.349 817.047 835.229 817.318 835.164C820.21 834.382 826.301 837.842 826.561 838.008C826.636 838.048 826.695 838.112 826.73 838.189C826.764 838.266 826.771 838.353 826.751 838.435C826.739 838.515 826.703 838.589 826.648 838.648C826.593 838.707 826.522 838.748 826.443 838.767C824.682 839.074 822.898 839.233 821.11 839.241ZM818.361 835.875C818.094 835.838 817.823 835.838 817.555 835.875C817.389 835.908 817.231 835.976 817.092 836.074C816.953 836.172 816.836 836.298 816.75 836.444C816.465 836.965 816.56 837.226 816.75 837.368C817.555 838.482 821.964 838.506 825.187 838.056C823.075 836.892 820.757 836.151 818.361 835.875Z" fill="#9BA0AA"/>
<path d="M826.372 838.767H826.206C824.12 837.819 819.949 834.027 820.257 832.083C820.257 831.609 820.66 831.04 821.798 830.922C822.22 830.874 822.648 830.913 823.055 831.035C823.463 831.157 823.841 831.361 824.168 831.633C826.372 833.458 826.846 838.15 826.87 838.34C826.868 838.413 826.85 838.485 826.817 838.551C826.784 838.616 826.737 838.674 826.68 838.719C826.634 838.747 826.583 838.766 826.531 838.774C826.478 838.782 826.424 838.78 826.372 838.767ZM822.13 831.657H821.893C821.134 831.657 821.087 832.012 821.087 832.107C820.897 833.292 823.717 836.254 825.827 837.534C825.622 835.543 824.792 833.668 823.457 832.178C823.079 831.877 822.612 831.711 822.13 831.704V831.657Z" fill="#9BA0AA"/>
<path d="M975.729 794.59L989.949 781.057C990.196 780.813 990.521 780.663 990.867 780.633C991.213 780.603 991.559 780.694 991.845 780.891L1005.02 789.708C1005.34 789.923 1005.61 790.208 1005.8 790.541C1005.99 790.873 1006.11 791.246 1006.13 791.629C1006.16 792.013 1006.1 792.398 1005.96 792.755C1005.81 793.112 1005.59 793.431 1005.31 793.689C1000.31 798.429 997.628 800.349 991.418 806.274C987.579 809.948 976.156 822.39 970.871 827.462C965.585 832.534 959.897 827.936 961.604 825.4C969.283 814 974.07 803.075 974.497 797.315C974.573 796.29 975.01 795.325 975.729 794.59Z" fill="#263238"/>
<path d="M828.22 836.349H847.18C847.524 836.348 847.858 836.464 848.126 836.68C848.394 836.896 848.579 837.198 848.65 837.534L852.086 853.011C852.173 853.382 852.173 853.769 852.088 854.141C852.003 854.513 851.833 854.861 851.594 855.158C851.354 855.455 851.049 855.694 850.703 855.855C850.358 856.017 849.979 856.098 849.598 856.092C842.725 856.092 832.818 855.594 824.191 855.594C814.119 855.594 805.421 856.139 793.595 856.139C786.485 856.139 784.47 848.91 787.456 848.247C801.06 845.284 812.199 844.952 823.954 837.7C825.222 836.861 826.7 836.393 828.22 836.349Z" fill="#263238"/>
<path d="M803.43 279.66C796.51 289.851 789.376 299.378 781.697 308.787C773.989 318.311 765.752 327.395 757.026 335.995L753.66 339.265L752.807 340.071L752.191 340.64L751.29 341.28C750.174 342.18 748.976 342.973 747.711 343.65C743.712 345.761 739.309 346.997 734.795 347.276C727.907 347.684 720.997 347.109 714.271 345.57C702.083 342.882 690.265 338.728 679.076 333.198L683.437 320.874C694.535 323.093 705.758 324.628 717.044 325.472C722.004 325.864 726.993 325.657 731.904 324.856C733.314 324.645 734.659 324.118 735.838 323.315C735.956 323.315 735.838 323.173 735.838 323.173L736.027 322.984L736.715 322.201L739.535 319.12C746.929 310.683 754.111 301.677 761.078 292.482C768.046 283.286 775.038 273.853 781.697 264.658L803.43 279.66Z" fill="#B55B52"/>
<path d="M898.609 244.11C914.915 247.855 933.638 292.339 933.638 292.339L900.861 314.807C892.719 303.109 885.501 290.795 879.27 277.977C869.553 257.619 881.924 240.271 898.609 244.11Z" fill="#9BA0AA"/>
<path opacity="0.3" d="M886.901 272.55L902.401 313.812L900.861 314.878C900.861 314.878 894.154 305.398 886.901 292.766V272.55Z" fill="black"/>
<path d="M801.06 244.987C801.06 244.987 782.527 265.914 800.041 395.482H893.158C893.798 381.262 884.816 311.442 898.609 244.086C888.308 242.105 877.89 240.791 867.42 240.152C854.238 239.393 841.023 239.393 827.841 240.152C818.802 241.063 809.847 242.679 801.06 244.987Z" fill="#9BA0AA"/>
<path opacity="0.3" d="M811.393 282.457C808.97 297.16 802.615 310.934 793.002 322.32C792.623 313.978 792.481 306.488 792.504 299.781L811.393 282.457Z" fill="black"/>
<path d="M819.428 259.112C821.798 275.584 789.234 317.699 789.234 317.699L756.599 295.231C756.599 295.231 765.652 272.029 780.891 256.813C798.311 239.37 816.939 241.171 819.428 259.112Z" fill="#9BA0AA"/>
<path d="M685.688 322.32L672.914 309.119L659.287 326.681C659.287 326.681 669.667 336.706 682.015 333.791L685.688 322.32Z" fill="#B55B52"/>
<path d="M655.376 301.772L649.522 320.211L659.287 326.61L672.914 309.048L655.376 301.772Z" fill="#B55B52"/>
<path d="M865.05 176.423C863.984 193.653 864.244 203.82 855.57 212.66C842.464 225.98 821.181 218.087 817.081 200.81C813.36 185.31 815.73 159.714 832.605 152.865C836.322 151.338 840.367 150.787 844.357 151.264C848.347 151.741 852.148 153.231 855.4 155.592C858.651 157.953 861.245 161.106 862.934 164.752C864.623 168.398 865.352 172.416 865.05 176.423Z" fill="#B55B52"/>
<path d="M880.052 140.422C885.361 145.305 883.11 150.756 880.337 151.775C888.94 153.552 890.196 160.402 885.669 174.859C881.356 188.699 870.904 207.256 857.845 208.394C838.222 210.1 832.486 189.647 832.344 169.36C821.253 170.047 826.04 160.212 812.412 162.487C800.562 164.454 805.018 155.211 794.946 151.182C783.261 146.442 785.608 128.549 796.51 133.692C796.51 133.692 791.462 137.01 797.339 140.138C803.217 143.266 802.648 136.038 814.285 135.161C825.921 134.284 827.272 144.238 840.876 138.242C857.94 130.705 869.15 130.35 880.052 140.422Z" fill="#263238"/>
<path d="M873.511 151.68C874.285 150.439 875.438 149.481 876.8 148.947C878.162 148.413 879.66 148.333 881.071 148.718C886.404 149.855 886.83 152.201 890.172 151.893C893.514 151.585 892.305 155.14 892.305 155.14C892.305 155.14 891.404 152.462 887.375 153.955C883.346 155.448 880.716 151.799 878.985 153.434C877.255 155.069 873.511 151.68 873.511 151.68Z" fill="#263238"/>
<path d="M841.635 181.115C840.877 185.341 838.734 189.193 835.544 192.065C831.325 195.809 827.675 192.799 827.533 187.68C827.533 183.059 829.5 175.522 834.359 173.721C839.217 171.92 842.511 175.996 841.635 181.115Z" fill="#B55B52"/>
<path d="M833.055 395.482C833.055 395.482 852.821 528.51 863.675 578.28C875.525 632.79 958.12 777.834 958.12 777.834L988.456 767.975C988.456 767.975 922.688 637.293 915.91 583.233C908.539 524.576 893.158 395.387 893.158 395.387L833.055 395.482Z" fill="#263238"/>
<path d="M949.635 768.354C949.517 768.354 956.579 778.972 956.579 778.972L990.66 767.88L986.655 757.689L949.635 768.354Z" fill="#9BA0AA"/>
<path opacity="0.3" d="M845.545 442.882C868.392 447.361 865.974 532.563 863.225 576.384C856.637 545.408 846.991 485.803 840.402 443.498C841.996 442.713 843.81 442.495 845.545 442.882Z" fill="black"/>
<path d="M800.041 395.482C800.041 395.482 797.671 525.666 799.519 578.754C801.487 633.975 820.849 814.806 820.849 814.806H850.356C850.356 814.806 851.422 637.198 852.726 582.973C854.148 523.723 861.282 395.482 861.282 395.482H800.041Z" fill="#263238"/>
<path d="M815.114 803.051C814.972 803.051 816.773 815.304 816.773 815.304H852.655L853.626 804.378L815.114 803.051Z" fill="#9BA0AA"/>
</svg>
