<svg width="40" height="31" viewBox="0 0 40 31" fill="none" xmlns="http://www.w3.org/2000/svg">
<g clip-path="url(#clip0_473_5166)">
<path d="M11.5912 0.476791C12.6779 0.476791 13.7646 0.594438 14.7995 0.829732C15.6792 1.06503 16.5071 1.47679 17.2833 2.06502C17.956 2.65326 18.5252 3.41797 18.8875 4.30032C19.3014 5.41797 19.5084 6.59444 19.4567 7.77091C19.5084 9.06503 19.1979 10.3591 18.6287 11.4768C18.0078 12.5356 17.1281 13.3591 16.1449 13.8886C17.542 14.3003 18.7322 15.3003 19.5084 16.5944C20.2846 18.0062 20.6468 19.6533 20.6468 21.3003C20.6468 22.6533 20.4398 23.9474 19.9224 25.1238C19.4567 26.1827 18.784 27.065 18.0078 27.8297C17.1798 28.5356 16.1966 29.065 15.2135 29.3591C14.1785 29.7121 13.0918 29.8297 12.0052 29.8297H0V0.417969H11.5912V0.476791ZM10.8668 12.3591C11.6947 12.418 12.5744 12.1239 13.2471 11.5356C13.9198 10.8886 14.282 9.88855 14.1785 8.82973C14.1785 8.2415 14.075 7.65326 13.868 7.12385C13.6611 6.71209 13.4023 6.35914 13.0401 6.12385C12.6779 5.88856 12.2639 5.65326 11.8499 5.59444C11.3842 5.47679 10.9185 5.47679 10.4528 5.47679H5.38163V12.3591H10.8668ZM11.1772 24.9474C11.6947 24.9474 12.2122 24.8886 12.6779 24.7709C13.1436 24.6533 13.5576 24.418 13.9715 24.1238C14.3338 23.8297 14.6442 23.418 14.8512 22.9474C15.11 22.3591 15.2135 21.7121 15.1617 21.065C15.2652 19.8297 14.8512 18.6533 14.075 17.8297C13.2471 17.1238 12.2639 16.8297 11.229 16.8886H5.38163V25.0062H11.1772V24.9474Z" fill="#666666"/>
<path d="M28.3062 24.8291C29.1859 25.7114 30.3243 26.182 31.4627 26.1232C32.3942 26.1232 33.2739 25.8291 33.9983 25.2409C34.6193 24.7703 35.0332 24.1232 35.292 23.3585H39.5869C39.1212 25.535 37.9828 27.4761 36.4304 28.8291C34.9298 30.0056 33.1186 30.535 31.2558 30.4761C29.9621 30.4761 28.6684 30.2409 27.4265 29.6526C26.3398 29.1232 25.3567 28.3585 24.5805 27.3585C23.8043 26.2997 23.1833 25.1232 22.7693 23.8291C22.3036 22.3585 22.0966 20.8291 22.1484 19.2997C22.1484 17.7703 22.3554 16.2997 22.8211 14.8291C24.063 10.7114 27.4783 7.94674 31.3075 8.00556C32.7047 7.94674 34.0501 8.3585 35.292 9.06438C36.3787 9.77026 37.3618 10.7114 38.0863 11.8879C38.8107 13.1232 39.38 14.4761 39.6387 15.9467C39.9492 17.4761 40.0527 19.1232 40.0009 20.7114H27.1678C27.0126 22.182 27.4265 23.6526 28.3062 24.8291ZM33.8948 13.5938C33.1704 12.7703 32.1872 12.3585 31.1523 12.4173C30.4796 12.4173 29.8069 12.535 29.2376 12.8879C28.7719 13.182 28.358 13.5938 27.9957 14.0644C27.6853 14.535 27.4783 15.0056 27.323 15.5938C27.2195 16.0644 27.116 16.535 27.116 17.0056H35.085C34.9815 15.7703 34.5675 14.5938 33.8948 13.5938Z" fill="#666666"/>
<path d="M36.0154 2.41797H26.0801V5.30032H36.0154V2.41797Z" fill="#666666"/>
</g>
<defs>
<clipPath id="clip0_473_5166">
<rect width="40" height="30" fill="white" transform="translate(0 0.476562)"/>
</clipPath>
</defs>
</svg>
