<svg width="30" height="31" viewBox="0 0 30 31" fill="none" xmlns="http://www.w3.org/2000/svg">
<path d="M28.2 15.7891C28.2 14.8141 28.1125 13.8766 27.95 12.9766H15V18.2953H22.4C22.0813 20.0141 21.1125 21.4703 19.6563 22.4453V25.8953H24.1C26.7 23.5016 28.2 19.9766 28.2 15.7891Z" fill="#666666"/>
<path d="M15.0004 29.2273C18.7129 29.2273 21.8254 27.9961 24.1004 25.8961L19.6566 22.4461C18.4254 23.2711 16.8504 23.7586 15.0004 23.7586C11.4191 23.7586 8.38789 21.3398 7.30664 18.0898H2.71289V21.6523C4.97539 26.1461 9.62539 29.2273 15.0004 29.2273Z" fill="#666666"/>
<path d="M7.30625 18.0883C7.03125 17.2633 6.875 16.382 6.875 15.4758C6.875 14.5695 7.03125 13.6883 7.30625 12.8633V9.30078H2.7125C1.75 11.2169 1.24915 13.3315 1.25 15.4758C1.25 17.6945 1.78125 19.7945 2.7125 21.6508L7.30625 18.0883Z" fill="#666666"/>
<path d="M15.0004 7.19531C17.0191 7.19531 18.8316 7.88906 20.2566 9.25156L24.2004 5.30781C21.8191 3.08906 18.7066 1.72656 15.0004 1.72656C9.62539 1.72656 4.97539 4.80781 2.71289 9.30156L7.30664 12.8641C8.38789 9.61406 11.4191 7.19531 15.0004 7.19531Z" fill="#666666"/>
</svg>
