<svg width="336" height="336" viewBox="0 0 336 336" fill="none" xmlns="http://www.w3.org/2000/svg">
<g clip-path="url(#clip0_104_600)">
<path d="M61.3362 153.252C63.4751 153.413 65.7071 153.248 67.8603 153.285C78.2756 153.465 76.7092 163.34 70.9007 163.988L65.1806 164.195L60.1928 164.169C57.6728 164.146 55.2815 164.176 53.2076 162.505C50.5944 160.4 50.321 156.833 52.7855 154.42C54.437 152.803 59.1255 153.274 61.3362 153.252ZM58.5138 227.024C59.0603 227.1 60.274 226.938 60.8809 226.937H66.8333C69.5311 226.944 72.2217 226.625 74.4366 228.471C79.5376 232.721 74.5114 237.589 68.7016 237.769L60.9412 237.765C58.8354 237.776 55.7701 238.204 53.8946 237.205C48.5952 234.382 51.2247 227.446 56.6429 227.195C57.1888 227.169 57.863 227.239 58.3803 227.078L58.5138 227.024ZM62.7151 202.084L62.8263 202.07C67.6011 201.715 76.255 201.233 76.2084 207.844C76.1704 213.212 68.6301 213.041 65.13 212.973L59.2474 212.976C57.8547 212.967 56.2651 213.079 54.9203 212.683C50.8024 211.471 47.8591 202.038 58.4132 202.06L62.7151 202.084ZM60.3242 177.835L67.9882 177.836C71.8116 177.846 76.362 177.817 76.49 183.299C76.5989 187.984 71.2439 188.701 67.7139 188.754L59.8036 188.773C58.4493 188.784 56.8519 188.951 55.5352 188.667C50.1605 187.506 49.6699 181.034 54.1798 178.52L54.4247 178.385C55.8166 177.571 58.705 177.867 60.3242 177.835ZM66.8103 251.647C79.3007 251.079 79.241 262.591 67.7172 262.726L60.5336 262.713C59.0997 262.846 57.3934 262.847 56.0156 262.442L55.7813 262.368C50.0187 260.62 49.0434 253.066 54.6844 251.774C56.022 251.468 57.6182 251.618 58.9926 251.618L66.8103 251.647ZM152.3 226.961L172.847 226.918C178.727 226.927 183.604 230.873 179.394 235.735C178.144 237.179 176.731 237.403 174.932 237.564L159.56 237.726C156.861 237.728 153.991 237.905 151.315 237.564L151.02 237.525C144.281 236.667 144.098 227.796 152.3 226.961ZM101.089 226.94L118.338 226.901C121.151 226.897 124.113 226.703 126.912 226.912C132.506 227.33 134.497 235.815 125.816 237.518C124.113 237.788 122.363 237.731 120.648 237.734L112.867 237.737C109.018 237.736 104.966 238.027 101.154 237.637C97.5281 237.266 93.1994 233.261 95.0487 230.466C96.2877 228.593 98.9639 227.305 101.089 226.94ZM132.521 125.589L155.43 125.567C156.4 125.567 157.443 125.5 158.403 125.654C164.252 126.598 166.7 136.455 155.426 136.728L138.987 136.717C134.942 136.714 126.381 137.844 124.55 132.946C123.648 130.531 125.809 126.677 128.203 125.943L128.379 125.894C129.661 125.521 131.188 125.621 132.521 125.589ZM130.358 85.0452L155.154 84.9796C157.406 84.9783 159.751 84.6567 161.656 86.147C165.994 89.5418 163.717 95.7755 158.526 96.1489L132.954 96.0636C131.585 96.0643 129.799 96.2559 128.487 95.8766L128.297 95.8175C122.185 94.0004 123.88 85.6148 130.358 85.0452ZM157.832 177.584C164.843 178.08 171.99 177.837 179.019 177.829L184.385 177.823C187.463 177.824 190.797 177.92 192.481 181.024C193.667 183.212 192.459 187 190.118 187.963C188.717 188.539 187.096 188.474 185.609 188.495C182.985 188.531 180.242 188.696 177.607 188.7L157.246 188.713C156.134 188.709 154.833 188.795 153.776 188.397L153.563 188.311C148.053 186.168 150.002 178.068 157.832 177.584ZM129.873 177.823C142.651 177.006 138.987 187.668 134.162 188.71C133.389 188.877 132.389 188.764 131.597 188.759L104.467 188.728L104.452 188.786C92.0425 189.046 94.2127 179.098 100.494 177.976C101.695 177.762 102.986 177.84 104.203 177.837L129.873 177.823ZM103.225 153.295L156.082 153.26C158.638 153.264 161.393 153.067 163.926 153.351C170.679 154.108 172.391 163.153 164.094 164.238L104.469 164.197C103.602 164.196 102.567 164.243 101.742 163.969L101.555 163.902C95.1951 161.674 96.2208 154.097 103.225 153.295ZM130.025 105.555L190.231 105.57C190.884 105.597 191.593 105.636 192.186 105.932L192.363 106.024C198.318 108.965 196.354 115.75 190.518 116.648L135.917 116.639C133.622 116.651 131.237 116.802 128.953 116.642C123.224 116.243 121.66 106.573 130.025 105.555ZM152.16 202.089L160.639 202.06C162.6 202.038 164.951 201.751 166.831 202.263C172.505 203.808 173.748 209.697 167.971 212.428L167.669 212.569C165.702 213.503 162.383 212.962 160.261 212.964L116.238 212.965L106.366 212.963C104.707 212.96 102.084 213.284 100.571 212.66C95.7995 210.692 95.8015 204.25 100.635 202.465L100.817 202.401C102.716 201.714 105.532 202.091 107.581 202.091L152.16 202.089ZM112.058 251.652L165.308 251.66C166.428 251.662 167.722 251.577 168.798 251.929L168.985 251.993C174.003 253.616 175.542 258.723 170.789 261.636C168.861 262.817 167.083 262.695 164.916 262.703L160.002 262.708L108.331 262.728C106.714 262.731 104.814 262.936 103.235 262.674C99.1431 261.995 96.6277 257.042 99.7862 253.932C102.972 250.796 107.965 251.644 112.058 251.652ZM80.7497 84.8864C82.7906 84.5386 85.4097 84.8883 87.4303 85.2946C121.012 92.0415 120.428 139.249 84.6964 142.871C66.6843 143.566 50.6152 128.859 53.4663 110.415C55.5526 96.9174 67.0938 86.126 80.7497 84.8864Z" fill="#1D4E7F"/>
<path d="M82.1847 96.2065L82.459 96.1894C91.8952 95.6336 100.92 103.644 101.366 113.115C101.856 123.55 93.7537 131.537 83.5077 131.997C73.6324 131.602 65.2999 125.28 64.274 115.026C63.2986 105.279 73.2394 97.0885 82.1847 96.2065Z" fill="#2B33EC"/>
<path d="M247.578 279.251C241.045 277.827 234.374 276.706 228.07 274.412C204.412 265.802 187.95 240.545 189.315 215.497C190.534 193.095 208.273 173.012 228.867 165.504C233.871 163.68 240.398 162.96 244.936 160.876C245.518 159.965 246.61 158.207 247.653 157.861L247.87 158.239C248.207 158.907 248.83 159.182 249.447 159.573L252.383 161.431C253.428 162.086 253.512 162.264 254.745 162.341L258.153 162.485C279.894 163.344 301.197 180.677 308.434 200.813C320.03 233.077 300.163 267.922 266.578 276.202C262.965 277.093 259.331 277.393 255.661 277.911L248.226 279.142L247.578 279.251Z" fill="#1D4E7F"/>
<path d="M242.277 239.685L244.929 239.507L244.817 261.244C244.599 260.922 244.388 260.597 244.056 260.381C242.287 259.231 240.714 256.86 239.413 255.173C236.534 251.023 233.618 246.642 231.574 241.996C231.293 241.356 231.245 240.628 230.827 240.052L242.277 239.685Z" fill="#2B75A9"/>
<path d="M244.874 178.525L244.857 200.357L231.411 200.201L230.629 199.91C233.993 190.476 238.339 185.838 244.874 178.525ZM255.331 239.709L269.486 239.815C269.036 241.024 269.002 242.385 268.575 243.642C267.21 247.652 264.716 251.289 262.264 254.702L256.341 261.755L255.331 239.709ZM255.4 179.022C262.058 181.522 268.743 193.976 270.385 200.22L255.335 200.188L255.4 179.022Z" fill="#2B33EC"/>
<path d="M205.271 240.016L220.432 240.104C222.215 248.534 226.565 257.821 232.653 263.973C220.727 259.911 212.556 249.714 205.271 240.016Z" fill="#2B75A9"/>
<path d="M269.611 176.284C282.566 182.906 288.933 187.115 295.767 199.811L281.27 199.914C280.736 198.312 280.513 196.684 279.895 195.07C277.366 188.473 273.278 182.308 269.611 176.284ZM230.832 176.777C231.634 176.919 229.046 181.358 228.557 182.085C227.342 183.891 225.847 185.404 224.708 187.299C222.247 191.394 221.007 195.537 219.489 200.007L206.309 199.875L205.743 199.664L205.954 199.111C210.159 188.686 220.762 181.01 230.832 176.777ZM281.28 240.069L290.903 240.158C292.358 240.161 294.18 239.962 295.59 240.227C295.035 240.877 294.998 241.577 294.651 242.312C293.187 245.41 287.561 253.171 284.636 255.412C282.567 256.996 280.117 258.162 277.862 259.466L267.949 264.796C274.688 258.48 279.03 248.837 281.28 240.069ZM232.547 211.219L244.495 211.262L244.478 229.257L240.03 229.255L228.436 229.276C228.186 226.909 228.315 224.429 228.307 222.046L228.314 211.272L232.547 211.219ZM256.122 211.066L271.897 211.161C272.224 215.613 272.068 220.12 272.119 224.583C272.135 226.004 272.458 227.636 272.278 229.017L271.694 229.106L255.843 229.344L256.122 211.066Z" fill="#2B33EC"/>
<path d="M200.81 211.156L217.457 211.24C217.731 211.618 217.551 213.431 217.55 214.04L217.867 229.909L202.125 229.613C200.162 223.794 200.708 217.219 200.81 211.156Z" fill="#2B75A9"/>
<path d="M283.298 211.145L293.118 211.24C295.504 211.261 298.007 211.179 300.361 211.602C301.611 214.765 300.703 225.897 300.391 229.277L283.24 229.195L283.298 211.145Z" fill="#2B33EC"/>
<path d="M207.712 336H0V0H128.687H135.123C137.315 0.643339 139.528 0.995315 141.703 1.7589C149.94 4.65039 158.457 12.1401 160.707 20.9058C160.779 21.1847 160.741 21.0689 160.894 21.3621L170.113 21.2472C176.39 21.2264 181.826 21.5612 186.721 26.2245C187.774 27.2273 188.454 28.6209 189.567 29.478L225.225 29.3867C227.666 29.3972 230.246 29.3421 232.641 29.849C242.424 31.9196 251.713 40.2245 252.901 50.5092C253.277 53.7666 252.985 57.3325 252.977 60.6177L252.967 130.785C252.966 132.645 253.404 134.738 252.396 136.404L252.268 136.626C249.243 141.774 242.924 140.218 242.017 135.352C241.629 133.271 241.836 130.875 241.835 128.75L241.848 60.2025C241.854 57.6816 242.024 55.0867 241.74 52.5821L241.708 52.2655C240.767 43.9238 233.213 40.5551 225.758 40.55L204.192 40.5573C201.072 40.5587 197.886 40.6684 194.776 40.4372L194.761 57.1435C194.776 61.1142 195.998 66.5655 191.133 68.2691L190.907 68.3498C189.393 68.8466 187.458 68.6576 185.874 68.6602L77.1094 68.6832C72.1803 68.5998 71.1782 65.6323 71.1782 61.6034L71.1986 40.5634L43.7133 40.5649C41.7308 40.5634 39.6732 40.5245 37.7344 41.0085C25.54 44.0523 26.2504 52.7518 26.2385 62.4499L26.5193 281.167C29.5014 286.142 32.2588 289.347 37.9144 291.425L38.3066 291.587C39.4218 292.075 40.6195 292.056 41.8145 292.081L164.145 292.127C170.953 292.125 177.875 292.413 184.652 291.813L184.962 290.675C185.418 282.194 193.688 283.578 199.217 283.609L245.417 283.572C246.182 283.537 246.995 283.318 247.746 283.346L314.872 283.683C321.154 283.958 319.9 290.741 319.888 294.943L319.885 305.974C319.887 309.805 320.379 315.946 314.344 315.924L292.976 315.515L292.971 326.21C292.961 331.298 293.551 332.836 288.955 336H207.712ZM207.712 336C204.378 332.136 204.494 327.959 204.567 323.135C204.631 318.948 205.163 318.166 200.539 318.432C199.717 318.48 199.573 318.593 198.873 318.186C198.537 317.587 197.548 316.901 197.019 316.423L196.301 315.84C195.2 315.237 193.153 319.128 192.466 319.925C188.097 324.996 184.957 325.68 178.868 325.689L48.2216 325.696C40.8817 325.69 33.9196 326.382 27.3291 322.406C22.0698 319.234 17.0718 313.331 15.6196 307.28C14.8703 304.158 15.2862 300.559 15.3013 297.356L15.3243 59.9328C15.3207 57.6422 15.2209 55.3159 15.3582 53.0306C16.0088 42.2001 23.5361 32.8955 34.1334 30.2214C37.4823 29.3763 40.7021 29.3675 44.1266 29.3669L74.9655 29.4513C75.245 29.2346 75.5515 29.0162 75.7471 28.7177C81.0962 20.553 94.1654 20.772 103.095 21.3844C103.231 21.1751 103.358 20.9757 103.441 20.738C107.824 8.0982 116.887 3.19565 128.687 0H0V336H207.712Z" fill="#1D4E7F"/>
<path d="M197.019 316.423C197.043 314.516 198.941 315.881 199.219 317.051L198.874 318.187C198.538 317.587 197.548 316.902 197.019 316.423Z" fill="#48AED1"/>
<path d="M277.404 315.526L282.04 315.444L282.145 325.427C279.66 325.827 276.988 325.671 274.471 325.676L220.366 325.686L215.791 325.582C215.518 325.206 215.356 316.8 215.247 315.768L277.404 315.526ZM291.957 294.396L308.657 294.38L308.722 304.497L214.34 304.509L197.364 304.497L197.349 297.76C197.348 296.725 197.24 295.57 197.405 294.549L291.957 294.396Z" fill="#2B33EC"/>
<path d="M131.522 11.3926C135.864 11.5001 140.451 12.1726 143.97 14.9536L144.191 15.1303C145.403 16.0791 146.632 17.2606 147.494 18.5389L147.655 18.7848C148.441 19.9671 149.106 21.2069 149.586 22.5466L151.234 27.7262C153.133 33.5258 156.469 32.3716 162.087 32.3875L172.915 32.432C184.315 32.7343 184.074 39.9589 184.084 49.3068C184.086 51.9993 184.208 54.7613 183.961 57.4399L135.228 57.3466L82.4553 57.3254L82.5026 46.0725C82.5367 34.6406 84.388 32.3484 95.2036 32.3835L104.086 32.4765C111.968 32.6584 111.046 31.4376 113.802 24.2011C116.767 16.4158 123.396 11.8646 131.522 11.3926Z" fill="#2B75A9"/>
<path d="M131.015 18.7577C133.279 18.6267 135.524 19.0021 137.353 20.4446L137.533 20.5896C138.723 21.5301 139.495 22.6244 139.936 24.0769L139.995 24.279C141.66 29.758 137.948 34.5474 132.512 35.252C120.088 35.3968 119.853 20.1675 131.015 18.7577Z" fill="#1D4E7F"/>
<path d="M26.4228 281.167C29.5016 286.142 32.259 289.347 37.9145 291.425L38.3068 291.588C39.4219 292.075 40.6197 292.057 41.8147 292.082L164.145 292.127C170.953 292.126 177.876 292.413 184.653 291.813L184.962 290.675C185.51 292.433 185.363 294.656 185.369 296.62L185.408 305.357C185.47 309.161 185.781 312.03 189.355 314.291L189.601 314.445C188.546 314.709 187.16 314.56 186.058 314.56L37.642 314.644C37.0533 314.64 36.4816 314.587 35.911 314.438L35.6018 314.354C28.147 312.416 26.2271 306.507 26.2173 299.455L26.2302 292.285C26.2422 288.68 25.9579 284.736 26.4228 281.167Z" fill="#2B33EC"/>
</g>
<defs>
<clipPath id="clip0_104_600">
<rect width="336" height="336" fill="white"/>
</clipPath>
</defs>
</svg>
