<svg width="804" height="804" viewBox="0 0 804 804" fill="none" xmlns="http://www.w3.org/2000/svg">
<g clip-path="url(#clip0_104_3957)">
<path d="M154.108 385.049C159.482 385.453 165.09 385.039 170.5 385.133C196.668 385.585 192.733 410.395 178.139 412.024L163.767 412.543L151.235 412.477C144.904 412.42 138.895 412.495 133.685 408.297C127.119 403.01 126.432 394.047 132.624 387.984C136.773 383.921 148.553 385.105 154.108 385.049ZM147.016 570.402C148.39 570.594 151.439 570.186 152.964 570.184H167.919C174.698 570.2 181.458 569.399 187.023 574.037C199.839 584.717 187.211 596.946 172.613 597.4L153.115 597.39C147.824 597.418 140.123 598.493 135.411 595.983C122.096 588.888 128.703 571.463 142.316 570.832C143.687 570.768 145.381 570.942 146.681 570.537L147.016 570.402ZM157.572 507.741L157.852 507.706C169.848 506.814 191.592 505.602 191.475 522.213C191.379 535.7 172.434 535.27 163.64 535.098L148.86 535.106C145.36 535.085 141.367 535.365 137.988 534.371C127.642 531.324 120.246 507.624 146.764 507.68L157.572 507.741ZM151.565 446.814L170.821 446.816C180.427 446.842 191.86 446.768 192.182 460.543C192.456 472.314 179.001 474.116 170.132 474.249L150.257 474.296C146.854 474.324 142.841 474.744 139.533 474.03C126.029 471.112 124.796 454.851 136.127 448.534L136.742 448.196C140.24 446.152 147.497 446.894 151.565 446.814ZM167.862 632.268C199.244 630.841 199.094 659.764 170.14 660.103L152.091 660.072C148.489 660.407 144.202 660.408 140.74 659.389L140.151 659.205C125.672 654.814 123.222 635.832 137.395 632.588C140.756 631.818 144.766 632.195 148.219 632.195L167.862 632.268ZM382.656 570.243L434.28 570.136C449.053 570.158 461.307 580.074 450.73 592.29C447.589 595.917 444.039 596.48 439.518 596.885L400.897 597.292C394.115 597.297 386.903 597.741 380.181 596.884L379.439 596.786C362.507 594.63 362.049 572.342 382.656 570.243ZM253.987 570.191L297.325 570.093C304.394 570.083 311.837 569.597 318.869 570.121C332.924 571.17 337.926 592.491 316.115 596.768C311.835 597.447 307.439 597.304 303.129 597.311L283.579 597.319C273.91 597.317 263.728 598.048 254.15 597.068C245.04 596.137 234.165 586.074 238.811 579.05C241.924 574.346 248.648 571.107 253.987 570.191ZM332.96 315.545L390.521 315.491C392.958 315.491 395.578 315.321 397.989 315.709C412.685 318.081 418.836 342.847 390.509 343.533L349.206 343.505C339.042 343.496 317.535 346.336 312.935 334.03C310.668 327.963 316.096 318.279 322.111 316.434L322.554 316.31C325.774 315.375 329.611 315.626 332.96 315.545ZM327.527 213.678L389.827 213.513C395.486 213.51 401.377 212.702 406.163 216.447C417.062 224.976 411.342 240.638 398.299 241.577L334.05 241.362C330.609 241.364 326.122 241.845 322.826 240.892L322.348 240.744C306.991 236.178 311.251 215.109 327.527 213.678ZM396.554 446.185C414.17 447.429 432.128 446.819 449.787 446.798L463.269 446.785C471.004 446.786 479.38 447.029 483.611 454.826C486.592 460.323 483.557 469.842 477.674 472.261C474.153 473.709 470.081 473.545 466.344 473.596C459.752 473.689 452.86 474.103 446.24 474.113L395.082 474.146C392.288 474.134 389.019 474.352 386.364 473.351L385.828 473.136C371.985 467.751 376.882 447.4 396.554 446.185ZM326.308 446.785C358.413 444.732 349.206 471.519 337.084 474.139C335.141 474.558 332.629 474.274 330.64 474.261L262.475 474.182L262.437 474.329C231.258 474.982 236.711 449.988 252.493 447.169C255.509 446.631 258.754 446.826 261.811 446.819L326.308 446.785ZM259.354 385.156L392.158 385.069C398.58 385.08 405.502 384.584 411.865 385.298C428.833 387.201 433.135 409.927 412.289 412.652L262.479 412.548C260.302 412.547 257.7 412.665 255.629 411.976L255.158 411.808C239.179 406.208 241.756 387.173 259.354 385.156ZM326.689 265.209L477.957 265.247C479.6 265.315 481.38 265.414 482.871 266.156L483.316 266.388C498.276 273.777 493.343 290.824 478.679 293.081L341.493 293.058C335.728 293.088 329.735 293.467 323.997 293.067C309.602 292.062 305.673 267.768 326.689 265.209ZM382.305 507.754L403.608 507.68C408.535 507.624 414.442 506.903 419.166 508.189C433.42 512.072 436.543 526.869 422.03 533.73L421.27 534.084C416.329 536.43 407.99 535.072 402.658 535.075L292.051 535.078L267.245 535.074C263.077 535.065 256.487 535.88 252.686 534.313C240.697 529.369 240.702 513.182 252.848 508.697L253.303 508.537C258.075 506.811 265.151 507.759 270.297 507.757L382.305 507.754ZM281.547 632.281L415.339 632.301C418.154 632.306 421.404 632.093 424.108 632.977L424.576 633.138C437.185 637.214 441.051 650.047 429.109 657.365C424.266 660.333 419.799 660.026 414.355 660.047L402.008 660.059L272.182 660.108C268.121 660.117 263.348 660.631 259.379 659.973C249.098 658.267 242.778 645.823 250.714 638.009C258.719 630.129 271.264 632.261 281.547 632.281ZM202.885 213.279C208.012 212.405 214.593 213.284 219.67 214.305C304.044 231.257 302.577 349.866 212.801 358.967C167.545 360.712 127.171 323.761 134.335 277.419C139.576 243.507 168.574 216.394 202.885 213.279Z" fill="#1D4E7F"/>
<path d="M206.49 241.72L207.179 241.677C230.888 240.28 253.563 260.406 254.683 284.204C255.916 310.422 235.558 330.488 209.814 331.644C185.003 330.652 164.067 314.767 161.489 289.005C159.039 264.515 184.015 243.936 206.49 241.72Z" fill="#2B33EC"/>
<path d="M622.043 701.623C605.631 698.045 588.868 695.229 573.03 689.465C513.589 667.832 472.228 604.373 475.656 541.438C478.721 485.153 523.289 434.696 575.031 415.831C587.604 411.248 604.003 409.439 615.405 404.204C616.867 401.913 619.611 397.498 622.231 396.629L622.779 397.577C623.624 399.257 625.189 399.948 626.741 400.931L634.116 405.599C636.743 407.244 636.952 407.691 640.05 407.884L648.613 408.247C703.237 410.403 756.762 453.954 774.945 504.545C804.082 585.611 754.165 673.158 669.782 693.961C660.703 696.2 651.572 696.955 642.352 698.255L623.672 701.349L622.043 701.623Z" fill="#1D4E7F"/>
<path d="M608.725 602.212L615.388 601.766L615.106 656.38C614.559 655.571 614.029 654.754 613.195 654.212C608.75 651.323 604.798 645.366 601.53 641.128C594.294 630.699 586.969 619.692 581.832 608.02C581.127 606.412 581.006 604.582 579.956 603.136L608.725 602.212Z" fill="#2B75A9"/>
<path d="M615.25 448.548L615.207 503.4L581.423 503.007L579.459 502.277C587.911 478.575 598.83 466.921 615.25 448.548ZM641.523 602.273L677.087 602.538C675.957 605.577 675.872 608.997 674.798 612.154C671.369 622.23 665.103 631.368 658.943 639.942L644.061 657.664L641.523 602.273ZM641.698 449.794C658.425 456.076 675.22 487.368 679.347 503.055L641.535 502.974L641.698 449.794Z" fill="#2B33EC"/>
<path d="M515.746 603.043L553.839 603.264C558.319 624.447 569.248 647.779 584.544 663.237C554.581 653.029 534.05 627.41 515.746 603.043Z" fill="#2B75A9"/>
<path d="M677.403 442.917C709.953 459.555 725.95 470.129 743.119 502.03L706.696 502.287C705.354 498.262 704.794 494.173 703.241 490.117C696.888 473.543 686.615 458.052 677.403 442.917ZM579.97 444.155C581.985 444.511 575.482 455.664 574.253 457.493C571.2 462.029 567.444 465.831 564.581 470.593C558.398 480.88 555.284 491.289 551.47 502.521L518.354 502.19L516.933 501.659L517.462 500.27C528.028 474.077 554.668 454.79 579.97 444.155ZM706.721 603.178L730.9 603.402C734.554 603.409 739.132 602.909 742.676 603.575C741.281 605.207 741.189 606.965 740.315 608.813C736.638 616.596 722.502 636.095 715.152 641.726C709.955 645.708 703.798 648.636 698.134 651.912L673.225 665.304C690.159 649.436 701.067 625.206 706.721 603.178ZM584.278 530.691L614.299 530.799L614.254 576.011L603.08 576.006L573.95 576.059C573.322 570.113 573.645 563.881 573.625 557.896L573.643 530.825L584.278 530.691ZM643.511 530.307L683.144 530.546C683.967 541.732 683.576 553.055 683.703 564.268C683.743 567.84 684.554 571.94 684.104 575.408L682.635 575.634L642.809 576.231L643.511 530.307Z" fill="#2B33EC"/>
<path d="M504.538 530.533L546.365 530.744C547.054 531.694 546.6 536.248 546.597 537.78L547.395 577.65L507.843 576.907C502.911 562.287 504.281 545.765 504.538 530.533Z" fill="#2B75A9"/>
<path d="M711.791 530.504L736.464 530.743C742.459 530.796 748.746 530.59 754.662 531.653C757.803 539.601 755.521 567.57 754.738 576.063L711.646 575.855L711.791 530.504Z" fill="#2B33EC"/>
<path d="M521.879 844.206H0V0H323.328H339.498C345.007 1.6164 350.566 2.50075 356.031 4.41925C376.727 11.6842 398.126 30.5022 403.78 52.5263C403.959 53.2269 403.865 52.9359 404.249 53.6726L427.412 53.384C443.182 53.3317 456.841 54.1728 469.14 65.8895C471.784 68.4091 473.493 71.9104 476.291 74.0639L565.88 73.8346C572.016 73.861 578.497 73.7226 584.514 74.996C609.093 80.1986 632.434 101.065 635.417 126.905C636.362 135.089 635.63 144.049 635.61 152.303L635.583 328.601C635.58 333.273 636.681 338.532 634.149 342.716L633.827 343.275C626.228 356.21 610.351 352.301 608.071 340.073C607.096 334.845 607.616 328.827 607.614 323.488L607.647 151.26C607.662 144.926 608.089 138.406 607.377 132.113L607.294 131.318C604.93 110.359 585.952 101.895 567.221 101.882L513.037 101.901C505.196 101.904 497.193 102.18 489.379 101.599L489.341 143.574C489.377 153.55 492.448 167.247 480.225 171.527L479.656 171.73C475.854 172.978 470.991 172.503 467.011 172.51L193.739 172.568C181.354 172.358 178.837 164.902 178.837 154.779L178.888 101.916L109.83 101.92C104.849 101.916 99.6796 101.819 94.8083 103.035C64.1697 110.682 65.9546 132.54 65.9246 156.906L66.6303 706.436C74.1228 718.936 81.0507 726.988 95.2604 732.21L96.2459 732.618C99.0478 733.843 102.057 733.797 105.06 733.859L412.418 733.973C429.521 733.97 446.915 734.692 463.942 733.185L464.719 730.326C465.867 709.018 486.644 712.495 500.535 712.571L616.613 712.479C618.536 712.391 620.579 711.841 622.467 711.912L791.12 712.757C806.904 713.45 803.755 730.491 803.724 741.048L803.716 768.765C803.721 778.389 804.957 793.819 789.794 793.763L736.108 792.738L736.093 819.607C736.069 832.391 737.551 836.257 726.004 844.206H521.879ZM521.879 844.206C513.503 834.496 513.793 824.003 513.978 811.882C514.14 801.361 515.475 799.397 503.858 800.067C501.792 800.185 501.43 800.471 499.673 799.448C498.829 797.943 496.342 796.22 495.013 795.018L493.209 793.552C490.444 792.037 485.3 801.815 483.574 803.818C472.596 816.558 464.707 818.277 449.408 818.3L121.158 818.318C102.716 818.301 85.2236 820.041 68.6648 810.05C55.4508 802.08 42.8933 787.249 39.2444 772.046C37.3619 764.203 38.4068 755.159 38.4449 747.113L38.5026 150.582C38.4935 144.827 38.2427 138.982 38.5876 133.24C40.2225 106.029 59.1348 82.6504 85.7608 75.9317C94.1748 73.8085 102.265 73.7864 110.869 73.7848L188.352 73.997C189.054 73.4525 189.824 72.9038 190.316 72.1537C203.755 51.6399 236.592 52.1899 259.028 53.7288C259.369 53.2028 259.689 52.7017 259.897 52.1047C270.909 20.3469 293.68 8.02913 323.328 0H0V844.206H521.879Z" fill="#1D4E7F"/>
<path d="M495.014 795.019C495.073 790.226 499.843 793.655 500.541 796.597L499.673 799.449C498.829 797.944 496.343 796.221 495.014 795.019Z" fill="#48AED1"/>
<path d="M696.982 792.764L708.631 792.558L708.893 817.641C702.651 818.646 695.937 818.255 689.613 818.266L553.673 818.291L542.177 818.031C541.493 817.086 541.084 795.966 540.81 793.374L696.982 792.764ZM733.547 739.676L775.506 739.635L775.67 765.055L538.533 765.085L495.881 765.053L495.843 748.128C495.84 745.526 495.568 742.624 495.982 740.058L733.547 739.676Z" fill="#2B33EC"/>
<path d="M330.451 28.623C341.361 28.8931 352.887 30.5829 361.728 37.5701L362.283 38.0142C365.327 40.3981 368.415 43.3665 370.582 46.5783L370.986 47.1961C372.96 50.1668 374.632 53.2816 375.837 56.6477L379.979 69.6615C384.75 84.2331 393.132 81.3332 407.246 81.3731L434.452 81.485C463.095 82.2445 462.49 100.396 462.513 123.883C462.52 130.648 462.826 137.588 462.205 144.318L339.764 144.083L207.17 144.03L207.289 115.757C207.375 87.034 212.026 81.275 239.201 81.3632L261.518 81.5968C281.322 82.0537 279.005 78.9865 285.931 60.8048C293.38 41.2439 310.035 29.8091 330.451 28.623Z" fill="#2B75A9"/>
<path d="M329.178 47.1305C334.866 46.8012 340.507 47.7445 345.101 51.3688L345.553 51.733C348.544 54.0962 350.483 56.8454 351.592 60.495L351.741 61.0028C355.924 74.7688 346.596 86.8024 332.939 88.5726C301.723 88.9365 301.133 50.6725 329.178 47.1305Z" fill="#1D4E7F"/>
<path d="M66.3876 706.437C74.1231 718.936 81.0511 726.989 95.2608 732.211L96.2463 732.618C99.0481 733.844 102.058 733.797 105.06 733.86L412.418 733.974C429.522 733.97 446.915 734.693 463.943 733.186L464.719 730.327C466.098 734.742 465.727 740.328 465.743 745.263L465.841 767.214C465.996 776.773 466.777 783.981 475.758 789.66L476.377 790.048C473.724 790.71 470.241 790.336 467.473 790.338L94.576 790.547C93.0968 790.539 91.6605 790.404 90.2269 790.031L89.4499 789.82C70.7198 784.949 65.8959 770.103 65.8713 752.386L65.9037 734.371C65.9338 725.312 65.2196 715.403 66.3876 706.437Z" fill="#2B33EC"/>
</g>
<defs>
<clipPath id="clip0_104_3957">
<rect width="804" height="804" fill="white"/>
</clipPath>
</defs>
</svg>
