<svg width="1159" height="863" viewBox="0 0 1159 863" fill="none" xmlns="http://www.w3.org/2000/svg">
<path d="M1158.2 758.392H0V758.971H1158.2V758.392Z" fill="#E6E6E6"/>
<path d="M874.814 782.923H795.129V783.502H874.814V782.923Z" fill="#E6E6E6"/>
<path d="M257.213 783.2H212.368V783.779H257.213V783.2Z" fill="#E6E6E6"/>
<path d="M581.418 781.856H490.522V782.436H581.418V781.856Z" fill="#E6E6E6"/>
<path d="M488.205 773.609H447.576V774.188H488.205V773.609Z" fill="#E6E6E6"/>
<path d="M983.453 773.888H860.707V774.467H983.453V773.888Z" fill="#E6E6E6"/>
<path d="M548.988 655.079H101.713C98.2089 655.073 94.8506 653.677 92.3751 651.197C89.8996 648.717 88.5093 645.357 88.5093 641.853V13.1109C88.5398 9.62704 89.9436 6.29594 92.4158 3.84111C94.8879 1.38627 98.2288 0.00596796 101.713 0H548.988C552.495 0 555.86 1.39352 558.34 3.874C560.821 6.35449 562.214 9.71874 562.214 13.2267V641.853C562.214 645.361 560.821 648.725 558.34 651.205C555.86 653.686 552.495 655.079 548.988 655.079ZM101.713 0.463283C98.3625 0.469419 95.1514 1.80463 92.7846 4.17585C90.4177 6.54706 89.0884 9.76052 89.0884 13.1109V641.853C89.0884 645.203 90.4177 648.417 92.7846 650.788C95.1514 653.159 98.3625 654.494 101.713 654.5H548.988C552.34 654.494 555.553 653.16 557.924 650.789C560.295 648.419 561.629 645.205 561.635 641.853V13.1109C561.629 9.75839 560.295 6.54499 557.924 4.17443C555.553 1.80388 552.34 0.469406 548.988 0.463283H101.713Z" fill="#E6E6E6"/>
<path d="M1050.05 655.079H602.752C599.246 655.073 595.885 653.678 593.406 651.199C590.927 648.72 589.531 645.359 589.525 641.853V13.1109C589.561 9.62493 590.97 6.29385 593.446 3.83966C595.922 1.38546 599.265 0.00590287 602.752 0H1050.05C1053.53 0.0120557 1056.86 1.39505 1059.33 3.84924C1061.8 6.30342 1063.2 9.63104 1063.23 13.1109V641.853C1063.23 645.353 1061.84 648.71 1059.37 651.189C1056.9 653.668 1053.55 655.067 1050.05 655.079ZM602.752 0.463283C599.399 0.469406 596.186 1.80388 593.815 4.17443C591.445 6.54499 590.11 9.75839 590.104 13.1109V641.853C590.11 645.205 591.445 648.419 593.815 650.789C596.186 653.16 599.399 654.494 602.752 654.5H1050.05C1053.4 654.494 1056.62 653.16 1058.99 650.789C1061.36 648.419 1062.69 645.205 1062.7 641.853V13.1109C1062.69 9.75839 1061.36 6.54499 1058.99 4.17443C1056.62 1.80388 1053.4 0.469406 1050.05 0.463283H602.752Z" fill="#E6E6E6"/>
<path d="M979.909 43.1543H664.229V410.999H979.909V43.1543Z" fill="#E0E0E0"/>
<path d="M988.48 43.1543H668.237V410.999H988.48V43.1543Z" fill="#F5F5F5"/>
<path d="M979.909 410.976H664.229V431.592H979.909V410.976Z" fill="#E0E0E0"/>
<path d="M1027.72 410.976H726.239V431.592H1027.72V410.976Z" fill="#F5F5F5"/>
<path d="M976.481 395.386V58.7432L680.259 58.7432V395.386H976.481Z" fill="#FAFAFA"/>
<path d="M722.858 395.386L793.37 58.7432H885.794L815.283 395.386H722.858Z" fill="white"/>
<path d="M830.247 395.386L900.735 58.7432H942.476L871.988 395.386H830.247Z" fill="white"/>
<path d="M655.218 42.6217V173.591H689.964C689.964 173.591 752.206 132.985 766.406 49.4319C766.742 47.4421 766.641 45.4029 766.11 43.456C765.578 41.5091 764.629 39.7014 763.329 38.1583C762.028 36.6152 760.407 35.3739 758.578 34.5206C756.75 33.6673 754.757 33.2225 752.739 33.2171H664.716C663.474 33.2079 662.242 33.4442 661.092 33.9125C659.941 34.3807 658.895 35.0716 658.012 35.9455C657.13 36.8194 656.429 37.8591 655.949 39.0048C655.47 40.1505 655.221 41.3797 655.218 42.6217Z" fill="#E0E0E0"/>
<path d="M655.218 383.526V184.153H689.964C689.964 184.153 709.885 224.412 729.737 270.694C735.017 283.008 737.158 296.44 735.967 309.785C734.776 323.131 730.291 335.971 722.913 347.156C715.536 358.34 705.498 367.518 693.699 373.866C681.9 380.214 668.709 383.533 655.311 383.526H655.218Z" fill="#E0E0E0"/>
<path d="M688.852 173.59H656.492C654.573 173.59 653.018 175.145 653.018 177.064V180.678C653.018 182.597 654.573 184.153 656.492 184.153H688.852C690.771 184.153 692.327 182.597 692.327 180.678V177.064C692.327 175.145 690.771 173.59 688.852 173.59Z" fill="#F5F5F5"/>
<path d="M998.371 42.6219V173.591H963.625C963.625 173.591 901.36 132.985 887.184 49.4321C886.848 47.4442 886.948 45.4069 887.478 43.4617C888.008 41.5165 888.955 39.71 890.253 38.1673C891.551 36.6246 893.169 35.3828 894.995 34.5281C896.821 33.6733 898.811 33.226 900.827 33.2173H988.851C990.095 33.205 991.329 33.4391 992.482 33.906C993.635 34.3728 994.684 35.0632 995.569 35.9375C996.454 36.8117 997.157 37.8524 997.638 38.9996C998.119 40.1468 998.368 41.3779 998.371 42.6219Z" fill="#E0E0E0"/>
<path d="M998.603 383.573V184.2H963.857C963.857 184.2 943.936 224.436 924.061 270.741C918.817 283.059 916.705 296.483 917.913 309.816C919.121 323.149 923.612 335.976 930.985 347.15C938.359 358.324 948.384 367.499 960.167 373.854C971.949 380.21 985.123 383.549 998.51 383.573H998.603Z" fill="#E0E0E0"/>
<path d="M964.667 184.153H997.027C998.946 184.153 1000.5 182.598 1000.5 180.679V177.065C1000.5 175.146 998.946 173.591 997.027 173.591H964.667C962.748 173.591 961.192 175.146 961.192 177.065V180.679C961.192 182.598 962.748 184.153 964.667 184.153Z" fill="#F5F5F5"/>
<path d="M465.343 205.212H326.289V357.423H465.343V205.212Z" fill="#E0E0E0"/>
<path d="M484.893 205.212H333.817V357.423H484.893V205.212Z" fill="#FAFAFA"/>
<path d="M469.304 341.854V220.799H349.383V341.854H469.304Z" fill="white"/>
<path d="M377.574 281.328C377.58 273.744 380.597 266.474 385.961 261.114C391.325 255.754 398.598 252.743 406.181 252.743H412.621C420.2 252.749 427.467 255.763 432.826 261.122C438.186 266.481 441.199 273.748 441.205 281.328C441.205 285.081 440.466 288.798 439.03 292.266C437.593 295.734 435.488 298.886 432.833 301.54C430.179 304.194 427.028 306.3 423.56 307.736C420.092 309.173 416.375 309.912 412.621 309.912H406.181C402.426 309.915 398.706 309.178 395.235 307.743C391.765 306.308 388.611 304.203 385.954 301.548C383.297 298.893 381.19 295.741 379.752 292.272C378.314 288.802 377.574 285.083 377.574 281.328Z" fill="#F5F5F5"/>
<path d="M213.665 241.532C194.313 241.532 175.754 233.845 162.07 220.161C148.386 206.477 140.699 187.917 140.699 168.565C140.699 149.213 148.386 130.654 162.07 116.97C175.754 103.286 194.313 95.5986 213.665 95.5986H226.846V241.532H213.665Z" fill="#E0E0E0"/>
<path d="M226.846 241.532C267.119 241.532 299.767 208.885 299.767 168.612C299.767 128.339 267.119 95.6914 226.846 95.6914C186.573 95.6914 153.926 128.339 153.926 168.612C153.926 208.885 186.573 241.532 226.846 241.532Z" fill="#FAFAFA"/>
<path d="M226.846 223.601C257.217 223.601 281.837 198.981 281.837 168.61C281.837 138.239 257.217 113.618 226.846 113.618C196.475 113.618 171.854 138.239 171.854 168.61C171.854 198.981 196.475 223.601 226.846 223.601Z" fill="white"/>
<path d="M249.5 189.179L222.491 170.324L231.062 128.675L238.706 130.25L231.178 166.872L253.971 182.763L249.5 189.179Z" fill="#E0E0E0"/>
<path d="M816.163 498.027H716.766V766.591H816.163V498.027Z" fill="#E0E0E0"/>
<path d="M789.616 766.591H816.162V722.116H761.796L789.616 766.591Z" fill="#FAFAFA"/>
<path d="M220.268 498.027H120.871V766.591H220.268V498.027Z" fill="#E0E0E0"/>
<path d="M816.186 498.027H197.103V751.28H816.186V498.027Z" fill="#FAFAFA"/>
<path d="M223.65 766.59H197.104V722.115H251.47L223.65 766.59Z" fill="#FAFAFA"/>
<path d="M795.592 519.802H217.695V613.014H795.592V519.802Z" fill="#F0F0F0"/>
<path d="M795.593 635.552H217.696V728.764H795.593V635.552Z" fill="#F0F0F0"/>
<path d="M710.858 519.802H217.695V613.014H710.858V519.802Z" fill="#E0E0E0"/>
<path d="M369.56 532.378H339.562C339.562 532.378 344.774 550.376 344.774 560.962C344.774 571.548 321.958 613.035 354.573 613.035C387.188 613.035 364.348 571.548 364.348 560.962C364.348 550.376 369.56 532.378 369.56 532.378Z" fill="#FAFAFA"/>
<path d="M251.469 563.651V580.028C251.469 598.189 269.027 613.037 290.477 613.037H309.819C331.269 613.037 348.827 598.189 348.827 580.028V563.651H251.469Z" fill="#F0F0F0"/>
<path d="M710.859 635.552H217.696V728.764H710.859V635.552Z" fill="#E0E0E0"/>
<path d="M494.668 727.072H540.857V650.144H494.668V727.072Z" fill="white"/>
<path d="M533.653 728.277H536.803V651.35H533.653V728.277Z" fill="#E6E6E6"/>
<path d="M537.036 728.856H545.097C545.711 728.856 546.209 728.359 546.209 727.745V651.859C546.209 651.245 545.711 650.747 545.097 650.747H537.036C536.422 650.747 535.924 651.245 535.924 651.859V727.745C535.924 728.359 536.422 728.856 537.036 728.856Z" fill="#EBEBEB"/>
<path d="M535.925 686.838H546.209V668.585H535.925V686.838Z" fill="white"/>
<path d="M535.924 703.724H546.209V692.466H535.924V703.724Z" fill="white"/>
<path d="M492.306 728.856H533.932C534.546 728.856 535.043 728.359 535.043 727.745V651.859C535.043 651.245 534.546 650.747 533.932 650.747H492.306C491.692 650.747 491.194 651.245 491.194 651.859V727.745C491.194 728.359 491.692 728.856 492.306 728.856Z" fill="#EBEBEB"/>
<path d="M472.129 726.889H523.09V642.016H472.129V726.889Z" fill="white"/>
<path d="M515.192 728.208H518.644V643.335H515.192V728.208Z" fill="#E6E6E6"/>
<path d="M518.898 728.856H527.793C528.471 728.856 529.021 728.307 529.021 727.629V643.914C529.021 643.236 528.471 642.686 527.793 642.686H518.898C518.22 642.686 517.67 643.236 517.67 643.914V727.629C517.67 728.307 518.22 728.856 518.898 728.856Z" fill="#F0F0F0"/>
<path d="M517.67 673.077H529.021V670.135H517.67V673.077Z" fill="white"/>
<path d="M517.67 681.603H529.021V678.661H517.67V681.603Z" fill="white"/>
<path d="M517.67 690.104H529.021V687.162H517.67V690.104Z" fill="white"/>
<path d="M469.558 728.856H515.47C516.148 728.856 516.697 728.307 516.697 727.629V643.914C516.697 643.236 516.148 642.686 515.47 642.686H469.558C468.88 642.686 468.331 643.236 468.331 643.914V727.629C468.331 728.307 468.88 728.856 469.558 728.856Z" fill="#F0F0F0"/>
<path d="M409.356 699.3C409.36 701.885 408.598 704.413 407.165 706.565C405.732 708.716 403.694 710.394 401.307 711.387C398.92 712.379 396.292 712.641 393.757 712.14C391.221 711.638 388.891 710.396 387.061 708.57C385.232 706.743 383.985 704.415 383.479 701.881C382.973 699.346 383.231 696.718 384.219 694.329C385.207 691.941 386.881 689.899 389.03 688.462C391.179 687.026 393.706 686.259 396.291 686.259C399.752 686.259 403.071 687.632 405.521 690.077C407.97 692.522 409.349 695.839 409.356 699.3Z" fill="#FAFAFA"/>
<path d="M387.095 705.532C387.095 707.552 386.496 709.527 385.373 711.207C384.251 712.887 382.655 714.196 380.789 714.969C378.922 715.743 376.868 715.945 374.886 715.551C372.905 715.157 371.085 714.184 369.656 712.755C368.227 711.326 367.255 709.506 366.86 707.525C366.466 705.543 366.668 703.489 367.442 701.622C368.215 699.756 369.524 698.16 371.204 697.038C372.884 695.915 374.859 695.316 376.879 695.316C379.587 695.323 382.182 696.401 384.096 698.315C386.01 700.23 387.089 702.824 387.095 705.532Z" fill="#FAFAFA"/>
<path d="M431.709 705.531C431.709 708.115 430.942 710.641 429.507 712.79C428.071 714.938 426.031 716.613 423.644 717.601C421.256 718.59 418.63 718.849 416.095 718.345C413.561 717.841 411.233 716.596 409.406 714.769C407.579 712.942 406.335 710.614 405.831 708.08C405.327 705.546 405.585 702.919 406.574 700.532C407.563 698.144 409.237 696.104 411.386 694.669C413.534 693.233 416.06 692.467 418.644 692.467C422.107 692.473 425.427 693.851 427.875 696.3C430.324 698.749 431.703 702.068 431.709 705.531Z" fill="#FAFAFA"/>
<path d="M453.112 701.709C453.112 704.293 452.346 706.819 450.91 708.967C449.475 711.116 447.434 712.79 445.047 713.779C442.66 714.768 440.033 715.027 437.499 714.523C434.964 714.018 432.637 712.774 430.809 710.947C428.982 709.12 427.738 706.792 427.234 704.258C426.73 701.724 426.989 699.097 427.977 696.709C428.966 694.322 430.641 692.282 432.789 690.846C434.938 689.411 437.464 688.645 440.047 688.645C443.512 688.645 446.835 690.021 449.285 692.471C451.736 694.921 453.112 698.244 453.112 701.709Z" fill="#FAFAFA"/>
<path d="M340.929 703.4C340.929 703.4 342.712 728.881 411.44 728.881C480.168 728.881 481.951 703.4 481.951 703.4H340.929Z" fill="#F5F5F5"/>
<path d="M533.653 587.556C533.653 587.556 536.502 613.036 645.42 613.036C754.337 613.036 757.163 587.556 757.163 587.556H533.653Z" fill="white"/>
<path d="M579.101 863C827.147 863 1028.23 851.26 1028.23 836.778C1028.23 822.297 827.147 810.557 579.101 810.557C331.055 810.557 129.973 822.297 129.973 836.778C129.973 851.26 331.055 863 579.101 863Z" fill="#F5F5F5"/>
<path d="M340.33 489.512C389.324 440.518 389.324 361.083 340.33 312.09C291.336 263.096 211.901 263.096 162.907 312.09C113.914 361.083 113.914 440.518 162.907 489.512C211.901 538.506 291.336 538.506 340.33 489.512Z" fill="#407BFF"/>
<path opacity="0.4" d="M340.33 489.512C389.324 440.518 389.324 361.083 340.33 312.09C291.336 263.096 211.901 263.096 162.907 312.09C113.914 361.083 113.914 440.518 162.907 489.512C211.901 538.506 291.336 538.506 340.33 489.512Z" fill="black"/>
<path opacity="0.2" d="M355.478 418.518C365.262 361.163 326.697 306.737 269.342 296.953C211.988 287.17 157.561 325.734 147.778 383.089C137.995 440.444 176.559 494.87 233.914 504.654C291.269 514.437 345.695 475.872 355.478 418.518Z" fill="black"/>
<path d="M360.514 410.893C364.424 355.038 322.314 306.589 266.46 302.679C210.605 298.769 162.156 340.879 158.246 396.734C154.336 452.589 196.446 501.038 252.301 504.948C308.156 508.857 356.605 466.748 360.514 410.893Z" fill="#407BFF"/>
<path opacity="0.4" d="M360.514 410.893C364.424 355.038 322.314 306.589 266.46 302.679C210.605 298.769 162.156 340.879 158.246 396.734C154.336 452.589 196.446 501.038 252.301 504.948C308.156 508.857 356.605 466.748 360.514 410.893Z" fill="black"/>
<path d="M293.28 391.146L299.882 419.754C300.162 420.846 300.212 421.984 300.028 423.097C299.845 424.21 299.432 425.272 298.816 426.216C298.217 427.182 297.431 428.017 296.504 428.674C295.577 429.33 294.528 429.794 293.419 430.038L268.263 435.853L272.896 455.982C273.168 457.07 273.21 458.203 273.018 459.308C272.827 460.413 272.406 461.466 271.784 462.399C271.185 463.348 270.397 464.163 269.468 464.793C268.539 465.423 267.49 465.854 266.386 466.058C265.281 466.335 264.131 466.388 263.005 466.213C261.88 466.038 260.8 465.639 259.831 465.039C258.866 464.471 258.029 463.708 257.375 462.799C256.721 461.889 256.264 460.854 256.032 459.758L251.399 439.397L226.452 445.164C225.376 445.424 224.26 445.463 223.169 445.28C222.078 445.097 221.036 444.695 220.105 444.099C219.137 443.531 218.297 442.768 217.639 441.859C216.981 440.95 216.519 439.914 216.283 438.818C216.019 437.735 215.978 436.611 216.161 435.512C216.344 434.413 216.748 433.363 217.348 432.424C217.921 431.465 218.686 430.634 219.594 429.985C220.503 429.335 221.537 428.88 222.63 428.649L281.003 415.19L278.27 403.307L220.058 416.719C218.981 416.994 217.858 417.047 216.76 416.876C215.661 416.705 214.608 416.313 213.665 415.723C212.698 415.143 211.863 414.367 211.213 413.446C210.563 412.524 210.112 411.478 209.889 410.372L203.311 381.88C202.804 379.69 203.189 377.389 204.379 375.482C205.569 373.575 207.468 372.219 209.658 371.711L234.49 365.99L229.857 345.837C229.588 344.771 229.536 343.663 229.703 342.577C229.87 341.49 230.253 340.449 230.83 339.513C231.441 338.5 232.261 337.628 233.235 336.957C234.21 336.286 235.317 335.831 236.482 335.622C237.553 335.361 238.666 335.321 239.753 335.505C240.84 335.688 241.879 336.09 242.805 336.687C243.757 337.272 244.58 338.044 245.225 338.955C245.869 339.867 246.323 340.9 246.558 341.992L251.191 362.121L276.671 356.284C277.774 356.017 278.918 355.976 280.037 356.163C281.156 356.35 282.225 356.762 283.18 357.373C284.147 357.928 284.988 358.678 285.649 359.575C286.311 360.473 286.78 361.497 287.026 362.585C287.514 364.825 287.106 367.167 285.89 369.111C284.673 371.054 282.745 372.445 280.516 372.985L222.143 386.444L224.691 398.257L282.856 384.845C283.958 384.578 285.103 384.537 286.222 384.724C287.34 384.911 288.41 385.323 289.365 385.934C290.347 386.479 291.204 387.225 291.878 388.123C292.553 389.021 293.03 390.051 293.28 391.146Z" fill="#407BFF"/>
<g opacity="0.7">
<path d="M293.28 391.146L299.882 419.754C300.162 420.846 300.212 421.984 300.028 423.097C299.845 424.21 299.432 425.272 298.816 426.216C298.217 427.182 297.431 428.017 296.504 428.674C295.577 429.33 294.528 429.794 293.419 430.038L268.263 435.853L272.896 455.982C273.168 457.07 273.21 458.203 273.018 459.308C272.827 460.413 272.406 461.466 271.784 462.399C271.185 463.348 270.397 464.163 269.468 464.793C268.539 465.423 267.49 465.854 266.386 466.058C265.281 466.335 264.131 466.388 263.005 466.213C261.88 466.038 260.8 465.639 259.831 465.039C258.866 464.471 258.029 463.708 257.375 462.799C256.721 461.889 256.264 460.854 256.032 459.758L251.399 439.397L226.452 445.164C225.376 445.424 224.26 445.463 223.169 445.28C222.078 445.097 221.036 444.695 220.105 444.099C219.137 443.531 218.297 442.768 217.639 441.859C216.981 440.95 216.519 439.914 216.283 438.818C216.019 437.735 215.978 436.611 216.161 435.512C216.344 434.413 216.748 433.363 217.348 432.424C217.921 431.465 218.686 430.634 219.594 429.985C220.503 429.335 221.537 428.88 222.63 428.649L281.003 415.19L278.27 403.307L220.058 416.719C218.981 416.994 217.858 417.047 216.76 416.876C215.661 416.705 214.608 416.313 213.665 415.723C212.698 415.143 211.863 414.367 211.213 413.446C210.563 412.524 210.112 411.478 209.889 410.372L203.311 381.88C202.804 379.69 203.189 377.389 204.379 375.482C205.569 373.575 207.468 372.219 209.658 371.711L234.49 365.99L229.857 345.837C229.588 344.771 229.536 343.663 229.703 342.577C229.87 341.49 230.253 340.449 230.83 339.513C231.441 338.5 232.261 337.628 233.235 336.957C234.21 336.286 235.317 335.831 236.482 335.622C237.553 335.361 238.666 335.321 239.753 335.505C240.84 335.688 241.879 336.09 242.805 336.687C243.757 337.272 244.58 338.044 245.225 338.955C245.869 339.867 246.323 340.9 246.558 341.992L251.191 362.121L276.671 356.284C277.774 356.017 278.918 355.976 280.037 356.163C281.156 356.35 282.225 356.762 283.18 357.373C284.147 357.928 284.988 358.678 285.649 359.575C286.311 360.473 286.78 361.497 287.026 362.585C287.514 364.825 287.106 367.167 285.89 369.111C284.673 371.054 282.745 372.445 280.516 372.985L222.143 386.444L224.691 398.257L282.856 384.845C283.958 384.578 285.103 384.537 286.222 384.724C287.34 384.911 288.41 385.323 289.365 385.934C290.347 386.479 291.204 387.225 291.878 388.123C292.553 389.021 293.03 390.051 293.28 391.146Z" fill="white"/>
</g>
<path d="M519.336 301.035C550.549 264.099 545.91 208.853 508.974 177.64C472.038 146.427 416.792 151.066 385.579 188.002C354.366 224.938 359.005 280.183 395.941 311.396C432.877 342.609 488.122 337.97 519.336 301.035Z" fill="#407BFF"/>
<path opacity="0.4" d="M519.336 301.035C550.549 264.099 545.91 208.853 508.974 177.64C472.038 146.427 416.792 151.066 385.579 188.002C354.366 224.938 359.005 280.183 395.941 311.396C432.877 342.609 488.122 337.97 519.336 301.035Z" fill="black"/>
<path opacity="0.2" d="M509.129 291.294C535.001 259.998 530.604 213.654 499.308 187.782C468.012 161.91 421.668 166.307 395.796 197.603C369.924 228.899 374.321 275.243 405.617 301.115C436.913 326.987 483.257 322.59 509.129 291.294Z" fill="black"/>
<path d="M511.348 292.063C535.019 261.092 529.101 216.796 498.13 193.125C467.159 169.455 422.863 175.373 399.192 206.344C375.522 237.315 381.44 281.611 412.411 305.281C443.382 328.952 487.678 323.034 511.348 292.063Z" fill="#407BFF"/>
<path opacity="0.4" d="M511.348 292.063C535.019 261.092 529.101 216.796 498.13 193.125C467.159 169.455 422.863 175.373 399.192 206.344C375.522 237.315 381.44 281.611 412.411 305.281C443.382 328.952 487.678 323.034 511.348 292.063Z" fill="black"/>
<path d="M481.395 251.698L476.415 271.573C476.234 272.329 475.898 273.038 475.427 273.656C474.957 274.275 474.362 274.788 473.682 275.163C472.994 275.581 472.23 275.856 471.434 275.972C470.638 276.087 469.826 276.041 469.049 275.835L451.699 271.457L448.178 285.355C447.999 286.115 447.663 286.828 447.193 287.451C446.722 288.073 446.127 288.59 445.445 288.969C444.788 289.377 444.055 289.647 443.29 289.762C442.525 289.878 441.745 289.836 440.997 289.641C440.227 289.46 439.5 289.127 438.859 288.661C438.219 288.196 437.678 287.608 437.268 286.931C436.85 286.269 436.572 285.529 436.453 284.756C436.333 283.983 436.374 283.193 436.573 282.437L440.117 268.307L422.744 264.068C421.991 263.887 421.283 263.556 420.662 263.095C420.04 262.633 419.52 262.05 419.13 261.381C418.711 260.724 418.433 259.988 418.314 259.218C418.194 258.449 418.236 257.663 418.435 256.91C418.608 256.148 418.936 255.43 419.399 254.801C419.861 254.171 420.448 253.643 421.122 253.25C421.789 252.844 422.53 252.576 423.303 252.465C424.075 252.353 424.862 252.4 425.616 252.601L466.153 262.77L468.238 254.524L427.817 244.378C427.06 244.209 426.346 243.885 425.72 243.426C425.094 242.968 424.57 242.385 424.18 241.714C423.76 241.054 423.486 240.312 423.374 239.537C423.262 238.762 423.316 237.973 423.531 237.22L428.489 217.415C428.675 216.66 429.01 215.95 429.472 215.325C429.935 214.7 430.517 214.173 431.185 213.775C431.853 213.376 432.593 213.114 433.363 213.003C434.132 212.893 434.916 212.936 435.669 213.13L452.857 217.438L456.378 203.54C456.548 202.755 456.879 202.015 457.35 201.364C457.821 200.714 458.421 200.168 459.113 199.761C459.805 199.354 460.573 199.095 461.371 199C462.168 198.905 462.976 198.976 463.744 199.208C464.491 199.381 465.193 199.707 465.807 200.166C466.422 200.624 466.934 201.205 467.312 201.872C467.721 202.533 467.992 203.27 468.108 204.038C468.223 204.807 468.181 205.591 467.983 206.343L464.462 220.241L482.067 224.666C482.839 224.85 483.566 225.189 484.203 225.663C484.84 226.137 485.374 226.736 485.773 227.422C486.195 228.073 486.479 228.804 486.607 229.569C486.734 230.334 486.703 231.117 486.515 231.87C486.321 232.641 485.976 233.367 485.498 234.003C485.021 234.639 484.422 235.174 483.735 235.576C483.051 236.001 482.287 236.283 481.49 236.402C480.694 236.522 479.881 236.477 479.102 236.271L438.542 226.102L436.503 234.302L476.901 244.425C477.674 244.609 478.4 244.948 479.038 245.422C479.675 245.896 480.209 246.494 480.608 247.181C481.054 247.834 481.355 248.575 481.491 249.354C481.627 250.133 481.594 250.933 481.395 251.698Z" fill="#407BFF"/>
<g opacity="0.7">
<path d="M481.396 251.698L476.415 271.573C476.235 272.329 475.898 273.038 475.428 273.656C474.957 274.275 474.363 274.788 473.682 275.163C472.995 275.581 472.23 275.856 471.434 275.972C470.638 276.087 469.827 276.041 469.049 275.835L451.699 271.457L448.178 285.355C447.999 286.115 447.664 286.828 447.193 287.451C446.723 288.073 446.127 288.59 445.445 288.969C444.788 289.377 444.055 289.647 443.29 289.762C442.526 289.878 441.746 289.836 440.998 289.641C440.227 289.46 439.5 289.127 438.86 288.661C438.22 288.196 437.678 287.608 437.268 286.931C436.85 286.269 436.573 285.529 436.453 284.756C436.334 283.983 436.374 283.193 436.573 282.437L440.117 268.307L422.744 264.068C421.992 263.887 421.283 263.556 420.662 263.095C420.041 262.633 419.52 262.05 419.131 261.381C418.712 260.724 418.434 259.988 418.314 259.218C418.195 258.449 418.236 257.663 418.436 256.91C418.609 256.148 418.937 255.43 419.399 254.801C419.861 254.171 420.448 253.643 421.123 253.25C421.789 252.844 422.531 252.576 423.303 252.465C424.076 252.353 424.863 252.4 425.617 252.601L466.154 262.77L468.239 254.524L427.817 244.378C427.06 244.209 426.346 243.885 425.721 243.426C425.095 242.968 424.57 242.385 424.181 241.714C423.761 241.054 423.486 240.312 423.374 239.537C423.263 238.762 423.316 237.973 423.532 237.22L428.489 217.415C428.676 216.66 429.01 215.95 429.473 215.325C429.936 214.7 430.518 214.173 431.186 213.775C431.853 213.376 432.594 213.114 433.363 213.003C434.133 212.893 434.917 212.936 435.67 213.13L452.858 217.438L456.379 203.54C456.549 202.755 456.88 202.015 457.35 201.364C457.821 200.714 458.421 200.168 459.113 199.761C459.805 199.354 460.574 199.095 461.371 199C462.168 198.905 462.976 198.976 463.745 199.208C464.491 199.381 465.194 199.707 465.808 200.166C466.422 200.624 466.934 201.205 467.312 201.872C467.722 202.533 467.993 203.27 468.108 204.038C468.224 204.807 468.181 205.591 467.984 206.343L464.463 220.241L482.067 224.666C482.84 224.85 483.567 225.189 484.204 225.663C484.841 226.137 485.375 226.736 485.774 227.422C486.196 228.073 486.48 228.804 486.607 229.569C486.735 230.334 486.703 231.117 486.515 231.87C486.322 232.641 485.976 233.367 485.499 234.003C485.022 234.639 484.422 235.174 483.735 235.576C483.051 236.001 482.287 236.283 481.491 236.402C480.694 236.522 479.881 236.477 479.103 236.271L438.542 226.102L436.504 234.302L476.902 244.425C477.674 244.609 478.401 244.948 479.038 245.422C479.675 245.896 480.209 246.494 480.608 247.181C481.054 247.834 481.356 248.575 481.492 249.354C481.627 250.133 481.595 250.933 481.396 251.698Z" fill="white"/>
</g>
<path d="M239.193 773.609H236.877V799.762H239.193V773.609Z" fill="#407BFF"/>
<path opacity="0.1" d="M239.193 773.609H236.877V799.762H239.193V773.609Z" fill="black"/>
<path d="M921.327 566.407H919.011V602.242H921.327V566.407Z" fill="#407BFF"/>
<path d="M921.327 621.052H919.011V640.486H921.327V621.052Z" fill="#407BFF"/>
<path opacity="0.1" d="M921.327 566.407H919.011V602.242H921.327V566.407Z" fill="black"/>
<path opacity="0.1" d="M921.327 621.052H919.011V640.486H921.327V621.052Z" fill="black"/>
<path d="M878.382 411.023H279.846C260.592 411.023 244.984 426.632 244.984 445.885V796.242C244.984 815.495 260.592 831.103 279.846 831.103H878.382C897.635 831.103 913.244 815.495 913.244 796.242V445.885C913.244 426.632 897.635 411.023 878.382 411.023Z" fill="#407BFF"/>
<path opacity="0.2" d="M878.382 411.023H279.846C260.592 411.023 244.984 426.632 244.984 445.885V796.242C244.984 815.495 260.592 831.103 279.846 831.103H878.382C897.635 831.103 913.244 815.495 913.244 796.242V445.885C913.244 426.632 897.635 411.023 878.382 411.023Z" fill="black"/>
<path d="M805.068 557.303C816.538 557.303 827.538 552.747 835.649 544.636C843.759 536.526 848.316 525.526 848.316 514.056C848.316 502.586 843.759 491.586 835.649 483.475C827.538 475.365 816.538 470.809 805.068 470.809H749.243C737.773 470.809 726.773 475.365 718.662 483.475C710.552 491.586 705.996 502.586 705.996 514.056C705.996 525.526 710.552 536.526 718.662 544.636C726.773 552.747 737.773 557.303 749.243 557.303H805.068Z" fill="#407BFF"/>
<path d="M427.934 557.281H324.923C316.633 557.281 309.913 564.002 309.913 572.292V639.629C309.913 647.919 316.633 654.64 324.923 654.64H427.934C436.224 654.64 442.944 647.919 442.944 639.629V572.292C442.944 564.002 436.224 557.281 427.934 557.281Z" fill="#407BFF"/>
<path opacity="0.3" d="M427.934 557.281H324.923C316.633 557.281 309.913 564.002 309.913 572.292V639.629C309.913 647.919 316.633 654.64 324.923 654.64H427.934C436.224 654.64 442.944 647.919 442.944 639.629V572.292C442.944 564.002 436.224 557.281 427.934 557.281Z" fill="white"/>
<path d="M499.21 460.178H320.545C314.673 460.178 309.913 464.933 309.913 470.798C309.913 476.664 314.673 481.419 320.545 481.419H499.21C505.082 481.419 509.842 476.664 509.842 470.798C509.842 464.933 505.082 460.178 499.21 460.178Z" fill="#407BFF"/>
<path opacity="0.3" d="M499.21 460.178H320.545C314.673 460.178 309.913 464.933 309.913 470.798C309.913 476.664 314.673 481.419 320.545 481.419H499.21C505.082 481.419 509.842 476.664 509.842 470.798C509.842 464.933 505.082 460.178 499.21 460.178Z" fill="white"/>
<path d="M405.859 702.96H325.503C316.893 702.96 309.914 709.94 309.914 718.549V733.12C309.914 741.729 316.893 748.709 325.503 748.709H405.859C414.469 748.709 421.449 741.729 421.449 733.12V718.549C421.449 709.94 414.469 702.96 405.859 702.96Z" fill="#407BFF"/>
<path opacity="0.3" d="M405.859 702.96H325.503C316.893 702.96 309.914 709.94 309.914 718.549V733.12C309.914 741.729 316.893 748.709 325.503 748.709H405.859C414.469 748.709 421.449 741.729 421.449 733.12V718.549C421.449 709.94 414.469 702.96 405.859 702.96Z" fill="white"/>
<path d="M548.132 702.96H467.776C459.166 702.96 452.187 709.94 452.187 718.549V733.12C452.187 741.729 459.166 748.709 467.776 748.709H548.132C556.742 748.709 563.721 741.729 563.721 733.12V718.549C563.721 709.94 556.742 702.96 548.132 702.96Z" fill="#407BFF"/>
<path opacity="0.3" d="M548.132 702.96H467.776C459.166 702.96 452.187 709.94 452.187 718.549V733.12C452.187 741.729 459.166 748.709 467.776 748.709H548.132C556.742 748.709 563.721 741.729 563.721 733.12V718.549C563.721 709.94 556.742 702.96 548.132 702.96Z" fill="white"/>
<path d="M690.429 702.96H610.073C601.463 702.96 594.483 709.94 594.483 718.549V733.12C594.483 741.729 601.463 748.709 610.073 748.709H690.429C699.039 748.709 706.018 741.729 706.018 733.12V718.549C706.018 709.94 699.039 702.96 690.429 702.96Z" fill="#407BFF"/>
<path opacity="0.3" d="M690.429 702.96H610.073C601.463 702.96 594.483 709.94 594.483 718.549V733.12C594.483 741.729 601.463 748.709 610.073 748.709H690.429C699.039 748.709 706.018 741.729 706.018 733.12V718.549C706.018 709.94 699.039 702.96 690.429 702.96Z" fill="white"/>
<path d="M832.702 702.96H752.346C743.736 702.96 736.757 709.94 736.757 718.549V733.12C736.757 741.729 743.736 748.709 752.346 748.709H832.702C841.312 748.709 848.292 741.729 848.292 733.12V718.549C848.292 709.94 841.312 702.96 832.702 702.96Z" fill="#407BFF"/>
<path opacity="0.3" d="M832.702 702.96H752.346C743.736 702.96 736.757 709.94 736.757 718.549V733.12C736.757 741.729 743.736 748.709 752.346 748.709H832.702C841.312 748.709 848.292 741.729 848.292 733.12V718.549C848.292 709.94 841.312 702.96 832.702 702.96Z" fill="white"/>
<path d="M678.706 259.021C673.216 274.517 667.124 289.504 660.661 304.492C654.12 319.732 646.615 334.541 638.192 348.828C637.057 350.658 635.876 352.488 634.648 354.317L633.745 355.684L632.517 357.375C631.683 358.441 630.895 359.367 630.201 360.271C627.282 363.524 624.189 366.617 620.935 369.536C614.75 375.258 608.45 380.447 602.079 385.566C589.293 395.712 576.228 405.209 562.7 414.22L554.616 404.19L588.667 370.625C594.296 365.042 599.879 359.414 605.091 353.785C607.662 350.982 610.164 348.109 612.225 345.469C612.735 344.82 613.175 344.172 613.569 343.616L614.055 342.828L614.727 341.624C615.63 340.025 616.58 338.473 617.46 336.829C624.548 323.509 630.803 309.032 636.825 294.346C642.848 279.66 648.639 264.858 654.199 250.172L678.706 259.021Z" fill="#E4897B"/>
<path d="M685.216 247.855C690.474 263.236 659.573 308.476 659.573 308.476L630.062 292.052C635.091 277.937 641.033 264.164 647.852 250.82C658.183 231.27 679.448 230.969 685.216 247.855Z" fill="#407BFF"/>
<path opacity="0.7" d="M685.216 247.855C690.474 263.236 659.573 308.476 659.573 308.476L630.062 292.052C635.091 277.937 641.033 264.164 647.852 250.82C658.183 231.27 679.448 230.969 685.216 247.855Z" fill="white"/>
<path opacity="0.31" d="M685.656 249.779C679.031 246.605 671.41 249.269 663.372 261.963C655.334 274.657 648.501 295.852 647.759 301.898L659.596 308.453C659.596 308.453 688.111 266.665 685.656 249.779Z" fill="#407BFF"/>
<path d="M665.226 236.089C665.226 236.089 643.174 287.953 659.064 384.524H750.91C752.045 370.417 745.559 301.643 761.473 235.209C751.362 233.24 741.132 231.94 730.85 231.317C717.85 230.575 704.818 230.575 691.818 231.317C682.846 232.228 673.956 233.823 665.226 236.089Z" fill="#407BFF"/>
<path opacity="0.7" d="M665.226 236.089C665.226 236.089 643.174 287.953 659.064 384.524H750.91C752.045 370.417 745.559 301.643 761.473 235.209C751.362 233.24 741.132 231.94 730.85 231.317C717.85 230.575 704.818 230.575 691.818 231.317C682.846 232.228 673.956 233.823 665.226 236.089Z" fill="white"/>
<path d="M783.431 795.964L769.834 808.148L743.914 781.185L757.534 769.001L783.431 795.964Z" fill="#E4897B"/>
<path d="M736.802 821.327H719.637L717.414 781.555H734.578L736.802 821.327Z" fill="#E4897B"/>
<path d="M743.937 781.185L757.279 795.084L770.899 782.899L757.557 769.001L743.937 781.185Z" fill="#CE6F64"/>
<path d="M734.578 781.578H717.414L718.572 802.078H735.736L734.578 781.578Z" fill="#CE6F64"/>
<path d="M659.064 384.524C659.064 384.524 640.972 509.748 634.811 577.897C629.854 632.587 748.106 795.639 748.106 795.639L770.969 774.12C770.969 774.12 684.614 627.931 691.262 567.056C697.701 508.104 719.522 384.454 719.522 384.454L659.064 384.524Z" fill="#407BFF"/>
<path opacity="0.7" d="M659.064 384.524C659.064 384.524 640.972 509.748 634.811 577.897C629.854 632.587 748.106 795.639 748.106 795.639L770.969 774.12C770.969 774.12 684.614 627.931 691.262 567.056C697.701 508.104 719.522 384.454 719.522 384.454L659.064 384.524Z" fill="black"/>
<path opacity="0.2" d="M691.262 567.126C694.574 536.758 701.987 489.179 708.357 450.217C705.021 443.685 695.663 430.458 695.663 430.458C687.277 459.436 669.047 568.678 695.061 716.21C722.163 759.897 748.106 795.709 748.106 795.709L751.65 739.374C726.61 692.258 686.652 609.215 691.262 567.126Z" fill="black"/>
<path d="M691.725 384.522C691.725 384.522 690.104 515.747 692.883 564.924C695.918 618.757 711.206 797.121 711.206 797.121H742.663C742.663 797.121 741.713 623.112 743.566 569.835C745.628 511.925 750.956 384.522 750.956 384.522H691.725Z" fill="#407BFF"/>
<path opacity="0.7" d="M691.725 384.522C691.725 384.522 690.104 515.747 692.883 564.924C695.918 618.757 711.206 797.121 711.206 797.121H742.663C742.663 797.121 741.713 623.112 743.566 569.835C745.628 511.925 750.956 384.522 750.956 384.522H691.725Z" fill="black"/>
<path d="M718.733 819.358H738.029C738.351 819.346 738.665 819.46 738.903 819.677C739.141 819.893 739.285 820.195 739.303 820.517L740.253 835.782C740.256 836.18 740.18 836.575 740.031 836.945C739.881 837.314 739.66 837.65 739.38 837.934C739.101 838.218 738.768 838.444 738.401 838.599C738.034 838.755 737.64 838.836 737.241 838.839C730.524 838.724 727.304 838.33 718.826 838.33C713.614 838.33 691.423 838.886 684.219 838.886C677.015 838.886 677.27 831.751 680.258 831.103C693.948 828.207 710.927 824.153 715.791 820.401C716.63 819.738 717.664 819.372 718.733 819.358Z" fill="#263238"/>
<path d="M766.081 803.282L782.62 792.14C782.89 791.926 783.225 791.81 783.57 791.81C783.914 791.81 784.249 791.926 784.519 792.14L797.167 804.904C797.414 805.184 797.596 805.515 797.7 805.874C797.805 806.233 797.829 806.61 797.772 806.979C797.714 807.348 797.576 807.7 797.368 808.01C797.159 808.32 796.885 808.58 796.565 808.772C786.002 816.903 778.381 823.041 772.358 829.805C765.409 837.704 761.656 838.839 745.442 838.839C737.936 838.839 733.697 832.515 736.755 831.542C763.764 822.995 756.537 819.265 763.116 806.734C763.802 805.355 764.821 804.168 766.081 803.282Z" fill="#263238"/>
<path d="M558.508 402.036L540.603 402.662L544.355 416.699C544.355 416.699 563.072 418.367 564.739 412.715L558.508 402.036Z" fill="#E4897B"/>
<path d="M521.284 411.023L533.839 418.343L544.355 416.699L540.603 402.661L521.284 411.023Z" fill="#E4897B"/>
<path opacity="0.31" d="M740.948 251.607C739.049 262.541 741.574 288.67 750.955 318.922C751.69 293.003 754.705 267.199 759.966 241.809V241.67C753.943 241.068 742.778 241.346 740.948 251.607Z" fill="#407BFF"/>
<path d="M728.509 187.352C725.613 199.906 722.347 222.932 730.825 231.363C730.825 231.363 727.165 241.764 703.816 241.764C678.15 241.764 691.794 231.363 691.794 231.363C705.924 228.028 705.924 217.627 703.816 207.875L728.509 187.352Z" fill="#E4897B"/>
<path d="M703.168 241.716L696.219 249.105L699.624 256.24L705.16 256.494L709.886 249.684L703.168 241.716Z" fill="#407BFF"/>
<path d="M718.455 195.714L703.839 207.806C704.365 210.089 704.691 212.414 704.812 214.755C710.186 213.99 717.737 208.107 718.502 202.501C718.911 200.256 718.895 197.953 718.455 195.714Z" fill="#CE6F64"/>
<path d="M698.048 144.776C689.269 147.765 682.251 171.044 692.489 177.206C702.728 183.368 714.727 139.101 698.048 144.776Z" fill="#263238"/>
<path d="M733.999 174.195C728.764 190.41 726.54 200.208 715.978 206.856C712.57 209.046 708.628 210.263 704.579 210.375C700.53 210.487 696.528 209.489 693.005 207.49C689.481 205.491 686.572 202.567 684.591 199.034C682.61 195.501 681.632 191.493 681.764 187.445C681.973 171.855 690.497 147.857 708.449 144.846C712.318 144.099 716.316 144.382 720.041 145.666C723.767 146.95 727.089 149.19 729.677 152.162C732.264 155.134 734.025 158.734 734.784 162.601C735.542 166.467 735.272 170.466 733.999 174.195Z" fill="#E4897B"/>
<path d="M746.971 147.092C741.736 159.739 753.92 149.176 750.77 164.187C748.732 173.962 731.081 197.381 724.27 195.25C717.46 193.119 717.53 176.51 726.216 164.766C731.22 158.025 720.402 150.381 696.103 151.192C671.804 152.002 657.118 138.336 689.409 128.306C689.409 128.306 677.502 135.255 684.567 137.571C694.574 141.301 757.465 121.75 746.971 147.092Z" fill="#263238"/>
<path d="M742.339 152.884C742.084 152.884 747.782 151.471 750.817 141.302C750.817 141.464 749.821 156.451 742.339 152.884Z" fill="#263238"/>
<path d="M696.867 130.553C681.926 135.186 688.111 140.397 694.296 141.695L708.472 136.135C686.93 138.984 696.867 130.553 696.867 130.553Z" fill="#263238"/>
<path d="M736.872 193.998C733.766 197.018 729.621 198.733 725.29 198.793C719.569 198.793 718.341 193.373 721.422 188.833C724.155 184.756 730.409 179.845 735.459 182.046C740.509 184.246 740.671 190.269 736.872 193.998Z" fill="#E4897B"/>
<path d="M707.615 173.29C707.268 174.634 706.272 175.607 705.299 175.375C704.326 175.143 703.978 173.916 704.326 172.572C704.673 171.228 705.669 170.256 706.642 170.51C707.615 170.765 707.963 171.947 707.615 173.29Z" fill="#263238"/>
<path d="M692.327 169.932C691.98 171.276 690.984 172.248 690.011 172.017C689.038 171.785 688.691 170.581 689.038 169.237C689.386 167.894 690.358 166.921 691.355 167.152C692.351 167.384 692.605 168.589 692.327 169.932Z" fill="#263238"/>
<path d="M697.006 171.669C694.372 175.419 691.257 178.807 687.74 181.745C688.514 182.605 689.467 183.285 690.531 183.737C691.595 184.189 692.746 184.403 693.902 184.363L697.006 171.669Z" fill="#DE5753"/>
<path d="M699.554 189.25C698.595 189.249 697.64 189.14 696.705 188.926C696.602 188.899 696.514 188.833 696.458 188.743C696.402 188.652 696.383 188.544 696.404 188.44C696.431 188.337 696.497 188.248 696.587 188.192C696.678 188.136 696.786 188.117 696.89 188.138C698.596 188.518 700.366 188.507 702.067 188.106C703.768 187.705 705.356 186.924 706.712 185.822C706.79 185.747 706.893 185.705 707.001 185.705C707.11 185.705 707.213 185.747 707.291 185.822C707.366 185.9 707.408 186.004 707.408 186.112C707.408 186.22 707.366 186.323 707.291 186.401C705.14 188.253 702.392 189.265 699.554 189.25Z" fill="#263238"/>
<path d="M713.685 169.422C713.527 169.425 713.371 169.38 713.239 169.293C713.107 169.206 713.004 169.082 712.943 168.935C712.563 168.006 711.964 167.182 711.198 166.533C710.432 165.884 709.521 165.429 708.542 165.206C708.435 165.192 708.332 165.156 708.239 165.102C708.146 165.048 708.065 164.975 708 164.889C707.935 164.802 707.888 164.704 707.862 164.6C707.836 164.495 707.831 164.386 707.847 164.279C707.882 164.066 707.997 163.875 708.17 163.745C708.343 163.615 708.559 163.558 708.774 163.585C710.022 163.839 711.189 164.394 712.174 165.201C713.158 166.008 713.932 167.044 714.426 168.217C714.472 168.314 714.497 168.419 714.5 168.526C714.504 168.633 714.486 168.74 714.447 168.84C714.408 168.94 714.349 169.03 714.273 169.107C714.198 169.183 714.108 169.243 714.009 169.283C713.912 169.352 713.802 169.4 713.685 169.422Z" fill="#263238"/>
<path d="M687.161 163.284C686.975 163.282 686.795 163.217 686.652 163.098C686.485 162.958 686.38 162.759 686.358 162.543C686.337 162.326 686.4 162.11 686.536 161.94C687.352 160.925 688.39 160.11 689.571 159.56C690.752 159.01 692.044 158.738 693.346 158.767C693.453 158.775 693.556 158.805 693.651 158.854C693.746 158.903 693.831 158.971 693.9 159.052C693.969 159.134 694.021 159.229 694.053 159.331C694.085 159.433 694.097 159.54 694.087 159.647C694.082 159.755 694.054 159.86 694.006 159.957C693.958 160.053 693.891 160.139 693.808 160.209C693.725 160.278 693.629 160.33 693.526 160.361C693.423 160.392 693.314 160.401 693.207 160.388C692.165 160.377 691.135 160.605 690.195 161.055C689.255 161.505 688.431 162.164 687.787 162.982C687.712 163.077 687.617 163.153 687.509 163.206C687.4 163.258 687.281 163.285 687.161 163.284Z" fill="#263238"/>
<path d="M765.918 247.045C767.725 249.848 769.231 252.326 770.76 255.013C772.289 257.7 773.748 260.295 775.184 262.982C778.01 268.333 780.674 273.799 783.106 279.382C788.208 290.811 792.038 302.766 794.526 315.031L794.758 316.213L794.874 316.792L795.036 317.765C795.233 319.06 795.333 320.369 795.337 321.68C795.314 323.874 795.081 326.061 794.642 328.212C793.858 331.758 792.725 335.219 791.26 338.543C788.659 344.367 785.559 349.955 781.994 355.244C775.256 365.302 767.594 374.709 759.108 383.342L749.032 375.258C754.638 365.483 760.22 355.337 764.899 345.4C767.2 340.647 769.166 335.74 770.783 330.714C771.444 328.617 771.894 326.46 772.126 324.274C772.207 323.558 772.207 322.835 772.126 322.12C772.126 321.911 772.126 321.726 771.987 321.703C771.848 321.68 771.987 321.703 771.987 321.587L771.848 321.124L771.571 320.174C770.107 315.064 768.367 310.038 766.359 305.117C764.32 300.091 762.05 295.087 759.664 290.107C757.278 285.127 754.707 280.216 752.066 275.305C750.769 272.85 749.402 270.417 748.036 268.008L743.959 261.059L765.918 247.045Z" fill="#E4897B"/>
<path d="M712.664 822.325C711.508 822.441 710.351 822.118 709.421 821.421C709.159 821.131 708.975 820.779 708.886 820.398C708.797 820.018 708.806 819.62 708.912 819.244C708.963 818.991 709.076 818.754 709.242 818.556C709.408 818.358 709.621 818.204 709.861 818.109C711.969 817.275 716.81 820.611 717.366 820.981C717.435 821.024 717.488 821.087 717.517 821.163C717.547 821.238 717.551 821.321 717.529 821.398C717.517 821.476 717.482 821.549 717.428 821.607C717.374 821.665 717.304 821.705 717.227 821.723C715.732 822.082 714.202 822.284 712.664 822.325ZM710.649 818.781C710.488 818.755 710.323 818.755 710.162 818.781C710.044 818.823 709.941 818.898 709.863 818.996C709.785 819.094 709.736 819.212 709.722 819.337C709.638 819.579 709.619 819.84 709.668 820.092C709.717 820.344 709.832 820.579 710 820.773C710.788 821.56 713.035 821.653 716.115 821.051C714.478 819.915 712.612 819.148 710.649 818.804V818.781Z" fill="white"/>
<path d="M717.136 821.744H716.928C715.214 820.725 712.666 817.112 713.059 815.258C713.127 814.919 713.309 814.612 713.574 814.389C713.839 814.166 714.172 814.04 714.519 814.031C714.824 813.991 715.135 814.021 715.427 814.117C715.72 814.213 715.987 814.374 716.21 814.587C717.947 816.278 717.553 821.212 717.553 821.42C717.545 821.489 717.519 821.555 717.479 821.612C717.438 821.668 717.384 821.714 717.322 821.744H717.136ZM714.82 814.795H714.635C714.055 814.795 713.916 815.143 713.87 815.374C713.615 816.602 715.306 819.312 716.789 820.563C717.002 818.684 716.613 816.786 715.677 815.143C715.56 815.029 715.423 814.94 715.272 814.881C715.12 814.821 714.959 814.792 714.797 814.795H714.82Z" fill="white"/>
<path d="M754.962 812.595C754.534 812.608 754.107 812.529 753.711 812.363C753.406 812.241 753.135 812.046 752.921 811.796C752.707 811.546 752.557 811.248 752.484 810.927C752.425 810.732 752.417 810.525 752.462 810.326C752.506 810.127 752.602 809.943 752.739 809.792C754.291 807.916 762.421 808.472 763.348 808.541C763.434 808.544 763.517 808.575 763.584 808.629C763.651 808.684 763.698 808.759 763.718 808.842C763.736 808.926 763.728 809.013 763.695 809.092C763.662 809.17 763.605 809.237 763.533 809.283C760.946 810.988 758.023 812.117 754.962 812.595ZM759.873 809.213C757.024 809.213 754.036 809.491 753.364 810.302C753.325 810.364 753.304 810.437 753.304 810.51C753.304 810.584 753.325 810.656 753.364 810.719C753.403 810.919 753.491 811.107 753.62 811.264C753.75 811.422 753.916 811.545 754.105 811.622C755.402 812.155 758.321 811.275 762.004 809.306L759.873 809.213Z" fill="white"/>
<path d="M763.324 809.353C761.008 809.353 755.796 807.569 755.402 805.716C755.402 805.253 755.402 804.604 756.514 804.071C760.498 802.195 763.579 808.496 763.718 808.704C763.746 808.77 763.761 808.841 763.761 808.912C763.761 808.984 763.746 809.055 763.718 809.121C763.68 809.192 763.623 809.251 763.554 809.292C763.484 809.333 763.405 809.354 763.324 809.353ZM757.974 804.558C757.581 804.553 757.192 804.64 756.839 804.812C756.352 805.044 756.12 805.299 756.167 805.531C756.398 806.619 760.151 808.148 762.606 808.472C761.865 807.221 760.082 804.558 757.974 804.558Z" fill="white"/>
<path d="M753.619 371.507L736.617 368.519L745.396 388.324C745.396 388.324 760.985 388.324 760.29 380.17L753.619 371.507Z" fill="#E4897B"/>
<path d="M723.76 378.456L731.798 394.462L745.303 388.301L736.524 368.519L723.76 378.456Z" fill="#E4897B"/>
<path d="M772.359 772.869L746.716 797.029L738.447 788.157L767.796 761.426L772.359 772.869Z" fill="#407BFF"/>
<path opacity="0.6" d="M772.359 772.869L746.716 797.029L738.447 788.157L767.796 761.426L772.359 772.869Z" fill="white"/>
<path d="M743.914 797.122H709.932L708.056 785.192L745.558 787.046L743.914 797.122Z" fill="#407BFF"/>
<path opacity="0.6" d="M743.914 797.122H709.932L708.056 785.192L745.558 787.046L743.914 797.122Z" fill="white"/>
<path d="M761.472 235.208C777.687 237.525 794.296 293.86 794.296 293.86L759.55 313.132C759.55 313.132 745.443 286.355 738.702 266.48C731.637 245.655 744.123 232.66 761.472 235.208Z" fill="#407BFF"/>
<path opacity="0.7" d="M761.472 235.208C777.687 237.525 794.296 293.86 794.296 293.86L759.55 313.132C759.55 313.132 745.443 286.355 738.702 266.48C731.637 245.655 744.123 232.66 761.472 235.208Z" fill="white"/>
<path opacity="0.2" d="M703.168 241.716L696.219 249.105L699.624 256.24L705.16 256.494L709.886 249.684L703.168 241.716Z" fill="black"/>
<path d="M700.227 254.967C700.227 254.967 687.046 309.564 686.537 320.915C685.819 336.527 692.351 363.189 692.351 363.189C692.351 363.189 701.616 341.021 703.516 320.428C705.415 299.836 704.002 266.526 704.859 254.967H700.227Z" fill="#407BFF"/>
<path opacity="0.2" d="M700.227 254.967C700.227 254.967 687.046 309.564 686.537 320.915C685.819 336.527 692.351 363.189 692.351 363.189C692.351 363.189 701.616 341.021 703.516 320.428C705.415 299.836 704.002 266.526 704.859 254.967H700.227Z" fill="black"/>
<path d="M703.167 241.716C705.807 245.989 707.336 250.854 707.615 255.869C707.615 255.869 736.524 245.677 735.157 230.736C735.157 230.736 731.057 228.304 728.463 226.335C728.463 226.335 727.49 235.74 703.167 241.716Z" fill="#407BFF"/>
<path opacity="0.6" d="M703.167 241.716C705.807 245.989 707.336 250.854 707.615 255.869C707.615 255.869 736.524 245.677 735.157 230.736C735.157 230.736 731.057 228.304 728.463 226.335C728.463 226.335 727.49 235.74 703.167 241.716Z" fill="white"/>
<path d="M703.168 241.718C700.511 245.763 698.597 250.25 697.516 254.967C697.516 254.967 684.428 246.119 688.366 231.363C690.764 230.397 693.235 229.622 695.755 229.047C695.755 229.047 694.041 238.59 703.168 241.718Z" fill="#407BFF"/>
<path opacity="0.6" d="M703.168 241.718C700.511 245.763 698.597 250.25 697.516 254.967C697.516 254.967 684.428 246.119 688.366 231.363C690.764 230.397 693.235 229.622 695.755 229.047C695.755 229.047 694.041 238.59 703.168 241.718Z" fill="white"/>
</svg>
