<svg width="1058" height="788" viewBox="0 0 1058 788" fill="none" xmlns="http://www.w3.org/2000/svg">
<path d="M1057.55 692.481H0V693.01H1057.55V692.481Z" fill="#E6E6E6"/>
<path d="M264.006 724.482H193.954V725.011H264.006V724.482Z" fill="#E6E6E6"/>
<path d="M171.788 724.482H131.199V725.011H171.788V724.482Z" fill="#E6E6E6"/>
<path d="M445.333 732.268H404.744V732.796H445.333V732.268Z" fill="#E6E6E6"/>
<path d="M656.969 744.069H565.618V744.598H656.969V744.069Z" fill="#E6E6E6"/>
<path d="M546.794 744.069H533.405V744.598H546.794V744.069Z" fill="#E6E6E6"/>
<path d="M958.878 732.268H760.736V732.796H958.878V732.268Z" fill="#E6E6E6"/>
<path d="M501.277 598.148H92.8734C89.674 598.143 86.6076 596.868 84.3472 594.604C82.0869 592.339 80.8174 589.271 80.8174 586.071V11.9714C80.8452 8.79038 82.127 5.74878 84.3844 3.50729C86.6417 1.26579 89.6923 0.0054493 92.8734 0H501.277C504.48 0 507.552 1.27241 509.817 3.53733C512.082 5.80224 513.354 8.87411 513.354 12.0772V586.071C513.354 589.274 512.082 592.346 509.817 594.611C507.552 596.876 504.48 598.148 501.277 598.148ZM92.8734 0.42302C89.8143 0.428623 86.8823 1.6478 84.7211 3.81294C82.56 5.97808 81.3462 8.91226 81.3462 11.9714V586.071C81.3462 589.13 82.56 592.065 84.7211 594.23C86.8823 596.395 89.8143 597.614 92.8734 597.62H501.277C504.338 597.614 507.272 596.396 509.437 594.231C511.601 592.066 512.82 589.132 512.825 586.071V11.9714C512.82 8.91032 511.601 5.97618 509.437 3.81164C507.272 1.64711 504.338 0.428611 501.277 0.42302H92.8734Z" fill="#E6E6E6"/>
<path d="M958.793 598.148H550.369C547.167 598.143 544.099 596.869 541.835 594.605C539.571 592.341 538.297 589.273 538.292 586.071V11.9714C538.325 8.78845 539.611 5.74687 541.872 3.50596C544.133 1.26506 547.186 0.00538987 550.369 0H958.793C961.971 0.011008 965.016 1.27381 967.269 3.51471C969.521 5.75561 970.8 8.79403 970.828 11.9714V586.071C970.828 589.267 969.562 592.332 967.306 594.596C965.05 596.86 961.989 598.137 958.793 598.148ZM550.369 0.42302C547.308 0.428611 544.373 1.64711 542.209 3.81164C540.044 5.97618 538.826 8.91032 538.82 11.9714V586.071C538.826 589.132 540.044 592.066 542.209 594.231C544.373 596.396 547.308 597.614 550.369 597.62H958.793C961.854 597.614 964.789 596.396 966.953 594.231C969.118 592.066 970.336 589.132 970.342 586.071V11.9714C970.336 8.91032 969.118 5.97618 966.953 3.81164C964.789 1.64711 961.854 0.428611 958.793 0.42302H550.369Z" fill="#E6E6E6"/>
<path d="M565.576 511.811H519.065V696.31H565.576V511.811Z" fill="#E0E0E0"/>
<path d="M556.735 696.31H565.576V671.183H547.471L556.735 696.31Z" fill="#FAFAFA"/>
<path d="M361.765 511.811H315.254V696.31H361.765V511.811Z" fill="#E0E0E0"/>
<path d="M565.576 511.811H354.067V680.891H565.576V511.811Z" fill="#FAFAFA"/>
<path d="M557.898 520.123V564.857H361.681V520.123H557.835M558.66 519.298H360.919V565.661H558.723V519.298H558.66Z" fill="#E0E0E0"/>
<path d="M362.887 696.31H354.067V671.183H372.151L362.887 696.31Z" fill="#FAFAFA"/>
<path d="M455.147 542.479C455.147 543.404 455.421 544.307 455.935 545.076C456.448 545.845 457.178 546.444 458.033 546.798C458.887 547.151 459.827 547.244 460.733 547.064C461.64 546.883 462.473 546.438 463.127 545.784C463.78 545.131 464.226 544.298 464.406 543.391C464.586 542.484 464.494 541.544 464.14 540.69C463.786 539.836 463.187 539.106 462.418 538.592C461.65 538.079 460.746 537.805 459.821 537.805C458.582 537.805 457.393 538.297 456.516 539.174C455.639 540.05 455.147 541.239 455.147 542.479Z" fill="#E6E6E6"/>
<path d="M557.898 573.973V618.707H361.681V573.973H557.835M558.66 573.169H360.919V619.532H558.723V573.191L558.66 573.169Z" fill="#E0E0E0"/>
<path d="M455.147 596.456C455.147 597.381 455.421 598.284 455.935 599.053C456.448 599.822 457.178 600.421 458.033 600.775C458.887 601.128 459.827 601.221 460.733 601.041C461.64 600.86 462.473 600.415 463.127 599.761C463.78 599.108 464.226 598.275 464.406 597.368C464.586 596.461 464.494 595.521 464.14 594.667C463.786 593.813 463.187 593.083 462.418 592.569C461.65 592.056 460.746 591.782 459.821 591.782C458.582 591.782 457.393 592.274 456.516 593.151C455.639 594.027 455.147 595.216 455.147 596.456Z" fill="#E6E6E6"/>
<path d="M557.898 627.844V672.6H361.681V627.844H557.835M558.66 627.02H360.919V673.404H558.723V627.02H558.66Z" fill="#E0E0E0"/>
<path d="M455.147 650.221C455.151 651.145 455.429 652.047 455.945 652.813C456.461 653.578 457.193 654.174 458.047 654.525C458.902 654.875 459.841 654.965 460.746 654.782C461.652 654.599 462.482 654.153 463.134 653.498C463.786 652.843 464.229 652.011 464.407 651.104C464.586 650.198 464.492 649.259 464.138 648.407C463.783 647.554 463.184 646.825 462.416 646.312C461.648 645.8 460.745 645.526 459.821 645.526C459.206 645.526 458.596 645.647 458.028 645.884C457.459 646.12 456.943 646.466 456.509 646.902C456.074 647.339 455.73 647.857 455.497 648.426C455.263 648.996 455.144 649.606 455.147 650.221Z" fill="#E6E6E6"/>
<path d="M333.36 404.659H286.849V696.331H333.36V404.659Z" fill="#E0E0E0"/>
<path d="M324.518 696.31H333.359V671.183H315.275L324.518 696.31Z" fill="#FAFAFA"/>
<path d="M159.541 404.659H113.03V696.331H159.541V404.659Z" fill="#E0E0E0"/>
<path d="M333.36 404.659H151.821V680.912H333.36V404.659Z" fill="#FAFAFA"/>
<path d="M325.534 412.443V474.986H159.648V412.443H325.534ZM326.507 411.491H158.632V475.896H326.465V411.512L326.507 411.491Z" fill="#E0E0E0"/>
<path d="M325.534 482.623V648.51H246.514V482.623H325.534ZM326.507 481.65H245.562V649.483H326.507V481.65Z" fill="#E0E0E0"/>
<path d="M238.667 482.623V648.51H159.648V482.623H238.667ZM239.619 481.65H158.632V649.483H239.577V481.65H239.619Z" fill="#E0E0E0"/>
<path d="M160.662 696.31H151.821V671.183H169.926L160.662 696.31Z" fill="#FAFAFA"/>
<path d="M237.906 443.747C237.902 444.676 238.173 445.586 238.687 446.361C239.2 447.136 239.932 447.741 240.79 448.1C241.647 448.458 242.592 448.554 243.504 448.376C244.417 448.197 245.255 447.751 245.914 447.096C246.573 446.44 247.022 445.603 247.205 444.692C247.388 443.78 247.296 442.835 246.941 441.976C246.587 441.117 245.985 440.382 245.212 439.865C244.44 439.348 243.531 439.072 242.601 439.072C241.36 439.072 240.169 439.564 239.289 440.44C238.409 441.316 237.911 442.505 237.906 443.747Z" fill="#E6E6E6"/>
<path d="M254.657 561.621C254.657 562.551 254.933 563.46 255.45 564.232C255.967 565.005 256.702 565.607 257.561 565.961C258.42 566.316 259.365 566.408 260.277 566.225C261.188 566.042 262.025 565.593 262.68 564.934C263.336 564.275 263.782 563.437 263.961 562.524C264.139 561.612 264.043 560.667 263.685 559.81C263.326 558.952 262.721 558.22 261.946 557.707C261.171 557.193 260.261 556.922 259.332 556.926C258.716 556.926 258.106 557.047 257.538 557.284C256.969 557.52 256.453 557.866 256.019 558.302C255.585 558.739 255.241 559.257 255.007 559.826C254.773 560.396 254.654 561.006 254.657 561.621Z" fill="#E6E6E6"/>
<path d="M221.175 561.621C221.18 562.545 221.457 563.447 221.973 564.212C222.49 564.978 223.221 565.574 224.076 565.925C224.93 566.275 225.869 566.365 226.775 566.182C227.68 565.999 228.511 565.552 229.162 564.898C229.814 564.243 230.257 563.41 230.436 562.504C230.614 561.598 230.521 560.659 230.166 559.806C229.812 558.954 229.213 558.225 228.444 557.712C227.676 557.199 226.773 556.926 225.85 556.926C225.234 556.926 224.625 557.047 224.056 557.284C223.487 557.52 222.971 557.866 222.537 558.302C222.103 558.739 221.759 559.256 221.525 559.826C221.291 560.396 221.173 561.006 221.175 561.621Z" fill="#E6E6E6"/>
<path d="M215.888 323.334H196.281C198.088 332.846 199.226 342.472 199.686 352.142C199.686 362.718 184.754 404.66 206.032 404.66C227.309 404.66 212.377 362.823 212.377 352.142C212.872 342.469 214.046 332.843 215.888 323.334Z" fill="#E0E0E0"/>
<path d="M141.289 366.228V378.919C141.311 385.722 144.023 392.24 148.834 397.051C153.644 401.861 160.163 404.574 166.966 404.596H179.656C186.46 404.574 192.978 401.861 197.788 397.051C202.599 392.24 205.311 385.722 205.334 378.919V366.228H141.289Z" fill="#F5F5F5"/>
<path d="M413.86 484.906C413.86 499.712 430.422 511.81 450.663 511.81H468.937C489.179 511.81 505.74 499.712 505.74 484.906H413.86Z" fill="#E0E0E0"/>
<path d="M898.09 463.206C887.007 472.259 871.693 488.82 857.691 512.128C848.343 527.653 842.717 543.855 840.242 565.386C840.242 541.063 840.39 514.941 840.475 490.279C843.288 483.934 849.718 469.298 854.328 457.749C869.705 419.191 875.479 409.694 889.291 376.445C907.756 332.028 926.665 279.447 921.25 283.656C910.209 292.222 867.907 371.432 863.339 382.769C850.886 413.024 843.187 445.023 840.517 477.631C840.517 454.365 840.686 433.214 840.771 416.801C841.067 363.268 841.976 345.988 842.42 340.658C844.134 337.95 846.143 334.799 847.327 333.107C857.268 318.724 861.097 306.499 870.445 285.052C883.728 254.7 895.15 200.786 891.808 203.494C877.891 214.831 866.934 239.154 852.509 270.183C838.085 301.211 842.209 319.041 839.354 345.522C838.761 350.725 838.296 370.353 837.958 397.532C834.235 368.556 827.213 349.477 814.417 332.134C798.68 310.792 783.452 296.389 772.284 288.859C761.116 281.329 791.574 333.741 806.125 356.542C819.091 376.931 831.041 394.889 837.852 412.592C837.492 449.458 837.323 496.117 837.323 539.498C833.981 519.743 828.524 498.444 821.248 481.967C812.492 462.17 799.04 431.797 788.316 421.496C785.757 419.022 799.526 478.096 808.367 493.79C817.209 509.484 823.702 524.311 829.265 533.216C830.555 535.331 834.87 543.305 837.323 547.916C837.323 600.941 837.619 647.727 838.085 663.653H840.369C840.221 659.55 840.178 632.562 840.242 596.859C845.762 577.485 858.368 555.361 868.775 535.183C880.111 513.334 909.173 454.217 898.09 463.206Z" fill="#E0E0E0"/>
<path d="M872.35 696.31H806.063L801.05 631.334H877.362L872.35 696.31Z" fill="#F0F0F0"/>
<path d="M882.291 638.906H796.1L793.647 616.973H884.765L882.291 638.906Z" fill="#F5F5F5"/>
<path d="M262.822 43.3594H144.271V173.543H262.822V43.3594Z" fill="#E0E0E0"/>
<path d="M275.66 43.3594H153.196V173.543H275.66V43.3594Z" fill="#F5F5F5"/>
<path d="M265.401 163.285V53.6172L163.454 53.6172V163.285H265.401Z" fill="white"/>
<path d="M240.676 136.677V80.1826H188.158V136.677H240.676Z" fill="#F5F5F5"/>
<path d="M867.294 58.5249H757.161V179.466H867.294V58.5249Z" fill="#E0E0E0"/>
<path d="M879.223 58.5249H765.474V179.466H879.223V58.5249Z" fill="#F5F5F5"/>
<path d="M869.706 169.927V68.064H775.013V169.927H869.706Z" fill="white"/>
<path d="M822.348 148.543C838.667 148.543 851.896 135.314 851.896 118.996C851.896 102.677 838.667 89.4478 822.348 89.4478C806.029 89.4478 792.8 102.677 792.8 118.996C792.8 135.314 806.029 148.543 822.348 148.543Z" fill="#F5F5F5"/>
<path d="M385.983 120.983H298.038V217.558H385.983V120.983Z" fill="#E0E0E0"/>
<path d="M395.501 120.983H304.658V217.558H395.501V120.983Z" fill="#F5F5F5"/>
<path d="M387.887 209.944V128.598H312.273V209.944H387.887Z" fill="white"/>
<path d="M350.09 148.692L329.405 184.522H370.776L350.09 148.692Z" fill="#F5F5F5"/>
<path d="M528.773 788C755.263 788 938.869 777.28 938.869 764.057C938.869 750.834 755.263 740.114 528.773 740.114C302.284 740.114 118.678 750.834 118.678 764.057C118.678 777.28 302.284 788 528.773 788Z" fill="#F5F5F5"/>
<path d="M738.697 229.34L717.715 220.879C717.715 220.879 690.028 271.367 682.097 273.926C671.31 277.395 648.974 287.04 635.734 288.732C633.936 290.847 630.996 297.425 631.271 299.815C649.059 305.758 688.146 297.869 696.522 291.65C715.579 277.543 738.697 229.34 738.697 229.34Z" fill="#E58A7B"/>
<path d="M745.147 217.854C749.06 232.3 727.867 261.362 727.867 261.362L700.096 245.795C700.096 245.795 705.299 233.844 711.644 221.683C721.818 202.033 740.684 201.378 745.147 217.854Z" fill="#407BFF"/>
<path opacity="0.2" d="M745.147 217.854C749.06 232.3 727.867 261.362 727.867 261.362L700.096 245.795C700.096 245.795 705.299 233.844 711.644 221.683C721.818 202.033 740.684 201.378 745.147 217.854Z" fill="black"/>
<path opacity="0.2" d="M711.115 252.013L722.05 258.147L723.975 224.58C717.609 229.466 713.125 244.187 711.115 252.013Z" fill="black"/>
<path d="M726.873 206.982C726.873 206.982 705.257 255.08 717.863 344.633H803.037C804.391 331.561 799.907 267.77 816.13 206.179C806.786 204.353 797.332 203.144 787.83 202.562C775.777 201.863 763.694 201.863 751.641 202.562C743.285 203.41 735.006 204.888 726.873 206.982Z" fill="#407BFF"/>
<path opacity="0.2" d="M726.873 206.982C726.873 206.982 705.257 255.08 717.863 344.633H803.037C804.391 331.561 799.907 267.77 816.13 206.179C806.786 204.353 797.332 203.144 787.83 202.562C775.777 201.863 763.694 201.863 751.641 202.562C743.285 203.41 735.006 204.888 726.873 206.982Z" fill="black"/>
<g style="mix-blend-mode:multiply">
<path d="M707.119 765.959C706.992 768.244 739.289 770.084 779.243 770.084C819.197 770.084 851.727 768.244 851.854 765.959C851.981 763.675 819.705 761.856 779.73 761.856C739.754 761.856 707.267 763.696 707.119 765.959Z" fill="#E8ECF1"/>
</g>
<path d="M763.973 705.939L748.866 711.787L761.879 745.404L776.986 739.556L763.973 705.939Z" fill="#E58A7B"/>
<path d="M831.338 749.694H815.411L809.573 712.828H825.5L831.338 749.694Z" fill="#E58A7B"/>
<path d="M814.311 747.854H832.204C832.515 747.855 832.815 747.966 833.051 748.167C833.287 748.369 833.445 748.648 833.495 748.954L835.8 763.104C835.849 763.459 835.82 763.82 835.717 764.163C835.613 764.506 835.437 764.823 835.2 765.092C834.964 765.361 834.672 765.575 834.345 765.721C834.017 765.868 833.663 765.941 833.304 765.938C827.065 765.832 824.061 765.452 816.193 765.452C811.35 765.452 801.387 765.959 794.661 765.959C787.935 765.959 787.491 759.36 790.262 758.747C802.699 756.061 807.521 752.401 811.667 748.848C812.398 748.206 813.338 747.853 814.311 747.854Z" fill="#263238"/>
<path d="M761.433 742.397L778.354 737.448C778.656 737.362 778.978 737.383 779.267 737.506C779.555 737.629 779.793 737.848 779.94 738.124L786.286 750.815C786.433 751.137 786.508 751.487 786.506 751.841C786.504 752.195 786.425 752.545 786.274 752.865C786.123 753.185 785.904 753.469 785.632 753.695C785.36 753.922 785.042 754.087 784.699 754.178C778.544 755.87 774.42 756.906 766.721 759.148C761.412 760.692 755.998 763.209 750.752 764.88C747.114 766.044 738.569 766.086 734.149 766.086C727.613 766.086 726.154 759.191 728.967 758.873C736.052 758.091 737.004 758.45 740.917 756.483C747.319 753.685 753.122 749.677 758.007 744.681C758.928 743.631 760.11 742.843 761.433 742.397Z" fill="#263238"/>
<path d="M638.399 288.646L620.886 281.307L613.673 300.723C620.851 301.817 628.154 301.817 635.332 300.723L638.399 288.646Z" fill="#E58A7B"/>
<path d="M607.857 280.799L607.392 293.701L613.673 300.681L620.886 281.264L607.857 280.799Z" fill="#E58A7B"/>
<path d="M766.045 708.795L750.892 714.645L757.603 732.028L772.757 726.178L766.045 708.795Z" fill="#CF6F64"/>
<path d="M825.5 712.828H809.573L812.598 731.843H828.524L825.5 712.828Z" fill="#CF6F64"/>
<path opacity="0.2" d="M715.155 320.416C715.473 324.244 715.832 328.157 716.297 332.176L779.623 311.617C789.513 308.686 798.107 302.471 803.989 293.998C804.243 288.351 804.56 282.407 805.047 276.21C805.258 273.207 805.512 270.119 805.787 266.988C806.062 263.858 806.443 260.389 806.845 257.047L715.155 320.416Z" fill="black"/>
<path d="M735.841 251.039L733.726 250.785C734.973 240.21 742.863 231.876 751.175 232.088V234.203C743.899 234.055 736.962 241.564 735.841 251.039Z" fill="white"/>
<path d="M747.114 270.563H746.755V268.447C754.031 268.722 760.863 261.129 761.984 251.675L764.099 251.929C762.978 262.271 755.342 270.563 747.114 270.563Z" fill="white"/>
<path d="M786.645 161.804C783.663 173.458 780.152 194.8 787.83 202.562C787.83 202.562 782.457 214.385 760.82 214.385C741.044 214.385 751.64 202.562 751.64 202.562C764.796 199.474 765.029 189.871 763.294 180.777L786.645 161.804Z" fill="#E58A7B"/>
<path d="M777.127 169.546L763.316 180.777C763.744 182.867 763.992 184.99 764.056 187.122C768.096 191.141 776.197 180.967 777.022 175.764C777.441 173.716 777.477 171.607 777.127 169.546Z" fill="#CF6F64"/>
<path d="M739.564 161.656C740.525 163.322 741.819 164.771 743.366 165.914C744.912 167.057 746.678 167.868 748.553 168.297C753.629 169.418 756.167 164.744 754.771 160.048C753.523 155.818 749.357 150.129 744.196 151.102C743.09 151.329 742.055 151.819 741.178 152.529C740.3 153.238 739.606 154.148 739.152 155.182C738.699 156.215 738.499 157.342 738.571 158.469C738.642 159.595 738.983 160.688 739.564 161.656Z" fill="#CF6F64"/>
<path d="M747.961 124.367C740.05 127.984 737.258 159.414 747.199 164.068C757.14 168.721 762.936 117.493 747.961 124.367Z" fill="#263238"/>
<path d="M789.057 144.27C787.153 160.049 786.942 169.334 778.482 177.414C775.86 180.095 772.548 182 768.912 182.917C765.277 183.835 761.458 183.73 757.878 182.614C754.298 181.498 751.096 179.414 748.625 176.593C746.155 173.772 744.512 170.323 743.879 166.627C741.319 152.456 744.852 129.042 760.673 122.76C763.997 121.293 767.652 120.743 771.261 121.166C774.869 121.588 778.299 122.968 781.195 125.162C784.09 127.357 786.346 130.285 787.729 133.645C789.111 137.005 789.57 140.673 789.057 144.27Z" fill="#E58A7B"/>
<path d="M763.062 132.531C774.78 129.549 783.388 127.519 780.3 137.269C776.218 150.298 771.311 162.904 777.889 163.475C781.907 163.835 799.674 156.305 797.411 148.669C795.444 142.028 803.756 140.209 805.237 136.846C810.715 124.663 795.042 126.271 797.834 118.868C800.626 111.465 785.143 99.5358 776.683 105.479C762.914 115.082 739.288 114.934 751.704 99.1339C760.608 87.8605 744.724 90.1659 744.724 90.1659C744.724 90.1659 754.327 95.8556 738.167 104.654C721.077 114.045 736.75 139.278 763.062 132.531Z" fill="#263238"/>
<path d="M795.276 161.656C792.962 165.003 789.487 167.37 785.525 168.297C780.301 169.418 778.291 164.744 780.258 160.048C782.014 155.818 786.836 150.129 791.828 151.102C796.82 152.075 797.962 157.51 795.276 161.656Z" fill="#E58A7B"/>
<path d="M717.863 344.633C717.863 344.633 703.565 472.596 702.444 521.159C701.302 571.667 750.901 729.263 750.901 729.263L776.282 718.687C776.282 718.687 746.67 574.692 750.901 525.093C755.385 471.01 773.913 344.717 773.913 344.717L717.863 344.633Z" fill="#407BFF"/>
<path opacity="0.2" d="M753.396 379.764C741.996 403.411 749.674 450.176 755.85 477.884C758.197 458.319 760.989 437.084 763.633 417.434C763.38 387.231 761.032 363.901 753.396 379.764Z" fill="black"/>
<path d="M775.161 710.311C775.287 710.311 778.164 718.391 778.164 718.391L748.891 730.701L744.28 722.113L775.161 710.311Z" fill="#407BFF"/>
<path d="M748.087 344.633C748.087 344.633 759.022 466.335 766.256 511.916C774.208 561.853 805.385 728.163 805.385 728.163H834.552C834.552 728.163 817.081 565.893 813.782 516.442C810.186 462.803 803.037 344.633 803.037 344.633H748.087Z" fill="#407BFF"/>
<path d="M834.997 720.57C835.124 720.57 835.97 728.713 835.97 728.713H803.905L801.621 719.364L834.997 720.57Z" fill="#407BFF"/>
<path opacity="0.2" d="M823.829 710.924C823.763 710.925 823.698 710.902 823.648 710.859C823.597 710.817 823.564 710.757 823.554 710.692C823.385 709.211 807.627 562.635 804.666 518.218C801.451 470.036 794.979 363.161 794.915 362.082C794.912 362.047 794.917 362.012 794.928 361.978C794.94 361.945 794.958 361.915 794.982 361.889C795.006 361.863 795.035 361.842 795.067 361.828C795.099 361.814 795.134 361.807 795.169 361.807C795.239 361.807 795.306 361.833 795.357 361.88C795.408 361.927 795.439 361.992 795.444 362.061C795.444 363.14 801.98 469.931 805.195 518.197C808.156 562.614 823.913 709.084 824.061 710.671C824.067 710.706 824.066 710.742 824.057 710.776C824.049 710.81 824.033 710.842 824.011 710.87C823.989 710.898 823.961 710.921 823.93 710.938C823.899 710.955 823.864 710.964 823.829 710.967V710.924Z" fill="black"/>
<path d="M764.86 148.669C764.86 149.96 764.056 150.996 763.21 150.996C762.364 150.996 761.751 149.96 761.835 148.669C761.92 147.379 762.639 146.343 763.485 146.343C764.331 146.343 764.945 147.4 764.86 148.669Z" fill="#263238"/>
<path d="M750.35 148.669C750.35 149.96 749.526 150.996 748.701 150.996C747.876 150.996 747.241 149.96 747.305 148.669C747.368 147.379 748.13 146.343 748.976 146.343C749.822 146.343 750.435 147.4 750.35 148.669Z" fill="#263238"/>
<path d="M754.919 149.325C753.154 153.264 750.878 156.955 748.151 160.302C750.266 162.417 754.221 161.444 754.221 161.444L754.919 149.325Z" fill="#DF5753"/>
<path d="M755.3 166.838C755.251 166.838 755.202 166.828 755.157 166.808C755.112 166.789 755.071 166.76 755.038 166.725C755.004 166.689 754.978 166.647 754.961 166.601C754.944 166.555 754.937 166.506 754.94 166.457C754.945 166.354 754.99 166.257 755.065 166.186C755.14 166.115 755.239 166.076 755.342 166.076C756.96 166.087 758.559 165.736 760.023 165.048C761.487 164.36 762.779 163.352 763.802 162.1C763.876 162.036 763.969 162 764.067 162C764.164 162 764.258 162.036 764.331 162.1C764.4 162.171 764.438 162.265 764.438 162.364C764.438 162.463 764.4 162.558 764.331 162.628C763.235 163.96 761.856 165.029 760.293 165.757C758.73 166.485 757.024 166.855 755.3 166.838Z" fill="#263238"/>
<path d="M767.44 144.778C767.339 144.83 767.227 144.857 767.112 144.857C766.998 144.857 766.886 144.83 766.785 144.778C765.993 144.267 765.093 143.948 764.156 143.849C763.219 143.75 762.272 143.873 761.391 144.207C761.305 144.25 761.212 144.275 761.116 144.281C761.02 144.288 760.924 144.275 760.833 144.243C760.743 144.211 760.659 144.162 760.588 144.098C760.517 144.034 760.459 143.956 760.418 143.869C760.34 143.68 760.338 143.469 760.413 143.279C760.488 143.09 760.634 142.937 760.82 142.853C761.926 142.402 763.124 142.224 764.314 142.334C765.503 142.445 766.648 142.84 767.652 143.488C767.733 143.543 767.802 143.614 767.856 143.696C767.909 143.778 767.946 143.87 767.964 143.966C767.981 144.063 767.98 144.162 767.959 144.257C767.938 144.353 767.898 144.444 767.842 144.524C767.735 144.646 767.596 144.734 767.44 144.778Z" fill="#263238"/>
<path d="M744.745 140.547C744.633 140.52 744.53 140.461 744.449 140.378C744.379 140.309 744.323 140.226 744.285 140.136C744.247 140.045 744.227 139.947 744.227 139.849C744.227 139.75 744.247 139.653 744.285 139.562C744.323 139.471 744.379 139.389 744.449 139.32C745.26 138.411 746.27 137.701 747.399 137.246C748.529 136.791 749.749 136.603 750.964 136.697C751.061 136.712 751.154 136.747 751.237 136.8C751.321 136.852 751.392 136.921 751.448 137.003C751.503 137.084 751.542 137.176 751.56 137.272C751.579 137.369 751.577 137.468 751.556 137.565C751.511 137.76 751.395 137.933 751.232 138.05C751.068 138.167 750.868 138.22 750.668 138.199C749.707 138.139 748.744 138.298 747.854 138.664C746.963 139.03 746.168 139.595 745.528 140.314C745.432 140.421 745.307 140.5 745.169 140.541C745.031 140.582 744.885 140.584 744.745 140.547Z" fill="#263238"/>
<path d="M824.315 226.991L802.318 221.132C802.318 221.132 780.744 274.242 773.109 277.69C762.745 282.428 736.496 298.841 725.329 306.603C724.715 309.247 725.202 316.248 726.598 318.173C745.634 314.704 782.077 300.681 789.691 293.553C807.056 277.288 824.315 226.991 824.315 226.991Z" fill="#E58A7B"/>
<path d="M808.96 750.646C807.886 750.731 806.817 750.439 805.935 749.821C805.663 749.575 805.459 749.262 805.344 748.914C805.229 748.565 805.207 748.193 805.28 747.833C805.293 747.608 805.367 747.391 805.493 747.205C805.62 747.019 805.795 746.87 805.999 746.775C807.775 745.866 812.746 749.017 813.317 749.377C813.38 749.416 813.428 749.474 813.455 749.542C813.482 749.611 813.485 749.687 813.465 749.758C813.447 749.831 813.41 749.899 813.358 749.955C813.306 750.011 813.241 750.052 813.169 750.075C811.79 750.414 810.379 750.605 808.96 750.646ZM806.845 747.346C806.685 747.311 806.518 747.311 806.358 747.346C806.277 747.388 806.21 747.452 806.165 747.531C806.12 747.609 806.099 747.7 806.104 747.791C806.048 748.037 806.058 748.293 806.132 748.535C806.206 748.776 806.343 748.994 806.528 749.165C807.352 749.906 809.425 749.99 812.154 749.462C810.529 748.392 808.699 747.671 806.781 747.346H806.845Z" fill="#407BFF"/>
<path d="M813.063 750.076C813.008 750.094 812.949 750.094 812.894 750.076C811.308 749.187 808.326 745.697 808.77 743.921C808.836 743.639 808.995 743.388 809.222 743.208C809.448 743.027 809.728 742.928 810.018 742.927C810.301 742.889 810.59 742.913 810.864 742.997C811.138 743.081 811.39 743.223 811.604 743.413C813.359 744.915 813.465 749.526 813.465 749.758C813.475 749.828 813.462 749.899 813.428 749.96C813.393 750.021 813.34 750.07 813.275 750.097C813.204 750.111 813.13 750.104 813.063 750.076ZM810.229 743.625H810.081C809.595 743.625 809.531 743.9 809.51 744.005C809.256 745.042 811.139 747.686 812.704 748.934C812.697 747.147 812.143 745.405 811.117 743.942C810.872 743.728 810.555 743.614 810.229 743.625Z" fill="#407BFF"/>
<path d="M752.804 748.003C751.509 748.455 750.1 748.455 748.806 748.003C748.512 747.844 748.263 747.613 748.082 747.332C747.901 747.051 747.793 746.729 747.77 746.396C747.743 746.187 747.77 745.974 747.848 745.778C747.925 745.582 748.051 745.409 748.214 745.275C749.906 743.752 756.822 745.275 757.605 745.571C757.679 745.59 757.745 745.634 757.791 745.696C757.837 745.757 757.861 745.832 757.859 745.909C757.862 745.989 757.842 746.067 757.8 746.135C757.759 746.203 757.698 746.257 757.626 746.29C756.069 746.993 754.456 747.566 752.804 748.003ZM749.356 745.486C749.114 745.535 748.889 745.644 748.7 745.804C748.633 745.854 748.581 745.922 748.551 746.001C748.521 746.08 748.514 746.165 748.531 746.248C748.545 746.47 748.614 746.685 748.732 746.873C748.851 747.062 749.014 747.217 749.208 747.326C750.329 747.919 752.931 747.453 756.294 746.036C754.028 745.465 751.683 745.279 749.356 745.486Z" fill="#407BFF"/>
<path d="M757.563 746.29H757.394C755.278 745.909 751.048 743.477 750.921 741.658C750.921 741.235 751.112 740.642 752.127 740.304C752.47 740.182 752.834 740.13 753.197 740.152C753.561 740.174 753.916 740.269 754.242 740.431C756.526 741.552 757.732 745.613 757.795 745.803C757.81 745.867 757.808 745.934 757.79 745.997C757.771 746.06 757.737 746.117 757.69 746.163C757.658 746.215 757.615 746.258 757.563 746.29ZM752.55 740.938H752.339C751.683 741.171 751.683 741.446 751.683 741.531C751.683 742.63 754.75 744.64 756.886 745.317C756.394 743.618 755.353 742.13 753.925 741.086C753.5 740.87 753.011 740.818 752.55 740.938Z" fill="#407BFF"/>
<path d="M727.126 305.356L705.066 315.508L702.507 321.854L710.65 327.332C710.65 327.332 725.879 325.682 730.215 315.889L727.126 305.356Z" fill="#E58A7B"/>
<path d="M728.057 318.533C727.564 314.294 726.164 310.212 723.954 306.562L727.444 303.939C730.069 308.144 731.743 312.873 732.351 317.793L728.057 318.533Z" fill="#263238"/>
<path d="M731.822 308.358C732.289 309.092 732.518 309.951 732.479 310.82C732.439 311.688 732.133 312.523 731.602 313.211C731.072 313.9 730.342 314.408 729.512 314.667C728.682 314.925 727.793 314.922 726.965 314.658C726.137 314.393 725.41 313.88 724.884 313.187C724.359 312.495 724.059 311.658 724.026 310.789C723.992 309.921 724.228 309.063 724.699 308.333C725.171 307.603 725.856 307.036 726.662 306.709C727.566 306.248 728.615 306.163 729.581 306.472C730.548 306.781 731.353 307.459 731.822 308.358Z" fill="#263238"/>
<path d="M690.155 323.715L693.095 326.676L712.893 318.216L705.067 315.509L690.155 323.715Z" fill="#E58A7B"/>
<path opacity="0.2" d="M775.161 710.311C775.287 710.311 778.164 718.391 778.164 718.391L748.891 730.701L744.28 722.113L775.161 710.311Z" fill="black"/>
<path opacity="0.2" d="M834.997 720.57C835.124 720.57 835.97 728.713 835.97 728.713H803.905L801.621 719.364L834.997 720.57Z" fill="black"/>
<path d="M830.047 220.9C835.864 239.661 813.126 265.317 813.126 265.317L781.717 252.5C785.44 241.656 789.733 231.016 794.577 220.625C804.222 199.834 824.167 201.97 830.047 220.9Z" fill="#407BFF"/>
<path opacity="0.2" d="M830.047 220.9C835.864 239.661 813.126 265.317 813.126 265.317L781.717 252.5C785.44 241.656 789.733 231.016 794.577 220.625C804.222 199.834 824.167 201.97 830.047 220.9Z" fill="black"/>
<path d="M517.944 32.9316H504.428V35.1102H517.944V32.9316Z" fill="#407BFF"/>
<path d="M692.901 119.157L691.265 155.458L693.441 155.556L695.077 119.255L692.901 119.157Z" fill="#407BFF"/>
<path d="M688.695 42.7026H439.114L415.891 562.423H665.472L688.695 42.7026Z" fill="#407BFF"/>
<path opacity="0.56" d="M681.25 49.853H431.669L408.445 569.574H658.026L681.25 49.853Z" fill="#FAFAFA"/>
<path opacity="0.07" d="M673.805 56.9805H424.224L400.979 576.701H650.56L673.805 56.9805Z" fill="#407BFF"/>
<path d="M645.399 283.655H432.367L430.59 323.419H643.623L645.399 283.655Z" fill="white"/>
<path d="M549.522 254.636H433.657L432.875 272.424H548.739L549.522 254.636Z" fill="#407BFF"/>
<path d="M640.598 390.974H427.566L425.789 430.738H638.821L640.598 390.974Z" fill="white"/>
<path opacity="0.47" d="M601.532 484.44H458.277L456.141 532.093H599.396L601.532 484.44Z" fill="#407BFF"/>
<path d="M591.951 539.496H448.696C448.633 539.513 448.568 539.513 448.505 539.496C448.485 539.435 448.485 539.368 448.505 539.306L450.621 491.632C450.62 491.599 450.627 491.567 450.64 491.538C450.653 491.508 450.672 491.481 450.696 491.459C450.72 491.438 450.748 491.421 450.779 491.411C450.81 491.4 450.842 491.396 450.874 491.399H594.13C594.156 491.386 594.185 491.379 594.214 491.379C594.244 491.379 594.273 491.386 594.299 491.399C594.314 491.425 594.322 491.454 594.322 491.484C594.322 491.514 594.314 491.543 594.299 491.568L592.226 539.348C592.201 539.398 592.161 539.439 592.112 539.465C592.063 539.492 592.007 539.503 591.951 539.496ZM448.95 538.989H591.697L593.812 491.822H451.065L448.95 538.989Z" fill="white"/>
<path d="M524.501 361.955H428.856L428.074 379.764H523.697L524.501 361.955Z" fill="#407BFF"/>
<path d="M598.804 155.206C598.257 166.778 594.141 177.898 587.023 187.038C581.753 193.942 574.971 199.546 567.198 203.422C559.425 207.297 550.868 209.34 542.183 209.394C535.164 209.448 528.209 208.064 521.745 205.328C515.282 202.591 509.447 198.561 504.6 193.484C499.754 188.408 495.997 182.392 493.563 175.809C491.129 169.226 490.069 162.214 490.447 155.206C491.191 140.662 497.463 126.952 507.98 116.88C518.497 106.807 532.464 101.133 547.026 101.017C554.05 100.951 561.013 102.327 567.484 105.058C573.955 107.79 579.798 111.819 584.65 116.898C589.503 121.977 593.262 127.996 595.697 134.585C598.131 141.174 599.188 148.192 598.804 155.206Z" fill="white"/>
<path d="M603.901 112.354C603.763 115.431 602.669 118.388 600.771 120.814C599.367 122.648 597.562 124.137 595.494 125.167C593.427 126.197 591.152 126.741 588.842 126.758C586.604 126.771 584.397 126.237 582.413 125.201C580.43 124.165 578.73 122.659 577.463 120.814C575.784 118.322 574.954 115.355 575.094 112.354C575.298 108.493 576.968 104.855 579.762 102.182C582.557 99.5096 586.266 98.0036 590.132 97.9713C591.998 97.9542 593.847 98.3194 595.565 99.0441C597.284 99.7689 598.837 100.838 600.127 102.185C601.417 103.533 602.417 105.13 603.066 106.879C603.715 108.628 604 110.491 603.901 112.354Z" fill="#407BFF"/>
<path d="M455.316 303.536C455.214 305.241 454.47 306.843 453.234 308.021C451.997 309.198 450.36 309.863 448.653 309.882C447.829 309.892 447.011 309.732 446.251 309.413C445.49 309.095 444.804 308.623 444.233 308.029C443.662 307.434 443.219 306.728 442.931 305.956C442.644 305.183 442.518 304.36 442.562 303.536C442.653 301.829 443.394 300.22 444.633 299.041C445.871 297.861 447.514 297.199 449.224 297.191C450.048 297.184 450.864 297.346 451.623 297.666C452.382 297.985 453.067 298.457 453.638 299.051C454.208 299.645 454.651 300.349 454.939 301.12C455.228 301.892 455.356 302.714 455.316 303.536Z" fill="#263238"/>
<path d="M483.827 303.537C483.731 305.243 482.988 306.848 481.751 308.027C480.513 309.205 478.873 309.869 477.165 309.882C476.342 309.889 475.527 309.727 474.769 309.407C474.011 309.087 473.327 308.616 472.758 308.021C472.19 307.427 471.749 306.722 471.462 305.951C471.176 305.18 471.051 304.358 471.094 303.537C471.186 301.832 471.924 300.227 473.158 299.048C474.392 297.869 476.029 297.205 477.736 297.191C478.56 297.182 479.378 297.341 480.138 297.66C480.898 297.978 481.585 298.45 482.156 299.044C482.727 299.639 483.17 300.345 483.457 301.117C483.745 301.89 483.871 302.713 483.827 303.537Z" fill="#263238"/>
<path d="M512.36 303.537C512.263 305.243 511.521 306.848 510.283 308.027C509.046 309.205 507.406 309.869 505.697 309.882C504.874 309.889 504.058 309.727 503.299 309.407C502.54 309.088 501.854 308.616 501.284 308.022C500.714 307.428 500.271 306.724 499.982 305.953C499.694 305.181 499.566 304.359 499.606 303.537C499.703 301.83 500.445 300.225 501.682 299.047C502.92 297.868 504.56 297.205 506.268 297.191C507.093 297.182 507.91 297.341 508.671 297.66C509.431 297.978 510.118 298.45 510.689 299.044C511.26 299.639 511.703 300.345 511.99 301.117C512.277 301.89 512.403 302.713 512.36 303.537Z" fill="#263238"/>
<path d="M450.515 410.857C450.413 412.561 449.669 414.164 448.433 415.341C447.196 416.519 445.559 417.184 443.852 417.202C443.029 417.209 442.212 417.047 441.454 416.728C440.695 416.408 440.009 415.936 439.439 415.342C438.868 414.748 438.425 414.044 438.137 413.273C437.848 412.501 437.72 411.679 437.761 410.857C437.857 409.151 438.6 407.545 439.837 406.367C441.075 405.188 442.714 404.525 444.423 404.511C445.247 404.505 446.063 404.666 446.822 404.986C447.581 405.306 448.266 405.777 448.837 406.371C449.407 406.965 449.85 407.669 450.138 408.441C450.427 409.212 450.555 410.034 450.515 410.857Z" fill="#263238"/>
<path d="M479.026 410.857C478.93 412.559 478.19 414.162 476.957 415.34C475.725 416.518 474.09 417.183 472.385 417.202C471.561 417.212 470.743 417.052 469.983 416.734C469.222 416.415 468.536 415.944 467.965 415.349C467.394 414.754 466.951 414.049 466.663 413.276C466.376 412.503 466.25 411.68 466.294 410.857C466.39 409.151 467.133 407.545 468.37 406.367C469.608 405.188 471.247 404.525 472.956 404.511C473.779 404.505 474.594 404.666 475.352 404.986C476.11 405.306 476.794 405.778 477.363 406.372C477.931 406.967 478.372 407.671 478.658 408.442C478.944 409.214 479.07 410.035 479.026 410.857Z" fill="#263238"/>
<path d="M507.622 410.857C507.525 412.563 506.783 414.168 505.545 415.347C504.308 416.526 502.668 417.189 500.96 417.202C500.137 417.206 499.322 417.042 498.565 416.722C497.807 416.401 497.123 415.929 496.553 415.336C495.983 414.742 495.54 414.039 495.251 413.269C494.961 412.499 494.831 411.679 494.868 410.857C494.97 409.153 495.714 407.55 496.95 406.373C498.186 405.195 499.823 404.53 501.531 404.512C502.355 404.502 503.173 404.661 503.933 404.98C504.693 405.299 505.38 405.77 505.951 406.365C506.522 406.959 506.965 407.665 507.252 408.438C507.54 409.21 507.666 410.034 507.622 410.857Z" fill="#263238"/>
<path d="M536.092 410.857C535.99 412.561 535.246 414.164 534.01 415.341C532.773 416.519 531.137 417.184 529.429 417.202C528.607 417.206 527.792 417.042 527.034 416.721C526.277 416.401 525.593 415.929 525.023 415.336C524.453 414.742 524.01 414.039 523.72 413.269C523.431 412.499 523.301 411.678 523.338 410.857C523.439 409.152 524.183 407.55 525.42 406.372C526.656 405.195 528.293 404.53 530 404.511C530.824 404.505 531.64 404.666 532.399 404.986C533.158 405.306 533.843 405.777 534.414 406.371C534.984 406.965 535.427 407.669 535.716 408.441C536.004 409.212 536.132 410.034 536.092 410.857Z" fill="#263238"/>
<path d="M564.73 410.857C564.628 412.561 563.884 414.164 562.648 415.341C561.411 416.519 559.774 417.184 558.067 417.202C557.243 417.212 556.425 417.052 555.665 416.734C554.905 416.415 554.218 415.944 553.647 415.349C553.076 414.754 552.633 414.049 552.346 413.276C552.058 412.503 551.932 411.68 551.976 410.857C552.072 409.151 552.815 407.545 554.052 406.367C555.29 405.188 556.929 404.525 558.638 404.511C559.462 404.505 560.278 404.666 561.037 404.986C561.796 405.306 562.481 405.777 563.052 406.371C563.622 406.965 564.065 407.669 564.353 408.441C564.642 409.212 564.77 410.034 564.73 410.857Z" fill="#263238"/>
<path d="M560.401 152.383C569.254 143.725 569.724 129.849 561.45 121.389C553.177 112.928 539.293 113.088 530.441 121.745C521.588 130.402 521.118 144.279 529.391 152.739C537.665 161.199 551.548 161.04 560.401 152.383Z" fill="#407BFF"/>
<path d="M587.023 187.037C581.753 193.941 574.971 199.546 567.198 203.422C559.425 207.297 550.868 209.34 542.183 209.394C533.76 209.465 525.45 207.463 517.984 203.565C510.519 199.666 504.127 193.99 499.373 187.037C509.652 176.8 525.917 170.117 543.938 170.117C561.959 170.117 577.653 176.8 587.023 187.037Z" fill="#407BFF"/>
<path opacity="0.1" d="M560.401 152.383C569.254 143.725 569.724 129.849 561.45 121.389C553.177 112.928 539.293 113.088 530.441 121.745C521.588 130.402 521.118 144.279 529.391 152.739C537.665 161.199 551.548 161.04 560.401 152.383Z" fill="white"/>
<path opacity="0.1" d="M587.023 187.037C581.753 193.941 574.971 199.546 567.198 203.422C559.425 207.297 550.868 209.34 542.183 209.394C533.76 209.465 525.45 207.463 517.984 203.565C510.519 199.666 504.127 193.99 499.373 187.037C509.652 176.8 525.917 170.117 543.938 170.117C561.959 170.117 577.653 176.8 587.023 187.037Z" fill="white"/>
<path d="M275.829 333C273.82 337.4 271.705 342.243 269.865 346.939C268.025 351.634 266.142 356.478 264.513 361.3C261.188 370.804 258.656 380.567 256.941 390.489L256.476 393.598C256.432 394.131 256.482 394.668 256.624 395.184C257.123 396.937 257.91 398.595 258.951 400.091C261.667 403.963 264.818 407.512 268.342 410.667C272.057 414.122 275.954 417.377 280.017 420.417C284.078 423.548 288.351 426.593 292.56 429.47L288.604 436.894C278.554 432.515 269.014 427.046 260.156 420.586C255.431 417.14 251.166 413.103 247.466 408.573C245.273 405.876 243.562 402.821 242.411 399.541C241.741 397.493 241.399 395.351 241.396 393.196C241.396 392.688 241.396 391.948 241.396 391.588V390.552L241.607 388.437C242.82 377.417 245.137 366.548 248.523 355.991C250.173 350.788 251.929 345.606 253.938 340.551C255.947 335.496 258.02 330.547 260.579 325.407L275.829 333Z" fill="#E58A7B"/>
<path d="M289.578 428.158L304.531 420.586L300.661 437C300.661 437 290.403 439.876 285.644 434.884L289.578 428.158Z" fill="#E58A7B"/>
<path d="M318.215 423.273L314.239 436.851L300.66 437L304.531 420.586L318.215 423.273Z" fill="#E58A7B"/>
<path d="M339.324 253.812C340.124 256.744 341.237 259.58 342.645 262.273C342.234 262.739 341.704 263.086 341.112 263.276C340.52 263.465 339.887 263.492 339.282 263.352L339.324 253.812Z" fill="#DF5753"/>
<path d="M338.88 253.938C339.756 253.938 340.466 252.849 340.466 251.506C340.466 250.162 339.756 249.073 338.88 249.073C338.004 249.073 337.293 250.162 337.293 251.506C337.293 252.849 338.004 253.938 338.88 253.938Z" fill="#263238"/>
<path d="M338.415 249.159L341.63 248.25C341.63 248.25 340.064 250.745 338.415 249.159Z" fill="#263238"/>
<path d="M298.017 269.335C299.942 279.171 301.866 297.212 294.971 303.79C294.971 303.79 297.678 313.774 315.974 313.774C336.089 313.774 325.577 303.79 325.577 303.79C314.599 301.168 314.874 293.025 316.799 285.368L298.017 269.335Z" fill="#E58A7B"/>
<path d="M292.666 246.916C293.681 263.351 293.765 270.33 302.057 278.77C314.557 291.46 334.523 286.638 338.436 270.309C341.968 255.504 339.726 231.138 323.63 224.602C320.097 223.147 316.251 222.616 312.456 223.062C308.661 223.507 305.042 224.913 301.942 227.147C298.842 229.382 296.363 232.369 294.74 235.829C293.117 239.288 292.403 243.104 292.666 246.916Z" fill="#E58A7B"/>
<path d="M294.294 228.431C286.045 231.434 275.047 229.192 279.362 254.637C283.93 281.583 276.908 290.445 276.908 290.445C276.908 290.445 308.19 297.108 340.128 290.043C340.128 290.043 330.378 272.996 333.106 260.432C336.596 244.569 333.847 238.71 333.847 238.71C333.847 238.71 305.885 224.201 294.294 228.431Z" fill="#263238"/>
<path d="M329.193 255.482C329.201 258.607 330.096 261.665 331.773 264.302C334.015 267.729 336.659 266.417 337.315 262.779C337.907 259.585 337.463 253.938 334.608 251.738C331.752 249.539 329.235 251.696 329.193 255.482Z" fill="#E58A7B"/>
<path d="M287.124 231.202C284.755 224.539 296.049 214.281 319.95 218.511C343.85 222.741 344.887 242.644 344.887 242.644L340.064 236.891L340.276 242.94L315.72 247.657L287.124 231.202Z" fill="#263238"/>
<path d="M289.155 304.912C289.013 303.946 289.255 302.963 289.828 302.173C290.401 301.383 291.26 300.848 292.221 300.681C299.667 299.455 316.587 296.959 325.09 298.143C331.435 299.032 333.085 302.712 333.36 305.737C333.403 306.266 333.332 306.799 333.152 307.299C332.972 307.799 332.687 308.254 332.317 308.635C331.946 309.016 331.498 309.313 331.003 309.506C330.508 309.699 329.978 309.784 329.447 309.755L292.687 308.105C291.82 308.062 290.995 307.72 290.352 307.138C289.708 306.556 289.285 305.77 289.155 304.912Z" fill="#407BFF"/>
<path opacity="0.6" d="M289.155 304.912C289.013 303.946 289.255 302.963 289.828 302.173C290.401 301.383 291.26 300.848 292.221 300.681C299.667 299.455 316.587 296.959 325.09 298.143C331.435 299.032 333.085 302.712 333.36 305.737C333.403 306.266 333.332 306.799 333.152 307.299C332.972 307.799 332.687 308.254 332.317 308.635C331.946 309.016 331.498 309.313 331.003 309.506C330.508 309.699 329.978 309.784 329.447 309.755L292.687 308.105C291.82 308.062 290.995 307.72 290.352 307.138C289.708 306.556 289.285 305.77 289.155 304.912Z" fill="black"/>
<path d="M310.411 674.419L324.054 683.895L346.875 652.951L333.233 643.497L310.411 674.419Z" fill="#E58A7B"/>
<path d="M278.6 673.806L293.004 682.013L313.203 649.293L298.799 641.086L278.6 673.806Z" fill="#E58A7B"/>
<path d="M346.854 652.951L335.094 668.899L321.452 659.444L333.212 643.497L346.854 652.951Z" fill="#CF6F64"/>
<path d="M298.778 641.086L313.203 649.314L302.797 666.171L288.372 657.943L298.778 641.086Z" fill="#CF6F64"/>
<path d="M321.917 408.213C321.917 408.213 375.175 475.325 365.171 539.518C357.112 591.359 310.369 661.559 310.369 661.559L288.393 650.645C303.883 619.607 317.101 587.486 327.945 554.536C331.289 544.306 332.265 533.45 330.799 522.787C329.334 512.125 325.465 501.935 319.485 492.986C292.496 453.582 249.263 477.039 278.346 408.213H321.917Z" fill="#407BFF"/>
<path opacity="0.6" d="M321.917 408.213C321.917 408.213 375.175 475.325 365.171 539.518C357.112 591.359 310.369 661.559 310.369 661.559L288.393 650.645C303.883 619.607 317.101 587.486 327.945 554.536C331.289 544.306 332.265 533.45 330.799 522.787C329.334 512.125 325.465 501.935 319.485 492.986C292.496 453.582 249.263 477.039 278.346 408.213H321.917Z" fill="black"/>
<path opacity="0.4" d="M348.039 451.319L340.297 443.62C340.297 444.233 355.293 536.811 359.502 562.826C361.986 555.226 363.888 547.449 365.192 539.56C370.141 508.067 359.799 475.896 348.039 451.319Z" fill="black"/>
<path d="M345.691 408.213C345.691 408.213 409.82 492.563 411.639 543.135C413.141 585.437 341.841 667.397 341.841 667.397L321.113 653.987C321.113 653.987 362.844 595.78 373.356 548.233C369.295 501.108 283.422 408.213 283.422 408.213H345.691Z" fill="#407BFF"/>
<path opacity="0.6" d="M345.691 408.213C345.691 408.213 409.82 492.563 411.639 543.135C413.141 585.437 341.841 667.397 341.841 667.397L321.113 653.987C321.113 653.987 362.844 595.78 373.356 548.233C369.295 501.108 283.422 408.213 283.422 408.213H345.691Z" fill="black"/>
<path d="M266.353 307.556C259.5 309.185 252.922 334.101 252.922 334.101L279.721 351.994C279.721 351.994 288.646 332.282 285.516 323.652C282.28 314.663 274.962 305.505 266.353 307.556Z" fill="#407BFF"/>
<path opacity="0.2" d="M271.599 323.61L269.738 345.332L279.7 352.016C282.451 345.823 284.487 339.337 285.77 332.684L271.599 323.61Z" fill="black"/>
<path d="M353.622 308.043C353.622 308.043 361.533 310.814 345.691 408.193H278.304C279.446 380.696 279.467 363.776 266.354 307.556C275.789 305.612 285.353 304.354 294.971 303.792C305.159 303.061 315.387 303.061 325.576 303.792C338.732 304.997 353.622 308.043 353.622 308.043Z" fill="#407BFF"/>
<path d="M360.475 323.61C361.998 327.84 363.606 332.387 365.298 336.765C366.99 341.144 368.597 345.649 370.31 350.091L375.492 363.373L376.804 366.694L377.481 368.344L377.798 369.169C377.798 369.317 377.798 369.317 377.798 369.296C377.411 368.751 376.905 368.302 376.317 367.984C375.481 367.492 374.537 367.209 373.568 367.159C372.762 367.134 371.961 367.286 371.22 367.604C370.247 368.048 370.247 368.238 370.268 368.217C370.444 368.076 370.6 367.912 370.733 367.73C371.904 366.193 372.918 364.542 373.758 362.802C374.752 360.856 375.704 358.784 376.656 356.69C378.517 352.459 380.23 348.081 381.943 343.661C383.657 339.24 385.285 334.777 386.872 330.272L391.694 316.778L399.837 318.893C398.23 328.538 396.157 337.929 393.661 347.489C392.455 352.248 391.038 356.965 389.431 361.724C388.627 364.114 387.739 366.483 386.724 368.915C385.665 371.555 384.362 374.09 382.832 376.487C382.269 377.294 381.647 378.057 380.971 378.771C379.89 379.938 378.58 380.867 377.121 381.5C375.827 382.055 374.425 382.315 373.018 382.261C371.441 382.202 369.906 381.744 368.555 380.929C366.962 379.934 365.639 378.561 364.705 376.931C364.388 376.381 364.113 375.831 363.923 375.429L363.521 374.626L362.717 372.976L361.11 369.697C358.995 365.298 356.88 360.856 355.039 356.394C353.199 351.931 351.253 347.404 349.434 342.857C347.616 338.309 345.987 333.762 344.443 328.855L360.475 323.61Z" fill="#E58A7B"/>
<path d="M353.622 308.043C361.723 309.968 370.839 333.911 370.839 333.911L346.748 354.406C346.748 354.406 331.16 328.306 334.311 319.697C337.59 310.729 343.047 305.526 353.622 308.043Z" fill="#407BFF"/>
<path d="M395.523 309.206L403.983 302.142L409.863 311.3L405.527 318.935C405.527 318.935 398.632 325.281 392.54 322.045C391.574 319.871 391.342 317.442 391.88 315.126C392.418 312.809 393.697 310.73 395.523 309.206Z" fill="#E58A7B"/>
<path d="M419.254 302.163L418.619 304.468L405.231 306.71L403.919 302.142L419.254 302.163Z" fill="#E58A7B"/>
<path d="M343.491 668.476L319.337 652.867L323.673 645.337L350.81 662.025L343.491 668.476Z" fill="#407BFF"/>
<path d="M302.458 680.912C300.339 680.653 298.303 679.931 296.494 678.797C296.419 678.771 296.355 678.723 296.309 678.658C296.263 678.594 296.238 678.517 296.238 678.438C296.238 678.359 296.263 678.281 296.309 678.217C296.355 678.153 296.419 678.104 296.494 678.078C297.15 677.867 302.839 676.111 304.489 677.465C304.674 677.619 304.815 677.82 304.897 678.047C304.979 678.273 304.999 678.518 304.954 678.755C304.925 679.136 304.799 679.503 304.588 679.821C304.377 680.139 304.088 680.398 303.749 680.574C303.353 680.79 302.91 680.906 302.458 680.912ZM297.699 678.586C300.343 679.939 302.458 680.426 303.474 679.918C303.695 679.796 303.881 679.619 304.014 679.404C304.147 679.189 304.223 678.944 304.235 678.691C304.235 678.353 304.235 678.205 304.045 678.12C303.156 677.401 299.984 677.951 297.657 678.586H297.699Z" fill="#263238"/>
<path d="M296.642 678.945C296.53 678.943 296.424 678.898 296.346 678.818C296.314 678.76 296.298 678.694 296.298 678.628C296.298 678.561 296.314 678.496 296.346 678.437C296.346 678.247 297.721 673.657 299.878 672.621C300.154 672.495 300.453 672.43 300.756 672.43C301.059 672.43 301.358 672.495 301.634 672.621C301.931 672.715 302.188 672.905 302.364 673.162C302.54 673.419 302.626 673.727 302.607 674.038C302.458 675.942 298.588 678.564 296.811 679.008L296.642 678.945ZM300.745 673.171C300.539 673.177 300.338 673.228 300.153 673.319C298.842 673.953 297.763 676.428 297.234 677.93C299.095 677.147 301.655 675.074 301.739 673.911C301.739 673.721 301.739 673.488 301.253 673.277C301.095 673.191 300.923 673.134 300.745 673.107V673.171Z" fill="#263238"/>
<path d="M332.641 690.049C330.251 690.049 326.93 686.983 325.111 685.1C325.065 685.035 325.04 684.958 325.04 684.878C325.04 684.798 325.065 684.721 325.111 684.656C325.153 684.588 325.212 684.532 325.283 684.495C325.354 684.458 325.433 684.44 325.513 684.444C326.359 684.444 333.698 685.544 334.735 687.617C334.844 687.803 334.902 688.015 334.902 688.23C334.902 688.446 334.844 688.658 334.735 688.844C334.579 689.167 334.344 689.445 334.052 689.652C333.76 689.859 333.42 689.989 333.064 690.028L332.641 690.049ZM326.507 685.396C329.172 687.977 331.52 689.415 332.852 689.246C333.086 689.215 333.308 689.128 333.5 688.991C333.691 688.855 333.847 688.674 333.952 688.463C333.999 688.391 334.025 688.306 334.025 688.22C334.025 688.133 333.999 688.049 333.952 687.977C333.402 686.834 329.489 685.862 326.507 685.396Z" fill="#263238"/>
<path d="M326.74 685.291C326.265 685.305 325.79 685.269 325.323 685.186C325.257 685.176 325.196 685.149 325.144 685.108C325.092 685.068 325.052 685.014 325.027 684.953C324.995 684.891 324.979 684.822 324.979 684.752C324.979 684.682 324.995 684.613 325.027 684.551C325.153 684.403 328.009 680.955 330.716 680.723C331.483 680.663 332.242 680.906 332.831 681.4C333.656 682.119 333.614 682.753 333.402 683.155C332.874 684.593 329.214 685.291 326.74 685.291ZM326.19 684.509C328.559 684.636 332.345 683.853 332.831 682.817C332.831 682.817 333 682.478 332.451 682.013C332.232 681.823 331.976 681.679 331.7 681.592C331.423 681.505 331.132 681.475 330.843 681.505C329.019 682.014 327.395 683.07 326.19 684.53V684.509Z" fill="#263238"/>
<path d="M297.213 676.661L279.277 671.585C278.967 671.491 278.635 671.515 278.342 671.652C278.049 671.788 277.817 672.028 277.69 672.325L271.641 685.925C271.499 686.274 271.432 686.648 271.445 687.024C271.458 687.4 271.551 687.769 271.717 688.107C271.883 688.444 272.118 688.743 272.408 688.983C272.697 689.223 273.034 689.399 273.397 689.5C279.742 691.15 282.788 691.615 290.677 693.878C295.542 695.232 302.479 697.749 309.184 699.652C315.889 701.556 318.131 695.02 315.529 693.624C303.769 687.406 302.839 683.049 299.624 678.396C299.048 677.553 298.195 676.939 297.213 676.661Z" fill="#407BFF"/>
<path d="M325.597 682.626L310.284 672.05C310.025 671.861 309.705 671.774 309.385 671.805C309.065 671.836 308.768 671.984 308.55 672.219L298.397 683.133C298.15 683.415 297.965 683.747 297.856 684.106C297.747 684.465 297.715 684.843 297.763 685.215C297.811 685.587 297.938 685.945 298.135 686.264C298.331 686.584 298.594 686.857 298.905 687.067C304.299 690.684 307.09 692.144 313.838 696.818C318.068 699.694 326.253 706.082 331.964 710.058C337.675 714.035 341.926 708.578 339.896 706.42C330.801 696.712 328.812 690.621 327.311 685.1C327.05 684.099 326.443 683.222 325.597 682.626Z" fill="#407BFF"/>
<path d="M313.182 662.956L285.58 649.229L288.435 641.741L317.919 656.208L313.182 662.956Z" fill="#407BFF"/>
<path d="M277.289 404.237L274.963 410.328C274.73 410.794 275.28 411.28 276.062 411.28H346.03C346.643 411.28 347.151 410.984 347.193 410.603L347.785 404.554C347.785 404.152 347.299 403.793 346.643 403.793H278.389C278.183 403.773 277.976 403.804 277.785 403.881C277.594 403.958 277.424 404.08 277.289 404.237Z" fill="#407BFF"/>
<path opacity="0.4" d="M277.289 404.237L274.963 410.328C274.73 410.794 275.28 411.28 276.062 411.28H346.03C346.643 411.28 347.151 410.984 347.193 410.603L347.785 404.554C347.785 404.152 347.299 403.793 346.643 403.793H278.389C278.183 403.773 277.976 403.804 277.785 403.881C277.594 403.958 277.424 404.08 277.289 404.237Z" fill="white"/>
<path d="M288.308 411.873H286.468C286.108 411.873 285.834 411.682 285.855 411.45L286.722 403.603C286.722 403.391 287.06 403.201 287.42 403.201H289.26C289.62 403.201 289.895 403.391 289.873 403.603L289.006 411.45C288.985 411.682 288.668 411.873 288.308 411.873Z" fill="#407BFF"/>
<path d="M331.456 411.873H329.637C329.278 411.873 329.003 411.682 329.024 411.45L329.87 403.603C329.87 403.391 330.23 403.201 330.589 403.201H332.408C332.768 403.201 333.064 403.391 333.022 403.603L332.176 411.45C332.07 411.682 331.837 411.873 331.456 411.873Z" fill="#407BFF"/>
<g style="mix-blend-mode:multiply">
<path d="M286.701 770.064C317.995 770.064 343.364 768.227 343.364 765.961C343.364 763.695 317.995 761.857 286.701 761.857C255.407 761.857 230.038 763.695 230.038 765.961C230.038 768.227 255.407 770.064 286.701 770.064Z" fill="#F5F5F5"/>
</g>
<path d="M321.219 760.165C311.194 757.246 300.068 753.502 293.342 749.589C293.152 749.462 292.94 749.399 292.75 749.293V703.903H313.034C314.574 703.812 316.02 703.136 317.078 702.014C318.136 700.891 318.725 699.407 318.725 697.865C318.725 696.322 318.136 694.838 317.078 693.716C316.02 692.593 314.574 691.917 313.034 691.826H292.856V484.928H280.673V691.826H260.516C259.693 691.777 258.869 691.898 258.094 692.179C257.319 692.46 256.609 692.897 256.009 693.463C255.409 694.028 254.931 694.711 254.605 695.468C254.278 696.225 254.109 697.04 254.109 697.865C254.109 698.689 254.278 699.505 254.605 700.262C254.931 701.019 255.409 701.701 256.009 702.267C256.609 702.832 257.319 703.269 258.094 703.551C258.869 703.832 259.693 703.952 260.516 703.903H280.673V749.23C280.483 749.23 280.292 749.399 280.102 749.526C273.27 753.502 262.229 757.246 252.204 760.101C251.526 760.306 250.945 760.747 250.564 761.343C250.184 761.94 250.029 762.653 250.129 763.353C250.229 764.054 250.576 764.695 251.108 765.162C251.64 765.628 252.321 765.889 253.029 765.897H320.394C321.07 765.851 321.71 765.574 322.207 765.113C322.704 764.652 323.027 764.035 323.124 763.364C323.22 762.694 323.084 762.01 322.737 761.428C322.391 760.845 321.855 760.4 321.219 760.165Z" fill="#E0E0E0"/>
<path d="M324.329 463.861H249.116C243.065 463.861 238.16 468.767 238.16 474.817V497.174C238.16 503.225 243.065 508.13 249.116 508.13H324.329C330.38 508.13 335.285 503.225 335.285 497.174V474.817C335.285 468.767 330.38 463.861 324.329 463.861Z" fill="#407BFF"/>
<path d="M248.417 508.151V512.001C248.417 515.173 251.865 517.754 256.095 517.754H317.433C321.663 517.754 325.111 515.173 325.111 512.001V508.151H248.417Z" fill="#407BFF"/>
<path opacity="0.3" d="M248.417 508.151V512.001C248.417 515.173 251.865 517.754 256.095 517.754H317.433C321.663 517.754 325.111 515.173 325.111 512.001V508.151H248.417Z" fill="white"/>
</svg>
