<svg width="1051" height="784" viewBox="0 0 1051 784" fill="none" xmlns="http://www.w3.org/2000/svg">
<path d="M1051 688.194H0V688.72H1051V688.194Z" fill="#EBEBEB"/>
<path d="M945.69 722.016H876.072V722.541H945.69V722.016Z" fill="#EBEBEB"/>
<path d="M696.224 727.733H677.958V728.259H696.224V727.733Z" fill="#EBEBEB"/>
<path d="M873.969 702.509H833.632V703.035H873.969V702.509Z" fill="#EBEBEB"/>
<path d="M201.056 706.041H110.271V706.567H201.056V706.041Z" fill="#EBEBEB"/>
<path d="M233.091 706.041H219.785V706.567H233.091V706.041Z" fill="#EBEBEB"/>
<path d="M473.265 714.911H276.35V715.437H473.265V714.911Z" fill="#EBEBEB"/>
<path d="M498.174 594.446H92.299C89.1194 594.44 86.072 593.173 83.8256 590.923C81.5793 588.673 80.3176 585.623 80.3176 582.443V11.8973C80.3453 8.73597 81.6192 5.71319 83.8625 3.48558C86.1059 1.25796 89.1376 0.00541557 92.299 0H498.174C501.357 0 504.41 1.26454 506.661 3.51543C508.912 5.76632 510.177 8.81918 510.177 12.0024V582.443C510.177 585.626 508.912 588.679 506.661 590.93C504.41 593.181 501.357 594.446 498.174 594.446ZM92.299 0.420402C89.2588 0.42597 86.345 1.6376 84.1972 3.78933C82.0494 5.94107 80.8431 8.85709 80.8431 11.8973V582.443C80.8431 585.483 82.0494 588.399 84.1972 590.551C86.345 592.703 89.2588 593.915 92.299 593.92H498.174C501.216 593.915 504.132 592.704 506.283 590.553C508.435 588.401 509.646 585.485 509.651 582.443V11.8973C509.646 8.85516 508.435 5.93919 506.283 3.78805C504.132 1.63691 501.216 0.425958 498.174 0.420402H92.299Z" fill="#EBEBEB"/>
<path d="M952.858 594.446H546.961C543.78 594.44 540.73 593.174 538.481 590.924C536.231 588.674 534.965 585.625 534.959 582.443V11.8973C534.992 8.73405 536.271 5.7113 538.517 3.48426C540.764 1.25722 543.798 0.00535651 546.961 0H952.858C956.015 0.0109399 959.042 1.26593 961.281 3.49295C963.519 5.71998 964.79 8.7396 964.818 11.8973V582.443C964.818 585.619 963.559 588.666 961.317 590.915C959.076 593.165 956.034 594.435 952.858 594.446ZM546.961 0.420402C543.919 0.425958 541.003 1.63691 538.852 3.78805C536.701 5.93919 535.49 8.85516 535.484 11.8973V582.443C535.49 585.485 536.701 588.401 538.852 590.553C541.003 592.704 543.919 593.915 546.961 593.92H952.858C955.9 593.915 958.816 592.704 960.967 590.553C963.118 588.401 964.329 585.485 964.335 582.443V11.8973C964.329 8.85516 963.118 5.93919 960.967 3.78805C958.816 1.63691 955.9 0.425958 952.858 0.420402H546.961Z" fill="#EBEBEB"/>
<path d="M928.79 685.526V581.855H880.949V485.731H874.201V540.845H855.788V525.605H822.681V472.845H816.543V408.356H811.625V471.668H799.979V565.459H777.888V471.668H738.034V550.977H696.183V454.852H689.435V509.946H671.022V494.706H637.915V441.946H631.777V377.478H626.859V440.79H615.214V534.56H593.143V440.79H553.268V531.512H526.383V478.752H520.245V414.263H515.348V477.575H503.682V571.366H481.611V477.575H441.736V571.366H422.103V581.855H387.735V485.731H380.988V540.845H362.574V525.605H329.468V472.845H323.33V408.356H318.411V471.668H307.733V466.392H267.858V471.668H245.766V466.392H234.121V403.08H229.223V467.569H223.086V520.308H189.958V535.548H171.566V480.455H164.818V576.579H116.977V685.526H928.79Z" fill="#EBEBEB"/>
<path d="M312.215 203.184C342.02 190.838 356.174 156.667 343.828 126.862C331.483 97.0558 297.312 82.9018 267.506 95.2478C237.7 107.594 223.546 141.764 235.892 171.57C248.238 201.376 282.409 215.53 312.215 203.184Z" fill="#FAFAFA"/>
<path d="M259.576 148.569C259.573 146.987 259.201 145.427 258.489 144.014C257.778 142.6 256.746 141.372 255.477 140.428C254.208 139.483 252.735 138.847 251.177 138.571C249.619 138.295 248.018 138.386 246.501 138.837C246.955 135.782 246.744 132.665 245.883 129.699C245.022 126.733 243.53 123.988 241.511 121.651C239.491 119.314 236.991 117.441 234.181 116.159C231.371 114.877 228.318 114.216 225.229 114.223C223.903 114.22 222.579 114.347 221.277 114.601C219.164 111.12 215.977 108.42 212.196 106.908C208.415 105.395 204.245 105.151 200.313 106.214C196.382 107.276 192.902 109.586 190.398 112.798C187.893 116.009 186.499 119.946 186.426 124.018H186.111C181.517 124.018 177.112 125.843 173.864 129.091C170.615 132.339 168.791 136.745 168.791 141.338C168.791 145.932 170.615 150.338 173.864 153.586C177.112 156.834 181.517 158.659 186.111 158.659H249.697C252.332 158.593 254.839 157.503 256.684 155.619C258.528 153.735 259.566 151.206 259.576 148.569Z" fill="#F0F0F0"/>
<path d="M899.194 289.256C899.191 287.674 898.819 286.114 898.107 284.7C897.396 283.287 896.364 282.059 895.095 281.114C893.826 280.169 892.353 279.534 890.795 279.258C889.237 278.982 887.636 279.073 886.119 279.524C886.573 276.469 886.362 273.352 885.501 270.386C884.64 267.42 883.148 264.675 881.129 262.338C879.109 260.001 876.609 258.128 873.799 256.846C870.989 255.564 867.936 254.903 864.847 254.909C863.515 254.911 862.185 255.03 860.874 255.267C858.741 251.804 855.541 249.127 851.756 247.638C847.971 246.149 843.806 245.928 839.884 247.009C835.963 248.089 832.499 250.412 830.011 253.63C827.522 256.847 826.145 260.785 826.086 264.852H825.771C821.177 264.852 816.772 266.677 813.524 269.925C810.275 273.173 808.45 277.579 808.45 282.172C808.45 286.766 810.275 291.172 813.524 294.42C816.772 297.668 821.177 299.493 825.771 299.493H889.356C892.01 299.416 894.528 298.3 896.368 296.386C898.208 294.471 899.222 291.911 899.194 289.256Z" fill="#F0F0F0"/>
<path d="M598.461 135.053C598.451 132.545 599.03 130.07 600.151 127.827C601.273 125.583 602.905 123.635 604.918 122.138C606.93 120.641 609.266 119.637 611.737 119.208C614.208 118.779 616.745 118.936 619.144 119.667C618.908 118.031 618.789 116.38 618.787 114.727C618.78 109.728 619.877 104.79 621.999 100.263C624.121 95.7374 627.216 91.7355 631.063 88.5432C634.91 85.3509 639.414 83.047 644.253 81.7959C649.093 80.5448 654.149 80.3772 659.061 81.3052C662.408 75.7849 667.462 71.5043 673.457 69.1109C679.453 66.7174 686.065 66.3411 692.294 68.039C698.522 69.7368 704.029 73.4164 707.98 78.5214C711.932 83.6264 714.114 89.8793 714.197 96.3345H714.68C721.947 96.3345 728.916 99.2213 734.055 104.36C739.193 109.498 742.08 116.467 742.08 123.734C742.08 131.001 739.193 137.97 734.055 143.109C728.916 148.247 721.947 151.134 714.68 151.134H614.078C609.893 151.019 605.917 149.273 603 146.269C600.082 143.265 598.454 139.241 598.461 135.053Z" fill="#F0F0F0"/>
<path d="M301.595 309.983C301.592 306.968 302.294 303.994 303.646 301.299C304.998 298.604 306.962 296.263 309.381 294.463C311.8 292.663 314.606 291.454 317.576 290.934C320.546 290.413 323.596 290.595 326.483 291.464C326.187 289.502 326.039 287.52 326.042 285.536C326.042 274.676 330.356 264.261 338.035 256.582C345.714 248.903 356.129 244.589 366.988 244.589C369.513 244.595 372.031 244.828 374.514 245.283C378.525 238.61 384.605 233.429 391.831 230.529C399.057 227.629 407.032 227.168 414.543 229.217C422.055 231.265 428.692 235.711 433.445 241.878C438.198 248.045 440.806 255.596 440.874 263.381H441.42C445.82 263.27 450.197 264.041 454.295 265.648C458.392 267.255 462.126 269.665 465.277 272.738C468.428 275.81 470.933 279.483 472.642 283.538C474.352 287.593 475.233 291.95 475.233 296.351C475.233 300.752 474.352 305.109 472.642 309.164C470.933 313.22 468.428 316.892 465.277 319.964C462.126 323.037 458.392 325.448 454.295 327.054C450.197 328.661 445.82 329.432 441.42 329.321H320.345C315.317 329.173 310.545 327.07 307.044 323.459C303.542 319.847 301.588 315.013 301.595 309.983Z" fill="#F0F0F0"/>
<path d="M386.978 178.985C386.978 177.313 386.314 175.709 385.131 174.526C383.949 173.344 382.345 172.679 380.672 172.679C380.059 172.673 379.448 172.765 378.865 172.953C378.956 172.305 379.005 171.652 379.012 170.998C379.012 167.452 377.603 164.052 375.096 161.545C372.589 159.038 369.189 157.629 365.643 157.629C364.818 157.631 363.995 157.709 363.184 157.86C361.866 155.694 359.88 154.014 357.524 153.076C355.168 152.137 352.571 151.99 350.125 152.657C347.678 153.324 345.515 154.768 343.961 156.772C342.408 158.776 341.548 161.231 341.512 163.767H341.323C338.468 163.767 335.731 164.901 333.713 166.919C331.694 168.937 330.561 171.675 330.561 174.529C330.561 177.383 331.694 180.121 333.713 182.139C335.731 184.157 338.468 185.291 341.323 185.291H380.861C382.501 185.242 384.057 184.556 385.199 183.379C386.341 182.201 386.979 180.626 386.978 178.985Z" fill="#F0F0F0"/>
<path d="M157.061 370.688C157.061 369.015 157.726 367.411 158.908 366.228C160.091 365.046 161.695 364.382 163.367 364.382C163.986 364.38 164.601 364.465 165.196 364.634C165.093 363.994 165.044 363.347 165.049 362.7C165.049 360.944 165.395 359.206 166.067 357.584C166.738 355.962 167.723 354.488 168.964 353.247C170.206 352.005 171.68 351.021 173.302 350.349C174.924 349.677 176.662 349.331 178.418 349.331C179.243 349.333 180.066 349.411 180.877 349.562C182.195 347.396 184.181 345.716 186.537 344.778C188.892 343.839 191.489 343.692 193.936 344.359C196.382 345.026 198.546 346.47 200.099 348.474C201.653 350.478 202.513 352.933 202.549 355.469H202.738C205.592 355.469 208.329 356.603 210.348 358.621C212.366 360.64 213.5 363.377 213.5 366.231C213.5 369.086 212.366 371.823 210.348 373.841C208.329 375.86 205.592 376.994 202.738 376.994H163.199C161.556 376.95 159.995 376.266 158.848 375.088C157.702 373.91 157.061 372.331 157.061 370.688Z" fill="#F0F0F0"/>
<path d="M748.754 391.287C748.754 389.614 749.418 388.01 750.601 386.828C751.783 385.645 753.387 384.981 755.06 384.981C755.678 384.979 756.294 385.064 756.888 385.233C756.786 384.593 756.736 383.947 756.741 383.299C756.741 379.753 758.15 376.353 760.657 373.846C763.164 371.339 766.564 369.93 770.11 369.93C770.935 369.932 771.758 370.01 772.569 370.162C773.887 367.995 775.873 366.316 778.229 365.377C780.585 364.438 783.182 364.291 785.628 364.958C788.075 365.625 790.238 367.069 791.792 369.074C793.345 371.078 794.205 373.533 794.241 376.068H794.43C797.284 376.068 800.022 377.202 802.04 379.22C804.059 381.239 805.192 383.976 805.192 386.83C805.192 389.685 804.059 392.422 802.04 394.44C800.022 396.459 797.284 397.593 794.43 397.593H754.892C753.248 397.549 751.687 396.865 750.541 395.687C749.394 394.509 748.753 392.93 748.754 391.287Z" fill="#F0F0F0"/>
<path d="M525.5 783.121C750.587 783.121 933.057 772.468 933.057 759.327C933.057 746.185 750.587 735.532 525.5 735.532C300.413 735.532 117.943 746.185 117.943 759.327C117.943 772.468 300.413 783.121 525.5 783.121Z" fill="#F5F5F5"/>
<path d="M817.258 138.795L727.397 275.615L723.446 281.647L715.626 285.263L437.489 414.515L464.963 508.663L471.248 530.188L449.471 548.181L261.825 730.53H106.551L387.294 497.376L370.288 404.804L365.664 379.601L387.399 369.595L683.823 233.112L780.368 113.677L754.471 108.548L835.881 74.7686L831.699 162.821L817.258 138.795Z" fill="#263238"/>
<path opacity="0.6" d="M817.258 138.795L727.397 275.615L723.446 281.647L715.626 285.263L437.489 414.515L464.963 508.663L471.248 530.188L449.471 548.181L261.825 730.53H106.551L387.294 497.376L370.288 404.804L365.664 379.601L387.399 369.595L683.823 233.112L780.368 113.677L754.471 108.548L835.881 74.7686L831.699 162.821L817.258 138.795Z" fill="#FAFAFA"/>
<path d="M770.278 722.017H621.457C619.994 722.017 618.808 723.203 618.808 724.666V758.592C618.808 760.055 619.994 761.24 621.457 761.24H770.278C771.741 761.24 772.927 760.055 772.927 758.592V724.666C772.927 723.203 771.741 722.017 770.278 722.017Z" fill="#407BFF"/>
<path opacity="0.2" d="M631.798 724.287H625.703V759.327H631.798V724.287Z" fill="black"/>
<path opacity="0.2" d="M645.65 724.119H641.215V759.16H645.65V724.119Z" fill="black"/>
<path opacity="0.2" d="M658.41 724.287H656.181V759.327H658.41V724.287Z" fill="black"/>
<path opacity="0.2" d="M675.604 724.119H674.49V759.16H675.604V724.119Z" fill="black"/>
<path opacity="0.2" d="M759.936 759.159H766.032V724.119H759.936V759.159Z" fill="black"/>
<path opacity="0.2" d="M746.084 759.327H750.519V724.287H746.084V759.327Z" fill="black"/>
<path opacity="0.2" d="M733.346 759.159H735.553V724.119H733.346V759.159Z" fill="black"/>
<path opacity="0.2" d="M716.131 759.327H717.245V724.287H716.131V759.327Z" fill="black"/>
<path opacity="0.2" d="M695.594 759.327H696.14V724.287H695.594V759.327Z" fill="black"/>
<path opacity="0.2" d="M768.807 727.987H623.243C622.753 727.987 622.282 727.792 621.935 727.445C621.588 727.098 621.394 726.627 621.394 726.137C621.399 725.648 621.596 725.181 621.941 724.835C622.287 724.489 622.754 724.293 623.243 724.287H768.807C769.297 724.287 769.768 724.482 770.115 724.829C770.462 725.176 770.657 725.646 770.657 726.137C770.659 726.381 770.613 726.622 770.521 726.848C770.43 727.074 770.293 727.279 770.121 727.451C769.949 727.623 769.744 727.76 769.518 727.852C769.292 727.944 769.051 727.989 768.807 727.987Z" fill="white"/>
<path d="M774.482 682.898H625.66C624.198 682.898 623.012 684.084 623.012 685.546V719.473C623.012 720.935 624.198 722.121 625.66 722.121H774.482C775.945 722.121 777.131 720.935 777.131 719.473V685.546C777.131 684.084 775.945 682.898 774.482 682.898Z" fill="#407BFF"/>
<path opacity="0.2" d="M636.003 685.168H629.907V720.209H636.003V685.168Z" fill="black"/>
<path opacity="0.2" d="M649.875 685.001H645.44V720.041H649.875V685.001Z" fill="black"/>
<path opacity="0.2" d="M662.613 685.168H660.406V720.209H662.613V685.168Z" fill="black"/>
<path opacity="0.2" d="M679.808 685.001H678.694V720.041H679.808V685.001Z" fill="black"/>
<path opacity="0.2" d="M764.162 720.02H770.257V684.98H764.162V720.02Z" fill="black"/>
<path opacity="0.2" d="M750.288 720.188H754.723V685.148H750.288V720.188Z" fill="black"/>
<path opacity="0.2" d="M737.529 720.02H739.757V684.98H737.529V720.02Z" fill="black"/>
<path opacity="0.2" d="M720.335 720.188H721.449V685.148H720.335V720.188Z" fill="black"/>
<path opacity="0.2" d="M699.798 720.188H700.344V685.148H699.798V720.188Z" fill="black"/>
<path opacity="0.2" d="M773.011 688.868H627.447C626.958 688.863 626.491 688.666 626.145 688.32C625.8 687.975 625.603 687.507 625.597 687.018C625.597 686.528 625.792 686.057 626.139 685.71C626.486 685.363 626.957 685.169 627.447 685.169H773.011C773.254 685.166 773.496 685.212 773.722 685.304C773.948 685.396 774.153 685.532 774.325 685.704C774.497 685.876 774.633 686.081 774.725 686.307C774.817 686.533 774.863 686.775 774.86 687.018C774.86 687.509 774.666 687.979 774.319 688.326C773.972 688.673 773.501 688.868 773.011 688.868Z" fill="white"/>
<path d="M774.482 643.781H625.66C624.198 643.781 623.012 644.967 623.012 646.429V680.356C623.012 681.818 624.198 683.004 625.66 683.004H774.482C775.945 683.004 777.131 681.818 777.131 680.356V646.429C777.131 644.967 775.945 643.781 774.482 643.781Z" fill="#407BFF"/>
<path opacity="0.2" d="M636.003 646.029H629.907V681.07H636.003V646.029Z" fill="black"/>
<path opacity="0.2" d="M649.875 645.861H645.44V680.901H649.875V645.861Z" fill="black"/>
<path opacity="0.2" d="M662.613 646.029H660.406V681.07H662.613V646.029Z" fill="black"/>
<path opacity="0.2" d="M679.808 645.861H678.694V680.901H679.808V645.861Z" fill="black"/>
<path opacity="0.2" d="M764.161 680.902H770.257V645.862H764.161V680.902Z" fill="black"/>
<path opacity="0.2" d="M750.288 681.069H754.723V646.029H750.288V681.069Z" fill="black"/>
<path opacity="0.2" d="M737.529 680.902H739.757V645.862H737.529V680.902Z" fill="black"/>
<path opacity="0.2" d="M720.335 681.069H721.449V646.029H720.335V681.069Z" fill="black"/>
<path opacity="0.2" d="M699.798 681.069H700.344V646.029H699.798V681.069Z" fill="black"/>
<path opacity="0.2" d="M773.011 649.729H627.447C626.957 649.729 626.486 649.534 626.139 649.187C625.792 648.84 625.597 648.37 625.597 647.879C625.603 647.39 625.8 646.923 626.145 646.577C626.491 646.231 626.958 646.035 627.447 646.029H773.011C773.501 646.029 773.972 646.224 774.319 646.571C774.666 646.918 774.86 647.388 774.86 647.879C774.863 648.123 774.817 648.365 774.725 648.59C774.633 648.816 774.497 649.021 774.325 649.193C774.153 649.366 773.948 649.502 773.722 649.594C773.496 649.686 773.254 649.732 773.011 649.729Z" fill="white"/>
<path d="M770.278 604.641H621.456C619.994 604.641 618.808 605.827 618.808 607.29V641.216C618.808 642.679 619.994 643.864 621.456 643.864H770.278C771.741 643.864 772.926 642.679 772.926 641.216V607.29C772.926 605.827 771.741 604.641 770.278 604.641Z" fill="#407BFF"/>
<path opacity="0.2" d="M631.798 606.911H625.703V641.951H631.798V606.911Z" fill="black"/>
<path opacity="0.2" d="M645.65 606.743H641.215V641.783H645.65V606.743Z" fill="black"/>
<path opacity="0.2" d="M658.41 606.911H656.181V641.951H658.41V606.911Z" fill="black"/>
<path opacity="0.2" d="M675.604 606.743H674.49V641.783H675.604V606.743Z" fill="black"/>
<path opacity="0.2" d="M759.936 641.762H766.032V606.721H759.936V641.762Z" fill="black"/>
<path opacity="0.2" d="M746.084 641.931H750.519V606.89H746.084V641.931Z" fill="black"/>
<path opacity="0.2" d="M733.346 641.762H735.553V606.721H733.346V641.762Z" fill="black"/>
<path opacity="0.2" d="M716.131 641.931H717.245V606.89H716.131V641.931Z" fill="black"/>
<path opacity="0.2" d="M695.594 641.931H696.14V606.89H695.594V641.931Z" fill="black"/>
<path opacity="0.2" d="M768.807 610.611H623.243C622.754 610.605 622.287 610.409 621.941 610.063C621.596 609.717 621.399 609.25 621.394 608.761C621.394 608.27 621.588 607.8 621.935 607.453C622.282 607.106 622.753 606.911 623.243 606.911H768.807C769.051 606.908 769.292 606.954 769.518 607.046C769.744 607.138 769.949 607.274 770.121 607.447C770.293 607.619 770.43 607.824 770.521 608.05C770.613 608.276 770.659 608.517 770.657 608.761C770.657 609.252 770.462 609.722 770.115 610.069C769.768 610.416 769.297 610.611 768.807 610.611Z" fill="white"/>
<path d="M763.972 565.522H615.15C613.688 565.522 612.502 566.708 612.502 568.17V602.097C612.502 603.56 613.688 604.745 615.15 604.745H763.972C765.435 604.745 766.621 603.56 766.621 602.097V568.17C766.621 566.708 765.435 565.522 763.972 565.522Z" fill="#407BFF"/>
<path opacity="0.2" d="M625.492 567.771H619.396V602.812H625.492V567.771Z" fill="black"/>
<path opacity="0.2" d="M639.344 567.603H634.909V602.643H639.344V567.603Z" fill="black"/>
<path opacity="0.2" d="M652.082 567.771H649.875V602.812H652.082V567.771Z" fill="black"/>
<path opacity="0.2" d="M669.298 567.603H668.184V602.643H669.298V567.603Z" fill="black"/>
<path opacity="0.2" d="M753.63 602.644H759.726V567.604H753.63V602.644Z" fill="black"/>
<path opacity="0.2" d="M739.757 602.812H744.192V567.772H739.757V602.812Z" fill="black"/>
<path opacity="0.2" d="M727.04 602.644H729.247V567.604H727.04V602.644Z" fill="black"/>
<path opacity="0.2" d="M709.845 602.812H710.959V567.772H709.845V602.812Z" fill="black"/>
<path opacity="0.2" d="M689.288 602.812H689.834V567.772H689.288V602.812Z" fill="black"/>
<path opacity="0.2" d="M762.501 571.471H616.937C616.693 571.474 616.452 571.428 616.226 571.336C616 571.244 615.795 571.108 615.623 570.936C615.45 570.763 615.314 570.558 615.222 570.332C615.13 570.107 615.084 569.865 615.087 569.621C615.087 569.131 615.282 568.66 615.629 568.313C615.976 567.966 616.446 567.771 616.937 567.771H762.501C762.991 567.771 763.462 567.966 763.809 568.313C764.155 568.66 764.35 569.131 764.35 569.621C764.353 569.865 764.307 570.107 764.215 570.332C764.123 570.558 763.987 570.763 763.815 570.936C763.643 571.108 763.437 571.244 763.212 571.336C762.986 571.428 762.744 571.474 762.501 571.471Z" fill="white"/>
<path d="M770.278 526.383H621.456C619.993 526.383 618.808 527.569 618.808 529.031V562.958C618.808 564.42 619.993 565.606 621.456 565.606H770.278C771.74 565.606 772.926 564.42 772.926 562.958V529.031C772.926 527.569 771.74 526.383 770.278 526.383Z" fill="#407BFF"/>
<path opacity="0.2" d="M631.798 528.653H625.703V563.693H631.798V528.653Z" fill="black"/>
<path opacity="0.2" d="M645.65 528.485H641.215V563.526H645.65V528.485Z" fill="black"/>
<path opacity="0.2" d="M658.41 528.653H656.181V563.693H658.41V528.653Z" fill="black"/>
<path opacity="0.2" d="M675.604 528.485H674.49V563.526H675.604V528.485Z" fill="black"/>
<path opacity="0.2" d="M759.936 563.504H766.032V528.464H759.936V563.504Z" fill="black"/>
<path opacity="0.2" d="M746.084 563.672H750.519V528.632H746.084V563.672Z" fill="black"/>
<path opacity="0.2" d="M733.346 563.504H735.553V528.464H733.346V563.504Z" fill="black"/>
<path opacity="0.2" d="M716.131 563.672H717.245V528.632H716.131V563.672Z" fill="black"/>
<path opacity="0.2" d="M695.594 563.672H696.14V528.632H695.594V563.672Z" fill="black"/>
<path opacity="0.2" d="M768.807 532.352H623.243C622.752 532.352 622.282 532.158 621.935 531.811C621.588 531.464 621.393 530.993 621.393 530.503C621.393 530.012 621.588 529.542 621.935 529.195C622.282 528.848 622.752 528.653 623.243 528.653H768.807C769.05 528.65 769.292 528.696 769.518 528.788C769.743 528.88 769.949 529.016 770.121 529.188C770.293 529.361 770.429 529.566 770.521 529.792C770.613 530.017 770.659 530.259 770.656 530.503C770.659 530.746 770.613 530.988 770.521 531.214C770.429 531.44 770.293 531.645 770.121 531.817C769.949 531.989 769.743 532.125 769.518 532.217C769.292 532.309 769.05 532.355 768.807 532.352Z" fill="white"/>
<path d="M770.278 487.265H621.456C619.993 487.265 618.808 488.45 618.808 489.913V523.839C618.808 525.302 619.993 526.488 621.456 526.488H770.278C771.74 526.488 772.926 525.302 772.926 523.839V489.913C772.926 488.45 771.74 487.265 770.278 487.265Z" fill="#407BFF"/>
<path opacity="0.2" d="M631.798 489.514H625.703V524.554H631.798V489.514Z" fill="black"/>
<path opacity="0.2" d="M645.65 489.346H641.215V524.387H645.65V489.346Z" fill="black"/>
<path opacity="0.2" d="M658.41 489.514H656.181V524.554H658.41V489.514Z" fill="black"/>
<path opacity="0.2" d="M675.604 489.346H674.49V524.387H675.604V489.346Z" fill="black"/>
<path opacity="0.2" d="M759.936 524.386H766.032V489.346H759.936V524.386Z" fill="black"/>
<path opacity="0.2" d="M746.084 524.555H750.519V489.514H746.084V524.555Z" fill="black"/>
<path opacity="0.2" d="M733.346 524.386H735.553V489.346H733.346V524.386Z" fill="black"/>
<path opacity="0.2" d="M716.131 524.555H717.245V489.514H716.131V524.555Z" fill="black"/>
<path opacity="0.2" d="M695.594 524.555H696.14V489.514H695.594V524.555Z" fill="black"/>
<path opacity="0.2" d="M768.807 493.234H623.243C622.751 493.229 622.28 493.029 621.934 492.679C621.588 492.329 621.393 491.856 621.393 491.363C621.399 490.875 621.595 490.407 621.941 490.061C622.287 489.716 622.754 489.519 623.243 489.514H768.807C769.297 489.514 769.768 489.709 770.115 490.055C770.461 490.402 770.656 490.873 770.656 491.363C770.659 491.608 770.613 491.851 770.522 492.078C770.43 492.305 770.294 492.511 770.122 492.685C769.95 492.859 769.745 492.997 769.519 493.091C769.294 493.186 769.051 493.234 768.807 493.234Z" fill="white"/>
<path d="M776.584 448.125H627.762C626.3 448.125 625.114 449.311 625.114 450.774V484.7C625.114 486.163 626.3 487.348 627.762 487.348H776.584C778.047 487.348 779.232 486.163 779.232 484.7V450.774C779.232 449.311 778.047 448.125 776.584 448.125Z" fill="#407BFF"/>
<path opacity="0.2" d="M638.104 450.396H632.008V485.436H638.104V450.396Z" fill="black"/>
<path opacity="0.2" d="M651.977 450.227H647.542V485.267H651.977V450.227Z" fill="black"/>
<path opacity="0.2" d="M664.736 450.396H662.508V485.436H664.736V450.396Z" fill="black"/>
<path opacity="0.2" d="M681.91 450.227H680.796V485.267H681.91V450.227Z" fill="black"/>
<path opacity="0.2" d="M766.263 485.247H772.359V450.207H766.263V485.247Z" fill="black"/>
<path opacity="0.2" d="M752.39 485.437H756.825V450.396H752.39V485.437Z" fill="black"/>
<path opacity="0.2" d="M739.652 485.247H741.859V450.207H739.652V485.247Z" fill="black"/>
<path opacity="0.2" d="M722.436 485.437H723.55V450.396H722.436V485.437Z" fill="black"/>
<path opacity="0.2" d="M701.921 485.437H702.467V450.396H701.921V485.437Z" fill="black"/>
<path opacity="0.2" d="M775.112 454.032H629.57C629.325 454.034 629.083 453.989 628.856 453.897C628.629 453.805 628.422 453.669 628.248 453.497C628.074 453.325 627.936 453.12 627.842 452.895C627.748 452.669 627.699 452.427 627.699 452.182C627.699 451.937 627.748 451.695 627.842 451.469C627.936 451.243 628.074 451.038 628.248 450.866C628.422 450.694 628.629 450.559 628.856 450.467C629.083 450.375 629.325 450.329 629.57 450.332H775.112C775.357 450.329 775.6 450.375 775.827 450.467C776.054 450.559 776.26 450.694 776.434 450.866C776.608 451.038 776.746 451.243 776.841 451.469C776.935 451.695 776.983 451.937 776.983 452.182C776.983 452.427 776.935 452.669 776.841 452.895C776.746 453.12 776.608 453.325 776.434 453.497C776.26 453.669 776.054 453.805 775.827 453.897C775.6 453.989 775.357 454.034 775.112 454.032Z" fill="white"/>
<path d="M766.074 409.007H617.252C615.789 409.007 614.604 410.193 614.604 411.655V445.582C614.604 447.044 615.789 448.23 617.252 448.23H766.074C767.537 448.23 768.722 447.044 768.722 445.582V411.655C768.722 410.193 767.537 409.007 766.074 409.007Z" fill="#407BFF"/>
<path opacity="0.2" d="M627.594 411.277H621.499V446.318H627.594V411.277Z" fill="black"/>
<path opacity="0.2" d="M641.446 411.088H637.011V446.128H641.446V411.088Z" fill="black"/>
<path opacity="0.2" d="M654.184 411.277H651.977V446.318H654.184V411.277Z" fill="black"/>
<path opacity="0.2" d="M671.4 411.088H670.286V446.128H671.4V411.088Z" fill="black"/>
<path opacity="0.2" d="M755.732 446.128H761.828V411.088H755.732V446.128Z" fill="black"/>
<path opacity="0.2" d="M741.859 446.296H746.294V411.256H741.859V446.296Z" fill="black"/>
<path opacity="0.2" d="M729.141 446.128H731.349V411.088H729.141V446.128Z" fill="black"/>
<path opacity="0.2" d="M711.926 446.296H713.041V411.256H711.926V446.296Z" fill="black"/>
<path opacity="0.2" d="M691.39 446.296H691.937V411.256H691.39V446.296Z" fill="black"/>
<path opacity="0.2" d="M764.603 414.977H619.039C618.55 414.972 618.083 414.775 617.737 414.429C617.392 414.083 617.195 413.616 617.189 413.127C617.189 412.637 617.384 412.166 617.731 411.819C618.078 411.472 618.549 411.277 619.039 411.277H764.603C764.846 411.275 765.088 411.321 765.314 411.413C765.54 411.504 765.745 411.641 765.917 411.813C766.089 411.985 766.225 412.19 766.317 412.416C766.409 412.642 766.455 412.884 766.452 413.127C766.452 413.618 766.258 414.088 765.911 414.435C765.564 414.782 765.093 414.977 764.603 414.977Z" fill="white"/>
<path d="M761.87 369.868H613.048C611.586 369.868 610.4 371.054 610.4 372.517V406.443C610.4 407.906 611.586 409.091 613.048 409.091H761.87C763.333 409.091 764.518 407.906 764.518 406.443V372.517C764.518 371.054 763.333 369.868 761.87 369.868Z" fill="#407BFF"/>
<path opacity="0.2" d="M623.39 372.138H617.294V407.178H623.39V372.138Z" fill="black"/>
<path opacity="0.2" d="M637.242 371.97H632.807V407.01H637.242V371.97Z" fill="black"/>
<path opacity="0.2" d="M650.001 372.138H647.773V407.178H650.001V372.138Z" fill="black"/>
<path opacity="0.2" d="M667.196 371.97H666.082V407.01H667.196V371.97Z" fill="black"/>
<path opacity="0.2" d="M751.528 406.989H757.624V371.948H751.528V406.989Z" fill="black"/>
<path opacity="0.2" d="M737.655 407.178H742.09V372.138H737.655V407.178Z" fill="black"/>
<path opacity="0.2" d="M724.917 406.989H727.124V371.948H724.917V406.989Z" fill="black"/>
<path opacity="0.2" d="M707.743 407.178H708.857V372.138H707.743V407.178Z" fill="black"/>
<path opacity="0.2" d="M687.186 407.178H687.732V372.138H687.186V407.178Z" fill="black"/>
<path opacity="0.2" d="M760.399 375.837H614.835C614.591 375.84 614.349 375.794 614.124 375.702C613.898 375.61 613.693 375.474 613.521 375.302C613.348 375.13 613.212 374.924 613.12 374.699C613.028 374.473 612.982 374.231 612.985 373.988C612.982 373.744 613.028 373.502 613.12 373.276C613.212 373.051 613.348 372.846 613.521 372.673C613.693 372.501 613.898 372.365 614.124 372.273C614.349 372.181 614.591 372.135 614.835 372.138H760.399C760.642 372.135 760.884 372.181 761.11 372.273C761.335 372.365 761.54 372.501 761.713 372.673C761.885 372.846 762.021 373.051 762.113 373.276C762.205 373.502 762.251 373.744 762.248 373.988C762.251 374.231 762.205 374.473 762.113 374.699C762.021 374.924 761.885 375.13 761.713 375.302C761.54 375.474 761.335 375.61 761.11 375.702C760.884 375.794 760.642 375.84 760.399 375.837Z" fill="white"/>
<path d="M580.993 722.017H432.171C430.709 722.017 429.523 723.203 429.523 724.666V758.592C429.523 760.055 430.709 761.24 432.171 761.24H580.993C582.456 761.24 583.642 760.055 583.642 758.592V724.666C583.642 723.203 582.456 722.017 580.993 722.017Z" fill="#407BFF"/>
<path opacity="0.2" d="M442.492 724.287H436.396V759.327H442.492V724.287Z" fill="black"/>
<path opacity="0.2" d="M456.366 724.119H451.93V759.16H456.366V724.119Z" fill="black"/>
<path opacity="0.2" d="M469.104 724.287H466.896V759.327H469.104V724.287Z" fill="black"/>
<path opacity="0.2" d="M486.298 724.119H485.184V759.16H486.298V724.119Z" fill="black"/>
<path opacity="0.2" d="M570.652 759.159H576.747V724.119H570.652V759.159Z" fill="black"/>
<path opacity="0.2" d="M556.778 759.327H561.213V724.287H556.778V759.327Z" fill="black"/>
<path opacity="0.2" d="M544.04 759.159H546.247V724.119H544.04V759.159Z" fill="black"/>
<path opacity="0.2" d="M526.846 759.327H527.96V724.287H526.846V759.327Z" fill="black"/>
<path opacity="0.2" d="M506.309 759.327H506.855V724.287H506.309V759.327Z" fill="black"/>
<path opacity="0.2" d="M579.522 727.987H433.958C433.715 727.989 433.473 727.944 433.247 727.852C433.021 727.76 432.816 727.623 432.644 727.451C432.472 727.279 432.336 727.074 432.244 726.848C432.152 726.622 432.106 726.381 432.109 726.137C432.109 725.646 432.303 725.176 432.65 724.829C432.997 724.482 433.468 724.287 433.958 724.287H579.522C580.011 724.293 580.478 724.489 580.824 724.835C581.169 725.181 581.366 725.648 581.372 726.137C581.372 726.627 581.177 727.098 580.83 727.445C580.483 727.792 580.012 727.987 579.522 727.987Z" fill="white"/>
<path d="M574.666 682.898H425.844C424.382 682.898 423.196 684.084 423.196 685.546V719.473C423.196 720.935 424.382 722.121 425.844 722.121H574.666C576.129 722.121 577.314 720.935 577.314 719.473V685.546C577.314 684.084 576.129 682.898 574.666 682.898Z" fill="#407BFF"/>
<path opacity="0.2" d="M436.186 685.168H430.09V720.209H436.186V685.168Z" fill="black"/>
<path opacity="0.2" d="M450.059 685.001H445.624V720.041H450.059V685.001Z" fill="black"/>
<path opacity="0.2" d="M462.797 685.168H460.59V720.209H462.797V685.168Z" fill="black"/>
<path opacity="0.2" d="M479.992 685.001H478.878V720.041H479.992V685.001Z" fill="black"/>
<path opacity="0.2" d="M564.345 720.02H570.441V684.98H564.345V720.02Z" fill="black"/>
<path opacity="0.2" d="M550.472 720.188H554.907V685.148H550.472V720.188Z" fill="black"/>
<path opacity="0.2" d="M537.734 720.02H539.941V684.98H537.734V720.02Z" fill="black"/>
<path opacity="0.2" d="M520.518 720.188H521.632V685.148H520.518V720.188Z" fill="black"/>
<path opacity="0.2" d="M499.982 720.188H500.528V685.148H499.982V720.188Z" fill="black"/>
<path opacity="0.2" d="M573.195 688.868H427.631C427.142 688.863 426.675 688.666 426.329 688.32C425.984 687.975 425.787 687.507 425.781 687.018C425.781 686.528 425.976 686.057 426.323 685.71C426.67 685.363 427.141 685.169 427.631 685.169H573.195C573.438 685.166 573.68 685.212 573.906 685.304C574.132 685.396 574.337 685.532 574.509 685.704C574.681 685.876 574.817 686.081 574.909 686.307C575.001 686.533 575.047 686.775 575.045 687.018C575.045 687.509 574.85 687.979 574.503 688.326C574.156 688.673 573.685 688.868 573.195 688.868Z" fill="white"/>
<path d="M580.993 643.781H432.171C430.709 643.781 429.523 644.967 429.523 646.429V680.356C429.523 681.818 430.709 683.004 432.171 683.004H580.993C582.456 683.004 583.641 681.818 583.641 680.356V646.429C583.641 644.967 582.456 643.781 580.993 643.781Z" fill="#407BFF"/>
<path opacity="0.2" d="M442.492 646.029H436.396V681.07H442.492V646.029Z" fill="black"/>
<path opacity="0.2" d="M456.365 645.861H451.93V680.901H456.365V645.861Z" fill="black"/>
<path opacity="0.2" d="M469.104 646.029H466.896V681.07H469.104V646.029Z" fill="black"/>
<path opacity="0.2" d="M486.298 645.861H485.184V680.901H486.298V645.861Z" fill="black"/>
<path opacity="0.2" d="M570.651 680.902H576.747V645.862H570.651V680.902Z" fill="black"/>
<path opacity="0.2" d="M556.778 681.069H561.213V646.029H556.778V681.069Z" fill="black"/>
<path opacity="0.2" d="M544.04 680.902H546.247V645.862H544.04V680.902Z" fill="black"/>
<path opacity="0.2" d="M526.845 681.069H527.959V646.029H526.845V681.069Z" fill="black"/>
<path opacity="0.2" d="M506.309 681.069H506.855V646.029H506.309V681.069Z" fill="black"/>
<path opacity="0.2" d="M579.522 649.729H433.958C433.714 649.732 433.473 649.686 433.247 649.594C433.021 649.502 432.816 649.366 432.644 649.193C432.471 649.021 432.335 648.816 432.243 648.59C432.151 648.365 432.105 648.123 432.108 647.879C432.108 647.388 432.303 646.918 432.65 646.571C432.997 646.224 433.467 646.029 433.958 646.029H579.522C580.01 646.035 580.478 646.231 580.823 646.577C581.169 646.923 581.366 647.39 581.371 647.879C581.371 648.37 581.176 648.84 580.83 649.187C580.483 649.534 580.012 649.729 579.522 649.729Z" fill="white"/>
<path d="M576.768 604.641H427.946C426.484 604.641 425.298 605.827 425.298 607.29V641.216C425.298 642.679 426.484 643.864 427.946 643.864H576.768C578.231 643.864 579.417 642.679 579.417 641.216V607.29C579.417 605.827 578.231 604.641 576.768 604.641Z" fill="#407BFF"/>
<path opacity="0.2" d="M438.288 606.911H432.192V641.951H438.288V606.911Z" fill="black"/>
<path opacity="0.2" d="M452.161 606.743H447.726V641.783H452.161V606.743Z" fill="black"/>
<path opacity="0.2" d="M464.899 606.911H462.692V641.951H464.899V606.911Z" fill="black"/>
<path opacity="0.2" d="M482.094 606.743H480.98V641.783H482.094V606.743Z" fill="black"/>
<path opacity="0.2" d="M566.447 641.762H572.543V606.721H566.447V641.762Z" fill="black"/>
<path opacity="0.2" d="M552.574 641.931H557.009V606.89H552.574V641.931Z" fill="black"/>
<path opacity="0.2" d="M539.815 641.762H542.043V606.721H539.815V641.762Z" fill="black"/>
<path opacity="0.2" d="M522.62 641.931H523.734V606.89H522.62V641.931Z" fill="black"/>
<path opacity="0.2" d="M502.105 641.931H502.651V606.89H502.105V641.931Z" fill="black"/>
<path opacity="0.2" d="M575.297 610.611H429.754C429.262 610.611 428.789 610.417 428.439 610.07C428.088 609.724 427.889 609.253 427.883 608.761C427.883 608.516 427.932 608.274 428.026 608.048C428.12 607.822 428.259 607.618 428.433 607.446C428.607 607.273 428.813 607.138 429.04 607.046C429.267 606.954 429.509 606.908 429.754 606.911H575.297C575.541 606.908 575.784 606.954 576.011 607.046C576.238 607.138 576.444 607.273 576.618 607.446C576.792 607.618 576.93 607.822 577.025 608.048C577.119 608.274 577.167 608.516 577.167 608.761C577.162 609.253 576.962 609.724 576.612 610.07C576.262 610.417 575.789 610.611 575.297 610.611Z" fill="white"/>
<path d="M576.768 565.522H427.946C426.484 565.522 425.298 566.708 425.298 568.17V602.097C425.298 603.56 426.484 604.745 427.946 604.745H576.768C578.231 604.745 579.417 603.56 579.417 602.097V568.17C579.417 566.708 578.231 565.522 576.768 565.522Z" fill="#407BFF"/>
<path opacity="0.2" d="M438.288 567.771H432.192V602.812H438.288V567.771Z" fill="black"/>
<path opacity="0.2" d="M452.161 567.603H447.726V602.643H452.161V567.603Z" fill="black"/>
<path opacity="0.2" d="M464.899 567.771H462.692V602.812H464.899V567.771Z" fill="black"/>
<path opacity="0.2" d="M482.094 567.603H480.98V602.643H482.094V567.603Z" fill="black"/>
<path opacity="0.2" d="M566.447 602.644H572.543V567.604H566.447V602.644Z" fill="black"/>
<path opacity="0.2" d="M552.574 602.812H557.009V567.772H552.574V602.812Z" fill="black"/>
<path opacity="0.2" d="M539.815 602.644H542.043V567.604H539.815V602.644Z" fill="black"/>
<path opacity="0.2" d="M522.62 602.812H523.734V567.772H522.62V602.812Z" fill="black"/>
<path opacity="0.2" d="M502.105 602.812H502.651V567.772H502.105V602.812Z" fill="black"/>
<path opacity="0.2" d="M575.296 571.471H429.754C429.509 571.474 429.266 571.428 429.04 571.336C428.813 571.245 428.606 571.109 428.432 570.937C428.258 570.765 428.12 570.56 428.026 570.334C427.932 570.108 427.883 569.866 427.883 569.621C427.889 569.129 428.088 568.658 428.438 568.312C428.789 567.966 429.261 567.771 429.754 567.771H575.296C575.789 567.771 576.262 567.966 576.612 568.312C576.962 568.658 577.162 569.129 577.167 569.621C577.167 569.866 577.119 570.108 577.024 570.334C576.93 570.56 576.792 570.765 576.618 570.937C576.444 571.109 576.238 571.245 576.011 571.336C575.784 571.428 575.541 571.474 575.296 571.471Z" fill="white"/>
<path d="M576.768 526.383H427.946C426.484 526.383 425.298 527.569 425.298 529.031V562.958C425.298 564.42 426.484 565.606 427.946 565.606H576.768C578.231 565.606 579.417 564.42 579.417 562.958V529.031C579.417 527.569 578.231 526.383 576.768 526.383Z" fill="#407BFF"/>
<path opacity="0.2" d="M438.288 528.653H432.192V563.693H438.288V528.653Z" fill="black"/>
<path opacity="0.2" d="M452.161 528.485H447.726V563.526H452.161V528.485Z" fill="black"/>
<path opacity="0.2" d="M464.899 528.653H462.692V563.693H464.899V528.653Z" fill="black"/>
<path opacity="0.2" d="M482.094 528.485H480.98V563.526H482.094V528.485Z" fill="black"/>
<path opacity="0.2" d="M566.447 563.504H572.543V528.464H566.447V563.504Z" fill="black"/>
<path opacity="0.2" d="M552.574 563.672H557.009V528.632H552.574V563.672Z" fill="black"/>
<path opacity="0.2" d="M539.815 563.504H542.043V528.464H539.815V563.504Z" fill="black"/>
<path opacity="0.2" d="M522.62 563.672H523.734V528.632H522.62V563.672Z" fill="black"/>
<path opacity="0.2" d="M502.105 563.672H502.651V528.632H502.105V563.672Z" fill="black"/>
<path opacity="0.2" d="M575.296 532.352H429.754C429.509 532.355 429.266 532.309 429.04 532.218C428.813 532.126 428.606 531.99 428.432 531.818C428.258 531.646 428.12 531.441 428.026 531.215C427.932 530.99 427.883 530.747 427.883 530.503C427.883 530.258 427.932 530.016 428.026 529.79C428.12 529.564 428.258 529.359 428.432 529.187C428.606 529.015 428.813 528.879 429.04 528.788C429.266 528.696 429.509 528.65 429.754 528.653H575.296C575.541 528.65 575.784 528.696 576.011 528.788C576.238 528.879 576.444 529.015 576.618 529.187C576.792 529.359 576.93 529.564 577.024 529.79C577.119 530.016 577.167 530.258 577.167 530.503C577.167 530.747 577.119 530.99 577.024 531.215C576.93 531.441 576.792 531.646 576.618 531.818C576.444 531.99 576.238 532.126 576.011 532.218C575.784 532.309 575.541 532.355 575.296 532.352Z" fill="white"/>
<path d="M578.597 447.705H429.775C428.312 447.705 427.126 448.891 427.126 450.354V484.28C427.126 485.743 428.312 486.928 429.775 486.928H578.597C580.059 486.928 581.245 485.743 581.245 484.28V450.354C581.245 448.891 580.059 447.705 578.597 447.705Z" fill="#407BFF"/>
<path opacity="0.2" d="M440.117 449.975H434.021V485.015H440.117V449.975Z" fill="black"/>
<path opacity="0.2" d="M453.99 449.807H449.555V484.847H453.99V449.807Z" fill="black"/>
<path opacity="0.2" d="M466.728 449.975H464.521V485.015H466.728V449.975Z" fill="black"/>
<path opacity="0.2" d="M483.922 449.807H482.808V484.847H483.922V449.807Z" fill="black"/>
<path opacity="0.2" d="M568.276 484.827H574.372V449.786H568.276V484.827Z" fill="black"/>
<path opacity="0.2" d="M554.402 485.016H558.838V449.976H554.402V485.016Z" fill="black"/>
<path opacity="0.2" d="M541.664 484.827H543.872V449.786H541.664V484.827Z" fill="black"/>
<path opacity="0.2" d="M524.449 485.016H525.563V449.976H524.449V485.016Z" fill="black"/>
<path opacity="0.2" d="M503.933 485.016H504.48V449.976H503.933V485.016Z" fill="black"/>
<path opacity="0.2" d="M577.125 453.675H431.583C431.338 453.677 431.095 453.632 430.869 453.54C430.642 453.448 430.435 453.312 430.261 453.14C430.087 452.968 429.949 452.763 429.855 452.538C429.761 452.312 429.712 452.07 429.712 451.825C429.718 451.332 429.917 450.862 430.267 450.516C430.618 450.169 431.09 449.975 431.583 449.975H577.125C577.618 449.975 578.091 450.169 578.441 450.516C578.791 450.862 578.991 451.332 578.996 451.825C578.996 452.07 578.948 452.312 578.853 452.538C578.759 452.763 578.621 452.968 578.447 453.14C578.273 453.312 578.067 453.448 577.84 453.54C577.613 453.632 577.37 453.677 577.125 453.675Z" fill="white"/>
<path d="M580.993 487.265H432.171C430.709 487.265 429.523 488.45 429.523 489.913V523.839C429.523 525.302 430.709 526.488 432.171 526.488H580.993C582.456 526.488 583.641 525.302 583.641 523.839V489.913C583.641 488.45 582.456 487.265 580.993 487.265Z" fill="#407BFF"/>
<path opacity="0.2" d="M442.492 489.514H436.396V524.554H442.492V489.514Z" fill="black"/>
<path opacity="0.2" d="M456.365 489.346H451.93V524.387H456.365V489.346Z" fill="black"/>
<path opacity="0.2" d="M469.103 489.514H466.896V524.554H469.103V489.514Z" fill="black"/>
<path opacity="0.2" d="M486.298 489.346H485.184V524.387H486.298V489.346Z" fill="black"/>
<path opacity="0.2" d="M570.651 524.386H576.747V489.346H570.651V524.386Z" fill="black"/>
<path opacity="0.2" d="M556.778 524.555H561.213V489.514H556.778V524.555Z" fill="black"/>
<path opacity="0.2" d="M544.04 524.386H546.247V489.346H544.04V524.386Z" fill="black"/>
<path opacity="0.2" d="M526.845 524.555H527.959V489.514H526.845V524.555Z" fill="black"/>
<path opacity="0.2" d="M506.309 524.555H506.855V489.514H506.309V524.555Z" fill="black"/>
<path opacity="0.2" d="M579.521 493.234H433.958C433.713 493.234 433.471 493.186 433.245 493.091C433.019 492.997 432.814 492.859 432.642 492.685C432.47 492.511 432.334 492.305 432.243 492.078C432.151 491.851 432.105 491.608 432.108 491.363C432.108 490.873 432.303 490.402 432.65 490.055C432.997 489.709 433.467 489.514 433.958 489.514H579.521C580.01 489.519 580.477 489.716 580.823 490.061C581.169 490.407 581.366 490.875 581.371 491.363C581.371 491.856 581.177 492.329 580.831 492.679C580.484 493.029 580.014 493.229 579.521 493.234Z" fill="white"/>
<path d="M525.668 423.153L520.96 432.36L516.167 441.714L507.78 438.645L511.984 430.426L517.281 420.084L525.668 423.153Z" fill="#FFC2BC"/>
<path opacity="0.2" d="M525.668 423.153L520.96 432.36L511.984 430.426L517.281 420.084L525.668 423.153Z" fill="black"/>
<path d="M708.837 371.088C708.584 371.089 708.339 370.998 708.15 370.832C707.96 370.665 707.838 370.434 707.807 370.184C707.512 368.082 679.892 162.086 646.554 71.6997C646.487 71.5679 646.448 71.4234 646.441 71.2756C646.433 71.1278 646.457 70.9801 646.51 70.8421C646.563 70.7041 646.645 70.5789 646.751 70.4748C646.856 70.3707 646.982 70.2899 647.12 70.2378C647.259 70.1856 647.406 70.1634 647.554 70.1724C647.702 70.1814 647.846 70.2215 647.977 70.29C648.108 70.3586 648.223 70.454 648.315 70.5702C648.407 70.6863 648.473 70.8205 648.509 70.964C681.952 161.518 709.614 367.85 709.888 369.952C709.924 370.231 709.849 370.512 709.68 370.736C709.511 370.96 709.261 371.109 708.984 371.151L708.837 371.088Z" fill="#263238"/>
<path d="M655.614 365.159L664.547 364.802L666.292 344.076L657.337 344.434L655.614 365.159Z" fill="#FFC2BC"/>
<path d="M665.388 360.073L655.635 359.757C655.456 359.758 655.283 359.815 655.139 359.921C654.996 360.027 654.89 360.176 654.836 360.346L652.734 368.207C652.683 368.397 652.676 368.596 652.713 368.789C652.75 368.982 652.83 369.164 652.947 369.322C653.064 369.48 653.216 369.609 653.39 369.7C653.564 369.791 653.757 369.841 653.953 369.847C657.484 369.847 662.592 369.847 667.028 369.973C672.198 370.141 675.436 369.973 681.573 370.078C685.231 370.183 686.408 366.526 684.874 366.147C677.937 364.403 673.397 364.718 667.511 360.829C666.885 360.389 666.151 360.127 665.388 360.073Z" fill="#263238"/>
<path opacity="0.2" d="M666.292 344.076L665.388 354.754L656.455 355.133L657.337 344.434L666.292 344.076Z" fill="black"/>
<path d="M651.978 290.076C654.248 294.427 654.416 340.04 654.416 351.622H669.866C671.862 339.62 681.742 275.173 667.764 265.966C652.377 255.813 613.364 259.303 613.364 259.303L610.547 253.606L604.914 242.255L572.627 254.342L565.585 256.948L562.685 258.041H562.432C562.432 258.041 562.432 258.357 562.432 258.903C562.537 260.164 562.832 262.708 563.357 265.882C563.967 269.689 564.823 273.453 565.922 277.149C568.907 286.881 574.204 296.067 583.41 292.998C583.81 292.872 584.209 292.703 584.608 292.535C585.365 292.199 586.185 291.884 587.026 291.568C594.405 289.19 602.039 287.688 609.769 287.091C629.276 285.241 650.254 286.713 651.978 290.076Z" fill="#263238"/>
<path d="M670.559 352.967L652.503 353.451L652.398 347.628L672.241 346.809L670.559 352.967Z" fill="#407BFF"/>
<path d="M517.723 437.216H506.834C506.658 437.217 506.486 437.277 506.349 437.388C506.211 437.499 506.116 437.653 506.078 437.826L504.228 445.75C504.183 445.942 504.183 446.142 504.227 446.334C504.271 446.527 504.358 446.707 504.481 446.86C504.604 447.014 504.761 447.138 504.939 447.222C505.118 447.307 505.313 447.35 505.51 447.348C509.02 447.348 511.585 447.075 516.02 447.075C518.732 447.075 526.908 447.369 530.734 447.369C534.56 447.369 534.938 443.648 533.467 443.312C526.614 441.82 521.443 439.739 519.257 437.763C519.051 437.574 518.808 437.429 518.545 437.335C518.281 437.241 518.002 437.201 517.723 437.216Z" fill="#263238"/>
<path d="M596.968 257.957L595.097 264.41C594.109 267.857 592.743 272.545 591.146 277.989L587.152 291.589C580.341 314.606 571.681 343.34 566.889 356.982C557.346 384.056 525.416 432.213 525.416 432.213L510.051 426.579C510.051 426.579 533.635 381.218 541.37 353.766C546.772 334.596 555.244 300.144 560.814 277.001L563.483 265.903C564.387 262.119 565.123 259.029 565.585 256.864C566.048 254.699 566.426 253.312 566.426 253.312L572.627 254.257L596.968 257.957Z" fill="#263238"/>
<path d="M527.076 433.222L508.999 426.58L511.038 421.199L530.314 427.042L527.076 433.222Z" fill="#407BFF"/>
<path opacity="0.2" d="M610.61 253.585L596.968 269.497L595.097 264.41L592.995 258.861L591.082 277.989L565.985 277.17L560.75 277.001L563.42 265.903C562.895 262.729 562.6 260.185 562.495 258.924L562.663 257.978L565.564 256.885C566.111 254.615 566.405 253.333 566.405 253.333L572.606 254.279L604.956 242.255L610.61 253.585Z" fill="black"/>
<path opacity="0.2" d="M609.853 287.112C601.225 287.691 592.728 289.525 584.629 292.556C584.23 292.724 583.831 292.893 583.431 293.019L585.26 284.022C585.26 284.022 601.004 283.286 609.853 287.112Z" fill="black"/>
<path d="M492.457 262.225L486.97 269.497L482.325 260.648C482.325 260.648 487.601 254.447 490.733 257.306L492.457 262.225Z" fill="#FFC2BC"/>
<path d="M478.583 272.819L477.217 263.759L482.325 260.543L486.97 269.498L478.583 272.819Z" fill="#FFC2BC"/>
<path d="M493.949 261.552L492.414 262.33L490.144 256.57L492.582 255.393L493.949 261.552Z" fill="white"/>
<path d="M555.138 209.065C554.339 210.466 553.519 211.811 552.679 213.101C550.563 216.548 548.349 219.939 546.036 223.274L544.124 226.028C542.19 228.802 540.151 231.514 537.965 234.226C536.872 235.571 535.758 236.937 534.517 238.283C533.273 239.691 531.947 241.025 530.545 242.276C525.168 246.853 519.252 250.757 512.93 253.9C506.835 257.05 500.511 259.734 494.012 261.93L491.279 255.792C494.012 254.132 496.85 252.429 499.561 250.663C502.273 248.898 505.026 247.153 507.654 245.303C510.281 243.453 512.867 241.583 515.305 239.628C517.703 237.75 519.978 235.721 522.116 233.553C526.151 228.863 529.787 223.843 532.983 218.545C536.493 213.101 540.929 203.557 544.397 198.113L555.138 209.065Z" fill="#263238"/>
<path opacity="0.2" d="M552.679 213.101C550.563 216.548 548.349 219.939 546.036 223.275C546.271 218.854 547.499 214.543 549.631 210.663C550.897 211.1 551.974 211.962 552.679 213.101Z" fill="black"/>
<path d="M673.208 186.426L667.112 192.101L667.974 197.356C670.202 200.299 675.331 196.663 676.529 195.738C676.72 195.599 676.924 195.479 677.138 195.381L680.375 194.077C680.948 193.839 681.423 193.415 681.724 192.874C682.026 192.332 682.136 191.704 682.036 191.093L681.405 187.225C681.348 186.862 681.217 186.514 681.021 186.203C680.825 185.893 680.568 185.625 680.265 185.416C679.962 185.208 679.62 185.063 679.26 184.991C678.899 184.919 678.528 184.921 678.168 184.997L674.532 185.732C674.032 185.829 673.572 186.071 673.208 186.426Z" fill="#FFC2BC"/>
<path d="M665.704 192.144L667.385 191.723L668.352 197.819L665.704 198.45V192.144Z" fill="white"/>
<path d="M667.112 198.492C660.435 199.906 653.662 200.819 646.849 201.225C639.829 201.77 632.769 201.445 625.829 200.258C623.981 199.905 622.156 199.441 620.363 198.871C618.598 198.324 616.958 197.735 615.319 197.126C612.061 195.928 609.013 194.645 605.839 193.237L602.118 191.556C599.301 190.252 596.527 188.907 593.71 187.499C591.608 186.49 589.653 185.397 587.635 184.304L593.037 171.46C598.818 174.361 605.649 178.292 611.451 181.172C616.896 184.099 622.586 186.546 628.456 188.487C631.399 189.265 634.39 189.848 637.411 190.231C640.522 190.673 643.717 190.946 646.891 191.198C650.065 191.45 653.344 191.598 656.581 191.64C659.818 191.682 663.139 191.787 666.334 191.829L667.112 198.492Z" fill="#263238"/>
<path opacity="0.2" d="M602.055 191.555C599.238 190.252 596.463 188.906 593.647 187.498L592.554 181.528C596.76 183.705 600.108 187.238 602.055 191.555Z" fill="black"/>
<path d="M546.268 196.957C549.742 205.503 552.512 214.319 554.55 223.316C556.063 229.622 561.423 235.928 562.348 241.708C563.231 248.084 564.495 254.401 566.132 260.626C572.543 257.179 591.944 252.912 604.956 245.912C605.502 193.531 591.44 173.099 591.44 173.099C587.869 174.008 584.359 175.138 580.93 176.483L578.66 177.429C572.399 180.384 566.295 183.66 560.372 187.246C559.216 187.939 558.06 188.654 556.946 189.348C551.229 193.089 546.268 196.957 546.268 196.957Z" fill="#407BFF"/>
<path opacity="0.7" d="M546.268 196.957C549.742 205.503 552.512 214.319 554.55 223.316C556.063 229.622 561.423 235.928 562.348 241.708C563.231 248.084 564.495 254.401 566.132 260.626C572.543 257.179 591.944 252.912 604.956 245.912C605.502 193.531 591.44 173.099 591.44 173.099C587.869 174.008 584.359 175.138 580.93 176.483L578.66 177.429C572.399 180.384 566.295 183.66 560.372 187.246C559.216 187.939 558.06 188.654 556.946 189.348C551.229 193.089 546.268 196.957 546.268 196.957Z" fill="white"/>
<path d="M580.72 195.97L581.518 191.114L578.176 190.904L576.137 193.153L580.72 195.97Z" fill="#407BFF"/>
<path d="M578.176 190.904C571.996 194.351 565.879 190.336 561.928 187.582L561.507 187.288C563.252 184.871 563.42 180.982 562.853 177.072C562.181 172.752 561.025 168.521 559.405 164.46L573.552 172.574C573.552 173.541 573.384 174.403 573.342 175.16C573.152 176.988 573.131 178.229 574.14 179.027C575.709 179.902 577.498 180.304 579.29 180.183C580.909 182.054 582.422 188.528 578.176 190.904Z" fill="#FFC2BC"/>
<path d="M557.03 189.412C557.03 189.412 574.834 207.993 587.866 218.104C587.866 218.104 586.9 185.25 581.014 176.526L593.121 171.46C593.121 171.46 604.767 197.189 606.427 240.154L611.682 250.979L596.968 265.945L592.239 254.847L589.065 273.26L558.712 275.951L562.432 254.931L544.502 198.177L557.03 189.412Z" fill="#263238"/>
<path d="M579.122 194.982C579.122 194.982 583.326 209.317 583.032 216.969L588.455 219.785L589.422 215.581C589.422 215.581 584.651 197.105 580.257 193.868L579.122 194.982Z" fill="#407BFF"/>
<path d="M557.661 187.877C557.661 187.877 579.9 212.281 587.761 218.104C587.761 218.104 585.47 185.061 580.362 176.758C580.362 176.758 583.873 174.34 591.356 181.634L587.614 188.571L594.257 193.153C594.257 193.153 591.986 217.915 587.614 229.665C587.932 227.184 588.072 224.683 588.035 222.182L561.949 207.72L563.105 199.732L553.247 199.312C553.247 199.312 554.34 189.874 557.661 187.877Z" fill="#263238"/>
<path opacity="0.2" d="M557.661 187.877C557.661 187.877 579.9 212.281 587.761 218.104C587.761 218.104 585.47 185.061 580.362 176.758C580.362 176.758 583.873 174.34 591.356 181.634L587.614 188.571L594.257 193.153C594.257 193.153 591.986 217.915 587.614 229.665C587.932 227.184 588.072 224.683 588.035 222.182L561.949 207.72L563.105 199.732L553.247 199.312C553.247 199.312 554.34 189.874 557.661 187.877Z" fill="white"/>
<path d="M648.215 73.1921C648.215 73.1921 635.603 71.7627 628.561 75.0839C621.519 78.4051 614.436 89.2304 603.001 90.2603C591.566 91.2903 589.275 87.5698 589.275 87.5698C589.275 87.5698 599.343 105.437 618.703 105.248C638.062 105.058 648.131 101.863 659.545 109.052C659.587 109.052 650.8 78.7624 648.215 73.1921Z" fill="#407BFF"/>
<path opacity="0.2" d="M574.14 178.986C572.963 182.643 570.041 187.814 563.126 187.688C562.727 187.721 562.326 187.721 561.927 187.688L561.507 187.394C563.252 184.976 563.42 181.088 562.852 177.178C565.961 175.166 569.738 174.463 573.362 175.223C573.152 176.947 573.131 178.187 574.14 178.986Z" fill="black"/>
<path d="M578.176 190.903C578.287 193.443 577.744 195.969 576.6 198.239C572.711 197.693 561.087 191.933 560.498 187.12C560.798 185.964 561.426 184.92 562.306 184.114C566.737 188.01 572.298 190.389 578.176 190.903Z" fill="white"/>
<path d="M578.176 190.904C580.34 191.465 582.355 192.491 584.083 193.91C585.176 189.39 580.656 178.523 579.5 177.934C577.615 177.752 575.715 178.071 573.993 178.859C573.993 178.859 580.341 184.787 578.176 190.904Z" fill="white"/>
<path d="M547.046 159.92C546.814 163.515 549.148 170.241 553.183 166.878C557.219 163.515 547.445 153.74 547.046 159.92Z" fill="#263238"/>
<path d="M572.206 158.554C574.813 166.962 576.768 171.838 574.182 177.619C570.273 186.321 558.585 186.3 553.478 178.754C548.895 171.985 545.385 159.289 552.3 153.004C553.829 151.618 555.684 150.641 557.692 150.166C559.701 149.691 561.797 149.732 563.785 150.286C565.773 150.841 567.588 151.89 569.06 153.335C570.533 154.781 571.615 156.576 572.206 158.554Z" fill="#FFC2BC"/>
<path d="M573.552 147.854C572.711 142.347 566.174 143.125 562.348 146.025V156.893C563.824 156.191 565.232 155.354 566.552 154.391C566.552 154.391 568.045 162.526 573.026 164.901C579.374 158.743 579.9 149.242 573.552 147.854Z" fill="#263238"/>
<path d="M578.05 164.251C578.171 166.46 577.415 168.627 575.948 170.283C573.951 172.385 571.387 171.019 570.651 168.307C569.916 165.596 570.21 161.854 572.753 160.698C573.336 160.455 573.97 160.36 574.599 160.422C575.227 160.484 575.831 160.7 576.355 161.052C576.88 161.404 577.309 161.88 577.605 162.438C577.901 162.996 578.054 163.619 578.05 164.251Z" fill="#FFC2BC"/>
<path d="M560.477 165.49C560.73 166.163 560.477 166.836 560.12 167.004C559.763 167.172 559.111 166.751 558.859 166.079C558.607 165.406 558.859 164.734 559.216 164.565C559.574 164.397 560.204 164.818 560.477 165.49Z" fill="#263238"/>
<path d="M552.826 168.287C553.099 168.959 552.931 169.632 552.489 169.8C552.048 169.968 551.48 169.548 551.228 168.875C550.976 168.203 551.123 167.53 551.565 167.362C552.006 167.194 552.553 167.614 552.826 168.287Z" fill="#263238"/>
<path d="M555.369 167.739C555.286 170.033 554.883 172.304 554.171 174.487C554.754 174.633 555.362 174.652 555.953 174.543C556.544 174.434 557.105 174.2 557.598 173.856L555.369 167.739Z" fill="#ED893E"/>
<path d="M562.201 175.118L561.339 175.496C561.286 175.516 561.228 175.513 561.176 175.49C561.125 175.466 561.085 175.423 561.066 175.37C561.046 175.317 561.049 175.258 561.072 175.207C561.096 175.156 561.139 175.116 561.192 175.097C562.038 174.808 562.804 174.325 563.428 173.686C564.052 173.047 564.518 172.27 564.786 171.418C564.791 171.39 564.802 171.364 564.818 171.34C564.833 171.316 564.853 171.296 564.877 171.28C564.9 171.265 564.927 171.254 564.955 171.249C564.982 171.244 565.011 171.244 565.039 171.25C565.066 171.255 565.092 171.265 565.115 171.281C565.138 171.297 565.158 171.317 565.172 171.341C565.186 171.366 565.194 171.393 565.197 171.42C565.199 171.448 565.195 171.476 565.186 171.502C564.961 172.277 564.581 172.997 564.067 173.619C563.554 174.241 562.919 174.751 562.201 175.118Z" fill="#263238"/>
<path d="M561.907 162.169C561.839 162.206 561.763 162.225 561.686 162.225C561.609 162.225 561.533 162.206 561.465 162.169C561.024 161.868 560.517 161.677 559.987 161.611C559.457 161.546 558.919 161.607 558.417 161.79C558.314 161.835 558.198 161.837 558.093 161.795C557.989 161.754 557.905 161.673 557.86 161.57C557.816 161.467 557.814 161.35 557.855 161.246C557.897 161.141 557.978 161.057 558.081 161.013C558.711 160.773 559.389 160.687 560.058 160.764C560.728 160.841 561.369 161.078 561.928 161.454C562.019 161.518 562.083 161.614 562.107 161.724C562.13 161.833 562.111 161.947 562.054 162.043C562.014 162.094 561.964 162.137 561.907 162.169Z" fill="#263238"/>
<path d="M548.622 166.878C548.541 166.909 548.451 166.909 548.37 166.878C548.315 166.873 548.261 166.857 548.212 166.83C548.163 166.804 548.12 166.769 548.085 166.726C548.049 166.683 548.023 166.633 548.007 166.58C547.991 166.527 547.986 166.471 547.992 166.416C548.052 165.74 548.274 165.089 548.64 164.518C549.006 163.947 549.505 163.473 550.094 163.136C550.143 163.111 550.198 163.096 550.253 163.092C550.309 163.088 550.364 163.095 550.417 163.112C550.47 163.13 550.519 163.158 550.561 163.195C550.602 163.231 550.637 163.276 550.661 163.326C550.714 163.423 550.726 163.538 550.694 163.644C550.663 163.75 550.59 163.84 550.493 163.893C550.038 164.166 549.656 164.546 549.382 165.001C549.107 165.455 548.947 165.97 548.917 166.5C548.912 166.585 548.881 166.667 548.829 166.735C548.776 166.802 548.704 166.852 548.622 166.878Z" fill="#263238"/>
<path d="M566.363 154.455C566.363 154.455 561.045 159.941 555.853 159.668C557.253 159.031 558.528 158.148 559.616 157.061C559.616 157.061 549.463 161.454 544.46 159.163C539.457 156.872 540.025 154.392 540.025 154.392C540.025 154.392 540.593 155.842 545.448 155.695C545.448 155.695 541.244 152.941 542.947 149.053C543.19 149.518 543.547 149.914 543.984 150.205C544.421 150.495 544.925 150.67 545.448 150.713C547.095 148.176 549.307 146.055 551.911 144.516C554.515 142.977 557.44 142.062 560.456 141.843C571.366 140.603 573.573 144.912 574.056 148.149C574.54 151.386 566.363 154.455 566.363 154.455Z" fill="#263238"/>
<path d="M391.687 722.016H242.865C241.403 722.016 240.217 723.201 240.217 724.664V758.59C240.217 760.053 241.403 761.239 242.865 761.239H391.687C393.15 761.239 394.335 760.053 394.335 758.59V724.664C394.335 723.201 393.15 722.016 391.687 722.016Z" fill="#407BFF"/>
<path opacity="0.2" d="M253.207 724.286H247.111V759.326H253.207V724.286Z" fill="black"/>
<path opacity="0.2" d="M267.059 724.118H262.624V759.158H267.059V724.118Z" fill="black"/>
<path opacity="0.2" d="M279.797 724.286H277.59V759.326H279.797V724.286Z" fill="black"/>
<path opacity="0.2" d="M296.991 724.118H295.877V759.158H296.991V724.118Z" fill="black"/>
<path opacity="0.2" d="M381.345 759.158H387.441V724.118H381.345V759.158Z" fill="black"/>
<path opacity="0.2" d="M367.493 759.327H371.928V724.287H367.493V759.327Z" fill="black"/>
<path opacity="0.2" d="M354.734 759.158H356.941V724.118H354.734V759.158Z" fill="black"/>
<path opacity="0.2" d="M337.539 759.327H338.653V724.287H337.539V759.327Z" fill="black"/>
<path opacity="0.2" d="M317.003 759.327H317.549V724.287H317.003V759.327Z" fill="black"/>
<path opacity="0.2" d="M390.215 727.985H244.652C244.408 727.988 244.166 727.942 243.941 727.85C243.715 727.758 243.51 727.622 243.338 727.45C243.165 727.277 243.029 727.072 242.937 726.847C242.845 726.621 242.799 726.379 242.802 726.135C242.802 725.645 242.997 725.174 243.344 724.827C243.691 724.481 244.161 724.286 244.652 724.286H390.215C390.706 724.286 391.176 724.481 391.523 724.827C391.87 725.174 392.065 725.645 392.065 726.135C392.068 726.379 392.022 726.621 391.93 726.847C391.838 727.072 391.702 727.277 391.53 727.45C391.357 727.622 391.152 727.758 390.927 727.85C390.701 727.942 390.459 727.988 390.215 727.985Z" fill="white"/>
<path d="M393.789 682.898H244.967C243.504 682.898 242.319 684.084 242.319 685.546V719.473C242.319 720.935 243.504 722.121 244.967 722.121H393.789C395.251 722.121 396.437 720.935 396.437 719.473V685.546C396.437 684.084 395.251 682.898 393.789 682.898Z" fill="#407BFF"/>
<path opacity="0.2" d="M255.309 685.168H249.213V720.208H255.309V685.168Z" fill="black"/>
<path opacity="0.2" d="M269.161 685H264.726V720.04H269.161V685Z" fill="black"/>
<path opacity="0.2" d="M281.899 685.168H279.692V720.208H281.899V685.168Z" fill="black"/>
<path opacity="0.2" d="M299.115 685H298V720.04H299.115V685Z" fill="black"/>
<path opacity="0.2" d="M383.447 720.02H389.543V684.979H383.447V720.02Z" fill="black"/>
<path opacity="0.2" d="M369.574 720.188H374.009V685.148H369.574V720.188Z" fill="black"/>
<path opacity="0.2" d="M356.835 720.02H359.042V684.979H356.835V720.02Z" fill="black"/>
<path opacity="0.2" d="M339.641 720.188H340.755V685.148H339.641V720.188Z" fill="black"/>
<path opacity="0.2" d="M319.105 720.188H319.651V685.148H319.105V720.188Z" fill="black"/>
<path opacity="0.2" d="M392.317 688.868H246.754C246.263 688.868 245.793 688.673 245.446 688.326C245.099 687.979 244.904 687.508 244.904 687.018C244.901 686.774 244.947 686.532 245.039 686.307C245.131 686.081 245.267 685.876 245.44 685.704C245.612 685.531 245.817 685.395 246.043 685.303C246.268 685.211 246.51 685.165 246.754 685.168H392.317C392.561 685.165 392.803 685.211 393.029 685.303C393.254 685.395 393.459 685.531 393.632 685.704C393.804 685.876 393.94 686.081 394.032 686.307C394.124 686.532 394.17 686.774 394.167 687.018C394.167 687.508 393.972 687.979 393.625 688.326C393.279 688.673 392.808 688.868 392.317 688.868Z" fill="white"/>
<path d="M385.381 643.78H236.559C235.096 643.78 233.911 644.966 233.911 646.428V680.355C233.911 681.817 235.096 683.003 236.559 683.003H385.381C386.844 683.003 388.029 681.817 388.029 680.355V646.428C388.029 644.966 386.844 643.78 385.381 643.78Z" fill="#407BFF"/>
<path opacity="0.2" d="M246.88 646.029H240.784V681.069H246.88V646.029Z" fill="black"/>
<path opacity="0.2" d="M260.753 645.86H256.318V680.901H260.753V645.86Z" fill="black"/>
<path opacity="0.2" d="M273.491 646.029H271.284V681.069H273.491V646.029Z" fill="black"/>
<path opacity="0.2" d="M290.686 645.86H289.572V680.901H290.686V645.86Z" fill="black"/>
<path opacity="0.2" d="M375.018 680.901H381.114V645.861H375.018V680.901Z" fill="black"/>
<path opacity="0.2" d="M361.187 681.069H365.622V646.028H361.187V681.069Z" fill="black"/>
<path opacity="0.2" d="M348.427 680.901H350.635V645.861H348.427V680.901Z" fill="black"/>
<path opacity="0.2" d="M331.233 681.069H332.347V646.028H331.233V681.069Z" fill="black"/>
<path opacity="0.2" d="M310.697 681.069H311.243V646.028H310.697V681.069Z" fill="black"/>
<path opacity="0.2" d="M383.909 649.728H238.346C238.102 649.731 237.86 649.685 237.635 649.593C237.409 649.501 237.204 649.365 237.031 649.193C236.859 649.021 236.723 648.815 236.631 648.59C236.539 648.364 236.493 648.122 236.496 647.879C236.496 647.388 236.691 646.917 237.038 646.571C237.385 646.224 237.855 646.029 238.346 646.029H383.909C384.398 646.034 384.865 646.231 385.211 646.577C385.557 646.922 385.754 647.39 385.759 647.879C385.759 648.369 385.564 648.84 385.217 649.187C384.87 649.533 384.4 649.728 383.909 649.728Z" fill="white"/>
<path d="M301.553 617.841L297.328 628.246L294.133 636.108L286.103 633.249L288.983 626.186L293.523 614.961L301.553 617.841Z" fill="#E4897B"/>
<path d="M473.16 562.138L466.329 567.204L463.827 561.655L458.026 548.832L464.857 543.746L470.344 555.895L473.16 562.138Z" fill="#E4897B"/>
<path opacity="0.2" d="M293.523 614.961L301.553 617.841L297.328 628.246L288.983 626.186L293.523 614.961Z" fill="black"/>
<path opacity="0.2" d="M470.344 555.895L463.827 561.655L458.026 548.832L464.857 543.746L470.344 555.895Z" fill="black"/>
<path d="M361.817 329.762C362.048 330.414 362.574 330.813 362.994 330.666C363.415 330.519 363.583 329.867 363.352 329.216C363.12 328.564 362.595 328.165 362.175 328.312C361.754 328.459 361.544 329.11 361.817 329.762Z" fill="#263238"/>
<path d="M362.511 330.833C363.981 332.537 365.678 334.029 367.556 335.269C367.231 335.745 366.803 336.143 366.305 336.434C365.807 336.725 365.251 336.901 364.676 336.95L362.511 330.833Z" fill="#DE5753"/>
<path d="M358.181 327.009C358.085 327.037 357.983 327.037 357.887 327.009C357.817 326.935 357.779 326.837 357.779 326.735C357.779 326.634 357.817 326.536 357.887 326.462C358.238 325.93 358.711 325.488 359.267 325.174C359.822 324.86 360.444 324.682 361.082 324.654C361.19 324.66 361.291 324.706 361.365 324.785C361.44 324.863 361.481 324.967 361.481 325.075C361.481 325.129 361.47 325.183 361.449 325.233C361.427 325.282 361.396 325.327 361.357 325.365C361.317 325.402 361.271 325.431 361.22 325.45C361.169 325.469 361.115 325.477 361.061 325.474C360.555 325.495 360.061 325.638 359.622 325.891C359.183 326.143 358.811 326.498 358.538 326.924C358.488 326.962 358.43 326.989 358.368 327.003C358.307 327.018 358.243 327.02 358.181 327.009Z" fill="#263238"/>
<path d="M346.263 340.355C346.368 346.661 345.569 358.138 340.545 361.481C340.545 361.481 341.113 367.997 352.506 370.015C365.118 372.264 359.61 364.865 359.61 364.865C353.073 362.027 354.145 356.982 356.184 352.421L346.263 340.355Z" fill="#E4897B"/>
<path d="M339.746 336.005C343.026 343.782 344.56 348.617 350.025 351.182C358.223 355.175 366.841 348.071 365.853 339.473C365.054 331.717 359.799 320.303 350.887 319.883C348.926 319.782 346.972 320.185 345.211 321.052C343.449 321.92 341.939 323.223 340.822 324.838C339.706 326.454 339.021 328.327 338.833 330.282C338.645 332.236 338.959 334.206 339.746 336.005Z" fill="#E4897B"/>
<path d="M345.295 348.659C348.995 350.151 360.619 341.827 356.646 332.242C356.646 332.242 360.619 325.831 359.19 319.63C357.76 313.429 353.094 311.558 348.68 313.576C344.77 315.342 345.19 317.549 345.19 317.549C345.19 317.549 326.272 322.51 331.443 329.762C324.78 339.347 340.65 346.83 345.295 348.659Z" fill="#263238"/>
<path d="M353.535 334.428C354.368 336.355 355.807 337.956 357.634 338.989C360.073 340.314 361.481 338.464 360.976 336.004C360.472 333.545 358.727 330.434 356.205 330.119C353.683 329.804 352.568 332.116 353.535 334.428Z" fill="#E4897B"/>
<path d="M337.518 361.544C336.635 359.778 335.669 357.76 337.813 357.214C339.957 356.667 355.175 355.784 359.526 357.214C358.097 359.589 360.304 362.616 360.304 362.616L337.518 361.544Z" fill="#407BFF"/>
<path opacity="0.5" d="M337.518 361.544C336.635 359.778 335.669 357.76 337.813 357.214C339.957 356.667 355.175 355.784 359.526 357.214C358.097 359.589 360.304 362.616 360.304 362.616L337.518 361.544Z" fill="#FAFAFA"/>
<path d="M294.679 632.702H285.389C285.22 632.703 285.057 632.762 284.927 632.869C284.797 632.977 284.708 633.125 284.674 633.29L282.992 640.857C282.947 641.04 282.944 641.231 282.985 641.415C283.025 641.598 283.108 641.77 283.226 641.917C283.344 642.064 283.494 642.181 283.665 642.26C283.836 642.338 284.023 642.376 284.211 642.371C287.554 642.371 292.409 642.119 296.613 642.119C301.553 642.119 305.799 642.392 311.579 642.392C315.09 642.392 316.057 638.861 314.585 638.545C307.922 637.074 302.499 636.927 296.739 633.374C296.126 632.967 295.414 632.735 294.679 632.702Z" fill="#263238"/>
<path d="M354.797 436.691C354.797 436.691 352.148 454.537 348.932 475.052C347.524 483.839 346.01 493.109 344.518 501.685C342.857 511.291 341.239 519.993 339.893 526.131C334.029 552.826 302.898 626.396 302.898 626.396L287.659 623.096C287.659 623.096 309.435 565.859 314.291 528.506C318.054 499.856 325.432 436.67 325.432 436.67L354.797 436.691Z" fill="#263238"/>
<path d="M306.534 621.288L303.697 626.796L286.544 623.075L287.974 617.988L306.534 621.288Z" fill="#407BFF"/>
<path opacity="0.3" d="M306.534 621.288L303.697 626.796L286.544 623.075L287.974 617.988L306.534 621.288Z" fill="black"/>
<path opacity="0.2" d="M348.932 475.052C347.524 483.839 346.01 493.109 344.518 501.685C340.314 484.722 341.68 474.569 341.68 474.569L348.932 475.052Z" fill="black"/>
<path d="M329.888 377.12C325.789 380.988 321.48 385.086 317.57 389.185C313.619 393.198 309.873 397.408 306.346 401.797C304.84 403.973 303.485 406.248 302.289 408.608C300.985 411.151 299.661 413.737 298.4 416.385L290.686 432.318L284.632 430.216C285.935 424.31 287.596 418.55 289.403 412.77C290.349 409.89 291.358 407.01 292.472 404.131C293.647 401.033 295.089 398.044 296.781 395.197C300.197 389.986 304.036 385.065 308.258 380.483C312.342 375.899 316.693 371.561 321.291 367.493L329.888 377.12Z" fill="#DC897C"/>
<path d="M284.127 445.771L287.217 440.285L277.8 437.426C277.269 438.696 277.01 440.062 277.039 441.438C277.068 442.814 277.385 444.168 277.969 445.414L284.127 445.771Z" fill="#E4897B"/>
<path d="M290.665 432.234L284.632 430.279L277.8 437.426L287.217 440.285L290.665 432.234Z" fill="#E4897B"/>
<path d="M473.055 560.982L465.383 566.678C465.249 566.782 465.153 566.927 465.111 567.09C465.069 567.254 465.084 567.427 465.152 567.582L468.305 574.666C468.379 574.839 468.493 574.993 468.637 575.115C468.781 575.237 468.952 575.324 469.135 575.369C469.319 575.414 469.51 575.415 469.694 575.374C469.878 575.332 470.05 575.248 470.196 575.128C472.845 573.026 474.043 571.975 477.406 569.474C479.508 567.94 484.301 564.555 487.18 562.432C490.06 560.309 488.316 557.177 486.949 557.808C480.832 560.562 477.301 560.856 474.484 560.583C473.975 560.537 473.467 560.679 473.055 560.982Z" fill="#263238"/>
<path d="M326.231 362.343C318.054 361.839 305.988 379.516 305.988 379.516L317.886 395.765C323.107 392.719 327.452 388.374 330.498 383.153C336.152 373.61 334.575 362.869 326.231 362.343Z" fill="#407BFF"/>
<path opacity="0.6" d="M326.231 362.343C318.054 361.839 305.988 379.516 305.988 379.516L317.886 395.765C323.107 392.719 327.452 388.374 330.498 383.153C336.152 373.61 334.575 362.869 326.231 362.343Z" fill="#FAFAFA"/>
<path opacity="0.2" d="M328.543 378.654C323.182 381.534 319.609 388.618 317.36 395.029L317.885 395.765C323.107 392.719 327.452 388.374 330.497 383.153C330.834 382.606 331.149 382.018 331.443 381.45L328.543 378.654Z" fill="black"/>
<path d="M374.618 361.039C374.618 361.039 379.516 373.357 370.94 436.711H325.432C325.116 429.712 329.509 395.617 322.762 362.7C327.794 361.724 332.885 361.078 338.001 360.766C343.824 360.493 363.225 356.562 368.354 357.046C375.102 357.634 374.618 361.039 374.618 361.039Z" fill="#407BFF"/>
<path opacity="0.6" d="M375.69 388.975C375.144 400.179 373.778 415.608 370.94 436.691H325.432C325.116 429.691 329.509 395.597 322.762 362.679C327.794 361.703 332.885 361.057 338.001 360.746C343.824 360.472 363.225 356.542 368.354 357.025C375.102 357.635 374.66 361.04 374.66 361.04C374.66 361.04 375.69 363.625 375.964 372.517C376.069 376.574 376.048 381.934 375.69 388.975Z" fill="#FAFAFA"/>
<path d="M369.09 433.012L378.087 454.032C378.087 454.032 421.661 459.497 434.021 474.485C446.381 489.472 469.755 550.283 469.755 550.283L458.11 560.183C458.11 560.183 424.688 498.721 415.334 491.301C405.98 483.881 352.737 483.902 340.839 479.466C328.942 475.031 325.516 436.628 325.516 436.628L369.09 433.012Z" fill="#263238"/>
<path d="M455.63 559.027L469.671 548.265L471.479 551.733L458.026 562.348L455.63 559.027Z" fill="#407BFF"/>
<path opacity="0.3" d="M455.63 559.027L469.671 548.265L471.479 551.733L458.026 562.348L455.63 559.027Z" fill="black"/>
<path d="M359.442 322.657C359.442 322.657 358.916 310.172 352.316 309.751C345.716 309.331 340.524 315.3 340.524 315.3C339.885 314.504 339.075 313.86 338.155 313.416C337.235 312.972 336.227 312.74 335.206 312.736C331.464 312.526 324.948 318.895 324.948 318.895C324.948 318.895 333.083 313.892 336.509 316.183C336.509 316.183 327.281 318.748 324.948 324.591C323.947 327.56 322.295 330.268 320.114 332.516H324.948L321.774 337.918C321.774 337.918 328.458 344.371 333.503 343.299L331.885 346.368C331.885 346.368 341.785 349.983 345.821 348.869C349.857 347.755 346.031 327.66 346.031 327.66L359.442 322.657Z" fill="#263238"/>
<path opacity="0.2" d="M375.691 388.975C367.43 383.362 367.556 370.435 367.556 370.435L375.964 372.537C376.069 376.573 376.048 381.933 375.691 388.975Z" fill="black"/>
<path d="M299.493 452.792L243.349 443.354L228.824 486.571L238.115 503.45L299.409 511.522L311.832 464.437L299.493 452.792Z" fill="#407BFF"/>
<path opacity="0.4" d="M228.824 486.571L232.439 493.15L233.259 494.601L238.115 503.45L299.409 511.522L311.832 464.437L306.556 459.476L304.937 457.942L299.514 452.792L243.349 443.354L228.824 486.571Z" fill="black"/>
<path opacity="0.2" d="M311.832 464.437L256.255 455.798L243.349 443.354L299.514 452.792L311.832 464.437Z" fill="white"/>
<path opacity="0.1" d="M256.255 455.798L238.115 503.45L228.824 486.571L243.349 443.354L256.255 455.798Z" fill="white"/>
<path d="M232.439 493.15L233.259 494.601L250.054 449.975L306.556 459.476L304.937 457.942L249.045 448.987L232.439 493.15Z" fill="#263238"/>
<path d="M287.596 455.356L284.758 452.729L270.612 450.165L273.092 453.023L287.596 455.356Z" fill="#263238"/>
<path d="M293.061 456.408C293.061 456.408 293.712 441.567 293.313 440.58C292.914 439.592 273.008 436.376 271.515 436.06C270.023 435.745 263.465 450.207 263.465 450.207L264.6 451.951L268.362 452.456C268.362 452.456 273.134 439.991 273.617 439.676C279.071 440.256 284.489 441.14 289.845 442.324C290.265 442.66 288.626 453.99 288.626 453.99L289.908 455.84L293.061 456.408Z" fill="#263238"/>
<path d="M232.628 479.992L236.832 485.394L237.232 484.322L240.406 475.914L240.784 474.905L241.457 473.097C241.457 473.097 240.259 474.442 238.619 475.977C236.919 477.712 234.88 479.079 232.628 479.992Z" fill="#407BFF"/>
<path opacity="0.2" d="M233.995 480.391L237.127 484.322L240.301 475.914L240.679 474.905C238.937 477.256 236.641 479.141 233.995 480.391Z" fill="white"/>
<path opacity="0.2" d="M238.514 475.956H240.301L241.352 473.14C241.352 473.14 240.153 474.422 238.514 475.956Z" fill="black"/>
<path d="M231.094 469.419L230.316 477.028C233.458 475.593 236.955 475.124 240.364 475.683L240.763 474.632L243.202 468.095L243.475 467.422C239.245 467.006 234.979 467.694 231.094 469.419Z" fill="#407BFF"/>
<path d="M239.082 456.513C240.55 459.375 242.482 461.974 244.799 464.206L245.093 463.407L245.85 461.305L247.111 457.837L247.721 456.156L247.889 455.672C246.882 454.131 246.01 452.507 245.282 450.816L239.082 456.513Z" fill="#407BFF"/>
<path d="M251.946 446.717C252.712 447.917 253.307 449.219 253.711 450.585L254.594 450.732L255.813 450.921L257.768 451.279L259.639 451.594L260.291 451.699C260.258 448.78 259.167 445.972 257.222 443.795L251.946 446.717Z" fill="#407BFF"/>
<path opacity="0.2" d="M253.123 446.928C253.75 448.139 254.244 449.414 254.594 450.732L255.814 450.922C255.711 450.761 255.644 450.58 255.619 450.391C255.593 450.203 255.61 450.01 255.666 449.829C255.721 449.663 255.808 449.509 255.922 449.377C256.037 449.244 256.176 449.136 256.332 449.058C256.488 448.98 256.659 448.933 256.833 448.921C257.007 448.909 257.182 448.932 257.348 448.988C257.513 449.04 257.666 449.125 257.799 449.237C257.931 449.349 258.039 449.487 258.117 449.641C258.196 449.796 258.242 449.965 258.254 450.138C258.267 450.311 258.244 450.484 258.189 450.648C258.112 450.894 257.966 451.113 257.768 451.279L259.639 451.594C259.528 449.121 258.671 446.739 257.18 444.763L253.123 446.928Z" fill="white"/>
<path opacity="0.2" d="M231.598 469.713L231.115 475.872C234.218 474.828 237.497 474.407 240.763 474.632L243.201 468.094C239.259 467.616 235.26 468.174 231.598 469.713ZM238.346 469.208C238.598 469.121 238.868 469.092 239.133 469.125C239.398 469.158 239.652 469.251 239.876 469.398C240.099 469.545 240.286 469.741 240.421 469.971C240.557 470.201 240.638 470.46 240.658 470.726C240.678 470.993 240.636 471.26 240.537 471.508C240.437 471.756 240.281 471.978 240.082 472.156C239.883 472.334 239.646 472.465 239.389 472.537C239.131 472.609 238.861 472.621 238.598 472.572C238.346 472.659 238.076 472.688 237.811 472.655C237.546 472.622 237.292 472.529 237.068 472.382C236.845 472.235 236.658 472.039 236.523 471.809C236.387 471.579 236.306 471.32 236.286 471.054C236.266 470.787 236.308 470.52 236.407 470.272C236.507 470.024 236.663 469.802 236.862 469.624C237.061 469.446 237.298 469.316 237.555 469.243C237.813 469.171 238.083 469.159 238.346 469.208Z" fill="white"/>
<path opacity="0.2" d="M240.154 456.849C241.536 459.223 243.194 461.424 245.094 463.407L245.85 461.305C245.42 461.132 245.075 460.798 244.887 460.374C244.698 459.951 244.682 459.471 244.841 459.035C244.973 458.603 245.262 458.236 245.651 458.007C246.04 457.777 246.501 457.702 246.943 457.795L247.553 456.113C246.485 454.932 245.618 453.582 244.988 452.12L240.154 456.849Z" fill="white"/>
<path d="M428.241 321.312L431.478 315.91L438.625 322.678C437.784 323.766 436.725 324.666 435.516 325.321C434.307 325.976 432.975 326.372 431.604 326.483L428.241 321.312Z" fill="#E4897B"/>
<path d="M436.48 308.679L441.546 315.804L438.624 322.678L431.478 315.91L436.48 308.679Z" fill="#E4897B"/>
<path d="M372.306 358.097C378.123 356.904 383.876 355.416 389.543 353.641C395.002 352.022 400.241 349.734 405.14 346.83C405.587 346.551 406.015 346.242 406.422 345.906L407.872 344.56C408.881 343.593 409.974 342.458 410.92 341.449C412.917 339.221 414.977 336.93 416.953 334.576C421.01 329.909 424.962 325.054 429.039 320.324L434.357 323.856C431.436 329.552 428.199 334.975 424.772 340.377C423.028 343.047 421.241 345.737 419.265 348.365C418.277 349.668 417.163 350.992 416.112 352.317C415.566 352.968 414.872 353.641 414.262 354.314C413.511 355.058 412.718 355.76 411.887 356.416C406.306 360.42 400.165 363.579 393.663 365.79C387.445 368.04 381.046 369.749 374.535 370.898L372.306 358.097Z" fill="#DC897C"/>
<path d="M369.595 376.468C378.444 384.141 397.888 370.982 397.888 370.982L390.131 351.833C382.996 352.665 375.958 354.178 369.111 356.352C356.815 360.535 362.826 370.625 369.595 376.468Z" fill="#407BFF"/>
<path opacity="0.6" d="M369.595 376.468C378.444 384.141 397.888 370.982 397.888 370.982L390.131 351.833C382.996 352.665 375.958 354.178 369.111 356.352C356.815 360.535 362.826 370.625 369.595 376.468Z" fill="#FAFAFA"/>
</svg>
