<svg width="30" height="31" viewBox="0 0 30 31" fill="none" xmlns="http://www.w3.org/2000/svg">
<path d="M25.6055 0.476562H4.39453C1.97159 0.476562 0 2.44815 0 4.87109V26.082C0 28.505 1.97159 30.4766 4.39453 30.4766H25.6055C28.0284 30.4766 30 28.505 30 26.082V4.87109C30 2.44815 28.0284 0.476562 25.6055 0.476562ZM10.6055 24.2656H7.08984V11.9609H10.6055V24.2656ZM10.6055 10.2031H7.08984V6.6875H10.6055V10.2031ZM22.9102 24.2656H19.3945V17.2344C19.3945 16.2653 18.6058 15.4766 17.6367 15.4766C16.6676 15.4766 15.8789 16.2653 15.8789 17.2344V24.2656H12.3633V11.9609H15.8789V12.6236C16.7999 12.3372 17.3982 11.9609 18.5156 11.9609C20.8999 11.9635 22.9102 14.1024 22.9102 16.6301V24.2656Z" fill="#666666"/>
</svg>
