<svg width="802" height="597" viewBox="0 0 802 597" fill="none" xmlns="http://www.w3.org/2000/svg">
<path d="M801.213 524.634H0V525.035H801.213V524.634Z" fill="#EBEBEB"/>
<path d="M720.932 550.417H667.859V550.818H720.932V550.417Z" fill="#EBEBEB"/>
<path d="M530.756 554.776H516.831V555.177H530.756V554.776Z" fill="#EBEBEB"/>
<path d="M666.257 535.547H635.506V535.948H666.257V535.547Z" fill="#EBEBEB"/>
<path d="M153.272 538.239H84.0632V538.64H153.272V538.239Z" fill="#EBEBEB"/>
<path d="M177.693 538.239H167.55V538.64H177.693V538.239Z" fill="#EBEBEB"/>
<path d="M360.786 545.001H210.671V545.402H360.786V545.001Z" fill="#EBEBEB"/>
<path d="M379.775 453.166H70.3626C67.9387 453.162 65.6155 452.196 63.903 450.481C62.1906 448.765 61.2288 446.44 61.2288 444.016V9.06973C61.2499 6.65972 62.221 4.35536 63.9312 2.65717C65.6414 0.958985 67.9525 0.00412847 70.3626 0H379.775C382.202 0 384.529 0.964 386.245 2.67993C387.961 4.39586 388.925 6.72316 388.925 9.14985V444.016C388.925 446.443 387.961 448.77 386.245 450.486C384.529 452.202 382.202 453.166 379.775 453.166ZM70.3626 0.320487C68.0449 0.324731 65.8236 1.24839 64.1863 2.88874C62.549 4.52908 61.6294 6.75206 61.6294 9.06973V444.016C61.6294 446.334 62.549 448.557 64.1863 450.197C65.8236 451.838 68.0449 452.761 70.3626 452.766H379.775C382.094 452.761 384.317 451.838 385.957 450.198C387.597 448.558 388.52 446.335 388.524 444.016V9.06973C388.52 6.75059 387.597 4.52764 385.957 2.88776C384.317 1.24787 382.094 0.324722 379.775 0.320487H70.3626Z" fill="#EBEBEB"/>
<path d="M726.396 453.166H416.967C414.542 453.162 412.217 452.197 410.502 450.482C408.787 448.767 407.822 446.442 407.818 444.016V9.06973C407.843 6.65826 408.817 4.35392 410.53 2.65617C412.243 0.958425 414.556 0.00408345 416.967 0H726.396C728.803 0.00833982 731.11 0.96506 732.817 2.6628C734.524 4.36053 735.493 6.66249 735.514 9.06973V444.016C735.514 446.437 734.554 448.76 732.845 450.475C731.136 452.19 728.817 453.158 726.396 453.166ZM416.967 0.320487C414.648 0.324722 412.425 1.24787 410.785 2.88776C409.145 4.52764 408.222 6.75059 408.218 9.06973V444.016C408.222 446.335 409.145 448.558 410.785 450.198C412.425 451.838 414.648 452.761 416.967 452.766H726.396C728.715 452.761 730.938 451.838 732.578 450.198C734.218 448.558 735.141 446.335 735.145 444.016V9.06973C735.141 6.75059 734.218 4.52764 732.578 2.88776C730.938 1.24787 728.715 0.324722 726.396 0.320487H416.967Z" fill="#EBEBEB"/>
<path d="M708.048 522.599V443.568H671.577V370.289H666.433V412.304H652.396V400.687H627.158V360.466H622.479V311.303H618.729V359.568H609.851V431.069H593.01V359.568H562.628V420.028H530.724V346.749H525.58V388.749H511.543V377.131H486.304V336.91H481.625V287.764H477.876V336.029H468.998V407.513H452.173V336.029H421.775V405.19H401.28V364.969H396.601V315.806H392.867V364.071H383.973V435.572H367.148V364.071H336.75V435.572H321.783V443.568H295.584V370.289H290.44V412.304H276.403V400.687H251.164V360.466H246.485V311.303H242.736V359.568H234.595V355.546H204.197V359.568H187.356V355.546H178.478V307.281H174.745V356.444H170.066V396.649H144.811V408.266H130.79V366.267H125.646V439.546H89.175V522.599H708.048Z" fill="#EBEBEB"/>
<path d="M238.012 154.894C260.734 145.482 271.524 119.433 262.112 96.7109C252.7 73.989 226.651 63.1989 203.929 72.6107C181.207 82.0224 170.417 108.072 179.829 130.794C189.24 153.516 215.29 164.306 238.012 154.894Z" fill="#FAFAFA"/>
<path d="M197.884 113.259C197.881 112.053 197.598 110.864 197.055 109.787C196.513 108.709 195.727 107.773 194.759 107.053C193.791 106.332 192.669 105.848 191.481 105.637C190.293 105.427 189.073 105.496 187.916 105.84C188.262 103.511 188.102 101.135 187.445 98.874C186.788 96.6129 185.651 94.5201 184.112 92.7387C182.572 90.9573 180.666 89.5291 178.524 88.5518C176.382 87.5745 174.054 87.071 171.7 87.0758C170.689 87.0742 169.68 87.1708 168.687 87.3643C167.076 84.7107 164.646 82.6524 161.764 81.4993C158.882 80.3461 155.703 80.1604 152.706 80.9702C149.709 81.78 147.056 83.5415 145.147 85.9894C143.237 88.4373 142.175 91.4392 142.119 94.5431H141.879C138.377 94.5431 135.018 95.9343 132.542 98.4105C130.066 100.887 128.675 104.245 128.675 107.747C128.675 111.249 130.066 114.608 132.542 117.084C135.018 119.56 138.377 120.951 141.879 120.951H190.352C192.362 120.901 194.272 120.07 195.679 118.634C197.085 117.197 197.876 115.269 197.884 113.259Z" fill="#F0F0F0"/>
<path d="M685.486 220.51C685.484 219.304 685.2 218.114 684.658 217.037C684.115 215.959 683.329 215.023 682.361 214.303C681.394 213.583 680.271 213.098 679.083 212.888C677.896 212.677 676.675 212.747 675.519 213.091C675.865 210.762 675.704 208.386 675.047 206.124C674.391 203.863 673.254 201.771 671.714 199.989C670.175 198.208 668.269 196.78 666.127 195.802C663.985 194.825 661.657 194.321 659.302 194.326C658.287 194.327 657.273 194.418 656.274 194.599C654.647 191.959 652.208 189.918 649.323 188.783C646.437 187.648 643.262 187.48 640.272 188.303C637.283 189.127 634.642 190.898 632.745 193.351C630.848 195.804 629.799 198.805 629.754 201.906H629.513C626.011 201.906 622.653 203.297 620.177 205.773C617.7 208.249 616.309 211.608 616.309 215.11C616.309 218.612 617.7 221.97 620.177 224.446C622.653 226.923 626.011 228.314 629.513 228.314H677.987C680.01 228.255 681.929 227.404 683.332 225.945C684.734 224.486 685.508 222.534 685.486 220.51Z" fill="#F0F0F0"/>
<path d="M456.227 102.956C456.219 101.044 456.661 99.1569 457.516 97.4468C458.37 95.7366 459.615 94.2511 461.149 93.1099C462.683 91.9687 464.464 91.2037 466.348 90.8765C468.231 90.5493 470.166 90.6691 471.995 91.2261C471.815 89.979 471.724 88.7206 471.722 87.4604C471.717 83.6497 472.554 79.8848 474.171 76.4344C475.789 72.984 478.148 69.9332 481.081 67.4996C484.013 65.0661 487.447 63.3097 491.136 62.3559C494.826 61.4021 498.68 61.2744 502.425 61.9819C504.976 57.7735 508.829 54.5103 513.399 52.6857C517.97 50.8611 523.011 50.5742 527.759 51.8685C532.507 53.1629 536.705 55.9679 539.717 59.8597C542.73 63.7514 544.393 68.5182 544.456 73.4392H544.825C550.365 73.4392 555.678 75.6399 559.595 79.5571C563.512 83.4742 565.713 88.7871 565.713 94.3268C565.713 99.8666 563.512 105.179 559.595 109.097C555.678 113.014 550.365 115.214 544.825 115.214H468.133C464.942 115.127 461.911 113.796 459.687 111.506C457.463 109.216 456.221 106.148 456.227 102.956Z" fill="#F0F0F0"/>
<path d="M229.916 236.31C229.914 234.011 230.449 231.744 231.48 229.69C232.51 227.636 234.007 225.851 235.851 224.479C237.695 223.107 239.835 222.185 242.099 221.788C244.363 221.391 246.688 221.53 248.889 222.193C248.663 220.697 248.55 219.186 248.552 217.674C248.552 209.395 251.841 201.455 257.695 195.601C263.549 189.747 271.489 186.458 279.768 186.458C281.692 186.463 283.612 186.64 285.504 186.987C288.562 181.9 293.198 177.951 298.706 175.74C304.214 173.529 310.294 173.178 316.02 174.739C321.747 176.301 326.806 179.69 330.43 184.392C334.053 189.093 336.041 194.849 336.093 200.784H336.51C339.864 200.699 343.201 201.287 346.324 202.512C349.448 203.737 352.294 205.575 354.697 207.917C357.099 210.259 359.008 213.059 360.311 216.15C361.615 219.242 362.286 222.563 362.286 225.918C362.286 229.273 361.615 232.594 360.311 235.686C359.008 238.778 357.099 241.577 354.697 243.919C352.294 246.262 349.448 248.099 346.324 249.324C343.201 250.549 339.864 251.137 336.51 251.052H244.21C240.377 250.94 236.739 249.336 234.07 246.583C231.4 243.83 229.91 240.144 229.916 236.31Z" fill="#F0F0F0"/>
<path d="M295.007 136.447C295.007 135.172 294.5 133.949 293.599 133.047C292.697 132.146 291.474 131.639 290.199 131.639C289.732 131.634 289.266 131.704 288.821 131.848C288.891 131.354 288.929 130.856 288.933 130.357C288.933 127.654 287.86 125.062 285.949 123.151C284.037 121.24 281.445 120.166 278.742 120.166C278.113 120.168 277.486 120.227 276.867 120.342C275.863 118.691 274.348 117.41 272.553 116.695C270.757 115.979 268.777 115.867 266.912 116.376C265.047 116.884 263.398 117.985 262.213 119.513C261.029 121.041 260.374 122.912 260.346 124.845H260.202C258.026 124.845 255.939 125.709 254.401 127.248C252.862 128.787 251.998 130.874 251.998 133.049C251.998 135.225 252.862 137.312 254.401 138.851C255.939 140.39 258.026 141.254 260.202 141.254H290.344C291.593 141.216 292.779 140.693 293.65 139.796C294.521 138.898 295.007 137.697 295.007 136.447Z" fill="#F0F0F0"/>
<path d="M119.733 282.588C119.733 281.313 120.24 280.09 121.141 279.189C122.043 278.287 123.266 277.781 124.541 277.781C125.012 277.779 125.481 277.844 125.935 277.973C125.856 277.485 125.819 276.992 125.822 276.499C125.822 275.16 126.086 273.835 126.598 272.599C127.11 271.362 127.861 270.239 128.807 269.292C129.754 268.346 130.877 267.595 132.114 267.083C133.35 266.571 134.676 266.307 136.014 266.307C136.643 266.309 137.27 266.368 137.889 266.483C138.893 264.832 140.408 263.552 142.203 262.836C143.999 262.121 145.979 262.008 147.844 262.517C149.709 263.025 151.358 264.126 152.543 265.654C153.727 267.182 154.382 269.053 154.41 270.986H154.554C156.73 270.986 158.817 271.851 160.355 273.389C161.894 274.928 162.758 277.015 162.758 279.191C162.758 281.367 161.894 283.453 160.355 284.992C158.817 286.531 156.73 287.395 154.554 287.395H124.412C123.16 287.362 121.97 286.841 121.096 285.943C120.222 285.045 119.733 283.841 119.733 282.588Z" fill="#F0F0F0"/>
<path d="M570.8 298.292C570.8 297.017 571.307 295.794 572.208 294.892C573.11 293.991 574.333 293.484 575.608 293.484C576.079 293.483 576.548 293.548 577.002 293.677C576.923 293.189 576.886 292.696 576.89 292.202C576.89 289.499 577.963 286.907 579.875 284.996C581.786 283.085 584.378 282.011 587.081 282.011C587.71 282.013 588.338 282.072 588.956 282.187C589.96 280.536 591.475 279.255 593.27 278.54C595.066 277.824 597.046 277.712 598.911 278.221C600.776 278.729 602.425 279.83 603.61 281.358C604.794 282.886 605.449 284.757 605.477 286.69H605.621C607.797 286.69 609.884 287.554 611.422 289.093C612.961 290.632 613.825 292.719 613.825 294.894C613.825 297.07 612.961 299.157 611.422 300.696C609.884 302.235 607.797 303.099 605.621 303.099H575.479C574.227 303.065 573.037 302.544 572.163 301.646C571.289 300.748 570.8 299.545 570.8 298.292Z" fill="#F0F0F0"/>
<path d="M400.607 597C572.198 597 711.301 588.879 711.301 578.86C711.301 568.842 572.198 560.721 400.607 560.721C229.015 560.721 89.9121 568.842 89.9121 578.86C89.9121 588.879 229.015 597 400.607 597Z" fill="#F5F5F5"/>
<path d="M623.023 105.808L554.52 210.11L551.507 214.709L545.546 217.465L333.513 315.998L354.457 387.771L359.248 404.18L342.647 417.897L199.598 556.907H81.2271L295.247 379.166L282.283 308.595L278.758 289.382L295.327 281.755L521.301 177.709L594.901 86.6592L575.159 82.7493L637.221 56.9983L634.032 124.124L623.023 105.808Z" fill="#263238"/>
<path opacity="0.6" d="M623.023 105.808L554.52 210.11L551.507 214.709L545.546 217.465L333.513 315.998L354.457 387.771L359.248 404.18L342.647 417.897L199.598 556.907H81.2271L295.247 379.166L282.283 308.595L278.758 289.382L295.327 281.755L521.301 177.709L594.901 86.6592L575.159 82.7493L637.221 56.9983L634.032 124.124L623.023 105.808Z" fill="#FAFAFA"/>
<path d="M587.209 550.417H473.757C472.642 550.417 471.738 551.321 471.738 552.436V578.3C471.738 579.415 472.642 580.319 473.757 580.319H587.209C588.324 580.319 589.228 579.415 589.228 578.3V552.436C589.228 551.321 588.324 550.417 587.209 550.417Z" fill="#5769F3"/>
<path opacity="0.2" d="M481.641 552.148H476.994V578.861H481.641V552.148Z" fill="black"/>
<path opacity="0.2" d="M492.201 552.02H488.82V578.732H492.201V552.02Z" fill="black"/>
<path opacity="0.2" d="M501.928 552.148H500.229V578.861H501.928V552.148Z" fill="black"/>
<path opacity="0.2" d="M515.036 552.02H514.187V578.732H515.036V552.02Z" fill="black"/>
<path opacity="0.2" d="M579.325 578.732H583.972V552.02H579.325V578.732Z" fill="black"/>
<path opacity="0.2" d="M568.765 578.861H572.146V552.148H568.765V578.861Z" fill="black"/>
<path opacity="0.2" d="M559.055 578.732H560.737V552.02H559.055V578.732Z" fill="black"/>
<path opacity="0.2" d="M545.931 578.861H546.78V552.148H545.931V578.861Z" fill="black"/>
<path opacity="0.2" d="M530.275 578.861H530.692V552.148H530.275V578.861Z" fill="black"/>
<path opacity="0.2" d="M586.088 554.968H475.119C474.746 554.968 474.387 554.82 474.122 554.555C473.858 554.291 473.709 553.932 473.709 553.558C473.714 553.186 473.863 552.829 474.127 552.566C474.391 552.302 474.747 552.152 475.119 552.148H586.088C586.462 552.148 586.82 552.297 587.085 552.561C587.349 552.826 587.498 553.184 587.498 553.558C587.5 553.744 587.465 553.928 587.395 554.1C587.325 554.272 587.221 554.429 587.089 554.56C586.958 554.692 586.802 554.795 586.63 554.865C586.458 554.936 586.273 554.971 586.088 554.968Z" fill="white"/>
<path d="M590.414 520.596H476.962C475.847 520.596 474.943 521.5 474.943 522.615V548.478C474.943 549.594 475.847 550.498 476.962 550.498H590.414C591.529 550.498 592.433 549.594 592.433 548.478V522.615C592.433 521.5 591.529 520.596 590.414 520.596Z" fill="#5769F3"/>
<path opacity="0.2" d="M484.846 522.327H480.199V549.039H484.846V522.327Z" fill="black"/>
<path opacity="0.2" d="M495.422 522.199H492.041V548.911H495.422V522.199Z" fill="black"/>
<path opacity="0.2" d="M505.133 522.327H503.45V549.039H505.133V522.327Z" fill="black"/>
<path opacity="0.2" d="M518.241 522.199H517.391V548.911H518.241V522.199Z" fill="black"/>
<path opacity="0.2" d="M582.546 548.895H587.193V522.183H582.546V548.895Z" fill="black"/>
<path opacity="0.2" d="M571.97 549.023H575.351V522.311H571.97V549.023Z" fill="black"/>
<path opacity="0.2" d="M562.243 548.895H563.942V522.183H562.243V548.895Z" fill="black"/>
<path opacity="0.2" d="M549.136 549.023H549.985V522.311H549.136V549.023Z" fill="black"/>
<path opacity="0.2" d="M533.48 549.023H533.896V522.311H533.48V549.023Z" fill="black"/>
<path opacity="0.2" d="M589.292 525.147H478.324C477.952 525.143 477.595 524.993 477.332 524.73C477.068 524.466 476.918 524.11 476.914 523.737C476.914 523.363 477.063 523.004 477.327 522.74C477.592 522.475 477.95 522.327 478.324 522.327H589.292C589.478 522.325 589.662 522.36 589.835 522.43C590.007 522.5 590.163 522.604 590.294 522.735C590.426 522.867 590.529 523.023 590.6 523.195C590.67 523.367 590.705 523.551 590.702 523.737C590.702 524.111 590.554 524.47 590.289 524.734C590.025 524.999 589.666 525.147 589.292 525.147Z" fill="white"/>
<path d="M590.414 490.775H476.962C475.847 490.775 474.943 491.679 474.943 492.794V518.657C474.943 519.772 475.847 520.676 476.962 520.676H590.414C591.529 520.676 592.433 519.772 592.433 518.657V492.794C592.433 491.679 591.529 490.775 590.414 490.775Z" fill="#5769F3"/>
<path opacity="0.2" d="M484.846 492.49H480.199V519.202H484.846V492.49Z" fill="black"/>
<path opacity="0.2" d="M495.422 492.362H492.041V519.074H495.422V492.362Z" fill="black"/>
<path opacity="0.2" d="M505.133 492.49H503.45V519.202H505.133V492.49Z" fill="black"/>
<path opacity="0.2" d="M518.241 492.362H517.391V519.074H518.241V492.362Z" fill="black"/>
<path opacity="0.2" d="M582.546 519.074H587.193V492.362H582.546V519.074Z" fill="black"/>
<path opacity="0.2" d="M571.97 519.202H575.351V492.49H571.97V519.202Z" fill="black"/>
<path opacity="0.2" d="M562.243 519.074H563.942V492.362H562.243V519.074Z" fill="black"/>
<path opacity="0.2" d="M549.136 519.202H549.985V492.49H549.136V519.202Z" fill="black"/>
<path opacity="0.2" d="M533.48 519.202H533.896V492.49H533.48V519.202Z" fill="black"/>
<path opacity="0.2" d="M589.292 495.31H478.324C477.95 495.31 477.592 495.161 477.327 494.897C477.063 494.633 476.914 494.274 476.914 493.9C476.918 493.527 477.068 493.171 477.332 492.907C477.595 492.644 477.952 492.494 478.324 492.49H589.292C589.666 492.49 590.025 492.638 590.289 492.903C590.554 493.167 590.702 493.526 590.702 493.9C590.705 494.086 590.67 494.27 590.6 494.442C590.529 494.614 590.426 494.77 590.294 494.902C590.163 495.033 590.007 495.137 589.835 495.207C589.662 495.277 589.478 495.312 589.292 495.31Z" fill="white"/>
<path d="M587.209 460.938H473.757C472.642 460.938 471.738 461.842 471.738 462.957V488.82C471.738 489.935 472.642 490.839 473.757 490.839H587.209C588.324 490.839 589.228 489.935 589.228 488.82V462.957C589.228 461.842 588.324 460.938 587.209 460.938Z" fill="#5769F3"/>
<path opacity="0.2" d="M481.641 462.669H476.994V489.381H481.641V462.669Z" fill="black"/>
<path opacity="0.2" d="M492.201 462.54H488.82V489.253H492.201V462.54Z" fill="black"/>
<path opacity="0.2" d="M501.928 462.669H500.229V489.381H501.928V462.669Z" fill="black"/>
<path opacity="0.2" d="M515.036 462.54H514.187V489.253H515.036V462.54Z" fill="black"/>
<path opacity="0.2" d="M579.325 489.237H583.972V462.524H579.325V489.237Z" fill="black"/>
<path opacity="0.2" d="M568.765 489.365H572.146V462.653H568.765V489.365Z" fill="black"/>
<path opacity="0.2" d="M559.055 489.237H560.737V462.524H559.055V489.237Z" fill="black"/>
<path opacity="0.2" d="M545.931 489.365H546.78V462.653H545.931V489.365Z" fill="black"/>
<path opacity="0.2" d="M530.275 489.365H530.692V462.653H530.275V489.365Z" fill="black"/>
<path opacity="0.2" d="M586.088 465.489H475.119C474.747 465.485 474.391 465.335 474.127 465.071C473.863 464.808 473.714 464.451 473.709 464.079C473.709 463.705 473.858 463.346 474.122 463.082C474.387 462.817 474.746 462.669 475.119 462.669H586.088C586.273 462.666 586.458 462.701 586.63 462.771C586.802 462.842 586.958 462.945 587.089 463.077C587.221 463.208 587.325 463.364 587.395 463.537C587.465 463.709 587.5 463.893 587.498 464.079C587.498 464.453 587.349 464.811 587.085 465.076C586.82 465.34 586.462 465.489 586.088 465.489Z" fill="white"/>
<path d="M582.402 431.117H468.95C467.835 431.117 466.931 432.021 466.931 433.136V458.999C466.931 460.114 467.835 461.018 468.95 461.018H582.402C583.517 461.018 584.421 460.114 584.421 458.999V433.136C584.421 432.021 583.517 431.117 582.402 431.117Z" fill="#5769F3"/>
<path opacity="0.2" d="M476.834 432.831H472.187V459.544H476.834V432.831Z" fill="black"/>
<path opacity="0.2" d="M487.394 432.703H484.013V459.416H487.394V432.703Z" fill="black"/>
<path opacity="0.2" d="M497.105 432.831H495.422V459.544H497.105V432.831Z" fill="black"/>
<path opacity="0.2" d="M510.229 432.703H509.379V459.416H510.229V432.703Z" fill="black"/>
<path opacity="0.2" d="M574.518 459.416H579.165V432.703H574.518V459.416Z" fill="black"/>
<path opacity="0.2" d="M563.942 459.544H567.323V432.831H563.942V459.544Z" fill="black"/>
<path opacity="0.2" d="M554.247 459.416H555.93V432.703H554.247V459.416Z" fill="black"/>
<path opacity="0.2" d="M541.139 459.544H541.989V432.831H541.139V459.544Z" fill="black"/>
<path opacity="0.2" d="M525.468 459.544H525.884V432.831H525.468V459.544Z" fill="black"/>
<path opacity="0.2" d="M581.28 435.652H470.312C470.126 435.654 469.942 435.619 469.77 435.549C469.598 435.479 469.442 435.375 469.31 435.243C469.179 435.112 469.075 434.956 469.005 434.784C468.935 434.612 468.9 434.427 468.902 434.242C468.902 433.868 469.051 433.509 469.315 433.244C469.58 432.98 469.938 432.831 470.312 432.831H581.28C581.654 432.831 582.013 432.98 582.277 433.244C582.542 433.509 582.69 433.868 582.69 434.242C582.693 434.427 582.657 434.612 582.587 434.784C582.517 434.956 582.414 435.112 582.282 435.243C582.151 435.375 581.994 435.479 581.822 435.549C581.65 435.619 581.466 435.654 581.28 435.652Z" fill="white"/>
<path d="M587.209 401.28H473.757C472.642 401.28 471.738 402.184 471.738 403.299V429.162C471.738 430.277 472.642 431.181 473.757 431.181H587.209C588.324 431.181 589.228 430.277 589.228 429.162V403.299C589.228 402.184 588.324 401.28 587.209 401.28Z" fill="#5769F3"/>
<path opacity="0.2" d="M481.641 403.01H476.994V429.723H481.641V403.01Z" fill="black"/>
<path opacity="0.2" d="M492.201 402.882H488.82V429.595H492.201V402.882Z" fill="black"/>
<path opacity="0.2" d="M501.928 403.01H500.229V429.723H501.928V403.01Z" fill="black"/>
<path opacity="0.2" d="M515.036 402.882H514.187V429.595H515.036V402.882Z" fill="black"/>
<path opacity="0.2" d="M579.325 429.578H583.972V402.866H579.325V429.578Z" fill="black"/>
<path opacity="0.2" d="M568.765 429.707H572.146V402.994H568.765V429.707Z" fill="black"/>
<path opacity="0.2" d="M559.055 429.578H560.737V402.866H559.055V429.578Z" fill="black"/>
<path opacity="0.2" d="M545.931 429.707H546.78V402.994H545.931V429.707Z" fill="black"/>
<path opacity="0.2" d="M530.275 429.707H530.692V402.994H530.275V429.707Z" fill="black"/>
<path opacity="0.2" d="M586.088 405.831H475.119C474.746 405.831 474.387 405.682 474.122 405.417C473.858 405.153 473.709 404.794 473.709 404.42C473.709 404.046 473.858 403.688 474.122 403.423C474.387 403.159 474.746 403.01 475.119 403.01H586.088C586.273 403.008 586.458 403.043 586.63 403.113C586.802 403.183 586.958 403.287 587.089 403.418C587.221 403.55 587.325 403.706 587.395 403.878C587.465 404.05 587.5 404.235 587.498 404.42C587.5 404.606 587.465 404.79 587.395 404.963C587.325 405.135 587.221 405.291 587.089 405.422C586.958 405.554 586.802 405.657 586.63 405.728C586.458 405.798 586.273 405.833 586.088 405.831Z" fill="white"/>
<path d="M587.209 371.458H473.757C472.642 371.458 471.738 372.362 471.738 373.478V399.341C471.738 400.456 472.642 401.36 473.757 401.36H587.209C588.324 401.36 589.228 400.456 589.228 399.341V373.478C589.228 372.362 588.324 371.458 587.209 371.458Z" fill="#5769F3"/>
<path opacity="0.2" d="M481.641 373.173H476.994V399.886H481.641V373.173Z" fill="black"/>
<path opacity="0.2" d="M492.201 373.045H488.82V399.757H492.201V373.045Z" fill="black"/>
<path opacity="0.2" d="M501.928 373.173H500.229V399.886H501.928V373.173Z" fill="black"/>
<path opacity="0.2" d="M515.036 373.045H514.187V399.757H515.036V373.045Z" fill="black"/>
<path opacity="0.2" d="M579.325 399.757H583.972V373.045H579.325V399.757Z" fill="black"/>
<path opacity="0.2" d="M568.765 399.885H572.146V373.173H568.765V399.885Z" fill="black"/>
<path opacity="0.2" d="M559.055 399.757H560.737V373.045H559.055V399.757Z" fill="black"/>
<path opacity="0.2" d="M545.931 399.885H546.78V373.173H545.931V399.885Z" fill="black"/>
<path opacity="0.2" d="M530.275 399.885H530.692V373.173H530.275V399.885Z" fill="black"/>
<path opacity="0.2" d="M586.088 376.009H475.119C474.744 376.005 474.385 375.853 474.121 375.586C473.857 375.319 473.709 374.959 473.709 374.583C473.714 374.211 473.863 373.854 474.127 373.591C474.391 373.327 474.747 373.177 475.119 373.173H586.088C586.462 373.173 586.82 373.322 587.085 373.586C587.349 373.851 587.498 374.209 587.498 374.583C587.5 374.77 587.465 374.955 587.395 375.128C587.325 375.301 587.222 375.458 587.09 375.591C586.959 375.723 586.803 375.829 586.631 375.901C586.459 375.972 586.274 376.009 586.088 376.009Z" fill="white"/>
<path d="M592.016 341.621H478.565C477.45 341.621 476.546 342.525 476.546 343.64V369.503C476.546 370.619 477.45 371.522 478.565 371.522H592.016C593.132 371.522 594.036 370.619 594.036 369.503V343.64C594.036 342.525 593.132 341.621 592.016 341.621Z" fill="#5769F3"/>
<path opacity="0.2" d="M486.449 343.352H481.802V370.064H486.449V343.352Z" fill="black"/>
<path opacity="0.2" d="M497.025 343.224H493.643V369.936H497.025V343.224Z" fill="black"/>
<path opacity="0.2" d="M506.751 343.352H505.053V370.064H506.751V343.352Z" fill="black"/>
<path opacity="0.2" d="M519.843 343.224H518.994V369.936H519.843V343.224Z" fill="black"/>
<path opacity="0.2" d="M584.149 369.92H588.796V343.208H584.149V369.92Z" fill="black"/>
<path opacity="0.2" d="M573.573 370.064H576.954V343.352H573.573V370.064Z" fill="black"/>
<path opacity="0.2" d="M563.862 369.92H565.544V343.208H563.862V369.92Z" fill="black"/>
<path opacity="0.2" d="M550.738 370.064H551.587V343.352H550.738V370.064Z" fill="black"/>
<path opacity="0.2" d="M535.098 370.064H535.515V343.352H535.098V370.064Z" fill="black"/>
<path opacity="0.2" d="M590.895 346.124H479.943C479.756 346.126 479.571 346.091 479.398 346.021C479.225 345.952 479.068 345.848 478.935 345.717C478.803 345.586 478.697 345.429 478.625 345.257C478.554 345.085 478.517 344.901 478.517 344.714C478.517 344.527 478.554 344.343 478.625 344.171C478.697 343.999 478.803 343.842 478.935 343.711C479.068 343.58 479.225 343.477 479.398 343.407C479.571 343.337 479.756 343.302 479.943 343.304H590.895C591.081 343.302 591.266 343.337 591.439 343.407C591.612 343.477 591.77 343.58 591.902 343.711C592.035 343.842 592.14 343.999 592.212 344.171C592.284 344.343 592.321 344.527 592.321 344.714C592.321 344.901 592.284 345.085 592.212 345.257C592.14 345.429 592.035 345.586 591.902 345.717C591.77 345.848 591.612 345.952 591.439 346.021C591.266 346.091 591.081 346.126 590.895 346.124Z" fill="white"/>
<path d="M584.004 311.8H470.553C469.437 311.8 468.534 312.704 468.534 313.819V339.682C468.534 340.797 469.437 341.701 470.553 341.701H584.004C585.119 341.701 586.023 340.797 586.023 339.682V313.819C586.023 312.704 585.119 311.8 584.004 311.8Z" fill="#5769F3"/>
<path opacity="0.2" d="M478.436 313.531H473.789V340.243H478.436V313.531Z" fill="black"/>
<path opacity="0.2" d="M488.997 313.387H485.615V340.099H488.997V313.387Z" fill="black"/>
<path opacity="0.2" d="M498.707 313.531H497.025V340.243H498.707V313.531Z" fill="black"/>
<path opacity="0.2" d="M511.831 313.387H510.982V340.099H511.831V313.387Z" fill="black"/>
<path opacity="0.2" d="M576.12 340.099H580.767V313.387H576.12V340.099Z" fill="black"/>
<path opacity="0.2" d="M565.544 340.227H568.926V313.515H565.544V340.227Z" fill="black"/>
<path opacity="0.2" d="M555.85 340.099H557.532V313.387H555.85V340.099Z" fill="black"/>
<path opacity="0.2" d="M542.726 340.227H543.575V313.515H542.726V340.227Z" fill="black"/>
<path opacity="0.2" d="M527.07 340.227H527.487V313.515H527.07V340.227Z" fill="black"/>
<path opacity="0.2" d="M582.883 316.351H471.915C471.542 316.347 471.186 316.197 470.922 315.933C470.659 315.67 470.509 315.314 470.505 314.941C470.505 314.567 470.653 314.208 470.918 313.944C471.182 313.679 471.541 313.531 471.915 313.531H582.883C583.068 313.529 583.253 313.564 583.425 313.634C583.597 313.704 583.753 313.808 583.885 313.939C584.016 314.07 584.12 314.227 584.19 314.399C584.26 314.571 584.295 314.755 584.293 314.941C584.293 315.315 584.144 315.674 583.88 315.938C583.615 316.202 583.257 316.351 582.883 316.351Z" fill="white"/>
<path d="M580.8 281.963H467.348C466.233 281.963 465.329 282.867 465.329 283.982V309.845C465.329 310.96 466.233 311.864 467.348 311.864H580.8C581.915 311.864 582.819 310.96 582.819 309.845V283.982C582.819 282.867 581.915 281.963 580.8 281.963Z" fill="#5769F3"/>
<path opacity="0.2" d="M475.232 283.694H470.585V310.406H475.232V283.694Z" fill="black"/>
<path opacity="0.2" d="M485.792 283.565H482.41V310.278H485.792V283.565Z" fill="black"/>
<path opacity="0.2" d="M495.518 283.694H493.82V310.406H495.518V283.694Z" fill="black"/>
<path opacity="0.2" d="M508.626 283.565H507.777V310.278H508.626V283.565Z" fill="black"/>
<path opacity="0.2" d="M572.916 310.262H577.563V283.549H572.916V310.262Z" fill="black"/>
<path opacity="0.2" d="M562.34 310.406H565.721V283.694H562.34V310.406Z" fill="black"/>
<path opacity="0.2" d="M552.629 310.262H554.311V283.549H552.629V310.262Z" fill="black"/>
<path opacity="0.2" d="M539.537 310.406H540.386V283.694H539.537V310.406Z" fill="black"/>
<path opacity="0.2" d="M523.865 310.406H524.282V283.694H523.865V310.406Z" fill="black"/>
<path opacity="0.2" d="M579.678 286.514H468.71C468.524 286.516 468.34 286.481 468.168 286.411C467.996 286.341 467.839 286.237 467.708 286.106C467.577 285.974 467.473 285.818 467.403 285.646C467.333 285.474 467.298 285.289 467.3 285.104C467.298 284.918 467.333 284.734 467.403 284.562C467.473 284.39 467.577 284.233 467.708 284.102C467.839 283.97 467.996 283.867 468.168 283.797C468.34 283.726 468.524 283.691 468.71 283.694H579.678C579.864 283.691 580.048 283.726 580.22 283.797C580.392 283.867 580.548 283.97 580.68 284.102C580.811 284.233 580.915 284.39 580.985 284.562C581.055 284.734 581.09 284.918 581.088 285.104C581.09 285.289 581.055 285.474 580.985 285.646C580.915 285.818 580.811 285.974 580.68 286.106C580.548 286.237 580.392 286.341 580.22 286.411C580.048 286.481 579.864 286.516 579.678 286.514Z" fill="white"/>
<path d="M442.911 550.417H329.459C328.344 550.417 327.44 551.321 327.44 552.436V578.3C327.44 579.415 328.344 580.319 329.459 580.319H442.911C444.026 580.319 444.93 579.415 444.93 578.3V552.436C444.93 551.321 444.026 550.417 442.911 550.417Z" fill="#5769F3"/>
<path opacity="0.2" d="M337.327 552.148H332.68V578.861H337.327V552.148Z" fill="black"/>
<path opacity="0.2" d="M347.903 552.02H344.522V578.732H347.903V552.02Z" fill="black"/>
<path opacity="0.2" d="M357.614 552.148H355.931V578.861H357.614V552.148Z" fill="black"/>
<path opacity="0.2" d="M370.721 552.02H369.872V578.732H370.721V552.02Z" fill="black"/>
<path opacity="0.2" d="M435.027 578.732H439.674V552.02H435.027V578.732Z" fill="black"/>
<path opacity="0.2" d="M424.451 578.861H427.832V552.148H424.451V578.861Z" fill="black"/>
<path opacity="0.2" d="M414.74 578.732H416.423V552.02H414.74V578.732Z" fill="black"/>
<path opacity="0.2" d="M401.632 578.861H402.481V552.148H401.632V578.861Z" fill="black"/>
<path opacity="0.2" d="M385.977 578.861H386.393V552.148H385.977V578.861Z" fill="black"/>
<path opacity="0.2" d="M441.789 554.968H330.821C330.635 554.971 330.451 554.936 330.279 554.865C330.107 554.795 329.95 554.692 329.819 554.56C329.688 554.429 329.584 554.272 329.514 554.1C329.444 553.928 329.409 553.744 329.411 553.558C329.411 553.184 329.559 552.826 329.824 552.561C330.088 552.297 330.447 552.148 330.821 552.148H441.789C442.162 552.152 442.518 552.302 442.782 552.566C443.045 552.829 443.195 553.186 443.199 553.558C443.199 553.932 443.051 554.291 442.786 554.555C442.522 554.82 442.163 554.968 441.789 554.968Z" fill="white"/>
<path d="M438.087 520.596H324.636C323.521 520.596 322.617 521.5 322.617 522.615V548.478C322.617 549.594 323.521 550.498 324.636 550.498H438.087C439.203 550.498 440.106 549.594 440.106 548.478V522.615C440.106 521.5 439.203 520.596 438.087 520.596Z" fill="#5769F3"/>
<path opacity="0.2" d="M332.519 522.327H327.872V549.039H332.519V522.327Z" fill="black"/>
<path opacity="0.2" d="M343.096 522.199H339.714V548.911H343.096V522.199Z" fill="black"/>
<path opacity="0.2" d="M352.806 522.327H351.124V549.039H352.806V522.327Z" fill="black"/>
<path opacity="0.2" d="M365.914 522.199H365.065V548.911H365.914V522.199Z" fill="black"/>
<path opacity="0.2" d="M430.219 548.895H434.867V522.183H430.219V548.895Z" fill="black"/>
<path opacity="0.2" d="M419.643 549.023H423.025V522.311H419.643V549.023Z" fill="black"/>
<path opacity="0.2" d="M409.933 548.895H411.615V522.183H409.933V548.895Z" fill="black"/>
<path opacity="0.2" d="M396.809 549.023H397.658V522.311H396.809V549.023Z" fill="black"/>
<path opacity="0.2" d="M381.153 549.023H381.57V522.311H381.153V549.023Z" fill="black"/>
<path opacity="0.2" d="M436.966 525.147H325.998C325.625 525.143 325.269 524.993 325.005 524.73C324.742 524.466 324.592 524.11 324.588 523.737C324.588 523.363 324.736 523.004 325.001 522.74C325.265 522.475 325.624 522.327 325.998 522.327H436.966C437.151 522.325 437.336 522.36 437.508 522.43C437.68 522.5 437.836 522.604 437.968 522.735C438.099 522.867 438.203 523.023 438.273 523.195C438.343 523.367 438.378 523.551 438.376 523.737C438.376 524.111 438.227 524.47 437.963 524.734C437.698 524.999 437.34 525.147 436.966 525.147Z" fill="white"/>
<path d="M442.911 490.775H329.459C328.344 490.775 327.44 491.679 327.44 492.794V518.657C327.44 519.772 328.344 520.676 329.459 520.676H442.911C444.026 520.676 444.93 519.772 444.93 518.657V492.794C444.93 491.679 444.026 490.775 442.911 490.775Z" fill="#5769F3"/>
<path opacity="0.2" d="M337.327 492.49H332.68V519.202H337.327V492.49Z" fill="black"/>
<path opacity="0.2" d="M347.903 492.362H344.522V519.074H347.903V492.362Z" fill="black"/>
<path opacity="0.2" d="M357.614 492.49H355.931V519.202H357.614V492.49Z" fill="black"/>
<path opacity="0.2" d="M370.721 492.362H369.872V519.074H370.721V492.362Z" fill="black"/>
<path opacity="0.2" d="M435.027 519.074H439.674V492.362H435.027V519.074Z" fill="black"/>
<path opacity="0.2" d="M424.451 519.202H427.832V492.49H424.451V519.202Z" fill="black"/>
<path opacity="0.2" d="M414.74 519.074H416.423V492.362H414.74V519.074Z" fill="black"/>
<path opacity="0.2" d="M401.632 519.202H402.481V492.49H401.632V519.202Z" fill="black"/>
<path opacity="0.2" d="M385.977 519.202H386.393V492.49H385.977V519.202Z" fill="black"/>
<path opacity="0.2" d="M441.789 495.31H330.821C330.635 495.312 330.451 495.277 330.279 495.207C330.107 495.137 329.95 495.033 329.819 494.902C329.688 494.77 329.584 494.614 329.514 494.442C329.444 494.27 329.409 494.086 329.411 493.9C329.411 493.526 329.559 493.167 329.824 492.903C330.088 492.638 330.447 492.49 330.821 492.49H441.789C442.162 492.494 442.518 492.644 442.782 492.907C443.045 493.171 443.195 493.527 443.199 493.9C443.199 494.274 443.051 494.633 442.786 494.897C442.522 495.161 442.163 495.31 441.789 495.31Z" fill="white"/>
<path d="M439.69 460.938H326.238C325.123 460.938 324.219 461.842 324.219 462.957V488.82C324.219 489.935 325.123 490.839 326.238 490.839H439.69C440.805 490.839 441.709 489.935 441.709 488.82V462.957C441.709 461.842 440.805 460.938 439.69 460.938Z" fill="#5769F3"/>
<path opacity="0.2" d="M334.122 462.669H329.475V489.381H334.122V462.669Z" fill="black"/>
<path opacity="0.2" d="M344.698 462.54H341.317V489.253H344.698V462.54Z" fill="black"/>
<path opacity="0.2" d="M354.409 462.669H352.726V489.381H354.409V462.669Z" fill="black"/>
<path opacity="0.2" d="M367.517 462.54H366.667V489.253H367.517V462.54Z" fill="black"/>
<path opacity="0.2" d="M431.822 489.237H436.469V462.524H431.822V489.237Z" fill="black"/>
<path opacity="0.2" d="M421.246 489.365H424.627V462.653H421.246V489.365Z" fill="black"/>
<path opacity="0.2" d="M411.519 489.237H413.218V462.524H411.519V489.237Z" fill="black"/>
<path opacity="0.2" d="M398.411 489.365H399.261V462.653H398.411V489.365Z" fill="black"/>
<path opacity="0.2" d="M382.772 489.365H383.188V462.653H382.772V489.365Z" fill="black"/>
<path opacity="0.2" d="M438.568 465.489H327.616C327.241 465.489 326.88 465.341 326.613 465.077C326.346 464.813 326.194 464.454 326.19 464.079C326.19 463.892 326.227 463.707 326.299 463.535C326.371 463.363 326.476 463.207 326.609 463.076C326.741 462.945 326.899 462.841 327.072 462.771C327.244 462.701 327.43 462.666 327.616 462.669H438.568C438.755 462.666 438.94 462.701 439.113 462.771C439.286 462.841 439.443 462.945 439.576 463.076C439.708 463.207 439.814 463.363 439.885 463.535C439.957 463.707 439.994 463.892 439.994 464.079C439.99 464.454 439.838 464.813 439.571 465.077C439.304 465.341 438.944 465.489 438.568 465.489Z" fill="white"/>
<path d="M439.69 431.117H326.238C325.123 431.117 324.219 432.021 324.219 433.136V458.999C324.219 460.114 325.123 461.018 326.238 461.018H439.69C440.805 461.018 441.709 460.114 441.709 458.999V433.136C441.709 432.021 440.805 431.117 439.69 431.117Z" fill="#5769F3"/>
<path opacity="0.2" d="M334.122 432.831H329.475V459.544H334.122V432.831Z" fill="black"/>
<path opacity="0.2" d="M344.698 432.703H341.317V459.416H344.698V432.703Z" fill="black"/>
<path opacity="0.2" d="M354.409 432.831H352.726V459.544H354.409V432.831Z" fill="black"/>
<path opacity="0.2" d="M367.517 432.703H366.667V459.416H367.517V432.703Z" fill="black"/>
<path opacity="0.2" d="M431.822 459.416H436.469V432.703H431.822V459.416Z" fill="black"/>
<path opacity="0.2" d="M421.246 459.544H424.627V432.831H421.246V459.544Z" fill="black"/>
<path opacity="0.2" d="M411.519 459.416H413.218V432.703H411.519V459.416Z" fill="black"/>
<path opacity="0.2" d="M398.411 459.544H399.261V432.831H398.411V459.544Z" fill="black"/>
<path opacity="0.2" d="M382.772 459.544H383.188V432.831H382.772V459.544Z" fill="black"/>
<path opacity="0.2" d="M438.568 435.652H327.616C327.43 435.654 327.244 435.619 327.072 435.549C326.899 435.479 326.741 435.376 326.609 435.244C326.476 435.113 326.371 434.957 326.299 434.785C326.227 434.613 326.19 434.428 326.19 434.242C326.194 433.866 326.346 433.507 326.613 433.243C326.88 432.979 327.241 432.831 327.616 432.831H438.568C438.944 432.831 439.304 432.979 439.571 433.243C439.838 433.507 439.99 433.866 439.994 434.242C439.994 434.428 439.957 434.613 439.885 434.785C439.814 434.957 439.708 435.113 439.576 435.244C439.443 435.376 439.286 435.479 439.113 435.549C438.94 435.619 438.755 435.654 438.568 435.652Z" fill="white"/>
<path d="M439.69 401.28H326.238C325.123 401.28 324.219 402.184 324.219 403.299V429.162C324.219 430.277 325.123 431.181 326.238 431.181H439.69C440.805 431.181 441.709 430.277 441.709 429.162V403.299C441.709 402.184 440.805 401.28 439.69 401.28Z" fill="#5769F3"/>
<path opacity="0.2" d="M334.122 403.01H329.475V429.723H334.122V403.01Z" fill="black"/>
<path opacity="0.2" d="M344.698 402.882H341.317V429.595H344.698V402.882Z" fill="black"/>
<path opacity="0.2" d="M354.409 403.01H352.726V429.723H354.409V403.01Z" fill="black"/>
<path opacity="0.2" d="M367.517 402.882H366.667V429.595H367.517V402.882Z" fill="black"/>
<path opacity="0.2" d="M431.822 429.578H436.469V402.866H431.822V429.578Z" fill="black"/>
<path opacity="0.2" d="M421.246 429.707H424.627V402.994H421.246V429.707Z" fill="black"/>
<path opacity="0.2" d="M411.519 429.578H413.218V402.866H411.519V429.578Z" fill="black"/>
<path opacity="0.2" d="M398.411 429.707H399.261V402.994H398.411V429.707Z" fill="black"/>
<path opacity="0.2" d="M382.772 429.707H383.188V402.994H382.772V429.707Z" fill="black"/>
<path opacity="0.2" d="M438.568 405.831H327.616C327.43 405.833 327.244 405.798 327.072 405.728C326.899 405.658 326.741 405.554 326.609 405.423C326.476 405.292 326.371 405.136 326.299 404.964C326.227 404.792 326.19 404.607 326.19 404.42C326.19 404.234 326.227 404.049 326.299 403.877C326.371 403.705 326.476 403.549 326.609 403.418C326.741 403.286 326.899 403.183 327.072 403.113C327.244 403.043 327.43 403.008 327.616 403.01H438.568C438.755 403.008 438.94 403.043 439.113 403.113C439.286 403.183 439.443 403.286 439.576 403.418C439.708 403.549 439.814 403.705 439.885 403.877C439.957 404.049 439.994 404.234 439.994 404.42C439.994 404.607 439.957 404.792 439.885 404.964C439.814 405.136 439.708 405.292 439.576 405.423C439.443 405.554 439.286 405.658 439.113 405.728C438.94 405.798 438.755 405.833 438.568 405.831Z" fill="white"/>
<path d="M441.084 341.301H327.632C326.517 341.301 325.613 342.205 325.613 343.32V369.183C325.613 370.298 326.517 371.202 327.632 371.202H441.084C442.199 371.202 443.103 370.298 443.103 369.183V343.32C443.103 342.205 442.199 341.301 441.084 341.301Z" fill="#5769F3"/>
<path opacity="0.2" d="M335.516 343.031H330.869V369.744H335.516V343.031Z" fill="black"/>
<path opacity="0.2" d="M346.092 342.903H342.711V369.616H346.092V342.903Z" fill="black"/>
<path opacity="0.2" d="M355.803 343.031H354.12V369.744H355.803V343.031Z" fill="black"/>
<path opacity="0.2" d="M368.911 342.903H368.061V369.616H368.911V342.903Z" fill="black"/>
<path opacity="0.2" d="M433.216 369.6H437.863V342.887H433.216V369.6Z" fill="black"/>
<path opacity="0.2" d="M422.64 369.744H426.021V343.031H422.64V369.744Z" fill="black"/>
<path opacity="0.2" d="M412.929 369.6H414.612V342.887H412.929V369.6Z" fill="black"/>
<path opacity="0.2" d="M399.805 369.744H400.655V343.031H399.805V369.744Z" fill="black"/>
<path opacity="0.2" d="M384.166 369.744H384.582V343.031H384.166V369.744Z" fill="black"/>
<path opacity="0.2" d="M439.962 345.852H329.01C328.824 345.854 328.639 345.819 328.466 345.749C328.293 345.679 328.135 345.576 328.003 345.444C327.87 345.313 327.765 345.157 327.693 344.985C327.621 344.813 327.584 344.628 327.584 344.442C327.588 344.066 327.74 343.707 328.007 343.443C328.274 343.179 328.635 343.031 329.01 343.031H439.962C440.338 343.031 440.698 343.179 440.965 343.443C441.232 343.707 441.384 344.066 441.388 344.442C441.388 344.628 441.351 344.813 441.28 344.985C441.208 345.157 441.102 345.313 440.97 345.444C440.837 345.576 440.68 345.679 440.507 345.749C440.334 345.819 440.149 345.854 439.962 345.852Z" fill="white"/>
<path d="M442.911 371.458H329.459C328.344 371.458 327.44 372.362 327.44 373.478V399.341C327.44 400.456 328.344 401.36 329.459 401.36H442.911C444.026 401.36 444.93 400.456 444.93 399.341V373.478C444.93 372.362 444.026 371.458 442.911 371.458Z" fill="#5769F3"/>
<path opacity="0.2" d="M337.327 373.173H332.68V399.886H337.327V373.173Z" fill="black"/>
<path opacity="0.2" d="M347.903 373.045H344.522V399.757H347.903V373.045Z" fill="black"/>
<path opacity="0.2" d="M357.614 373.173H355.931V399.886H357.614V373.173Z" fill="black"/>
<path opacity="0.2" d="M370.721 373.045H369.872V399.757H370.721V373.045Z" fill="black"/>
<path opacity="0.2" d="M435.027 399.757H439.674V373.045H435.027V399.757Z" fill="black"/>
<path opacity="0.2" d="M424.451 399.885H427.832V373.173H424.451V399.885Z" fill="black"/>
<path opacity="0.2" d="M414.74 399.757H416.423V373.045H414.74V399.757Z" fill="black"/>
<path opacity="0.2" d="M401.632 399.885H402.481V373.173H401.632V399.885Z" fill="black"/>
<path opacity="0.2" d="M385.977 399.885H386.393V373.173H385.977V399.885Z" fill="black"/>
<path opacity="0.2" d="M441.789 376.009H330.821C330.634 376.009 330.45 375.972 330.278 375.901C330.105 375.829 329.949 375.723 329.818 375.591C329.687 375.458 329.583 375.301 329.514 375.128C329.444 374.955 329.409 374.77 329.411 374.583C329.411 374.209 329.559 373.851 329.824 373.586C330.088 373.322 330.447 373.173 330.821 373.173H441.789C442.162 373.177 442.518 373.327 442.782 373.591C443.045 373.854 443.195 374.211 443.199 374.583C443.199 374.959 443.051 375.319 442.787 375.586C442.523 375.853 442.164 376.005 441.789 376.009Z" fill="white"/>
<path d="M400.735 322.584L397.145 329.603L393.492 336.734L387.098 334.394L390.303 328.129L394.341 320.245L400.735 322.584Z" fill="#FFC2BC"/>
<path opacity="0.2" d="M400.735 322.584L397.145 329.603L390.303 328.129L394.341 320.245L400.735 322.584Z" fill="black"/>
<path d="M540.37 282.892C540.178 282.894 539.991 282.824 539.846 282.697C539.702 282.57 539.609 282.394 539.585 282.203C539.361 280.601 518.305 123.563 492.89 54.6587C492.839 54.5583 492.809 54.4481 492.804 54.3355C492.798 54.2228 492.816 54.1102 492.857 54.005C492.897 53.8998 492.96 53.8044 493.04 53.725C493.12 53.6456 493.216 53.584 493.322 53.5443C493.427 53.5045 493.54 53.4875 493.653 53.4944C493.765 53.5013 493.875 53.5318 493.975 53.5841C494.075 53.6364 494.163 53.7091 494.233 53.7977C494.303 53.8862 494.353 53.9885 494.381 54.0979C519.875 123.13 540.963 280.425 541.171 282.027C541.199 282.239 541.142 282.454 541.013 282.624C540.885 282.795 540.694 282.909 540.482 282.94L540.37 282.892Z" fill="#263238"/>
<path d="M499.797 278.373L506.607 278.101L507.937 262.301L501.111 262.574L499.797 278.373Z" fill="#FFC2BC"/>
<path d="M507.248 274.496L499.813 274.255C499.677 274.256 499.545 274.3 499.435 274.38C499.326 274.461 499.245 274.574 499.204 274.704L497.601 280.697C497.563 280.842 497.557 280.993 497.585 281.14C497.614 281.288 497.675 281.426 497.764 281.547C497.853 281.667 497.969 281.765 498.102 281.835C498.234 281.904 498.381 281.942 498.531 281.947C501.223 281.947 505.117 281.947 508.498 282.043C512.44 282.171 514.908 282.043 519.587 282.123C522.375 282.203 523.272 279.415 522.103 279.127C516.815 277.797 513.353 278.037 508.867 275.073C508.39 274.736 507.83 274.537 507.248 274.496Z" fill="#263238"/>
<path opacity="0.2" d="M507.937 262.301L507.248 270.441L500.438 270.73L501.111 262.574L507.937 262.301Z" fill="black"/>
<path d="M497.025 221.135C498.755 224.452 498.883 259.225 498.883 268.054H510.661C512.184 258.904 519.715 209.774 509.059 202.755C497.329 195.015 467.588 197.675 467.588 197.675L465.441 193.333L461.146 184.68L436.533 193.894L431.165 195.881L428.954 196.714H428.761C428.761 196.714 428.761 196.954 428.761 197.371C428.841 198.332 429.066 200.271 429.466 202.691C429.931 205.593 430.584 208.462 431.421 211.28C433.697 218.699 437.735 225.702 444.753 223.362C445.058 223.266 445.362 223.138 445.667 223.01C446.244 222.753 446.869 222.513 447.51 222.273C453.135 220.46 458.955 219.314 464.848 218.859C479.718 217.449 495.711 218.571 497.025 221.135Z" fill="#263238"/>
<path d="M511.19 269.079L497.425 269.448L497.345 265.009L512.472 264.384L511.19 269.079Z" fill="#5769F3"/>
<path d="M394.678 333.305H386.377C386.242 333.305 386.112 333.351 386.007 333.436C385.902 333.52 385.829 333.638 385.8 333.769L384.39 339.811C384.356 339.957 384.356 340.109 384.389 340.256C384.423 340.403 384.489 340.54 384.583 340.657C384.677 340.774 384.797 340.868 384.933 340.933C385.068 340.997 385.217 341.03 385.368 341.028C388.044 341.028 389.999 340.82 393.38 340.82C395.447 340.82 401.68 341.044 404.597 341.044C407.513 341.044 407.801 338.208 406.68 337.952C401.456 336.814 397.514 335.228 395.847 333.721C395.69 333.578 395.505 333.467 395.305 333.395C395.104 333.324 394.891 333.293 394.678 333.305Z" fill="#263238"/>
<path d="M455.089 196.65L453.663 201.569C452.91 204.197 451.868 207.771 450.65 211.921L447.606 222.289C442.414 239.835 435.812 261.74 432.158 272.14C424.883 292.779 400.543 329.491 400.543 329.491L388.829 325.196C388.829 325.196 406.808 290.616 412.705 269.688C416.823 255.074 423.281 228.81 427.527 211.168L429.563 202.707C430.252 199.823 430.812 197.467 431.165 195.817C431.517 194.166 431.806 193.108 431.806 193.108L436.533 193.83L455.089 196.65Z" fill="#263238"/>
<path d="M401.808 330.26L388.028 325.196L389.582 321.094L404.276 325.549L401.808 330.26Z" fill="#5769F3"/>
<path opacity="0.2" d="M465.489 193.317L455.089 205.447L453.663 201.569L452.061 197.339L450.602 211.921L431.469 211.296L427.479 211.168L429.514 202.707C429.114 200.287 428.889 198.348 428.809 197.387L428.938 196.666L431.149 195.833C431.566 194.102 431.79 193.124 431.79 193.124L436.517 193.846L461.178 184.68L465.489 193.317Z" fill="black"/>
<path opacity="0.2" d="M464.912 218.875C458.335 219.316 451.857 220.715 445.683 223.026C445.378 223.154 445.074 223.282 444.769 223.378L446.164 216.52C446.164 216.52 458.166 215.959 464.912 218.875Z" fill="black"/>
<path d="M375.416 199.903L371.234 205.447L367.693 198.701C367.693 198.701 371.715 193.974 374.103 196.153L375.416 199.903Z" fill="#FFC2BC"/>
<path d="M364.84 207.979L363.799 201.072L367.693 198.621L371.234 205.447L364.84 207.979Z" fill="#FFC2BC"/>
<path d="M376.554 199.39L375.384 199.983L373.654 195.592L375.513 194.695L376.554 199.39Z" fill="white"/>
<path d="M423.201 159.377C422.592 160.446 421.967 161.471 421.326 162.454C419.713 165.082 418.025 167.667 416.262 170.21L414.804 172.309C413.33 174.424 411.776 176.491 410.109 178.558C409.276 179.584 408.426 180.626 407.481 181.651C406.533 182.725 405.521 183.742 404.452 184.696C400.353 188.185 395.844 191.161 391.024 193.557C386.378 195.958 381.557 198.005 376.602 199.678L374.519 194.999C376.602 193.733 378.766 192.435 380.833 191.089C382.9 189.743 384.999 188.413 387.002 187.003C389.005 185.593 390.976 184.167 392.835 182.677C394.663 181.245 396.397 179.699 398.027 178.046C401.103 174.47 403.875 170.643 406.311 166.604C408.987 162.454 412.368 155.179 415.012 151.029L423.201 159.377Z" fill="#263238"/>
<path opacity="0.2" d="M421.326 162.454C419.713 165.082 418.025 167.667 416.262 170.21C416.441 166.84 417.378 163.553 419.003 160.595C419.968 160.929 420.788 161.585 421.326 162.454Z" fill="black"/>
<path d="M513.209 142.119L508.562 146.446L509.219 150.452C510.918 152.695 514.828 149.923 515.741 149.218C515.886 149.112 516.042 149.021 516.206 148.946L518.673 147.952C519.11 147.771 519.472 147.447 519.702 147.034C519.932 146.621 520.015 146.143 519.939 145.677L519.459 142.728C519.415 142.451 519.315 142.186 519.165 141.949C519.016 141.712 518.82 141.508 518.589 141.349C518.358 141.191 518.098 141.08 517.823 141.025C517.548 140.97 517.265 140.972 516.991 141.03L514.219 141.59C513.838 141.664 513.487 141.848 513.209 142.119Z" fill="#FFC2BC"/>
<path d="M507.489 146.478L508.77 146.157L509.508 150.804L507.489 151.285V146.478Z" fill="white"/>
<path d="M508.562 151.317C503.472 152.395 498.308 153.091 493.115 153.4C487.763 153.816 482.381 153.568 477.09 152.663C475.682 152.394 474.291 152.041 472.924 151.606C471.578 151.189 470.328 150.74 469.078 150.276C466.595 149.362 464.271 148.385 461.851 147.311L459.015 146.029C456.868 145.036 454.753 144.01 452.605 142.936C451.003 142.167 449.513 141.334 447.974 140.501L452.093 130.71C456.499 132.921 461.707 135.918 466.13 138.113C470.281 140.344 474.619 142.21 479.093 143.69C481.337 144.283 483.617 144.728 485.92 145.02C488.291 145.356 490.727 145.564 493.147 145.757C495.566 145.949 498.066 146.061 500.534 146.093C503.002 146.125 505.533 146.205 507.969 146.237L508.562 151.317Z" fill="#263238"/>
<path opacity="0.2" d="M458.967 146.029C456.82 145.036 454.705 144.01 452.557 142.936L451.724 138.385C454.93 140.045 457.483 142.738 458.967 146.029Z" fill="black"/>
<path d="M416.439 150.147C419.087 156.662 421.199 163.383 422.752 170.242C423.906 175.049 427.992 179.856 428.697 184.263C429.37 189.123 430.334 193.939 431.581 198.685C436.469 196.057 451.259 192.804 461.178 187.468C461.595 147.535 450.875 131.96 450.875 131.96C448.153 132.652 445.477 133.514 442.863 134.54L441.132 135.261C436.359 137.513 431.706 140.011 427.191 142.744C426.31 143.273 425.428 143.818 424.579 144.347C420.22 147.199 416.439 150.147 416.439 150.147Z" fill="#5769F3"/>
<path opacity="0.7" d="M416.439 150.147C419.087 156.662 421.199 163.383 422.752 170.242C423.906 175.049 427.992 179.856 428.697 184.263C429.37 189.123 430.334 193.939 431.581 198.685C436.469 196.057 451.259 192.804 461.178 187.468C461.595 147.535 450.875 131.96 450.875 131.96C448.153 132.652 445.477 133.514 442.863 134.54L441.132 135.261C436.359 137.513 431.706 140.011 427.191 142.744C426.31 143.273 425.428 143.818 424.579 144.347C420.22 147.199 416.439 150.147 416.439 150.147Z" fill="white"/>
<path d="M442.702 149.394L443.311 145.693L440.763 145.532L439.209 147.247L442.702 149.394Z" fill="#5769F3"/>
<path d="M440.763 145.532C436.052 148.16 431.389 145.1 428.377 143.001L428.056 142.776C429.386 140.933 429.514 137.969 429.082 134.988C428.57 131.695 427.689 128.47 426.454 125.374L437.238 131.559C437.238 132.296 437.11 132.953 437.078 133.53C436.934 134.924 436.918 135.87 437.687 136.479C438.883 137.146 440.246 137.452 441.613 137.36C442.847 138.786 444 143.722 440.763 145.532Z" fill="#FFC2BC"/>
<path d="M424.643 144.395C424.643 144.395 438.216 158.56 448.151 166.268C448.151 166.268 447.414 141.222 442.927 134.572L452.157 130.71C452.157 130.71 461.034 150.324 462.3 183.077L466.306 191.33L455.089 202.739L451.484 194.278L449.064 208.315L425.925 210.367L428.761 194.342L415.093 151.077L424.643 144.395Z" fill="#263238"/>
<path d="M441.485 148.641C441.485 148.641 444.689 159.57 444.465 165.402L448.599 167.55L449.336 164.345C449.336 164.345 445.699 150.26 442.35 147.792L441.485 148.641Z" fill="#5769F3"/>
<path d="M425.124 143.225C425.124 143.225 442.077 161.829 448.07 166.268C448.07 166.268 446.324 141.078 442.43 134.748C442.43 134.748 445.106 132.905 450.811 138.466L447.958 143.754L453.022 147.247C453.022 147.247 451.291 166.124 447.958 175.081C448.2 173.19 448.307 171.283 448.279 169.376L428.393 158.352L429.274 152.263L421.759 151.942C421.759 151.942 422.592 144.747 425.124 143.225Z" fill="#263238"/>
<path opacity="0.2" d="M425.124 143.225C425.124 143.225 442.077 161.829 448.07 166.268C448.07 166.268 446.324 141.078 442.43 134.748C442.43 134.748 445.106 132.905 450.811 138.466L447.958 143.754L453.022 147.247C453.022 147.247 451.291 166.124 447.958 175.081C448.2 173.19 448.307 171.283 448.279 169.376L428.393 158.352L429.274 152.263L421.759 151.942C421.759 151.942 422.592 144.747 425.124 143.225Z" fill="white"/>
<path d="M494.156 55.7965C494.156 55.7965 484.542 54.7068 479.174 57.2386C473.805 59.7705 468.405 68.023 459.688 68.8082C450.971 69.5934 449.224 66.7571 449.224 66.7571C449.224 66.7571 456.9 80.3777 471.658 80.2335C486.417 80.0892 494.092 77.6536 502.793 83.1339C502.825 83.1339 496.127 60.0429 494.156 55.7965Z" fill="#5769F3"/>
<path opacity="0.2" d="M437.687 136.447C436.79 139.235 434.562 143.177 429.29 143.081C428.986 143.106 428.681 143.106 428.377 143.081L428.056 142.856C429.386 141.014 429.514 138.049 429.082 135.068C431.452 133.535 434.331 132.999 437.094 133.578C436.934 134.892 436.918 135.838 437.687 136.447Z" fill="black"/>
<path d="M440.763 145.532C440.848 147.469 440.434 149.394 439.562 151.125C436.597 150.708 427.736 146.318 427.287 142.648C427.515 141.767 427.994 140.971 428.665 140.357C432.043 143.327 436.282 145.141 440.763 145.532Z" fill="white"/>
<path d="M440.763 145.532C442.413 145.96 443.949 146.742 445.266 147.824C446.099 144.379 442.654 136.094 441.773 135.645C440.336 135.506 438.887 135.749 437.575 136.35C437.575 136.35 442.414 140.869 440.763 145.532Z" fill="white"/>
<path d="M417.032 121.913C416.855 124.653 418.634 129.78 421.711 127.217C424.787 124.653 417.336 117.201 417.032 121.913Z" fill="#263238"/>
<path d="M436.213 120.871C438.2 127.281 439.69 130.998 437.719 135.405C434.738 142.039 425.829 142.023 421.935 136.27C418.442 131.111 415.766 121.432 421.038 116.641C422.203 115.584 423.617 114.839 425.148 114.477C426.679 114.115 428.277 114.146 429.792 114.569C431.308 114.991 432.692 115.791 433.814 116.893C434.937 117.995 435.762 119.364 436.213 120.871Z" fill="#FFC2BC"/>
<path d="M437.238 112.715C436.597 108.516 431.614 109.109 428.697 111.321V119.605C429.822 119.07 430.895 118.432 431.902 117.698C431.902 117.698 433.04 123.9 436.838 125.71C441.677 121.015 442.077 113.772 437.238 112.715Z" fill="#263238"/>
<path d="M440.667 125.214C440.759 126.898 440.183 128.55 439.065 129.813C437.543 131.415 435.588 130.373 435.027 128.306C434.466 126.239 434.69 123.387 436.629 122.505C437.074 122.32 437.557 122.248 438.036 122.295C438.515 122.342 438.975 122.507 439.375 122.775C439.775 123.044 440.103 123.407 440.328 123.832C440.553 124.257 440.67 124.732 440.667 125.214Z" fill="#FFC2BC"/>
<path d="M427.271 126.159C427.463 126.672 427.271 127.185 426.999 127.313C426.726 127.441 426.229 127.12 426.037 126.608C425.845 126.095 426.037 125.582 426.31 125.454C426.582 125.326 427.063 125.646 427.271 126.159Z" fill="#263238"/>
<path d="M421.438 128.29C421.646 128.803 421.518 129.316 421.182 129.444C420.845 129.572 420.413 129.252 420.22 128.739C420.028 128.226 420.14 127.713 420.477 127.585C420.813 127.457 421.23 127.777 421.438 128.29Z" fill="#263238"/>
<path d="M423.377 127.874C423.314 129.622 423.006 131.354 422.464 133.017C422.908 133.129 423.371 133.143 423.822 133.06C424.272 132.977 424.7 132.799 425.076 132.537L423.377 127.874Z" fill="#ED893E"/>
<path d="M428.585 133.498L427.928 133.787C427.888 133.801 427.843 133.8 427.804 133.782C427.765 133.764 427.735 133.731 427.72 133.69C427.705 133.65 427.707 133.605 427.725 133.566C427.743 133.527 427.776 133.497 427.816 133.482C428.461 133.262 429.044 132.894 429.52 132.407C429.996 131.92 430.351 131.327 430.556 130.678C430.56 130.657 430.568 130.636 430.58 130.618C430.592 130.6 430.607 130.585 430.625 130.573C430.643 130.561 430.663 130.553 430.684 130.549C430.705 130.545 430.727 130.545 430.748 130.55C430.769 130.553 430.789 130.561 430.807 130.573C430.824 130.585 430.839 130.601 430.85 130.619C430.86 130.638 430.867 130.658 430.869 130.679C430.871 130.701 430.868 130.722 430.86 130.742C430.689 131.332 430.399 131.881 430.008 132.355C429.617 132.829 429.132 133.218 428.585 133.498Z" fill="#263238"/>
<path d="M428.361 123.627C428.309 123.655 428.251 123.67 428.192 123.67C428.134 123.67 428.076 123.655 428.024 123.627C427.688 123.398 427.301 123.252 426.897 123.202C426.493 123.152 426.083 123.199 425.701 123.339C425.622 123.373 425.533 123.374 425.453 123.343C425.374 123.311 425.31 123.249 425.276 123.171C425.242 123.092 425.241 123.003 425.272 122.923C425.304 122.844 425.366 122.78 425.444 122.746C425.924 122.563 426.441 122.498 426.952 122.556C427.462 122.615 427.951 122.795 428.377 123.082C428.446 123.131 428.495 123.205 428.513 123.288C428.531 123.371 428.517 123.458 428.473 123.531C428.442 123.57 428.404 123.603 428.361 123.627Z" fill="#263238"/>
<path d="M418.233 127.217C418.171 127.24 418.103 127.24 418.041 127.217C417.999 127.213 417.958 127.2 417.921 127.18C417.883 127.16 417.85 127.133 417.823 127.101C417.796 127.068 417.776 127.03 417.764 126.989C417.752 126.949 417.748 126.906 417.753 126.864C417.798 126.349 417.968 125.853 418.247 125.417C418.526 124.982 418.906 124.621 419.355 124.364C419.393 124.345 419.434 124.334 419.476 124.33C419.519 124.327 419.561 124.333 419.601 124.346C419.642 124.359 419.679 124.381 419.711 124.409C419.743 124.437 419.769 124.47 419.788 124.509C419.828 124.583 419.837 124.67 419.813 124.751C419.789 124.832 419.734 124.901 419.66 124.941C419.312 125.149 419.022 125.439 418.812 125.786C418.603 126.132 418.481 126.524 418.458 126.928C418.454 126.993 418.431 127.056 418.391 127.108C418.351 127.159 418.296 127.197 418.233 127.217Z" fill="#263238"/>
<path d="M431.758 117.746C431.758 117.746 427.704 121.929 423.746 121.72C424.813 121.235 425.785 120.562 426.614 119.733C426.614 119.733 418.874 123.082 415.061 121.336C411.247 119.589 411.679 117.698 411.679 117.698C411.679 117.698 412.112 118.804 415.814 118.692C415.814 118.692 412.609 116.593 413.907 113.628C414.092 113.983 414.364 114.285 414.697 114.506C415.031 114.728 415.415 114.861 415.814 114.894C417.069 112.96 418.756 111.343 420.741 110.17C422.726 108.997 424.955 108.299 427.255 108.132C435.572 107.186 437.254 110.471 437.623 112.939C437.991 115.407 431.758 117.746 431.758 117.746Z" fill="#263238"/>
<path d="M298.596 550.418H185.144C184.029 550.418 183.125 551.321 183.125 552.437V578.3C183.125 579.415 184.029 580.319 185.144 580.319H298.596C299.711 580.319 300.615 579.415 300.615 578.3V552.437C300.615 551.321 299.711 550.418 298.596 550.418Z" fill="#5769F3"/>
<path opacity="0.2" d="M193.028 552.148H188.381V578.86H193.028V552.148Z" fill="black"/>
<path opacity="0.2" d="M203.588 552.02H200.207V578.732H203.588V552.02Z" fill="black"/>
<path opacity="0.2" d="M213.299 552.148H211.616V578.86H213.299V552.148Z" fill="black"/>
<path opacity="0.2" d="M226.407 552.02H225.557V578.732H226.407V552.02Z" fill="black"/>
<path opacity="0.2" d="M290.712 578.732H295.359V552.02H290.712V578.732Z" fill="black"/>
<path opacity="0.2" d="M280.152 578.861H283.533V552.148H280.152V578.861Z" fill="black"/>
<path opacity="0.2" d="M270.425 578.732H272.108V552.02H270.425V578.732Z" fill="black"/>
<path opacity="0.2" d="M257.318 578.861H258.167V552.148H257.318V578.861Z" fill="black"/>
<path opacity="0.2" d="M241.662 578.861H242.078V552.148H241.662V578.861Z" fill="black"/>
<path opacity="0.2" d="M297.474 554.968H186.506C186.321 554.97 186.136 554.935 185.964 554.865C185.792 554.795 185.636 554.691 185.505 554.56C185.373 554.429 185.269 554.272 185.199 554.1C185.129 553.928 185.094 553.744 185.096 553.558C185.096 553.184 185.245 552.826 185.509 552.561C185.774 552.297 186.132 552.148 186.506 552.148H297.474C297.848 552.148 298.207 552.297 298.472 552.561C298.736 552.826 298.885 553.184 298.885 553.558C298.887 553.744 298.852 553.928 298.782 554.1C298.712 554.272 298.608 554.429 298.476 554.56C298.345 554.691 298.189 554.795 298.017 554.865C297.845 554.935 297.66 554.97 297.474 554.968Z" fill="white"/>
<path d="M300.199 520.596H186.747C185.632 520.596 184.728 521.5 184.728 522.615V548.479C184.728 549.594 185.632 550.498 186.747 550.498H300.199C301.314 550.498 302.218 549.594 302.218 548.479V522.615C302.218 521.5 301.314 520.596 300.199 520.596Z" fill="#5769F3"/>
<path opacity="0.2" d="M194.631 522.327H189.984V549.039H194.631V522.327Z" fill="black"/>
<path opacity="0.2" d="M205.191 522.199H201.81V548.911H205.191V522.199Z" fill="black"/>
<path opacity="0.2" d="M214.901 522.327H213.219V549.039H214.901V522.327Z" fill="black"/>
<path opacity="0.2" d="M228.025 522.199H227.176V548.911H228.025V522.199Z" fill="black"/>
<path opacity="0.2" d="M292.315 548.895H296.962V522.183H292.315V548.895Z" fill="black"/>
<path opacity="0.2" d="M281.739 549.023H285.12V522.311H281.739V549.023Z" fill="black"/>
<path opacity="0.2" d="M272.028 548.895H273.71V522.183H272.028V548.895Z" fill="black"/>
<path opacity="0.2" d="M258.92 549.023H259.769V522.311H258.92V549.023Z" fill="black"/>
<path opacity="0.2" d="M243.264 549.023H243.681V522.311H243.264V549.023Z" fill="black"/>
<path opacity="0.2" d="M299.077 525.147H188.109C187.735 525.147 187.376 524.999 187.112 524.734C186.847 524.47 186.699 524.111 186.699 523.737C186.697 523.551 186.732 523.367 186.802 523.195C186.872 523.023 186.976 522.867 187.107 522.735C187.238 522.604 187.395 522.5 187.567 522.43C187.739 522.36 187.923 522.325 188.109 522.327H299.077C299.263 522.325 299.447 522.36 299.619 522.43C299.791 522.5 299.947 522.604 300.079 522.735C300.21 522.867 300.314 523.023 300.384 523.195C300.454 523.367 300.489 523.551 300.487 523.737C300.487 524.111 300.338 524.47 300.074 524.734C299.81 524.999 299.451 525.147 299.077 525.147Z" fill="white"/>
<path d="M293.789 490.775H180.337C179.222 490.775 178.318 491.679 178.318 492.794V518.657C178.318 519.773 179.222 520.676 180.337 520.676H293.789C294.904 520.676 295.808 519.773 295.808 518.657V492.794C295.808 491.679 294.904 490.775 293.789 490.775Z" fill="#5769F3"/>
<path opacity="0.2" d="M188.205 492.49H183.558V519.202H188.205V492.49Z" fill="black"/>
<path opacity="0.2" d="M198.781 492.362H195.4V519.074H198.781V492.362Z" fill="black"/>
<path opacity="0.2" d="M208.492 492.49H206.809V519.202H208.492V492.49Z" fill="black"/>
<path opacity="0.2" d="M221.6 492.362H220.75V519.074H221.6V492.362Z" fill="black"/>
<path opacity="0.2" d="M285.889 519.074H290.536V492.362H285.889V519.074Z" fill="black"/>
<path opacity="0.2" d="M275.345 519.202H278.726V492.49H275.345V519.202Z" fill="black"/>
<path opacity="0.2" d="M265.618 519.074H267.301V492.362H265.618V519.074Z" fill="black"/>
<path opacity="0.2" d="M252.51 519.202H253.36V492.49H252.51V519.202Z" fill="black"/>
<path opacity="0.2" d="M236.855 519.202H237.271V492.49H236.855V519.202Z" fill="black"/>
<path opacity="0.2" d="M292.667 495.31H181.699C181.513 495.312 181.329 495.277 181.157 495.207C180.985 495.137 180.829 495.033 180.697 494.902C180.566 494.77 180.462 494.614 180.392 494.442C180.322 494.27 180.287 494.086 180.289 493.9C180.289 493.526 180.437 493.167 180.702 492.903C180.966 492.638 181.325 492.49 181.699 492.49H292.667C293.04 492.494 293.396 492.644 293.66 492.907C293.923 493.171 294.073 493.527 294.077 493.9C294.077 494.274 293.929 494.633 293.664 494.897C293.4 495.161 293.041 495.31 292.667 495.31Z" fill="white"/>
<path d="M229.884 471.001L226.663 478.933L224.227 484.926L218.106 482.747L220.302 477.363L223.763 468.806L229.884 471.001Z" fill="#E4897B"/>
<path d="M360.706 428.537L355.498 432.399L353.591 428.168L349.169 418.394L354.377 414.516L358.559 423.778L360.706 428.537Z" fill="#E4897B"/>
<path opacity="0.2" d="M223.763 468.806L229.884 471.001L226.663 478.933L220.302 477.363L223.763 468.806Z" fill="black"/>
<path opacity="0.2" d="M358.559 423.778L353.591 428.168L349.169 418.394L354.377 414.516L358.559 423.778Z" fill="black"/>
<path d="M275.826 251.389C276.002 251.885 276.402 252.19 276.723 252.078C277.043 251.966 277.172 251.469 276.995 250.972C276.819 250.475 276.419 250.171 276.098 250.283C275.778 250.395 275.617 250.892 275.826 251.389Z" fill="#263238"/>
<path d="M276.354 252.206C277.475 253.504 278.769 254.642 280.2 255.587C279.952 255.95 279.627 256.254 279.247 256.475C278.867 256.697 278.443 256.832 278.005 256.869L276.354 252.206Z" fill="#DE5753"/>
<path d="M273.053 249.29C272.98 249.311 272.902 249.311 272.829 249.29C272.776 249.233 272.747 249.159 272.747 249.081C272.747 249.004 272.776 248.929 272.829 248.873C273.097 248.467 273.458 248.13 273.881 247.891C274.305 247.651 274.779 247.516 275.265 247.495C275.347 247.499 275.424 247.534 275.481 247.594C275.538 247.654 275.569 247.733 275.569 247.815C275.569 247.857 275.561 247.898 275.545 247.936C275.528 247.974 275.505 248.008 275.475 248.036C275.445 248.065 275.409 248.087 275.37 248.101C275.331 248.116 275.29 248.122 275.249 248.12C274.863 248.136 274.487 248.245 274.152 248.438C273.817 248.63 273.534 248.9 273.326 249.225C273.287 249.254 273.243 249.275 273.196 249.286C273.149 249.297 273.101 249.298 273.053 249.29Z" fill="#263238"/>
<path d="M263.968 259.465C264.048 264.272 263.439 273.021 259.609 275.569C259.609 275.569 260.042 280.537 268.727 282.075C278.341 283.79 274.143 278.149 274.143 278.149C269.159 275.986 269.977 272.14 271.531 268.663L263.968 259.465Z" fill="#E4897B"/>
<path d="M259 256.148C261.5 262.077 262.67 265.762 266.836 267.717C273.085 270.762 279.655 265.346 278.902 258.792C278.293 252.879 274.287 244.178 267.493 243.857C265.998 243.781 264.509 244.088 263.166 244.749C261.823 245.41 260.671 246.404 259.82 247.635C258.969 248.867 258.447 250.295 258.304 251.785C258.16 253.275 258.4 254.777 259 256.148Z" fill="#E4897B"/>
<path d="M263.231 265.794C266.051 266.932 274.912 260.587 271.884 253.28C271.884 253.28 274.912 248.392 273.823 243.665C272.733 238.938 269.176 237.512 265.81 239.05C262.83 240.396 263.15 242.079 263.15 242.079C263.15 242.079 248.729 245.86 252.671 251.389C247.591 258.696 259.689 264.4 263.231 265.794Z" fill="#263238"/>
<path d="M269.512 254.946C270.147 256.415 271.244 257.636 272.637 258.423C274.496 259.433 275.569 258.023 275.185 256.148C274.8 254.273 273.47 251.902 271.547 251.661C269.624 251.421 268.775 253.183 269.512 254.946Z" fill="#E4897B"/>
<path d="M257.302 275.617C256.629 274.271 255.892 272.733 257.526 272.316C259.16 271.9 270.762 271.227 274.079 272.316C272.989 274.127 274.672 276.435 274.672 276.435L257.302 275.617Z" fill="#5769F3"/>
<path opacity="0.5" d="M257.302 275.617C256.629 274.271 255.892 272.733 257.526 272.316C259.16 271.9 270.762 271.227 274.079 272.316C272.989 274.127 274.672 276.435 274.672 276.435L257.302 275.617Z" fill="#FAFAFA"/>
<path d="M224.644 482.33H217.561C217.433 482.331 217.309 482.377 217.21 482.458C217.11 482.54 217.042 482.653 217.017 482.779L215.735 488.548C215.7 488.687 215.698 488.832 215.729 488.973C215.76 489.113 215.823 489.244 215.913 489.356C216.003 489.467 216.117 489.557 216.248 489.617C216.378 489.677 216.521 489.706 216.664 489.702C219.212 489.702 222.913 489.509 226.118 489.509C229.884 489.509 233.121 489.718 237.528 489.718C240.204 489.718 240.941 487.025 239.819 486.785C234.739 485.663 230.605 485.551 226.214 482.843C225.747 482.533 225.204 482.356 224.644 482.33Z" fill="#263238"/>
<path d="M270.473 332.904C270.473 332.904 268.454 346.509 266.003 362.148C264.929 368.847 263.775 375.913 262.638 382.451C261.372 389.774 260.138 396.408 259.112 401.087C254.642 421.438 230.91 477.523 230.91 477.523L219.292 475.007C219.292 475.007 235.893 431.373 239.595 402.898C242.463 381.057 248.088 332.888 248.088 332.888L270.473 332.904Z" fill="#263238"/>
<path d="M233.682 473.629L231.519 477.828L218.443 474.991L219.532 471.113L233.682 473.629Z" fill="#5769F3"/>
<path opacity="0.3" d="M233.682 473.629L231.519 477.828L218.443 474.991L219.532 471.113L233.682 473.629Z" fill="black"/>
<path opacity="0.2" d="M266.003 362.148C264.929 368.847 263.775 375.913 262.638 382.451C259.433 369.52 260.474 361.78 260.474 361.78L266.003 362.148Z" fill="black"/>
<path d="M251.485 287.491C248.36 290.44 245.075 293.565 242.095 296.689C239.083 299.749 236.227 302.957 233.538 306.304C232.39 307.962 231.357 309.697 230.445 311.496C229.451 313.435 228.442 315.406 227.481 317.425L221.6 329.571L216.985 327.969C217.978 323.466 219.244 319.075 220.622 314.669C221.343 312.473 222.112 310.278 222.962 308.083C223.857 305.722 224.956 303.443 226.247 301.272C228.851 297.3 231.777 293.548 234.996 290.055C238.109 286.561 241.426 283.254 244.931 280.152L251.485 287.491Z" fill="#DC897C"/>
<path d="M216.6 339.827L218.956 335.644L211.777 333.465C211.372 334.433 211.174 335.474 211.196 336.523C211.218 337.572 211.46 338.604 211.905 339.554L216.6 339.827Z" fill="#E4897B"/>
<path d="M221.583 329.507L216.984 328.017L211.777 333.465L218.955 335.644L221.583 329.507Z" fill="#E4897B"/>
<path d="M360.626 427.656L354.777 431.998C354.675 432.077 354.602 432.187 354.57 432.312C354.538 432.437 354.549 432.569 354.601 432.687L357.005 438.087C357.061 438.22 357.148 438.337 357.258 438.43C357.368 438.523 357.498 438.589 357.638 438.623C357.778 438.657 357.923 438.659 358.064 438.627C358.204 438.595 358.335 438.531 358.447 438.44C360.466 436.838 361.379 436.036 363.943 434.129C365.546 432.96 369.199 430.38 371.394 428.761C373.59 427.143 372.26 424.755 371.218 425.236C366.555 427.335 363.863 427.56 361.716 427.351C361.328 427.317 360.94 427.425 360.626 427.656Z" fill="#263238"/>
<path d="M248.696 276.226C242.463 275.842 233.265 289.318 233.265 289.318L242.335 301.705C246.315 299.383 249.628 296.071 251.949 292.09C256.26 284.815 255.058 276.627 248.696 276.226Z" fill="#5769F3"/>
<path opacity="0.6" d="M248.696 276.226C242.463 275.842 233.265 289.318 233.265 289.318L242.335 301.705C246.315 299.383 249.628 296.071 251.949 292.09C256.26 284.815 255.058 276.627 248.696 276.226Z" fill="#FAFAFA"/>
<path opacity="0.2" d="M250.459 288.661C246.373 290.856 243.649 296.257 241.934 301.144L242.335 301.705C246.315 299.383 249.628 296.071 251.949 292.09C252.206 291.674 252.446 291.225 252.671 290.792L250.459 288.661Z" fill="black"/>
<path d="M285.584 275.233C285.584 275.233 289.318 284.623 282.78 332.92H248.088C247.847 327.584 251.196 301.593 246.052 276.499C249.889 275.754 253.77 275.262 257.67 275.025C262.109 274.816 276.899 271.82 280.809 272.188C285.953 272.637 285.584 275.233 285.584 275.233Z" fill="#5769F3"/>
<path opacity="0.6" d="M286.402 296.529C285.985 305.07 284.943 316.832 282.78 332.904H248.088C247.847 327.568 251.196 301.577 246.052 276.483C249.889 275.738 253.77 275.246 257.67 275.008C262.109 274.8 276.899 271.804 280.809 272.172C285.953 272.637 285.616 275.233 285.616 275.233C285.616 275.233 286.402 277.204 286.61 283.982C286.69 287.075 286.674 291.161 286.402 296.529Z" fill="#FAFAFA"/>
<path d="M281.37 330.1L288.228 346.124C288.228 346.124 321.447 350.29 330.869 361.716C340.291 373.141 358.11 419.499 358.11 419.499L349.233 427.047C349.233 427.047 323.754 380.192 316.623 374.535C309.493 368.879 268.903 368.895 259.833 365.513C250.764 362.132 248.152 332.856 248.152 332.856L281.37 330.1Z" fill="#263238"/>
<path d="M347.342 426.165L358.046 417.961L359.424 420.605L349.169 428.697L347.342 426.165Z" fill="#5769F3"/>
<path opacity="0.3" d="M347.342 426.165L358.046 417.961L359.424 420.605L349.169 428.697L347.342 426.165Z" fill="black"/>
<path d="M274.015 245.972C274.015 245.972 273.614 236.454 268.583 236.134C263.551 235.813 259.593 240.364 259.593 240.364C259.106 239.757 258.489 239.266 257.787 238.928C257.086 238.589 256.318 238.412 255.539 238.409C252.687 238.249 247.719 243.104 247.719 243.104C247.719 243.104 253.92 239.29 256.532 241.037C256.532 241.037 249.498 242.992 247.719 247.447C246.956 249.71 245.697 251.774 244.033 253.488H247.719L245.299 257.606C245.299 257.606 250.395 262.526 254.241 261.708L253.007 264.048C253.007 264.048 260.554 266.804 263.631 265.955C266.708 265.105 263.791 249.786 263.791 249.786L274.015 245.972Z" fill="#263238"/>
<path opacity="0.2" d="M286.402 296.529C280.104 292.251 280.2 282.396 280.2 282.396L286.61 283.998C286.69 287.075 286.674 291.161 286.402 296.529Z" fill="black"/>
<path d="M228.314 345.179L185.513 337.984L174.44 370.93L181.523 383.797L228.25 389.951L237.72 354.056L228.314 345.179Z" fill="#5769F3"/>
<path opacity="0.4" d="M174.44 370.93L177.196 375.945L177.821 377.051L181.523 383.797L228.25 389.951L237.72 354.056L233.698 350.274L232.464 349.105L228.33 345.179L185.513 337.984L174.44 370.93Z" fill="black"/>
<path opacity="0.2" d="M237.72 354.056L195.352 347.47L185.513 337.984L228.33 345.179L237.72 354.056Z" fill="white"/>
<path opacity="0.1" d="M195.352 347.47L181.523 383.797L174.44 370.93L185.513 337.984L195.352 347.47Z" fill="white"/>
<path d="M177.196 375.945L177.821 377.051L190.625 343.031L233.698 350.274L232.464 349.105L189.855 342.278L177.196 375.945Z" fill="#263238"/>
<path d="M219.244 347.134L217.081 345.131L206.296 343.176L208.187 345.355L219.244 347.134Z" fill="#263238"/>
<path d="M223.41 347.935C223.41 347.935 223.907 336.622 223.602 335.869C223.298 335.115 208.123 332.664 206.985 332.423C205.848 332.183 200.848 343.208 200.848 343.208L201.713 344.538L204.582 344.922C204.582 344.922 208.219 335.42 208.588 335.18C212.746 335.622 216.876 336.296 220.958 337.199C221.279 337.455 220.029 346.092 220.029 346.092L221.007 347.502L223.41 347.935Z" fill="#263238"/>
<path d="M177.34 365.914L180.545 370.032L180.85 369.215L183.269 362.805L183.558 362.036L184.071 360.658C184.071 360.658 183.157 361.684 181.907 362.854C180.611 364.176 179.057 365.218 177.34 365.914Z" fill="#5769F3"/>
<path opacity="0.2" d="M178.382 366.219L180.77 369.215L183.189 362.805L183.478 362.036C182.15 363.829 180.399 365.266 178.382 366.219Z" fill="white"/>
<path opacity="0.2" d="M181.827 362.837H183.189L183.991 360.69C183.991 360.69 183.077 361.668 181.827 362.837Z" fill="black"/>
<path d="M176.171 357.854L175.578 363.655C177.973 362.56 180.639 362.203 183.237 362.629L183.542 361.828L185.401 356.844L185.609 356.332C182.384 356.014 179.132 356.539 176.171 357.854Z" fill="#5769F3"/>
<path d="M182.26 348.015C183.379 350.197 184.852 352.179 186.618 353.88L186.843 353.271L187.42 351.669L188.381 349.025L188.846 347.743L188.974 347.374C188.206 346.2 187.542 344.961 186.987 343.672L182.26 348.015Z" fill="#5769F3"/>
<path d="M192.067 340.548C192.651 341.463 193.104 342.455 193.413 343.496L194.086 343.608L195.015 343.753L196.505 344.025L197.932 344.265L198.428 344.345C198.403 342.12 197.572 339.98 196.089 338.32L192.067 340.548Z" fill="#5769F3"/>
<path opacity="0.2" d="M192.964 340.708C193.442 341.631 193.819 342.604 194.086 343.608L195.015 343.753C194.937 343.63 194.886 343.492 194.867 343.348C194.847 343.204 194.86 343.058 194.903 342.919C194.945 342.793 195.011 342.676 195.098 342.575C195.185 342.474 195.291 342.391 195.411 342.332C195.53 342.272 195.659 342.237 195.792 342.228C195.925 342.219 196.059 342.236 196.185 342.278C196.311 342.318 196.428 342.383 196.528 342.468C196.629 342.554 196.712 342.659 196.771 342.777C196.831 342.895 196.867 343.023 196.876 343.155C196.885 343.287 196.868 343.419 196.826 343.544C196.767 343.732 196.656 343.899 196.505 344.025L197.932 344.265C197.847 342.38 197.193 340.564 196.057 339.057L192.964 340.708Z" fill="white"/>
<path opacity="0.2" d="M176.555 358.078L176.187 362.773C178.553 361.978 181.052 361.657 183.542 361.828L185.401 356.844C182.395 356.48 179.346 356.905 176.555 358.078ZM181.699 357.694C181.892 357.627 182.097 357.605 182.299 357.63C182.501 357.655 182.695 357.726 182.865 357.838C183.036 357.95 183.178 358.099 183.281 358.275C183.385 358.45 183.446 358.647 183.462 358.851C183.477 359.054 183.445 359.258 183.369 359.447C183.293 359.636 183.175 359.805 183.023 359.941C182.871 360.077 182.69 360.176 182.494 360.231C182.298 360.286 182.092 360.295 181.891 360.258C181.699 360.324 181.494 360.346 181.292 360.321C181.089 360.296 180.896 360.225 180.725 360.113C180.555 360.001 180.413 359.852 180.309 359.676C180.206 359.501 180.144 359.304 180.129 359.101C180.114 358.897 180.145 358.693 180.221 358.504C180.297 358.315 180.416 358.146 180.568 358.011C180.719 357.875 180.9 357.775 181.096 357.72C181.293 357.665 181.499 357.656 181.699 357.694Z" fill="white"/>
<path opacity="0.2" d="M183.077 348.271C184.131 350.081 185.395 351.759 186.843 353.271L187.42 351.669C187.092 351.536 186.829 351.282 186.685 350.959C186.542 350.636 186.529 350.27 186.651 349.938C186.751 349.609 186.972 349.329 187.268 349.154C187.565 348.979 187.916 348.921 188.253 348.993L188.718 347.711C187.904 346.81 187.243 345.781 186.763 344.666L183.077 348.271Z" fill="white"/>
<path d="M326.462 244.947L328.93 240.829L334.378 245.989C333.737 246.818 332.93 247.504 332.008 248.004C331.087 248.503 330.071 248.805 329.026 248.889L326.462 244.947Z" fill="#E4897B"/>
<path d="M332.744 235.316L336.606 240.749L334.378 245.989L328.93 240.829L332.744 235.316Z" fill="#E4897B"/>
<path d="M283.822 272.989C288.256 272.079 292.642 270.946 296.962 269.592C301.124 268.358 305.117 266.614 308.852 264.4C309.193 264.187 309.519 263.951 309.829 263.695L310.935 262.67C311.704 261.933 312.537 261.067 313.258 260.298C314.781 258.6 316.351 256.853 317.857 255.058C320.95 251.501 323.963 247.799 327.071 244.194L331.125 246.886C328.898 251.228 326.43 255.363 323.818 259.481C322.488 261.516 321.126 263.567 319.62 265.57C318.867 266.564 318.018 267.573 317.216 268.583C316.8 269.079 316.271 269.592 315.806 270.105C315.233 270.673 314.629 271.208 313.995 271.707C309.741 274.76 305.06 277.168 300.102 278.854C295.363 280.569 290.484 281.872 285.52 282.748L283.822 272.989Z" fill="#DC897C"/>
<path d="M281.755 286.995C288.501 292.843 303.323 282.812 303.323 282.812L297.41 268.214C291.971 268.848 286.605 270.002 281.386 271.659C272.012 274.848 276.595 282.54 281.755 286.995Z" fill="#5769F3"/>
<path opacity="0.6" d="M281.755 286.995C288.501 292.843 303.323 282.812 303.323 282.812L297.41 268.214C291.971 268.848 286.605 270.002 281.386 271.659C272.012 274.848 276.595 282.54 281.755 286.995Z" fill="#FAFAFA"/>
</svg>
