<svg width="30" height="31" viewBox="0 0 30 31" fill="none" xmlns="http://www.w3.org/2000/svg">
<g clip-path="url(#clip0_473_5111)">
<path fill-rule="evenodd" clip-rule="evenodd" d="M25.6288 4.83282C22.8091 2.02504 19.0588 0.477987 15.063 0.476562C6.82925 0.476562 0.128205 7.13988 0.12534 15.3303C0.123908 17.9486 0.812205 20.5042 2.11933 22.7565L0 30.4547L7.91863 28.3891C10.1003 29.5729 12.5569 30.1961 15.0566 30.1969H15.063C23.2953 30.1969 29.9972 23.5328 30 15.3424C30.0014 11.3729 28.4493 7.64132 25.6288 4.83353V4.83282ZM15.063 27.6882H15.058C12.8305 27.6876 10.6453 27.092 8.73875 25.9674L8.28535 25.6996L3.58617 26.9254L4.84028 22.3689L4.54519 21.9017C3.30253 19.9359 2.64575 17.6637 2.64718 15.331C2.65005 8.52382 8.21945 2.98518 15.0681 2.98518C18.3842 2.98661 21.5012 4.27227 23.8454 6.60638C26.1897 8.93979 27.4796 12.0425 27.4782 15.341C27.4753 22.1489 21.9059 27.6876 15.063 27.6876V27.6882ZM21.8729 18.4415C21.4998 18.2556 19.6648 17.3581 19.3224 17.2342C18.9801 17.1102 18.7316 17.0483 18.483 17.4201C18.2345 17.7919 17.519 18.6281 17.3013 18.8753C17.0835 19.1231 16.8657 19.1538 16.4926 18.9678C16.1195 18.7819 14.9169 18.3902 13.4909 17.1259C12.3815 16.1415 11.6323 14.9265 11.4146 14.5546C11.1968 14.1828 11.3917 13.9819 11.5778 13.7975C11.7454 13.6308 11.951 13.3637 12.1379 13.1472C12.3249 12.9306 12.3865 12.7754 12.5111 12.5282C12.6357 12.2803 12.5734 12.0639 12.4803 11.8779C12.3872 11.692 11.6409 9.86499 11.3293 9.12212C11.0263 8.39846 10.7184 8.49676 10.4899 8.48465C10.2722 8.47396 10.0237 8.47183 9.77442 8.47183C9.52517 8.47183 9.12117 8.56442 8.77883 8.93623C8.4365 9.308 7.47242 10.2062 7.47242 12.0324C7.47242 13.8587 8.80967 15.6245 8.99658 15.8724C9.1835 16.1202 11.6287 19.8689 15.3724 21.4772C16.2628 21.8597 16.9582 22.0883 17.5003 22.2593C18.3943 22.5421 19.2078 22.5022 19.851 22.4067C20.568 22.2999 22.0592 21.5086 22.37 20.6417C22.6808 19.7749 22.6808 19.0312 22.5878 18.8767C22.4947 18.7221 22.2454 18.6288 21.8723 18.4429L21.8729 18.4415Z" fill="#666666"/>
</g>
<defs>
<clipPath id="clip0_473_5111">
<rect width="30" height="30" fill="white" transform="translate(0 0.476562)"/>
</clipPath>
</defs>
</svg>
